<svg width="707" height="160" viewBox="0 0 707 160" fill="none" xmlns="http://www.w3.org/2000/svg">
<g clip-path="url(#clip0_252_518)">
<g clip-path="url(#clip1_252_518)">
<rect width="707" height="40" fill="#86A2FF" fill-opacity="0.2"/>
<mask id="path-3-inside-1_252_518" fill="white">
<path d="M0 0H70.7V40H0V0Z"/>
</mask>
<path d="M0 0V-1H-1V0H0ZM0 1H70.7V-1H0V1ZM1 40V0H-1V40H1Z" fill="white" fill-opacity="0.2" mask="url(#path-3-inside-1_252_518)"/>
<path d="M18.1406 23H17.4844V18.6562H17.457L15.6602 22.9609H15.0664L13.2695 18.6562H13.2422V23H12.5859V17.3633H13.4023L15.3477 22.0664H15.3789L17.3242 17.3633H18.1406V23ZM20.8906 23.0703C19.7656 23.0703 19.0078 22.2617 19.0078 20.9688C19.0078 19.6719 19.7656 18.8672 20.8906 18.8672C22.0117 18.8672 22.7695 19.6719 22.7695 20.9688C22.7695 22.2617 22.0117 23.0703 20.8906 23.0703ZM20.8906 22.4727C21.6094 22.4727 22.0781 21.9258 22.0781 20.9688C22.0781 20.0117 21.6094 19.4648 20.8906 19.4648C20.1719 19.4648 19.6992 20.0117 19.6992 20.9688C19.6992 21.9258 20.1719 22.4727 20.8906 22.4727ZM26.1406 22.4414V19.4961H24.6172L24.4922 21.207C24.457 21.7109 24.3516 22.1523 24.1602 22.4102V22.4414H26.1406ZM23.6758 24.0742H23.043V22.4414H23.3828C23.6797 22.2461 23.8242 21.7383 23.8633 21.1914L24.0195 18.9375H26.8164V22.4414H27.4609V24.0742H26.8281V23H23.6758V24.0742ZM29.7031 19.457C29.0664 19.457 28.6211 19.9453 28.5781 20.6211H30.7852C30.7695 19.9414 30.3438 19.457 29.7031 19.457ZM30.7695 21.8359H31.4375C31.3203 22.5469 30.6328 23.0703 29.7461 23.0703C28.582 23.0703 27.875 22.2617 27.875 20.9844C27.875 19.7227 28.5938 18.8672 29.7148 18.8672C30.8125 18.8672 31.4883 19.6641 31.4883 20.8945V21.1523H28.5742V21.1914C28.5742 21.9688 29.0312 22.4805 29.7617 22.4805C30.2773 22.4805 30.6562 22.2188 30.7695 21.8359ZM33.1719 21.207C33.0898 22.3281 32.8203 23.0352 31.9648 23.0352C31.8477 23.0352 31.7695 23.0117 31.7227 22.9922V22.3789C31.7578 22.3906 31.832 22.4102 31.9297 22.4102C32.332 22.4102 32.4844 21.9375 32.5352 21.1914L32.6914 18.9375H35.3516V23H34.6797V19.4961H33.2969L33.1719 21.207ZM37.7422 20.793H36.9844V22.4414H37.7422C38.2695 22.4414 38.6094 22.1133 38.6094 21.6172C38.6094 21.1172 38.2656 20.793 37.7422 20.793ZM36.3125 23V18.9375H36.9844V20.2344H37.7539C38.6836 20.2344 39.2812 20.7695 39.2812 21.6172C39.2812 22.4648 38.6836 23 37.7539 23H36.3125Z" fill="white"/>
<mask id="path-6-inside-2_252_518" fill="white">
<path d="M70.7002 0H141.4V40H70.7002V0Z"/>
</mask>
<path d="M70.7002 0V-1H69.7002V0H70.7002ZM70.7002 1H141.4V-1H70.7002V1ZM71.7002 40V0H69.7002V40H71.7002Z" fill="white" fill-opacity="0.2" mask="url(#path-6-inside-2_252_518)"/>
<path d="M95.1479 16.4492H95.8549C95.9213 17.0586 96.4994 17.4609 97.3041 17.4609C98.0658 17.4609 98.6205 17.0586 98.6205 16.5039C98.6205 16.0273 98.2885 15.7344 97.5307 15.5391L96.808 15.3516C95.7689 15.0859 95.308 14.6289 95.308 13.8633C95.308 12.9258 96.1283 12.2695 97.3002 12.2695C98.4213 12.2695 99.2338 12.9336 99.265 13.8789H98.5619C98.4994 13.2734 98.0111 12.9023 97.2768 12.9023C96.5463 12.9023 96.0385 13.2812 96.0385 13.832C96.0385 14.2578 96.351 14.5117 97.1166 14.7109L97.7064 14.8672C98.8744 15.1602 99.3471 15.6094 99.3471 16.418C99.3471 17.4492 98.5346 18.0938 97.2377 18.0938C96.0424 18.0938 95.2143 17.4453 95.1479 16.4492ZM100.871 12.9883V15.1484H102.218C102.941 15.1484 103.351 14.7578 103.351 14.0664C103.351 13.3906 102.913 12.9883 102.187 12.9883H100.871ZM100.871 15.7695V18H100.167V12.3633H102.281C103.367 12.3633 104.078 13.0273 104.078 14.043C104.078 14.8281 103.652 15.4375 102.945 15.6602L104.249 18H103.425L102.218 15.7695H100.871ZM107.093 18H106.39V12.9961H104.613V12.3633H108.871V12.9961H107.093V18ZM110.671 15.3984V14.8047H111.347C111.996 14.8047 112.449 14.3867 112.449 13.8164C112.449 13.2578 112.07 12.8789 111.355 12.8789C110.706 12.8789 110.277 13.25 110.214 13.8398H109.538C109.617 12.8828 110.328 12.2695 111.386 12.2695C112.394 12.2695 113.156 12.875 113.156 13.7227C113.156 14.4297 112.703 14.9375 111.999 15.0625V15.0781C112.851 15.1289 113.398 15.6562 113.398 16.4492C113.398 17.418 112.515 18.0938 111.41 18.0938C110.23 18.0938 109.476 17.4414 109.425 16.5078H110.101C110.163 17.0859 110.644 17.4844 111.402 17.4844C112.148 17.4844 112.683 17.0625 112.683 16.4727C112.683 15.8086 112.183 15.3984 111.378 15.3984H110.671ZM116.796 16.0312H114.234V15.3984H116.796V16.0312ZM101.913 28V26.8281H99.0814V26.1914C99.5619 25.3008 100.222 24.2734 101.554 22.3633H102.593V26.2109H103.39V26.8281H102.593V28H101.913ZM99.7768 26.1953V26.2109H101.913V22.9492H101.902C100.835 24.4727 100.222 25.4141 99.7768 26.1953ZM106.05 28.0938C104.734 28.0938 103.972 26.9609 103.972 25.1797C103.972 23.4141 104.742 22.2695 106.05 22.2695C107.359 22.2695 108.121 23.4062 108.121 25.1758C108.121 26.957 107.363 28.0938 106.05 28.0938ZM106.05 27.4805C106.929 27.4805 107.413 26.5859 107.413 25.1797C107.413 23.793 106.921 22.8867 106.05 22.8867C105.179 22.8867 104.679 23.8008 104.679 25.1758C104.679 26.582 105.167 27.4805 106.05 27.4805ZM110.902 28.0938C109.585 28.0938 108.824 26.9609 108.824 25.1797C108.824 23.4141 109.593 22.2695 110.902 22.2695C112.21 22.2695 112.972 23.4062 112.972 25.1758C112.972 26.957 112.214 28.0938 110.902 28.0938ZM110.902 27.4805C111.781 27.4805 112.265 26.5859 112.265 25.1797C112.265 23.793 111.773 22.8867 110.902 22.8867C110.031 22.8867 109.531 23.8008 109.531 25.1758C109.531 26.582 110.019 27.4805 110.902 27.4805Z" fill="white"/>
<mask id="path-9-inside-3_252_518" fill="white">
<path d="M141.4 0H212.1V40H141.4V0Z"/>
</mask>
<path d="M141.4 0V-1H140.4V0H141.4ZM141.4 1H212.1V-1H141.4V1ZM142.4 40V0H140.4V40H142.4Z" fill="white" fill-opacity="0.2" mask="url(#path-9-inside-3_252_518)"/>
<path d="M165.957 16.4492H166.664C166.73 17.0586 167.308 17.4609 168.113 17.4609C168.875 17.4609 169.43 17.0586 169.43 16.5039C169.43 16.0273 169.098 15.7344 168.34 15.5391L167.617 15.3516C166.578 15.0859 166.117 14.6289 166.117 13.8633C166.117 12.9258 166.937 12.2695 168.109 12.2695C169.23 12.2695 170.043 12.9336 170.074 13.8789H169.371C169.308 13.2734 168.82 12.9023 168.086 12.9023C167.355 12.9023 166.848 13.2812 166.848 13.832C166.848 14.2578 167.16 14.5117 167.926 14.7109L168.516 14.8672C169.683 15.1602 170.156 15.6094 170.156 16.418C170.156 17.4492 169.344 18.0938 168.047 18.0938C166.851 18.0938 166.023 17.4453 165.957 16.4492ZM171.68 12.9883V15.1484H173.027C173.75 15.1484 174.16 14.7578 174.16 14.0664C174.16 13.3906 173.723 12.9883 172.996 12.9883H171.68ZM171.68 15.7695V18H170.976V12.3633H173.09C174.176 12.3633 174.887 13.0273 174.887 14.043C174.887 14.8281 174.461 15.4375 173.754 15.6602L175.058 18H174.234L173.027 15.7695H171.68ZM177.902 18H177.199V12.9961H175.422V12.3633H179.68V12.9961H177.902V18ZM182.098 18.0977C181.254 18.0977 180.582 17.6406 180.234 16.8281C180.047 16.3945 179.957 15.8867 179.957 15.2773C179.957 13.3789 180.766 12.2656 182.144 12.2656C183.101 12.2656 183.836 12.8398 184.016 13.7266H183.301C183.148 13.2148 182.695 12.8867 182.137 12.8867C181.195 12.8867 180.66 13.7227 180.637 15.2227H180.648C180.902 14.6719 181.523 14.3086 182.223 14.3086C183.297 14.3086 184.094 15.1016 184.094 16.1719C184.094 17.2852 183.254 18.0977 182.098 18.0977ZM182.09 17.4727C182.808 17.4727 183.379 16.9062 183.379 16.1953C183.379 15.457 182.848 14.9258 182.101 14.9258C181.355 14.9258 180.805 15.457 180.805 16.1758C180.805 16.8984 181.367 17.4727 182.09 17.4727ZM187.387 16.0312H184.824V15.3984H187.387V16.0312ZM172 28.0977C171.156 28.0977 170.484 27.6406 170.137 26.8281C169.949 26.3945 169.859 25.8867 169.859 25.2773C169.859 23.3789 170.668 22.2656 172.047 22.2656C173.004 22.2656 173.738 22.8398 173.918 23.7266H173.203C173.051 23.2148 172.598 22.8867 172.039 22.8867C171.098 22.8867 170.562 23.7227 170.539 25.2227H170.551C170.805 24.6719 171.426 24.3086 172.125 24.3086C173.199 24.3086 173.996 25.1016 173.996 26.1719C173.996 27.2852 173.156 28.0977 172 28.0977ZM171.992 27.4727C172.711 27.4727 173.281 26.9062 173.281 26.1953C173.281 25.457 172.75 24.9258 172.004 24.9258C171.258 24.9258 170.707 25.457 170.707 26.1758C170.707 26.8984 171.269 27.4727 171.992 27.4727ZM176.723 28.0938C175.406 28.0938 174.644 26.9609 174.644 25.1797C174.644 23.4141 175.414 22.2695 176.723 22.2695C178.031 22.2695 178.793 23.4062 178.793 25.1758C178.793 26.957 178.035 28.0938 176.723 28.0938ZM176.723 27.4805C177.601 27.4805 178.086 26.5859 178.086 25.1797C178.086 23.793 177.594 22.8867 176.723 22.8867C175.851 22.8867 175.351 23.8008 175.351 25.1758C175.351 26.582 175.84 27.4805 176.723 27.4805ZM181.574 28.0938C180.258 28.0938 179.496 26.9609 179.496 25.1797C179.496 23.4141 180.266 22.2695 181.574 22.2695C182.883 22.2695 183.644 23.4062 183.644 25.1758C183.644 26.957 182.887 28.0938 181.574 28.0938ZM181.574 27.4805C182.453 27.4805 182.937 26.5859 182.937 25.1797C182.937 23.793 182.445 22.8867 181.574 22.8867C180.703 22.8867 180.203 23.8008 180.203 25.1758C180.203 26.582 180.691 27.4805 181.574 27.4805Z" fill="white"/>
<mask id="path-12-inside-4_252_518" fill="white">
<path d="M212.1 0H282.8V40H212.1V0Z"/>
</mask>
<path d="M212.1 0V-1H211.1V0H212.1ZM212.1 1H282.8V-1H212.1V1ZM213.1 40V0H211.1V40H213.1Z" fill="white" fill-opacity="0.2" mask="url(#path-12-inside-4_252_518)"/>
<path d="M236.657 16.4492H237.364C237.431 17.0586 238.009 17.4609 238.813 17.4609C239.575 17.4609 240.13 17.0586 240.13 16.5039C240.13 16.0273 239.798 15.7344 239.04 15.5391L238.317 15.3516C237.278 15.0859 236.817 14.6289 236.817 13.8633C236.817 12.9258 237.638 12.2695 238.809 12.2695C239.931 12.2695 240.743 12.9336 240.774 13.8789H240.071C240.009 13.2734 239.52 12.9023 238.786 12.9023C238.056 12.9023 237.548 13.2812 237.548 13.832C237.548 14.2578 237.86 14.5117 238.626 14.7109L239.216 14.8672C240.384 15.1602 240.856 15.6094 240.856 16.418C240.856 17.4492 240.044 18.0938 238.747 18.0938C237.552 18.0938 236.724 17.4453 236.657 16.4492ZM242.38 12.9883V15.1484H243.727C244.45 15.1484 244.86 14.7578 244.86 14.0664C244.86 13.3906 244.423 12.9883 243.696 12.9883H242.38ZM242.38 15.7695V18H241.677V12.3633H243.79C244.876 12.3633 245.587 13.0273 245.587 14.043C245.587 14.8281 245.161 15.4375 244.454 15.6602L245.759 18H244.934L243.727 15.7695H242.38ZM248.602 18H247.899V12.9961H246.122V12.3633H250.38V12.9961H248.602V18ZM252.798 18.0977C251.954 18.0977 251.282 17.6406 250.934 16.8281C250.747 16.3945 250.657 15.8867 250.657 15.2773C250.657 13.3789 251.466 12.2656 252.845 12.2656C253.802 12.2656 254.536 12.8398 254.716 13.7266H254.001C253.849 13.2148 253.395 12.8867 252.837 12.8867C251.895 12.8867 251.36 13.7227 251.337 15.2227H251.349C251.602 14.6719 252.224 14.3086 252.923 14.3086C253.997 14.3086 254.794 15.1016 254.794 16.1719C254.794 17.2852 253.954 18.0977 252.798 18.0977ZM252.79 17.4727C253.509 17.4727 254.079 16.9062 254.079 16.1953C254.079 15.457 253.548 14.9258 252.802 14.9258C252.056 14.9258 251.505 15.457 251.505 16.1758C251.505 16.8984 252.067 17.4727 252.79 17.4727ZM258.087 16.0312H255.524V15.3984H258.087V16.0312ZM241.278 28L243.829 23.0039V22.9883H240.794V22.3633H244.524V23.0156L242.017 28H241.278ZM247.267 28.0938C246.188 28.0938 245.392 27.4219 245.333 26.4609H246.024C246.087 27.0625 246.599 27.4766 247.274 27.4766C248.04 27.4766 248.571 26.9453 248.571 26.1875C248.571 25.4297 248.036 24.8867 247.286 24.8867C246.759 24.8867 246.309 25.125 246.079 25.5195H245.419L245.727 22.3633H248.954V22.9883H246.306L246.134 24.8242H246.149C246.403 24.4844 246.872 24.2812 247.411 24.2812C248.493 24.2812 249.274 25.0742 249.274 26.168C249.274 27.3008 248.442 28.0938 247.267 28.0938ZM251.981 28.0938C250.665 28.0938 249.903 26.9609 249.903 25.1797C249.903 23.4141 250.673 22.2695 251.981 22.2695C253.29 22.2695 254.052 23.4062 254.052 25.1758C254.052 26.957 253.294 28.0938 251.981 28.0938ZM251.981 27.4805C252.86 27.4805 253.345 26.5859 253.345 25.1797C253.345 23.793 252.852 22.8867 251.981 22.8867C251.11 22.8867 250.61 23.8008 250.61 25.1758C250.61 26.582 251.099 27.4805 251.981 27.4805Z" fill="white"/>
<mask id="path-15-inside-5_252_518" fill="white">
<path d="M282.8 0H353.5V40H282.8V0Z"/>
</mask>
<path d="M282.8 0V-1H281.8V0H282.8ZM282.8 1H353.5V-1H282.8V1ZM283.8 40V0H281.8V40H283.8Z" fill="white" fill-opacity="0.2" mask="url(#path-15-inside-5_252_518)"/>
<path d="M305.576 16.4492H306.283C306.349 17.0586 306.927 17.4609 307.732 17.4609C308.494 17.4609 309.048 17.0586 309.048 16.5039C309.048 16.0273 308.716 15.7344 307.958 15.5391L307.236 15.3516C306.197 15.0859 305.736 14.6289 305.736 13.8633C305.736 12.9258 306.556 12.2695 307.728 12.2695C308.849 12.2695 309.662 12.9336 309.693 13.8789H308.99C308.927 13.2734 308.439 12.9023 307.704 12.9023C306.974 12.9023 306.466 13.2812 306.466 13.832C306.466 14.2578 306.779 14.5117 307.544 14.7109L308.134 14.8672C309.302 15.1602 309.775 15.6094 309.775 16.418C309.775 17.4492 308.962 18.0938 307.665 18.0938C306.47 18.0938 305.642 17.4453 305.576 16.4492ZM311.298 12.9883V15.1484H312.646C313.369 15.1484 313.779 14.7578 313.779 14.0664C313.779 13.3906 313.341 12.9883 312.615 12.9883H311.298ZM311.298 15.7695V18H310.595V12.3633H312.708C313.794 12.3633 314.505 13.0273 314.505 14.043C314.505 14.8281 314.079 15.4375 313.372 15.6602L314.677 18H313.853L312.646 15.7695H311.298ZM317.521 18H316.818V12.9961H315.04V12.3633H319.298V12.9961H317.521V18ZM321.388 18V13.1094H321.372L319.88 14.1836V13.4414L321.38 12.3633H322.068V18H321.388ZM323.462 13.9883C323.462 13.0039 324.259 12.2695 325.322 12.2695C326.329 12.2695 327.122 12.9531 327.122 13.8164C327.122 14.4453 326.837 14.9141 325.896 15.8867L324.47 17.3594V17.375H327.216V18H323.497V17.5156L325.482 15.4258C326.24 14.6289 326.419 14.3281 326.419 13.8594C326.419 13.3164 325.923 12.8828 325.302 12.8828C324.642 12.8828 324.142 13.3594 324.142 13.9883V13.9922H323.462V13.9883ZM330.568 16.0312H328.005V15.3984H330.568V16.0312ZM313.4 28.0977C312.556 28.0977 311.884 27.6406 311.537 26.8281C311.349 26.3945 311.259 25.8867 311.259 25.2773C311.259 23.3789 312.068 22.2656 313.447 22.2656C314.404 22.2656 315.138 22.8398 315.318 23.7266H314.603C314.451 23.2148 313.997 22.8867 313.439 22.8867C312.497 22.8867 311.962 23.7227 311.939 25.2227H311.951C312.204 24.6719 312.826 24.3086 313.525 24.3086C314.599 24.3086 315.396 25.1016 315.396 26.1719C315.396 27.2852 314.556 28.0977 313.4 28.0977ZM313.392 27.4727C314.111 27.4727 314.681 26.9062 314.681 26.1953C314.681 25.457 314.15 24.9258 313.404 24.9258C312.658 24.9258 312.107 25.457 312.107 26.1758C312.107 26.8984 312.669 27.4727 313.392 27.4727ZM318.122 28.0938C316.806 28.0938 316.044 26.9609 316.044 25.1797C316.044 23.4141 316.814 22.2695 318.122 22.2695C319.431 22.2695 320.193 23.4062 320.193 25.1758C320.193 26.957 319.435 28.0938 318.122 28.0938ZM318.122 27.4805C319.001 27.4805 319.486 26.5859 319.486 25.1797C319.486 23.793 318.994 22.8867 318.122 22.8867C317.251 22.8867 316.751 23.8008 316.751 25.1758C316.751 26.582 317.24 27.4805 318.122 27.4805ZM322.974 28.0938C321.658 28.0938 320.896 26.9609 320.896 25.1797C320.896 23.4141 321.665 22.2695 322.974 22.2695C324.283 22.2695 325.044 23.4062 325.044 25.1758C325.044 26.957 324.287 28.0938 322.974 28.0938ZM322.974 27.4805C323.853 27.4805 324.337 26.5859 324.337 25.1797C324.337 23.793 323.845 22.8867 322.974 22.8867C322.103 22.8867 321.603 23.8008 321.603 25.1758C321.603 26.582 322.091 27.4805 322.974 27.4805Z" fill="white"/>
<mask id="path-18-inside-6_252_518" fill="white">
<path d="M353.5 0H424.2V40H353.5V0Z"/>
</mask>
<path d="M353.5 0V-1H352.5V0H353.5ZM353.5 1H424.2V-1H353.5V1ZM354.5 40V0H352.5V40H354.5Z" fill="white" fill-opacity="0.2" mask="url(#path-18-inside-6_252_518)"/>
<path d="M376.276 16.4492H376.983C377.049 17.0586 377.627 17.4609 378.432 17.4609C379.194 17.4609 379.748 17.0586 379.748 16.5039C379.748 16.0273 379.416 15.7344 378.659 15.5391L377.936 15.3516C376.897 15.0859 376.436 14.6289 376.436 13.8633C376.436 12.9258 377.256 12.2695 378.428 12.2695C379.549 12.2695 380.362 12.9336 380.393 13.8789H379.69C379.627 13.2734 379.139 12.9023 378.405 12.9023C377.674 12.9023 377.166 13.2812 377.166 13.832C377.166 14.2578 377.479 14.5117 378.245 14.7109L378.834 14.8672C380.002 15.1602 380.475 15.6094 380.475 16.418C380.475 17.4492 379.662 18.0938 378.366 18.0938C377.17 18.0938 376.342 17.4453 376.276 16.4492ZM381.998 12.9883V15.1484H383.346C384.069 15.1484 384.479 14.7578 384.479 14.0664C384.479 13.3906 384.041 12.9883 383.315 12.9883H381.998ZM381.998 15.7695V18H381.295V12.3633H383.409C384.495 12.3633 385.205 13.0273 385.205 14.043C385.205 14.8281 384.78 15.4375 384.073 15.6602L385.377 18H384.553L383.346 15.7695H381.998ZM388.221 18H387.518V12.9961H385.741V12.3633H389.998V12.9961H388.221V18ZM392.088 18V13.1094H392.073L390.58 14.1836V13.4414L392.08 12.3633H392.768V18H392.088ZM394.162 13.9883C394.162 13.0039 394.959 12.2695 396.022 12.2695C397.03 12.2695 397.823 12.9531 397.823 13.8164C397.823 14.4453 397.537 14.9141 396.596 15.8867L395.17 17.3594V17.375H397.916V18H394.198V17.5156L396.182 15.4258C396.94 14.6289 397.12 14.3281 397.12 13.8594C397.12 13.3164 396.623 12.8828 396.002 12.8828C395.342 12.8828 394.842 13.3594 394.842 13.9883V13.9922H394.162V13.9883ZM401.268 16.0312H398.705V15.3984H401.268V16.0312ZM382.631 28L385.182 23.0039V22.9883H382.147V22.3633H385.877V23.0156L383.37 28H382.631ZM388.577 28.0938C387.26 28.0938 386.498 26.9609 386.498 25.1797C386.498 23.4141 387.268 22.2695 388.577 22.2695C389.885 22.2695 390.647 23.4062 390.647 25.1758C390.647 26.957 389.889 28.0938 388.577 28.0938ZM388.577 27.4805C389.455 27.4805 389.94 26.5859 389.94 25.1797C389.94 23.793 389.448 22.8867 388.577 22.8867C387.705 22.8867 387.205 23.8008 387.205 25.1758C387.205 26.582 387.694 27.4805 388.577 27.4805ZM393.428 28.0938C392.112 28.0938 391.35 26.9609 391.35 25.1797C391.35 23.4141 392.12 22.2695 393.428 22.2695C394.737 22.2695 395.498 23.4062 395.498 25.1758C395.498 26.957 394.741 28.0938 393.428 28.0938ZM393.428 27.4805C394.307 27.4805 394.791 26.5859 394.791 25.1797C394.791 23.793 394.299 22.8867 393.428 22.8867C392.557 22.8867 392.057 23.8008 392.057 25.1758C392.057 26.582 392.545 27.4805 393.428 27.4805Z" fill="white"/>
<mask id="path-21-inside-7_252_518" fill="white">
<path d="M424.2 0H494.9V40H424.2V0Z"/>
</mask>
<path d="M424.2 0V-1H423.2V0H424.2ZM424.2 1H494.9V-1H424.2V1ZM425.2 40V0H423.2V40H425.2Z" fill="white" fill-opacity="0.2" mask="url(#path-21-inside-7_252_518)"/>
<path d="M446.976 16.4492H447.683C447.749 17.0586 448.328 17.4609 449.132 17.4609C449.894 17.4609 450.449 17.0586 450.449 16.5039C450.449 16.0273 450.117 15.7344 449.359 15.5391L448.636 15.3516C447.597 15.0859 447.136 14.6289 447.136 13.8633C447.136 12.9258 447.956 12.2695 449.128 12.2695C450.249 12.2695 451.062 12.9336 451.093 13.8789H450.39C450.328 13.2734 449.839 12.9023 449.105 12.9023C448.374 12.9023 447.867 13.2812 447.867 13.832C447.867 14.2578 448.179 14.5117 448.945 14.7109L449.535 14.8672C450.703 15.1602 451.175 15.6094 451.175 16.418C451.175 17.4492 450.363 18.0938 449.066 18.0938C447.871 18.0938 447.042 17.4453 446.976 16.4492ZM452.699 12.9883V15.1484H454.046C454.769 15.1484 455.179 14.7578 455.179 14.0664C455.179 13.3906 454.742 12.9883 454.015 12.9883H452.699ZM452.699 15.7695V18H451.996V12.3633H454.109C455.195 12.3633 455.906 13.0273 455.906 14.043C455.906 14.8281 455.48 15.4375 454.773 15.6602L456.078 18H455.253L454.046 15.7695H452.699ZM458.921 18H458.218V12.9961H456.441V12.3633H460.699V12.9961H458.921V18ZM462.788 18V13.1094H462.773L461.281 14.1836V13.4414L462.781 12.3633H463.468V18H462.788ZM464.863 13.9883C464.863 13.0039 465.66 12.2695 466.722 12.2695C467.73 12.2695 468.523 12.9531 468.523 13.8164C468.523 14.4453 468.238 14.9141 467.296 15.8867L465.871 17.3594V17.375H468.617V18H464.898V17.5156L466.882 15.4258C467.64 14.6289 467.82 14.3281 467.82 13.8594C467.82 13.3164 467.324 12.8828 466.703 12.8828C466.042 12.8828 465.542 13.3594 465.542 13.9883V13.9922H464.863V13.9883ZM471.968 16.0312H469.406V15.3984H471.968V16.0312ZM454.855 28.0938C453.663 28.0938 452.812 27.418 452.812 26.4766C452.812 25.7734 453.296 25.1953 454.023 25.0273V25.0117C453.413 24.8242 453.035 24.3438 453.035 23.75C453.035 22.8984 453.808 22.2695 454.855 22.2695C455.91 22.2695 456.671 22.8945 456.671 23.7539C456.671 24.3398 456.3 24.8164 455.687 25.0117V25.0273C456.417 25.1992 456.902 25.7773 456.902 26.4766C456.902 27.4219 456.05 28.0938 454.855 28.0938ZM454.855 27.4805C455.632 27.4805 456.183 27.0391 456.183 26.4258C456.183 25.8047 455.632 25.3672 454.855 25.3672C454.081 25.3672 453.527 25.8086 453.527 26.4258C453.527 27.0391 454.081 27.4805 454.855 27.4805ZM454.855 24.75C455.511 24.75 455.976 24.3633 455.976 23.8164C455.976 23.2617 455.515 22.875 454.855 22.875C454.195 22.875 453.734 23.2656 453.734 23.8164C453.734 24.3633 454.195 24.75 454.855 24.75ZM457.679 23.9883C457.679 23.0039 458.476 22.2695 459.538 22.2695C460.546 22.2695 461.339 22.9531 461.339 23.8164C461.339 24.4453 461.054 24.9141 460.113 25.8867L458.687 27.3594V27.375H461.433V28H457.714V27.5156L459.699 25.4258C460.456 24.6289 460.636 24.3281 460.636 23.8594C460.636 23.3164 460.14 22.8828 459.519 22.8828C458.859 22.8828 458.359 23.3594 458.359 23.9883V23.9922H457.679V23.9883ZM464.218 28.0938C462.902 28.0938 462.14 26.9609 462.14 25.1797C462.14 23.4141 462.91 22.2695 464.218 22.2695C465.527 22.2695 466.288 23.4062 466.288 25.1758C466.288 26.957 465.531 28.0938 464.218 28.0938ZM464.218 27.4805C465.097 27.4805 465.581 26.5859 465.581 25.1797C465.581 23.793 465.089 22.8867 464.218 22.8867C463.347 22.8867 462.847 23.8008 462.847 25.1758C462.847 26.582 463.335 27.4805 464.218 27.4805Z" fill="white"/>
<mask id="path-24-inside-8_252_518" fill="white">
<path d="M494.9 0H565.6V40H494.9V0Z"/>
</mask>
<path d="M494.9 0V-1H493.9V0H494.9ZM494.9 1H565.6V-1H494.9V1ZM495.9 40V0H493.9V40H495.9Z" fill="white" fill-opacity="0.2" mask="url(#path-24-inside-8_252_518)"/>
<path d="M517.676 16.4492H518.383C518.449 17.0586 519.027 17.4609 519.832 17.4609C520.594 17.4609 521.148 17.0586 521.148 16.5039C521.148 16.0273 520.816 15.7344 520.058 15.5391L519.336 15.3516C518.297 15.0859 517.836 14.6289 517.836 13.8633C517.836 12.9258 518.656 12.2695 519.828 12.2695C520.949 12.2695 521.762 12.9336 521.793 13.8789H521.09C521.027 13.2734 520.539 12.9023 519.805 12.9023C519.074 12.9023 518.566 13.2812 518.566 13.832C518.566 14.2578 518.879 14.5117 519.644 14.7109L520.234 14.8672C521.402 15.1602 521.875 15.6094 521.875 16.418C521.875 17.4492 521.062 18.0938 519.766 18.0938C518.57 18.0938 517.742 17.4453 517.676 16.4492ZM523.398 12.9883V15.1484H524.746C525.469 15.1484 525.879 14.7578 525.879 14.0664C525.879 13.3906 525.441 12.9883 524.715 12.9883H523.398ZM523.398 15.7695V18H522.695V12.3633H524.808C525.894 12.3633 526.605 13.0273 526.605 14.043C526.605 14.8281 526.18 15.4375 525.473 15.6602L526.777 18H525.953L524.746 15.7695H523.398ZM529.621 18H528.918V12.9961H527.141V12.3633H531.398V12.9961H529.621V18ZM533.488 18V13.1094H533.473L531.98 14.1836V13.4414L533.48 12.3633H534.168V18H533.488ZM535.562 13.9883C535.562 13.0039 536.359 12.2695 537.422 12.2695C538.43 12.2695 539.223 12.9531 539.223 13.8164C539.223 14.4453 538.937 14.9141 537.996 15.8867L536.57 17.3594V17.375H539.316V18H535.598V17.5156L537.582 15.4258C538.34 14.6289 538.519 14.3281 538.519 13.8594C538.519 13.3164 538.023 12.8828 537.402 12.8828C536.742 12.8828 536.242 13.3594 536.242 13.9883V13.9922H535.562V13.9883ZM542.668 16.0312H540.105V15.3984H542.668V16.0312ZM523.094 28V23.1094H523.078L521.586 24.1836V23.4414L523.086 22.3633H523.773V28H523.094ZM527.176 28.0938C525.859 28.0938 525.098 26.9609 525.098 25.1797C525.098 23.4141 525.867 22.2695 527.176 22.2695C528.484 22.2695 529.246 23.4062 529.246 25.1758C529.246 26.957 528.488 28.0938 527.176 28.0938ZM527.176 27.4805C528.055 27.4805 528.539 26.5859 528.539 25.1797C528.539 23.793 528.047 22.8867 527.176 22.8867C526.305 22.8867 525.805 23.8008 525.805 25.1758C525.805 26.582 526.293 27.4805 527.176 27.4805ZM532.027 28.0938C530.711 28.0938 529.949 26.9609 529.949 25.1797C529.949 23.4141 530.719 22.2695 532.027 22.2695C533.336 22.2695 534.098 23.4062 534.098 25.1758C534.098 26.957 533.34 28.0938 532.027 28.0938ZM532.027 27.4805C532.906 27.4805 533.391 26.5859 533.391 25.1797C533.391 23.793 532.898 22.8867 532.027 22.8867C531.156 22.8867 530.656 23.8008 530.656 25.1758C530.656 26.582 531.144 27.4805 532.027 27.4805ZM536.879 28.0938C535.562 28.0938 534.801 26.9609 534.801 25.1797C534.801 23.4141 535.57 22.2695 536.879 22.2695C538.187 22.2695 538.949 23.4062 538.949 25.1758C538.949 26.957 538.191 28.0938 536.879 28.0938ZM536.879 27.4805C537.758 27.4805 538.242 26.5859 538.242 25.1797C538.242 23.793 537.75 22.8867 536.879 22.8867C536.008 22.8867 535.508 23.8008 535.508 25.1758C535.508 26.582 535.996 27.4805 536.879 27.4805Z" fill="white"/>
<mask id="path-27-inside-9_252_518" fill="white">
<path d="M565.6 0H636.3V40H565.6V0Z"/>
</mask>
<path d="M565.6 0V-1H564.6V0H565.6ZM565.6 1H636.3V-1H565.6V1ZM566.6 40V0H564.6V40H566.6Z" fill="white" fill-opacity="0.2" mask="url(#path-27-inside-9_252_518)"/>
<path d="M587.724 16.4492H588.431C588.497 17.0586 589.075 17.4609 589.88 17.4609C590.642 17.4609 591.196 17.0586 591.196 16.5039C591.196 16.0273 590.864 15.7344 590.106 15.5391L589.384 15.3516C588.345 15.0859 587.884 14.6289 587.884 13.8633C587.884 12.9258 588.704 12.2695 589.876 12.2695C590.997 12.2695 591.809 12.9336 591.841 13.8789H591.138C591.075 13.2734 590.587 12.9023 589.852 12.9023C589.122 12.9023 588.614 13.2812 588.614 13.832C588.614 14.2578 588.927 14.5117 589.692 14.7109L590.282 14.8672C591.45 15.1602 591.923 15.6094 591.923 16.418C591.923 17.4492 591.11 18.0938 589.813 18.0938C588.618 18.0938 587.79 17.4453 587.724 16.4492ZM593.446 12.9883V15.1484H594.794C595.517 15.1484 595.927 14.7578 595.927 14.0664C595.927 13.3906 595.489 12.9883 594.763 12.9883H593.446ZM593.446 15.7695V18H592.743V12.3633H594.856C595.942 12.3633 596.653 13.0273 596.653 14.043C596.653 14.8281 596.227 15.4375 595.52 15.6602L596.825 18H596.001L594.794 15.7695H593.446ZM599.669 18H598.966V12.9961H597.188V12.3633H601.446V12.9961H599.669V18ZM602.063 13.9883C602.063 13.0039 602.86 12.2695 603.923 12.2695C604.931 12.2695 605.724 12.9531 605.724 13.8164C605.724 14.4453 605.438 14.9141 604.497 15.8867L603.071 17.3594V17.375H605.817V18H602.099V17.5156L604.083 15.4258C604.841 14.6289 605.02 14.3281 605.02 13.8594C605.02 13.3164 604.524 12.8828 603.903 12.8828C603.243 12.8828 602.743 13.3594 602.743 13.9883V13.9922H602.063V13.9883ZM608.602 18.0938C607.286 18.0938 606.524 16.9609 606.524 15.1797C606.524 13.4141 607.294 12.2695 608.602 12.2695C609.911 12.2695 610.673 13.4062 610.673 15.1758C610.673 16.957 609.915 18.0938 608.602 18.0938ZM608.602 17.4805C609.481 17.4805 609.966 16.5859 609.966 15.1797C609.966 13.793 609.474 12.8867 608.602 12.8867C607.731 12.8867 607.231 13.8008 607.231 15.1758C607.231 16.582 607.72 17.4805 608.602 17.4805ZM614.02 16.0312H611.458V15.3984H614.02V16.0312ZM596.255 28.0938C595.063 28.0938 594.212 27.418 594.212 26.4766C594.212 25.7734 594.696 25.1953 595.423 25.0273V25.0117C594.813 24.8242 594.434 24.3438 594.434 23.75C594.434 22.8984 595.208 22.2695 596.255 22.2695C597.309 22.2695 598.071 22.8945 598.071 23.7539C598.071 24.3398 597.7 24.8164 597.087 25.0117V25.0273C597.817 25.1992 598.302 25.7773 598.302 26.4766C598.302 27.4219 597.45 28.0938 596.255 28.0938ZM596.255 27.4805C597.032 27.4805 597.583 27.0391 597.583 26.4258C597.583 25.8047 597.032 25.3672 596.255 25.3672C595.481 25.3672 594.927 25.8086 594.927 26.4258C594.927 27.0391 595.481 27.4805 596.255 27.4805ZM596.255 24.75C596.911 24.75 597.376 24.3633 597.376 23.8164C597.376 23.2617 596.915 22.875 596.255 22.875C595.595 22.875 595.134 23.2656 595.134 23.8164C595.134 24.3633 595.595 24.75 596.255 24.75ZM599.079 23.9883C599.079 23.0039 599.876 22.2695 600.938 22.2695C601.946 22.2695 602.739 22.9531 602.739 23.8164C602.739 24.4453 602.454 24.9141 601.513 25.8867L600.087 27.3594V27.375H602.833V28H599.114V27.5156L601.099 25.4258C601.856 24.6289 602.036 24.3281 602.036 23.8594C602.036 23.3164 601.54 22.8828 600.919 22.8828C600.259 22.8828 599.759 23.3594 599.759 23.9883V23.9922H599.079V23.9883ZM605.618 28.0938C604.302 28.0938 603.54 26.9609 603.54 25.1797C603.54 23.4141 604.309 22.2695 605.618 22.2695C606.927 22.2695 607.688 23.4062 607.688 25.1758C607.688 26.957 606.931 28.0938 605.618 28.0938ZM605.618 27.4805C606.497 27.4805 606.981 26.5859 606.981 25.1797C606.981 23.793 606.489 22.8867 605.618 22.8867C604.747 22.8867 604.247 23.8008 604.247 25.1758C604.247 26.582 604.735 27.4805 605.618 27.4805Z" fill="white"/>
<mask id="path-30-inside-10_252_518" fill="white">
<path d="M636.3 0H707V40H636.3V0Z"/>
</mask>
<path d="M636.3 0V-1H635.3V0H636.3ZM636.3 1H707V-1H636.3V1ZM637.3 40V0H635.3V40H637.3Z" fill="white" fill-opacity="0.2" mask="url(#path-30-inside-10_252_518)"/>
<path d="M658.423 16.4492H659.13C659.197 17.0586 659.775 17.4609 660.579 17.4609C661.341 17.4609 661.896 17.0586 661.896 16.5039C661.896 16.0273 661.564 15.7344 660.806 15.5391L660.083 15.3516C659.044 15.0859 658.583 14.6289 658.583 13.8633C658.583 12.9258 659.404 12.2695 660.576 12.2695C661.697 12.2695 662.509 12.9336 662.54 13.8789H661.837C661.775 13.2734 661.287 12.9023 660.552 12.9023C659.822 12.9023 659.314 13.2812 659.314 13.832C659.314 14.2578 659.626 14.5117 660.392 14.7109L660.982 14.8672C662.15 15.1602 662.622 15.6094 662.622 16.418C662.622 17.4492 661.81 18.0938 660.513 18.0938C659.318 18.0938 658.49 17.4453 658.423 16.4492ZM664.146 12.9883V15.1484H665.494C666.216 15.1484 666.626 14.7578 666.626 14.0664C666.626 13.3906 666.189 12.9883 665.462 12.9883H664.146ZM664.146 15.7695V18H663.443V12.3633H665.556C666.642 12.3633 667.353 13.0273 667.353 14.043C667.353 14.8281 666.927 15.4375 666.22 15.6602L667.525 18H666.701L665.494 15.7695H664.146ZM670.369 18H669.665V12.9961H667.888V12.3633H672.146V12.9961H670.369V18ZM672.763 13.9883C672.763 13.0039 673.56 12.2695 674.622 12.2695C675.63 12.2695 676.423 12.9531 676.423 13.8164C676.423 14.4453 676.138 14.9141 675.197 15.8867L673.771 17.3594V17.375H676.517V18H672.798V17.5156L674.783 15.4258C675.54 14.6289 675.72 14.3281 675.72 13.8594C675.72 13.3164 675.224 12.8828 674.603 12.8828C673.943 12.8828 673.443 13.3594 673.443 13.9883V13.9922H672.763V13.9883ZM679.302 18.0938C677.986 18.0938 677.224 16.9609 677.224 15.1797C677.224 13.4141 677.994 12.2695 679.302 12.2695C680.611 12.2695 681.372 13.4062 681.372 15.1758C681.372 16.957 680.615 18.0938 679.302 18.0938ZM679.302 17.4805C680.181 17.4805 680.665 16.5859 680.665 15.1797C680.665 13.793 680.173 12.8867 679.302 12.8867C678.431 12.8867 677.931 13.8008 677.931 15.1758C677.931 16.582 678.419 17.4805 679.302 17.4805ZM684.72 16.0312H682.158V15.3984H684.72V16.0312ZM664.494 28V23.1094H664.478L662.986 24.1836V23.4414L664.486 22.3633H665.173V28H664.494ZM668.576 28.0938C667.259 28.0938 666.497 26.9609 666.497 25.1797C666.497 23.4141 667.267 22.2695 668.576 22.2695C669.884 22.2695 670.646 23.4062 670.646 25.1758C670.646 26.957 669.888 28.0938 668.576 28.0938ZM668.576 27.4805C669.454 27.4805 669.939 26.5859 669.939 25.1797C669.939 23.793 669.447 22.8867 668.576 22.8867C667.704 22.8867 667.204 23.8008 667.204 25.1758C667.204 26.582 667.693 27.4805 668.576 27.4805ZM673.427 28.0938C672.111 28.0938 671.349 26.9609 671.349 25.1797C671.349 23.4141 672.119 22.2695 673.427 22.2695C674.736 22.2695 675.497 23.4062 675.497 25.1758C675.497 26.957 674.74 28.0938 673.427 28.0938ZM673.427 27.4805C674.306 27.4805 674.79 26.5859 674.79 25.1797C674.79 23.793 674.298 22.8867 673.427 22.8867C672.556 22.8867 672.056 23.8008 672.056 25.1758C672.056 26.582 672.544 27.4805 673.427 27.4805ZM678.279 28.0938C676.962 28.0938 676.201 26.9609 676.201 25.1797C676.201 23.4141 676.97 22.2695 678.279 22.2695C679.587 22.2695 680.349 23.4062 680.349 25.1758C680.349 26.957 679.591 28.0938 678.279 28.0938ZM678.279 27.4805C679.158 27.4805 679.642 26.5859 679.642 25.1797C679.642 23.793 679.15 22.8867 678.279 22.8867C677.408 22.8867 676.908 23.8008 676.908 25.1758C676.908 26.582 677.396 27.4805 678.279 27.4805Z" fill="white"/>
</g>
<g clip-path="url(#clip2_252_518)">
<rect width="707" height="40" transform="translate(0 40)" fill="#86A2FF" fill-opacity="0.2"/>
<mask id="path-33-inside-11_252_518" fill="white">
<path d="M0 40H70.7V80H0V40Z"/>
</mask>
<path d="M0 40V39H-1V40H0ZM0 41H70.7V39H0V41ZM1 80V40H-1V80H1Z" fill="white" fill-opacity="0.2" mask="url(#path-33-inside-11_252_518)"/>
<path d="M12.5859 52.3633H14.5977C15.6562 52.3633 16.4023 53.1055 16.4023 54.1719C16.4023 55.2422 15.6484 55.9883 14.5898 55.9883H13.2891V58H12.5859V52.3633ZM13.2891 52.9883V55.3633H14.4141C15.2188 55.3633 15.6797 54.9219 15.6797 54.1719C15.6797 53.4258 15.2227 52.9883 14.4141 52.9883H13.2891ZM18.5156 57.4922C19.1562 57.4922 19.6484 57.043 19.6484 56.457V56.125L18.5625 56.1914C18.0156 56.2266 17.7031 56.4688 17.7031 56.8516C17.7031 57.2383 18.0273 57.4922 18.5156 57.4922ZM18.3633 58.0703C17.5547 58.0703 17.0117 57.582 17.0117 56.8516C17.0117 56.1562 17.5469 55.7188 18.4844 55.6641L19.6484 55.5977V55.2578C19.6484 54.7617 19.3203 54.4648 18.7578 54.4648C18.2344 54.4648 17.9062 54.7109 17.8203 55.1094H17.1641C17.2109 54.4062 17.8125 53.8672 18.7734 53.8672C19.7266 53.8672 20.3281 54.3828 20.3281 55.1914V58H19.6836V57.3008H19.668C19.4258 57.7656 18.9102 58.0703 18.3633 58.0703ZM23.9609 57.4414V54.4961H22.4375L22.3125 56.207C22.2773 56.7109 22.1719 57.1523 21.9805 57.4102V57.4414H23.9609ZM21.4961 59.0742H20.8633V57.4414H21.2031C21.5 57.2461 21.6445 56.7383 21.6836 56.1914L21.8398 53.9375H24.6367V57.4414H25.2812V59.0742H24.6484V58H21.4961V59.0742ZM26.5625 58H25.8906V53.9375H26.5625V56.9609H26.5938L28.625 53.9375H29.2969V58H28.625V54.9766H28.5938L26.5625 58ZM30.5898 59.5195C30.5078 59.5195 30.3711 59.5117 30.2969 59.4961V58.9258C30.3711 58.9414 30.4766 58.9453 30.5625 58.9453C30.9414 58.9453 31.1523 58.7617 31.3086 58.2891L31.4023 58.0039L29.9023 53.9375H30.6289L31.7539 57.3203H31.7656L32.8906 53.9375H33.6055L32.0078 58.2852C31.6602 59.2344 31.3242 59.5195 30.5898 59.5195ZM37.457 55.1875H36.7852C36.668 54.7969 36.3359 54.4648 35.7617 54.4648C35.0547 54.4648 34.5898 55.0625 34.5898 55.9688C34.5898 56.8984 35.0625 57.4727 35.7695 57.4727C36.3086 57.4727 36.6641 57.207 36.793 56.7578H37.4648C37.332 57.5273 36.6797 58.0703 35.7656 58.0703C34.6367 58.0703 33.8984 57.2617 33.8984 55.9688C33.8984 54.7031 34.6328 53.8672 35.7578 53.8672C36.7383 53.8672 37.3359 54.4961 37.457 55.1875ZM15.1719 67.4414V64.4961H13.6484L13.5234 66.207C13.4883 66.7109 13.3828 67.1523 13.1914 67.4102V67.4414H15.1719ZM12.707 69.0742H12.0742V67.4414H12.4141C12.7109 67.2461 12.8555 66.7383 12.8945 66.1914L13.0508 63.9375H15.8477V67.4414H16.4922V69.0742H15.8594V68H12.707V69.0742ZM18.7344 64.457C18.0977 64.457 17.6523 64.9453 17.6094 65.6211H19.8164C19.8008 64.9414 19.375 64.457 18.7344 64.457ZM19.8008 66.8359H20.4688C20.3516 67.5469 19.6641 68.0703 18.7773 68.0703C17.6133 68.0703 16.9062 67.2617 16.9062 65.9844C16.9062 64.7227 17.625 63.8672 18.7461 63.8672C19.8438 63.8672 20.5195 64.6641 20.5195 65.8945V66.1523H17.6055V66.1914C17.6055 66.9688 18.0625 67.4805 18.793 67.4805C19.3086 67.4805 19.6875 67.2188 19.8008 66.8359ZM21.9453 68H21.2734V63.9375H21.9453V66.9609H21.9766L24.0078 63.9375H24.6797V68H24.0078V64.9766H23.9766L21.9453 68ZM21.793 62.1797H22.293C22.293 62.6328 22.5859 62.9883 23.0508 62.9883C23.5156 62.9883 23.8086 62.6328 23.8086 62.1797H24.3086C24.3086 62.8984 23.7969 63.3906 23.0508 63.3906C22.3047 63.3906 21.793 62.8984 21.793 62.1797ZM28.9961 65.1875H28.3242C28.207 64.7969 27.875 64.4648 27.3008 64.4648C26.5938 64.4648 26.1289 65.0625 26.1289 65.9688C26.1289 66.8984 26.6016 67.4727 27.3086 67.4727C27.8477 67.4727 28.2031 67.207 28.332 66.7578H29.0039C28.8711 67.5273 28.2188 68.0703 27.3047 68.0703C26.1758 68.0703 25.4375 67.2617 25.4375 65.9688C25.4375 64.7031 26.1719 63.8672 27.2969 63.8672C28.2773 63.8672 28.875 64.4961 28.9961 65.1875ZM32.6055 63.9375V64.4961H31.293V68H30.6211V64.4961H29.3086V63.9375H32.6055ZM34.8789 64.4883H33.9062V65.625H34.7773C35.2891 65.625 35.5352 65.4375 35.5352 65.0469C35.5352 64.6875 35.3047 64.4883 34.8789 64.4883ZM34.832 66.1719H33.9062V67.4492H34.9531C35.4453 67.4492 35.7109 67.2266 35.7109 66.8164C35.7109 66.3828 35.4258 66.1719 34.832 66.1719ZM33.2344 68V63.9375H34.9727C35.7344 63.9375 36.1992 64.332 36.1992 64.9766C36.1992 65.3906 35.9062 65.7734 35.5312 65.8516V65.8828C36.043 65.9531 36.3789 66.3242 36.3789 66.832C36.3789 67.5508 35.8477 68 34.9844 68H33.2344ZM37.8281 68H37.1562V63.9375H37.8281V66.9609H37.8594L39.8906 63.9375H40.5625V68H39.8906V64.9766H39.8594L37.8281 68ZM42.9766 65.9961H43.7539V64.4961H42.9766C42.4492 64.4961 42.1133 64.7852 42.1133 65.2734C42.1133 65.6953 42.4531 65.9961 42.9766 65.9961ZM43.7539 68V66.5547H43.0352L42.0039 68H41.2266L42.3594 66.4297C41.7852 66.2656 41.4375 65.8438 41.4375 65.2852C41.4375 64.4492 42.0391 63.9375 42.9727 63.9375H44.4258V68H43.7539ZM45.8125 69.1211H45.2461L45.625 67.1328H46.3477L45.8125 69.1211ZM49.3359 68H48.6641V63.9375H49.4883L50.9336 67.1016H50.9648L52.418 63.9375H53.2109V68H52.5352V65.1172H52.5078L51.1953 67.8828H50.6758L49.3633 65.1172H49.3359V68ZM54.8359 68H54.1641V63.9375H54.9883L56.4336 67.1016H56.4648L57.918 63.9375H58.7109V68H58.0352V65.1172H58.0078L56.6953 67.8828H56.1758L54.8633 65.1172H54.8359V68Z" fill="white"/>
<mask id="path-36-inside-12_252_518" fill="white">
<path d="M70.7002 40H141.4V80H70.7002V40Z"/>
</mask>
<path d="M70.7002 40V39H69.7002V40H70.7002ZM70.7002 41H141.4V39H70.7002V41ZM71.7002 80V40H69.7002V80H71.7002Z" fill="white" fill-opacity="0.2" mask="url(#path-36-inside-12_252_518)"/>
<path d="M100.062 64V62.0898H95.7729V61.3574C96.6928 59.8105 97.8002 58.1523 99.6693 55.5332H100.841V61.3809H102.101V62.0898H100.841V64H100.062ZM96.5814 61.3574V61.3809H100.062V56.2363H100.05C98.4916 58.3926 97.4252 59.9863 96.5814 61.3574ZM106.027 64.1348C104.105 64.1348 102.962 62.4414 102.962 59.7695C102.962 57.1152 104.117 55.4102 106.027 55.4102C107.943 55.4102 109.085 57.1094 109.085 59.7637C109.085 62.4355 107.949 64.1348 106.027 64.1348ZM106.027 63.4316C107.456 63.4316 108.283 62.0078 108.283 59.7695C108.283 57.5488 107.445 56.1191 106.027 56.1191C104.615 56.1191 103.771 57.5605 103.771 59.7637C103.771 62.0078 104.597 63.4316 106.027 63.4316ZM113.187 64.1348C111.265 64.1348 110.122 62.4414 110.122 59.7695C110.122 57.1152 111.277 55.4102 113.187 55.4102C115.103 55.4102 116.246 57.1094 116.246 59.7637C116.246 62.4355 115.109 64.1348 113.187 64.1348ZM113.187 63.4316C114.617 63.4316 115.443 62.0078 115.443 59.7695C115.443 57.5488 114.605 56.1191 113.187 56.1191C111.775 56.1191 110.931 57.5605 110.931 59.7637C110.931 62.0078 111.757 63.4316 113.187 63.4316Z" fill="white"/>
<mask id="path-39-inside-13_252_518" fill="white">
<path d="M141.4 40H212.1V80H141.4V40Z"/>
</mask>
<path d="M141.4 40V39H140.4V40H141.4ZM141.4 41H212.1V39H141.4V41ZM142.4 80V40H140.4V80H142.4Z" fill="white" fill-opacity="0.2" mask="url(#path-39-inside-13_252_518)"/>
<path d="M169.742 64.1348C168.605 64.1348 167.68 63.5605 167.158 62.5352C166.777 61.873 166.59 61.0117 166.59 59.9512C166.59 57.1152 167.797 55.4102 169.801 55.4102C171.207 55.4102 172.285 56.2598 172.525 57.5547H171.717C171.506 56.6934 170.738 56.1191 169.795 56.1191C168.248 56.1191 167.363 57.5605 167.363 60.0684H167.381C167.726 59.1191 168.728 58.4629 169.871 58.4629C171.476 58.4629 172.678 59.6582 172.678 61.2578C172.678 62.916 171.435 64.1348 169.742 64.1348ZM169.736 63.4199C170.926 63.4199 171.863 62.4766 171.863 61.2812C171.863 60.0684 170.967 59.1719 169.742 59.1719C168.535 59.1719 167.592 60.0742 167.592 61.2227C167.592 62.4531 168.523 63.4199 169.736 63.4199ZM176.703 64.1348C174.781 64.1348 173.639 62.4414 173.639 59.7695C173.639 57.1152 174.793 55.4102 176.703 55.4102C178.619 55.4102 179.762 57.1094 179.762 59.7637C179.762 62.4355 178.625 64.1348 176.703 64.1348ZM176.703 63.4316C178.133 63.4316 178.959 62.0078 178.959 59.7695C178.959 57.5488 178.121 56.1191 176.703 56.1191C175.291 56.1191 174.447 57.5605 174.447 59.7637C174.447 62.0078 175.273 63.4316 176.703 63.4316ZM183.863 64.1348C181.941 64.1348 180.799 62.4414 180.799 59.7695C180.799 57.1152 181.953 55.4102 183.863 55.4102C185.779 55.4102 186.922 57.1094 186.922 59.7637C186.922 62.4355 185.785 64.1348 183.863 64.1348ZM183.863 63.4316C185.293 63.4316 186.119 62.0078 186.119 59.7695C186.119 57.5488 185.281 56.1191 183.863 56.1191C182.451 56.1191 181.607 57.5605 181.607 59.7637C181.607 62.0078 182.433 63.4316 183.863 63.4316Z" fill="white"/>
<mask id="path-42-inside-14_252_518" fill="white">
<path d="M212.1 40H282.8V80H212.1V40Z"/>
</mask>
<path d="M212.1 40V39H211.1V40H212.1ZM212.1 41H282.8V39H212.1V41ZM213.1 80V40H211.1V80H213.1Z" fill="white" fill-opacity="0.2" mask="url(#path-42-inside-14_252_518)"/>
<path d="M238.462 64L242.382 56.2832V56.2598H237.677V55.5449H243.184V56.2949L239.311 64H238.462ZM247.122 64.1348C245.575 64.1348 244.392 63.1621 244.286 61.7969H245.071C245.183 62.7461 246.044 63.4258 247.134 63.4258C248.393 63.4258 249.29 62.5352 249.29 61.293C249.29 60.0566 248.393 59.1484 247.169 59.1484C246.313 59.1484 245.575 59.5527 245.183 60.2266H244.415L244.895 55.5449H249.583V56.2598H245.558L245.241 59.3828H245.265C245.675 58.8086 246.442 58.4512 247.298 58.4512C248.909 58.4512 250.093 59.6465 250.093 61.2754C250.093 62.9453 248.85 64.1348 247.122 64.1348ZM254.106 64.1348C252.184 64.1348 251.042 62.4414 251.042 59.7695C251.042 57.1152 252.196 55.4102 254.106 55.4102C256.022 55.4102 257.165 57.1094 257.165 59.7637C257.165 62.4355 256.028 64.1348 254.106 64.1348ZM254.106 63.4316C255.536 63.4316 256.362 62.0078 256.362 59.7695C256.362 57.5488 255.524 56.1191 254.106 56.1191C252.694 56.1191 251.85 57.5605 251.85 59.7637C251.85 62.0078 252.677 63.4316 254.106 63.4316Z" fill="white"/>
<mask id="path-45-inside-15_252_518" fill="white">
<path d="M282.8 40H353.5V80H282.8V40Z"/>
</mask>
<path d="M282.8 40V39H281.8V40H282.8ZM282.8 41H353.5V39H282.8V41ZM283.8 80V40H281.8V80H283.8Z" fill="white" fill-opacity="0.2" mask="url(#path-45-inside-15_252_518)"/>
<path d="M311.142 64.1348C310.005 64.1348 309.079 63.5605 308.558 62.5352C308.177 61.873 307.99 61.0117 307.99 59.9512C307.99 57.1152 309.197 55.4102 311.201 55.4102C312.607 55.4102 313.685 56.2598 313.925 57.5547H313.117C312.906 56.6934 312.138 56.1191 311.195 56.1191C309.648 56.1191 308.763 57.5605 308.763 60.0684H308.781C309.126 59.1191 310.128 58.4629 311.271 58.4629C312.876 58.4629 314.078 59.6582 314.078 61.2578C314.078 62.916 312.835 64.1348 311.142 64.1348ZM311.136 63.4199C312.326 63.4199 313.263 62.4766 313.263 61.2812C313.263 60.0684 312.367 59.1719 311.142 59.1719C309.935 59.1719 308.992 60.0742 308.992 61.2227C308.992 62.4531 309.923 63.4199 311.136 63.4199ZM318.103 64.1348C316.181 64.1348 315.038 62.4414 315.038 59.7695C315.038 57.1152 316.193 55.4102 318.103 55.4102C320.019 55.4102 321.162 57.1094 321.162 59.7637C321.162 62.4355 320.025 64.1348 318.103 64.1348ZM318.103 63.4316C319.533 63.4316 320.359 62.0078 320.359 59.7695C320.359 57.5488 319.521 56.1191 318.103 56.1191C316.691 56.1191 315.847 57.5605 315.847 59.7637C315.847 62.0078 316.673 63.4316 318.103 63.4316ZM325.263 64.1348C323.341 64.1348 322.199 62.4414 322.199 59.7695C322.199 57.1152 323.353 55.4102 325.263 55.4102C327.179 55.4102 328.322 57.1094 328.322 59.7637C328.322 62.4355 327.185 64.1348 325.263 64.1348ZM325.263 63.4316C326.693 63.4316 327.519 62.0078 327.519 59.7695C327.519 57.5488 326.681 56.1191 325.263 56.1191C323.851 56.1191 323.007 57.5605 323.007 59.7637C323.007 62.0078 323.833 63.4316 325.263 63.4316Z" fill="white"/>
<mask id="path-48-inside-16_252_518" fill="white">
<path d="M353.5 40H424.2V80H353.5V40Z"/>
</mask>
<path d="M353.5 40V39H352.5V40H353.5ZM353.5 41H424.2V39H353.5V41ZM354.5 80V40H352.5V80H354.5Z" fill="white" fill-opacity="0.2" mask="url(#path-48-inside-16_252_518)"/>
<path d="M379.815 64L383.735 56.2832V56.2598H379.03V55.5449H384.537V56.2949L380.664 64H379.815ZM388.393 64.1348C386.471 64.1348 385.329 62.4414 385.329 59.7695C385.329 57.1152 386.483 55.4102 388.393 55.4102C390.309 55.4102 391.452 57.1094 391.452 59.7637C391.452 62.4355 390.315 64.1348 388.393 64.1348ZM388.393 63.4316C389.823 63.4316 390.649 62.0078 390.649 59.7695C390.649 57.5488 389.811 56.1191 388.393 56.1191C386.981 56.1191 386.137 57.5605 386.137 59.7637C386.137 62.0078 386.963 63.4316 388.393 63.4316ZM395.553 64.1348C393.631 64.1348 392.489 62.4414 392.489 59.7695C392.489 57.1152 393.643 55.4102 395.553 55.4102C397.469 55.4102 398.612 57.1094 398.612 59.7637C398.612 62.4355 397.475 64.1348 395.553 64.1348ZM395.553 63.4316C396.983 63.4316 397.809 62.0078 397.809 59.7695C397.809 57.5488 396.971 56.1191 395.553 56.1191C394.141 56.1191 393.297 57.5605 393.297 59.7637C393.297 62.0078 394.123 63.4316 395.553 63.4316Z" fill="white"/>
<mask id="path-51-inside-17_252_518" fill="white">
<path d="M424.2 40H494.9V80H424.2V40Z"/>
</mask>
<path d="M424.2 40V39H423.2V40H424.2ZM424.2 41H494.9V39H424.2V41ZM425.2 80V40H423.2V80H425.2Z" fill="white" fill-opacity="0.2" mask="url(#path-51-inside-17_252_518)"/>
<path d="M452.589 64.1348C450.814 64.1348 449.578 63.1152 449.578 61.7031C449.578 60.6367 450.339 59.7695 451.464 59.5293V59.5117C450.509 59.248 449.9 58.5273 449.9 57.6191C449.9 56.3418 451.031 55.4102 452.589 55.4102C454.154 55.4102 455.273 56.3418 455.273 57.6191C455.273 58.5156 454.663 59.2363 453.714 59.5117V59.5293C454.839 59.7695 455.601 60.6426 455.601 61.7031C455.601 63.1211 454.371 64.1348 452.589 64.1348ZM452.589 63.4316C453.896 63.4316 454.787 62.6758 454.787 61.6562C454.787 60.6426 453.89 59.9219 452.589 59.9219C451.294 59.9219 450.392 60.6426 450.392 61.6562C450.392 62.6758 451.283 63.4316 452.589 63.4316ZM452.589 59.207C453.691 59.207 454.476 58.5742 454.476 57.6836C454.476 56.7754 453.72 56.1074 452.589 56.1074C451.464 56.1074 450.697 56.7754 450.697 57.6836C450.697 58.5742 451.482 59.207 452.589 59.207ZM456.82 57.9121C456.831 56.4707 457.98 55.4102 459.527 55.4102C461.003 55.4102 462.158 56.4238 462.158 57.7188C462.158 58.6445 461.742 59.3418 460.335 60.8008L457.98 63.2617V63.2852H462.374V64H456.861V63.4375L459.849 60.2793C461.056 59.0078 461.361 58.5039 461.361 57.7656C461.361 56.8398 460.54 56.1133 459.503 56.1133C458.419 56.1133 457.605 56.8809 457.593 57.9121V57.918H456.82V57.9121ZM466.476 64.1348C464.554 64.1348 463.412 62.4414 463.412 59.7695C463.412 57.1152 464.566 55.4102 466.476 55.4102C468.392 55.4102 469.535 57.1094 469.535 59.7637C469.535 62.4355 468.398 64.1348 466.476 64.1348ZM466.476 63.4316C467.906 63.4316 468.732 62.0078 468.732 59.7695C468.732 57.5488 467.894 56.1191 466.476 56.1191C465.064 56.1191 464.22 57.5605 464.22 59.7637C464.22 62.0078 465.046 63.4316 466.476 63.4316Z" fill="white"/>
<mask id="path-54-inside-18_252_518" fill="white">
<path d="M494.9 40H565.6V80H494.9V40Z"/>
</mask>
<path d="M494.9 40V39H493.9V40H494.9ZM494.9 41H565.6V39H494.9V41ZM495.9 80V40H493.9V80H495.9Z" fill="white" fill-opacity="0.2" mask="url(#path-54-inside-18_252_518)"/>
<path d="M519.832 64V56.4062H519.808C519.621 56.5234 517.787 57.8125 517.541 57.9648V57.1094C517.775 56.9629 519.568 55.6973 519.82 55.5449H520.605V64H519.832ZM525.609 64.1348C523.687 64.1348 522.545 62.4414 522.545 59.7695C522.545 57.1152 523.699 55.4102 525.609 55.4102C527.525 55.4102 528.668 57.1094 528.668 59.7637C528.668 62.4355 527.531 64.1348 525.609 64.1348ZM525.609 63.4316C527.039 63.4316 527.865 62.0078 527.865 59.7695C527.865 57.5488 527.027 56.1191 525.609 56.1191C524.197 56.1191 523.353 57.5605 523.353 59.7637C523.353 62.0078 524.18 63.4316 525.609 63.4316ZM532.769 64.1348C530.848 64.1348 529.705 62.4414 529.705 59.7695C529.705 57.1152 530.859 55.4102 532.769 55.4102C534.685 55.4102 535.828 57.1094 535.828 59.7637C535.828 62.4355 534.691 64.1348 532.769 64.1348ZM532.769 63.4316C534.199 63.4316 535.025 62.0078 535.025 59.7695C535.025 57.5488 534.187 56.1191 532.769 56.1191C531.357 56.1191 530.514 57.5605 530.514 59.7637C530.514 62.0078 531.34 63.4316 532.769 63.4316ZM539.93 64.1348C538.008 64.1348 536.865 62.4414 536.865 59.7695C536.865 57.1152 538.019 55.4102 539.93 55.4102C541.846 55.4102 542.988 57.1094 542.988 59.7637C542.988 62.4355 541.851 64.1348 539.93 64.1348ZM539.93 63.4316C541.359 63.4316 542.185 62.0078 542.185 59.7695C542.185 57.5488 541.348 56.1191 539.93 56.1191C538.517 56.1191 537.674 57.5605 537.674 59.7637C537.674 62.0078 538.5 63.4316 539.93 63.4316Z" fill="white"/>
<mask id="path-57-inside-19_252_518" fill="white">
<path d="M565.6 40H636.3V80H565.6V40Z"/>
</mask>
<path d="M565.6 40V39H564.6V40H565.6ZM565.6 41H636.3V39H565.6V41ZM566.6 80V40H564.6V80H566.6Z" fill="white" fill-opacity="0.2" mask="url(#path-57-inside-19_252_518)"/>
<path d="M593.989 64.1348C592.214 64.1348 590.977 63.1152 590.977 61.7031C590.977 60.6367 591.739 59.7695 592.864 59.5293V59.5117C591.909 59.248 591.3 58.5273 591.3 57.6191C591.3 56.3418 592.431 55.4102 593.989 55.4102C595.554 55.4102 596.673 56.3418 596.673 57.6191C596.673 58.5156 596.063 59.2363 595.114 59.5117V59.5293C596.239 59.7695 597.001 60.6426 597.001 61.7031C597.001 63.1211 595.77 64.1348 593.989 64.1348ZM593.989 63.4316C595.296 63.4316 596.186 62.6758 596.186 61.6562C596.186 60.6426 595.29 59.9219 593.989 59.9219C592.694 59.9219 591.792 60.6426 591.792 61.6562C591.792 62.6758 592.683 63.4316 593.989 63.4316ZM593.989 59.207C595.091 59.207 595.876 58.5742 595.876 57.6836C595.876 56.7754 595.12 56.1074 593.989 56.1074C592.864 56.1074 592.097 56.7754 592.097 57.6836C592.097 58.5742 592.882 59.207 593.989 59.207ZM598.22 57.9121C598.231 56.4707 599.38 55.4102 600.927 55.4102C602.403 55.4102 603.558 56.4238 603.558 57.7188C603.558 58.6445 603.142 59.3418 601.735 60.8008L599.38 63.2617V63.2852H603.774V64H598.261V63.4375L601.249 60.2793C602.456 59.0078 602.761 58.5039 602.761 57.7656C602.761 56.8398 601.94 56.1133 600.903 56.1133C599.819 56.1133 599.005 56.8809 598.993 57.9121V57.918H598.22V57.9121ZM607.876 64.1348C605.954 64.1348 604.811 62.4414 604.811 59.7695C604.811 57.1152 605.966 55.4102 607.876 55.4102C609.792 55.4102 610.934 57.1094 610.934 59.7637C610.934 62.4355 609.798 64.1348 607.876 64.1348ZM607.876 63.4316C609.306 63.4316 610.132 62.0078 610.132 59.7695C610.132 57.5488 609.294 56.1191 607.876 56.1191C606.464 56.1191 605.62 57.5605 605.62 59.7637C605.62 62.0078 606.446 63.4316 607.876 63.4316Z" fill="white"/>
<mask id="path-60-inside-20_252_518" fill="white">
<path d="M636.3 40H707V80H636.3V40Z"/>
</mask>
<path d="M636.3 40V39H635.3V40H636.3ZM636.3 41H707V39H636.3V41ZM637.3 80V40H635.3V80H637.3Z" fill="white" fill-opacity="0.2" mask="url(#path-60-inside-20_252_518)"/>
<path d="M661.232 64V56.4062H661.208C661.021 56.5234 659.187 57.8125 658.941 57.9648V57.1094C659.175 56.9629 660.968 55.6973 661.22 55.5449H662.005V64H661.232ZM667.009 64.1348C665.087 64.1348 663.945 62.4414 663.945 59.7695C663.945 57.1152 665.099 55.4102 667.009 55.4102C668.925 55.4102 670.068 57.1094 670.068 59.7637C670.068 62.4355 668.931 64.1348 667.009 64.1348ZM667.009 63.4316C668.439 63.4316 669.265 62.0078 669.265 59.7695C669.265 57.5488 668.427 56.1191 667.009 56.1191C665.597 56.1191 664.753 57.5605 664.753 59.7637C664.753 62.0078 665.579 63.4316 667.009 63.4316ZM674.169 64.1348C672.247 64.1348 671.105 62.4414 671.105 59.7695C671.105 57.1152 672.259 55.4102 674.169 55.4102C676.085 55.4102 677.228 57.1094 677.228 59.7637C677.228 62.4355 676.091 64.1348 674.169 64.1348ZM674.169 63.4316C675.599 63.4316 676.425 62.0078 676.425 59.7695C676.425 57.5488 675.587 56.1191 674.169 56.1191C672.757 56.1191 671.913 57.5605 671.913 59.7637C671.913 62.0078 672.74 63.4316 674.169 63.4316ZM681.329 64.1348C679.408 64.1348 678.265 62.4414 678.265 59.7695C678.265 57.1152 679.419 55.4102 681.329 55.4102C683.246 55.4102 684.388 57.1094 684.388 59.7637C684.388 62.4355 683.251 64.1348 681.329 64.1348ZM681.329 63.4316C682.759 63.4316 683.585 62.0078 683.585 59.7695C683.585 57.5488 682.747 56.1191 681.329 56.1191C679.917 56.1191 679.074 57.5605 679.074 59.7637C679.074 62.0078 679.9 63.4316 681.329 63.4316Z" fill="white"/>
</g>
<g clip-path="url(#clip3_252_518)">
<rect width="707" height="40" transform="translate(0 80)" fill="#86A2FF" fill-opacity="0.2"/>
<mask id="path-63-inside-21_252_518" fill="white">
<path d="M0 80H70.7V120H0V80Z"/>
</mask>
<path d="M0 80V79H-1V80H0ZM0 81H70.7V79H0V81ZM1 120V80H-1V120H1Z" fill="white" fill-opacity="0.2" mask="url(#path-63-inside-21_252_518)"/>
<path d="M17.0039 98H16.3086V93.0039H13.293V98H12.5859V92.3633H17.0039V98ZM19.7578 98.0703C18.6328 98.0703 17.875 97.2617 17.875 95.9688C17.875 94.6719 18.6328 93.8672 19.7578 93.8672C20.8789 93.8672 21.6367 94.6719 21.6367 95.9688C21.6367 97.2617 20.8789 98.0703 19.7578 98.0703ZM19.7578 97.4727C20.4766 97.4727 20.9453 96.9258 20.9453 95.9688C20.9453 95.0117 20.4766 94.4648 19.7578 94.4648C19.0391 94.4648 18.5664 95.0117 18.5664 95.9688C18.5664 96.9258 19.0391 97.4727 19.7578 97.4727ZM23.3203 96.207C23.2383 97.3281 22.9688 98.0352 22.1133 98.0352C21.9961 98.0352 21.918 98.0117 21.8711 97.9922V97.3789C21.9062 97.3906 21.9805 97.4102 22.0781 97.4102C22.4805 97.4102 22.6328 96.9375 22.6836 96.1914L22.8398 93.9375H25.5V98H24.8281V94.4961H23.4453L23.3203 96.207ZM28.0938 94.457C27.457 94.457 27.0117 94.9453 26.9688 95.6211H29.1758C29.1602 94.9414 28.7344 94.457 28.0938 94.457ZM29.1602 96.8359H29.8281C29.7109 97.5469 29.0234 98.0703 28.1367 98.0703C26.9727 98.0703 26.2656 97.2617 26.2656 95.9844C26.2656 94.7227 26.9844 93.8672 28.1055 93.8672C29.2031 93.8672 29.8789 94.6641 29.8789 95.8945V96.1523H26.9648V96.1914C26.9648 96.9688 27.4219 97.4805 28.1523 97.4805C28.668 97.4805 29.0469 97.2188 29.1602 96.8359ZM31.9883 98.0703C31.0977 98.0703 30.4531 97.6328 30.3828 96.9453H31.0703C31.1484 97.3008 31.4844 97.5078 31.9883 97.5078C32.5781 97.5078 32.9062 97.2266 32.9062 96.832C32.9062 96.375 32.6016 96.168 31.9883 96.168H31.3789V95.6133H31.9883C32.5039 95.6133 32.7695 95.418 32.7695 95.0195C32.7695 94.6797 32.5273 94.4336 32.0039 94.4336C31.5234 94.4336 31.1875 94.6406 31.1328 94.9648H30.4727C30.5586 94.293 31.1445 93.8672 32.0039 93.8672C32.9297 93.8672 33.4336 94.3125 33.4336 94.9648C33.4336 95.3789 33.168 95.7461 32.7617 95.8398V95.8711C33.2969 95.9883 33.5742 96.332 33.5742 96.8008C33.5742 97.5586 32.9414 98.0703 31.9883 98.0703ZM37.0273 98V96.1719H35.0234V98H34.3516V93.9375H35.0234V95.6133H37.0273V93.9375H37.6992V98H37.0273ZM40 97.4922C40.6406 97.4922 41.1328 97.043 41.1328 96.457V96.125L40.0469 96.1914C39.5 96.2266 39.1875 96.4688 39.1875 96.8516C39.1875 97.2383 39.5117 97.4922 40 97.4922ZM39.8477 98.0703C39.0391 98.0703 38.4961 97.582 38.4961 96.8516C38.4961 96.1562 39.0312 95.7188 39.9688 95.6641L41.1328 95.5977V95.2578C41.1328 94.7617 40.8047 94.4648 40.2422 94.4648C39.7188 94.4648 39.3906 94.7109 39.3047 95.1094H38.6484C38.6953 94.4062 39.2969 93.8672 40.2578 93.8672C41.2109 93.8672 41.8125 94.3828 41.8125 95.1914V98H41.168V97.3008H41.1523C40.9102 97.7656 40.3945 98.0703 39.8477 98.0703ZM44.2109 95.9961H44.9883V94.4961H44.2109C43.6836 94.4961 43.3477 94.7852 43.3477 95.2734C43.3477 95.6953 43.6875 95.9961 44.2109 95.9961ZM44.9883 98V96.5547H44.2695L43.2383 98H42.4609L43.5938 96.4297C43.0195 96.2656 42.6719 95.8438 42.6719 95.2852C42.6719 94.4492 43.2734 93.9375 44.207 93.9375H45.6602V98H44.9883ZM15.1523 108V106.172H13.1484V108H12.4766V103.938H13.1484V105.613H15.1523V103.938H15.8242V108H15.1523ZM18.125 107.492C18.7656 107.492 19.2578 107.043 19.2578 106.457V106.125L18.1719 106.191C17.625 106.227 17.3125 106.469 17.3125 106.852C17.3125 107.238 17.6367 107.492 18.125 107.492ZM17.9727 108.07C17.1641 108.07 16.6211 107.582 16.6211 106.852C16.6211 106.156 17.1562 105.719 18.0938 105.664L19.2578 105.598V105.258C19.2578 104.762 18.9297 104.465 18.3672 104.465C17.8438 104.465 17.5156 104.711 17.4297 105.109H16.7734C16.8203 104.406 17.4219 103.867 18.3828 103.867C19.3359 103.867 19.9375 104.383 19.9375 105.191V108H19.293V107.301H19.2773C19.0352 107.766 18.5195 108.07 17.9727 108.07ZM23.4883 104.496H21.5469V108H20.875V103.938H23.4883V104.496ZM26.2031 103.867C27.2383 103.867 27.9414 104.695 27.9414 105.969C27.9414 107.242 27.2422 108.07 26.2188 108.07C25.6367 108.07 25.168 107.785 24.9258 107.34H24.9102V109.355H24.2305V103.938H24.875V104.625H24.8906C25.1406 104.168 25.6133 103.867 26.2031 103.867ZM26.0703 107.473C26.793 107.473 27.2461 106.891 27.2461 105.969C27.2461 105.051 26.793 104.465 26.0703 104.465C25.375 104.465 24.9062 105.066 24.9062 105.969C24.9062 106.875 25.375 107.473 26.0703 107.473ZM28.918 109.52C28.8359 109.52 28.6992 109.512 28.625 109.496V108.926C28.6992 108.941 28.8047 108.945 28.8906 108.945C29.2695 108.945 29.4805 108.762 29.6367 108.289L29.7305 108.004L28.2305 103.938H28.957L30.082 107.32H30.0938L31.2188 103.938H31.9336L30.3359 108.285C29.9883 109.234 29.6523 109.52 28.918 109.52ZM33.8945 108.07C33.0039 108.07 32.3594 107.633 32.2891 106.945H32.9766C33.0547 107.301 33.3906 107.508 33.8945 107.508C34.4844 107.508 34.8125 107.227 34.8125 106.832C34.8125 106.375 34.5078 106.168 33.8945 106.168H33.2852V105.613H33.8945C34.4102 105.613 34.6758 105.418 34.6758 105.02C34.6758 104.68 34.4336 104.434 33.9102 104.434C33.4297 104.434 33.0938 104.641 33.0391 104.965H32.3789C32.4648 104.293 33.0508 103.867 33.9102 103.867C34.8359 103.867 35.3398 104.312 35.3398 104.965C35.3398 105.379 35.0742 105.746 34.668 105.84V105.871C35.2031 105.988 35.4805 106.332 35.4805 106.801C35.4805 107.559 34.8477 108.07 33.8945 108.07ZM37.6367 105.859L39.5898 108H38.7148L36.9609 106.047H36.9297V108H36.2578V103.938H36.9297V105.734H36.9609L38.6953 103.938H39.5352L37.6367 105.859ZM41.3828 107.492C42.0234 107.492 42.5156 107.043 42.5156 106.457V106.125L41.4297 106.191C40.8828 106.227 40.5703 106.469 40.5703 106.852C40.5703 107.238 40.8945 107.492 41.3828 107.492ZM41.2305 108.07C40.4219 108.07 39.8789 107.582 39.8789 106.852C39.8789 106.156 40.4141 105.719 41.3516 105.664L42.5156 105.598V105.258C42.5156 104.762 42.1875 104.465 41.625 104.465C41.1016 104.465 40.7734 104.711 40.6875 105.109H40.0312C40.0781 104.406 40.6797 103.867 41.6406 103.867C42.5938 103.867 43.1953 104.383 43.1953 105.191V108H42.5508V107.301H42.5352C42.293 107.766 41.7773 108.07 41.2305 108.07ZM44.5625 109.121H43.9961L44.375 107.133H45.0977L44.5625 109.121ZM48.793 105.859L50.7461 108H49.8711L48.1172 106.047H48.0859V108H47.4141V103.938H48.0859V105.734H48.1172L49.8516 103.938H50.6914L48.793 105.859ZM53.9258 104.496H51.9844V108H51.3125V103.938H53.9258V104.496Z" fill="white"/>
<mask id="path-66-inside-22_252_518" fill="white">
<path d="M70.7002 80H141.4V120H70.7002V80Z"/>
</mask>
<path d="M70.7002 80V79H69.7002V80H70.7002ZM70.7002 81H141.4V79H70.7002V81ZM71.7002 120V80H69.7002V120H71.7002Z" fill="white" fill-opacity="0.2" mask="url(#path-66-inside-22_252_518)"/>
<path d="M104.919 99.9746V99.2949H105.904C107.011 99.2949 107.773 98.6152 107.773 97.6719C107.773 96.7578 107.081 96.1133 105.939 96.1133C104.89 96.1133 104.146 96.7461 104.058 97.6836H103.285C103.384 96.3242 104.451 95.4102 105.974 95.4102C107.462 95.4102 108.581 96.3184 108.581 97.5723C108.581 98.6328 107.896 99.3945 106.818 99.5879V99.6113C108.113 99.6875 108.945 100.49 108.945 101.686C108.945 103.115 107.667 104.135 106.021 104.135C104.316 104.135 103.162 103.162 103.109 101.809H103.882C103.947 102.752 104.796 103.432 106.015 103.432C107.24 103.432 108.13 102.711 108.13 101.709C108.13 100.631 107.298 99.9746 105.939 99.9746H104.919Z" fill="white"/>
<mask id="path-69-inside-23_252_518" fill="white">
<path d="M141.4 80H212.1V120H141.4V80Z"/>
</mask>
<path d="M141.4 80V79H140.4V80H141.4ZM141.4 81H212.1V79H141.4V81ZM142.4 120V80H140.4V120H142.4Z" fill="white" fill-opacity="0.2" mask="url(#path-69-inside-23_252_518)"/>
<path d="M176.902 104.135C175.766 104.135 174.84 103.561 174.318 102.535C173.937 101.873 173.75 101.012 173.75 99.9512C173.75 97.1152 174.957 95.4102 176.961 95.4102C178.367 95.4102 179.445 96.2598 179.685 97.5547H178.877C178.666 96.6934 177.898 96.1191 176.955 96.1191C175.408 96.1191 174.523 97.5605 174.523 100.068H174.541C174.887 99.1191 175.889 98.4629 177.031 98.4629C178.637 98.4629 179.838 99.6582 179.838 101.258C179.838 102.916 178.596 104.135 176.902 104.135ZM176.896 103.42C178.086 103.42 179.023 102.477 179.023 101.281C179.023 100.068 178.127 99.1719 176.902 99.1719C175.695 99.1719 174.752 100.074 174.752 101.223C174.752 102.453 175.683 103.42 176.896 103.42Z" fill="white"/>
<mask id="path-72-inside-24_252_518" fill="white">
<path d="M212.1 80H282.8V120H212.1V80Z"/>
</mask>
<path d="M212.1 80V79H211.1V80H212.1ZM212.1 81H282.8V79H212.1V81ZM213.1 120V80H211.1V120H213.1Z" fill="white" fill-opacity="0.2" mask="url(#path-72-inside-24_252_518)"/>
<path d="M247.602 104.135C246.466 104.135 245.54 103.561 245.018 102.535C244.638 101.873 244.45 101.012 244.45 99.9512C244.45 97.1152 245.657 95.4102 247.661 95.4102C249.067 95.4102 250.145 96.2598 250.386 97.5547H249.577C249.366 96.6934 248.599 96.1191 247.655 96.1191C246.108 96.1191 245.224 97.5605 245.224 100.068H245.241C245.587 99.1191 246.589 98.4629 247.731 98.4629C249.337 98.4629 250.538 99.6582 250.538 101.258C250.538 102.916 249.296 104.135 247.602 104.135ZM247.597 103.42C248.786 103.42 249.724 102.477 249.724 101.281C249.724 100.068 248.827 99.1719 247.602 99.1719C246.395 99.1719 245.452 100.074 245.452 101.223C245.452 102.453 246.384 103.42 247.597 103.42Z" fill="white"/>
<mask id="path-75-inside-25_252_518" fill="white">
<path d="M282.8 80H353.5V120H282.8V80Z"/>
</mask>
<path d="M282.8 80V79H281.8V80H282.8ZM282.8 81H353.5V79H282.8V81ZM283.8 120V80H281.8V120H283.8Z" fill="white" fill-opacity="0.2" mask="url(#path-75-inside-25_252_518)"/>
<path d="M315.121 104V96.4062H315.097C314.91 96.5234 313.076 97.8125 312.829 97.9648V97.1094C313.064 96.9629 314.857 95.6973 315.109 95.5449H315.894V104H315.121ZM317.945 97.9121C317.956 96.4707 319.105 95.4102 320.652 95.4102C322.128 95.4102 323.283 96.4238 323.283 97.7188C323.283 98.6445 322.867 99.3418 321.46 100.801L319.105 103.262V103.285H323.499V104H317.986V103.438L320.974 100.279C322.181 99.0078 322.486 98.5039 322.486 97.7656C322.486 96.8398 321.665 96.1133 320.628 96.1133C319.544 96.1133 318.73 96.8809 318.718 97.9121V97.918H317.945V97.9121Z" fill="white"/>
<mask id="path-78-inside-26_252_518" fill="white">
<path d="M353.5 80H424.2V120H353.5V80Z"/>
</mask>
<path d="M353.5 80V79H352.5V80H353.5ZM353.5 81H424.2V79H353.5V81ZM354.5 120V80H352.5V120H354.5Z" fill="white" fill-opacity="0.2" mask="url(#path-78-inside-26_252_518)"/>
<path d="M385.821 104V96.4062H385.797C385.61 96.5234 383.776 97.8125 383.53 97.9648V97.1094C383.764 96.9629 385.557 95.6973 385.809 95.5449H386.594V104H385.821ZM388.645 97.9121C388.657 96.4707 389.805 95.4102 391.352 95.4102C392.829 95.4102 393.983 96.4238 393.983 97.7188C393.983 98.6445 393.567 99.3418 392.161 100.801L389.805 103.262V103.285H394.2V104H388.686V103.438L391.674 100.279C392.881 99.0078 393.186 98.5039 393.186 97.7656C393.186 96.8398 392.366 96.1133 391.329 96.1133C390.245 96.1133 389.43 96.8809 389.418 97.9121V97.918H388.645V97.9121Z" fill="white"/>
<mask id="path-81-inside-27_252_518" fill="white">
<path d="M424.2 80H494.9V120H424.2V80Z"/>
</mask>
<path d="M424.2 80V79H423.2V80H424.2ZM424.2 81H494.9V79H424.2V81ZM425.2 120V80H423.2V120H425.2Z" fill="white" fill-opacity="0.2" mask="url(#path-81-inside-27_252_518)"/>
<path d="M456.521 104V96.4062H456.497C456.31 96.5234 454.476 97.8125 454.23 97.9648V97.1094C454.464 96.9629 456.257 95.6973 456.509 95.5449H457.294V104H456.521ZM459.345 97.9121C459.357 96.4707 460.505 95.4102 462.052 95.4102C463.529 95.4102 464.683 96.4238 464.683 97.7188C464.683 98.6445 464.267 99.3418 462.861 100.801L460.505 103.262V103.285H464.9V104H459.386V103.438L462.374 100.279C463.581 99.0078 463.886 98.5039 463.886 97.7656C463.886 96.8398 463.066 96.1133 462.029 96.1133C460.945 96.1133 460.13 96.8809 460.119 97.9121V97.918H459.345V97.9121Z" fill="white"/>
<mask id="path-84-inside-28_252_518" fill="white">
<path d="M494.9 80H565.6V120H494.9V80Z"/>
</mask>
<path d="M494.9 80V79H493.9V80H494.9ZM494.9 81H565.6V79H494.9V81ZM495.9 120V80H493.9V120H495.9Z" fill="white" fill-opacity="0.2" mask="url(#path-84-inside-28_252_518)"/>
<path d="M527.221 104V96.4062H527.197C527.01 96.5234 525.176 97.8125 524.93 97.9648V97.1094C525.164 96.9629 526.957 95.6973 527.209 95.5449H527.994V104H527.221ZM530.045 97.9121C530.057 96.4707 531.205 95.4102 532.752 95.4102C534.228 95.4102 535.383 96.4238 535.383 97.7188C535.383 98.6445 534.967 99.3418 533.56 100.801L531.205 103.262V103.285H535.6V104H530.086V103.438L533.074 100.279C534.281 99.0078 534.586 98.5039 534.586 97.7656C534.586 96.8398 533.766 96.1133 532.728 96.1133C531.644 96.1133 530.83 96.8809 530.818 97.9121V97.918H530.045V97.9121Z" fill="white"/>
<mask id="path-87-inside-29_252_518" fill="white">
<path d="M565.6 80H636.3V120H565.6V80Z"/>
</mask>
<path d="M565.6 80V79H564.6V80H565.6ZM565.6 81H636.3V79H565.6V81ZM566.6 120V80H564.6V120H566.6Z" fill="white" fill-opacity="0.2" mask="url(#path-87-inside-29_252_518)"/>
<path d="M594.669 97.9121C594.681 96.4707 595.829 95.4102 597.376 95.4102C598.852 95.4102 600.007 96.4238 600.007 97.7188C600.007 98.6445 599.591 99.3418 598.184 100.801L595.829 103.262V103.285H600.224V104H594.71V103.438L597.698 100.279C598.905 99.0078 599.21 98.5039 599.21 97.7656C599.21 96.8398 598.39 96.1133 597.352 96.1133C596.268 96.1133 595.454 96.8809 595.442 97.9121V97.918H594.669V97.9121ZM604.325 104.135C602.403 104.135 601.261 102.441 601.261 99.7695C601.261 97.1152 602.415 95.4102 604.325 95.4102C606.241 95.4102 607.384 97.1094 607.384 99.7637C607.384 102.436 606.247 104.135 604.325 104.135ZM604.325 103.432C605.755 103.432 606.581 102.008 606.581 99.7695C606.581 97.5488 605.743 96.1191 604.325 96.1191C602.913 96.1191 602.069 97.5605 602.069 99.7637C602.069 102.008 602.895 103.432 604.325 103.432Z" fill="white"/>
<mask id="path-90-inside-30_252_518" fill="white">
<path d="M636.3 80H707V120H636.3V80Z"/>
</mask>
<path d="M636.3 80V79H635.3V80H636.3ZM636.3 81H707V79H636.3V81ZM637.3 120V80H635.3V120H637.3Z" fill="white" fill-opacity="0.2" mask="url(#path-90-inside-30_252_518)"/>
<path d="M665.369 97.9121C665.38 96.4707 666.529 95.4102 668.076 95.4102C669.552 95.4102 670.706 96.4238 670.706 97.7188C670.706 98.6445 670.29 99.3418 668.884 100.801L666.529 103.262V103.285H670.923V104H665.41V103.438L668.398 100.279C669.605 99.0078 669.91 98.5039 669.91 97.7656C669.91 96.8398 669.089 96.1133 668.052 96.1133C666.968 96.1133 666.154 96.8809 666.142 97.9121V97.918H665.369V97.9121ZM675.025 104.135C673.103 104.135 671.96 102.441 671.96 99.7695C671.96 97.1152 673.115 95.4102 675.025 95.4102C676.941 95.4102 678.083 97.1094 678.083 99.7637C678.083 102.436 676.947 104.135 675.025 104.135ZM675.025 103.432C676.454 103.432 677.281 102.008 677.281 99.7695C677.281 97.5488 676.443 96.1191 675.025 96.1191C673.613 96.1191 672.769 97.5605 672.769 99.7637C672.769 102.008 673.595 103.432 675.025 103.432Z" fill="white"/>
</g>
<g clip-path="url(#clip4_252_518)">
<rect width="707" height="40" transform="translate(0 120)" fill="#86A2FF" fill-opacity="0.2"/>
<mask id="path-93-inside-31_252_518" fill="white">
<path d="M0 120H70.7V160H0V120Z"/>
</mask>
<path d="M0 120V119H-1V120H0ZM0 121H70.7V119H0V121ZM1 160V120H-1V160H1Z" fill="white" fill-opacity="0.2" mask="url(#path-93-inside-31_252_518)"/>
<path d="M14.0625 135.059L16.8867 138H15.9219L13.3203 135.262H13.2891V138H12.5859V132.363H13.2891V134.961H13.3203L15.7422 132.363H16.625L14.0625 135.059ZM18.9062 138.07C17.7812 138.07 17.0234 137.262 17.0234 135.969C17.0234 134.672 17.7812 133.867 18.9062 133.867C20.0273 133.867 20.7852 134.672 20.7852 135.969C20.7852 137.262 20.0273 138.07 18.9062 138.07ZM18.9062 137.473C19.625 137.473 20.0938 136.926 20.0938 135.969C20.0938 135.012 19.625 134.465 18.9062 134.465C18.1875 134.465 17.7148 135.012 17.7148 135.969C17.7148 136.926 18.1875 137.473 18.9062 137.473ZM22.4688 136.207C22.3867 137.328 22.1172 138.035 21.2617 138.035C21.1445 138.035 21.0664 138.012 21.0195 137.992V137.379C21.0547 137.391 21.1289 137.41 21.2266 137.41C21.6289 137.41 21.7812 136.938 21.832 136.191L21.9883 133.938H24.6484V138H23.9766V134.496H22.5938L22.4688 136.207ZM26.2812 138H25.6094V133.938H26.2812V136.961H26.3125L28.3438 133.938H29.0156V138H28.3438V134.977H28.3125L26.2812 138ZM33.0664 138H32.3945V136.246H32.3359C32.1172 136.434 31.793 136.562 31.3516 136.562C30.3789 136.562 29.8672 135.973 29.8672 135.105V133.938H30.5391V135.098C30.5391 135.629 30.8242 135.969 31.3711 135.969C31.875 135.969 32.207 135.781 32.3945 135.57V133.938H33.0664V138ZM35.6562 134.457C35.0195 134.457 34.5742 134.945 34.5312 135.621H36.7383C36.7227 134.941 36.2969 134.457 35.6562 134.457ZM36.7227 136.836H37.3906C37.2734 137.547 36.5859 138.07 35.6992 138.07C34.5352 138.07 33.8281 137.262 33.8281 135.984C33.8281 134.723 34.5469 133.867 35.668 133.867C36.7656 133.867 37.4414 134.664 37.4414 135.895V136.152H34.5273V136.191C34.5273 136.969 34.9844 137.48 35.7148 137.48C36.2305 137.48 36.6094 137.219 36.7227 136.836ZM41.5586 135.188H40.8867C40.7695 134.797 40.4375 134.465 39.8633 134.465C39.1562 134.465 38.6914 135.062 38.6914 135.969C38.6914 136.898 39.1641 137.473 39.8711 137.473C40.4102 137.473 40.7656 137.207 40.8945 136.758H41.5664C41.4336 137.527 40.7812 138.07 39.8672 138.07C38.7383 138.07 38 137.262 38 135.969C38 134.703 38.7344 133.867 39.8594 133.867C40.8398 133.867 41.4375 134.496 41.5586 135.188ZM45.168 133.938V134.496H43.8555V138H43.1836V134.496H41.8711V133.938H45.168ZM47.4414 134.488H46.4688V135.625H47.3398C47.8516 135.625 48.0977 135.438 48.0977 135.047C48.0977 134.688 47.8672 134.488 47.4414 134.488ZM47.3945 136.172H46.4688V137.449H47.5156C48.0078 137.449 48.2734 137.227 48.2734 136.816C48.2734 136.383 47.9883 136.172 47.3945 136.172ZM45.7969 138V133.938H47.5352C48.2969 133.938 48.7617 134.332 48.7617 134.977C48.7617 135.391 48.4688 135.773 48.0938 135.852V135.883C48.6055 135.953 48.9414 136.324 48.9414 136.832C48.9414 137.551 48.4102 138 47.5469 138H45.7969ZM51.4062 138.07C50.2812 138.07 49.5234 137.262 49.5234 135.969C49.5234 134.672 50.2812 133.867 51.4062 133.867C52.5273 133.867 53.2852 134.672 53.2852 135.969C53.2852 137.262 52.5273 138.07 51.4062 138.07ZM51.4062 137.473C52.125 137.473 52.5938 136.926 52.5938 135.969C52.5938 135.012 52.125 134.465 51.4062 134.465C50.6875 134.465 50.2148 135.012 50.2148 135.969C50.2148 136.926 50.6875 137.473 51.4062 137.473ZM14.1641 148.07C13.0391 148.07 12.2812 147.262 12.2812 145.969C12.2812 144.672 13.0391 143.867 14.1641 143.867C15.2852 143.867 16.043 144.672 16.043 145.969C16.043 147.262 15.2852 148.07 14.1641 148.07ZM14.1641 147.473C14.8828 147.473 15.3516 146.926 15.3516 145.969C15.3516 145.012 14.8828 144.465 14.1641 144.465C13.4453 144.465 12.9727 145.012 12.9727 145.969C12.9727 146.926 13.4453 147.473 14.1641 147.473ZM20.1602 145.188H19.4883C19.3711 144.797 19.0391 144.465 18.4648 144.465C17.7578 144.465 17.293 145.062 17.293 145.969C17.293 146.898 17.7656 147.473 18.4727 147.473C19.0117 147.473 19.3672 147.207 19.4961 146.758H20.168C20.0352 147.527 19.3828 148.07 18.4688 148.07C17.3398 148.07 16.6016 147.262 16.6016 145.969C16.6016 144.703 17.3359 143.867 18.4609 143.867C19.4414 143.867 20.0391 144.496 20.1602 145.188ZM22.5078 144.457C21.8711 144.457 21.4258 144.945 21.3828 145.621H23.5898C23.5742 144.941 23.1484 144.457 22.5078 144.457ZM23.5742 146.836H24.2422C24.125 147.547 23.4375 148.07 22.5508 148.07C21.3867 148.07 20.6797 147.262 20.6797 145.984C20.6797 144.723 21.3984 143.867 22.5195 143.867C23.6172 143.867 24.293 144.664 24.293 145.895V146.152H21.3789V146.191C21.3789 146.969 21.8359 147.48 22.5664 147.48C23.082 147.48 23.4609 147.219 23.5742 146.836ZM25.7188 148H25.0469V143.938H25.7188V146.961H25.75L27.7812 143.938H28.4531V148H27.7812V144.977H27.75L25.7188 148ZM25.5664 142.18H26.0664C26.0664 142.633 26.3594 142.988 26.8242 142.988C27.2891 142.988 27.582 142.633 27.582 142.18H28.082C28.082 142.898 27.5703 143.391 26.8242 143.391C26.0781 143.391 25.5664 142.898 25.5664 142.18Z" fill="white"/>
<mask id="path-96-inside-32_252_518" fill="white">
<path d="M70.7002 120H141.4V160H70.7002V120Z"/>
</mask>
<path d="M70.7002 120V119H69.7002V120H70.7002ZM70.7002 121H141.4V119H70.7002V121ZM71.7002 160V120H69.7002V160H71.7002Z" fill="white" fill-opacity="0.2" mask="url(#path-96-inside-32_252_518)"/>
<path d="M107.222 144V142.09H102.933V141.357C103.853 139.811 104.96 138.152 106.829 135.533H108.001V141.381H109.261V142.09H108.001V144H107.222ZM103.742 141.357V141.381H107.222V136.236H107.21C105.652 138.393 104.585 139.986 103.742 141.357Z" fill="white"/>
<mask id="path-99-inside-33_252_518" fill="white">
<path d="M141.4 120H212.1V160H141.4V120Z"/>
</mask>
<path d="M141.4 120V119H140.4V120H141.4ZM141.4 121H212.1V119H141.4V121ZM142.4 160V120H140.4V160H142.4Z" fill="white" fill-opacity="0.2" mask="url(#path-99-inside-33_252_518)"/>
<path d="M177.922 144V142.09H173.633V141.357C174.553 139.811 175.66 138.152 177.529 135.533H178.701V141.381H179.961V142.09H178.701V144H177.922ZM174.441 141.357V141.381H177.922V136.236H177.91C176.351 138.393 175.285 139.986 174.441 141.357Z" fill="white"/>
<mask id="path-102-inside-34_252_518" fill="white">
<path d="M212.1 120H282.8V160H212.1V120Z"/>
</mask>
<path d="M212.1 120V119H211.1V120H212.1ZM212.1 121H282.8V119H212.1V121ZM213.1 160V120H211.1V160H213.1Z" fill="white" fill-opacity="0.2" mask="url(#path-102-inside-34_252_518)"/>
<path d="M248.622 144V142.09H244.333V141.357C245.253 139.811 246.36 138.152 248.229 135.533H249.401V141.381H250.661V142.09H249.401V144H248.622ZM245.142 141.357V141.381H248.622V136.236H248.61C247.052 138.393 245.985 139.986 245.142 141.357Z" fill="white"/>
<mask id="path-105-inside-35_252_518" fill="white">
<path d="M282.8 120H353.5V160H282.8V120Z"/>
</mask>
<path d="M282.8 120V119H281.8V120H282.8ZM282.8 121H353.5V119H282.8V121ZM283.8 160V120H281.8V160H283.8Z" fill="white" fill-opacity="0.2" mask="url(#path-105-inside-35_252_518)"/>
<path d="M319.322 144V142.09H315.033V141.357C315.953 139.811 317.06 138.152 318.929 135.533H320.101V141.381H321.361V142.09H320.101V144H319.322ZM315.841 141.357V141.381H319.322V136.236H319.31C317.751 138.393 316.685 139.986 315.841 141.357Z" fill="white"/>
<mask id="path-108-inside-36_252_518" fill="white">
<path d="M353.5 120H424.2V160H353.5V120Z"/>
</mask>
<path d="M353.5 120V119H352.5V120H353.5ZM353.5 121H424.2V119H353.5V121ZM354.5 160V120H352.5V160H354.5Z" fill="white" fill-opacity="0.2" mask="url(#path-108-inside-36_252_518)"/>
<path d="M390.022 144V142.09H385.733V141.357C386.653 139.811 387.76 138.152 389.629 135.533H390.801V141.381H392.061V142.09H390.801V144H390.022ZM386.541 141.357V141.381H390.022V136.236H390.01C388.452 138.393 387.385 139.986 386.541 141.357Z" fill="white"/>
<mask id="path-111-inside-37_252_518" fill="white">
<path d="M424.2 120H494.9V160H424.2V120Z"/>
</mask>
<path d="M424.2 120V119H423.2V120H424.2ZM424.2 121H494.9V119H424.2V121ZM425.2 160V120H423.2V160H425.2Z" fill="white" fill-opacity="0.2" mask="url(#path-111-inside-37_252_518)"/>
<path d="M460.722 144V142.09H456.433V141.357C457.353 139.811 458.46 138.152 460.329 135.533H461.501V141.381H462.761V142.09H461.501V144H460.722ZM457.242 141.357V141.381H460.722V136.236H460.71C459.152 138.393 458.085 139.986 457.242 141.357Z" fill="white"/>
<mask id="path-114-inside-38_252_518" fill="white">
<path d="M494.9 120H565.6V160H494.9V120Z"/>
</mask>
<path d="M494.9 120V119H493.9V120H494.9ZM494.9 121H565.6V119H494.9V121ZM495.9 160V120H493.9V160H495.9Z" fill="white" fill-opacity="0.2" mask="url(#path-114-inside-38_252_518)"/>
<path d="M531.422 144V142.09H527.133V141.357C528.053 139.811 529.16 138.152 531.029 135.533H532.201V141.381H533.461V142.09H532.201V144H531.422ZM527.941 141.357V141.381H531.422V136.236H531.41C529.851 138.393 528.785 139.986 527.941 141.357Z" fill="white"/>
<mask id="path-117-inside-39_252_518" fill="white">
<path d="M565.6 120H636.3V160H565.6V120Z"/>
</mask>
<path d="M565.6 120V119H564.6V120H565.6ZM565.6 121H636.3V119H565.6V121ZM566.6 160V120H564.6V160H566.6Z" fill="white" fill-opacity="0.2" mask="url(#path-117-inside-39_252_518)"/>
<path d="M602.122 144V142.09H597.833V141.357C598.753 139.811 599.86 138.152 601.729 135.533H602.901V141.381H604.161V142.09H602.901V144H602.122ZM598.642 141.357V141.381H602.122V136.236H602.11C600.552 138.393 599.485 139.986 598.642 141.357Z" fill="white"/>
<mask id="path-120-inside-40_252_518" fill="white">
<path d="M636.3 120H707V160H636.3V120Z"/>
</mask>
<path d="M636.3 120V119H635.3V120H636.3ZM636.3 121H707V119H636.3V121ZM637.3 160V120H635.3V160H637.3Z" fill="white" fill-opacity="0.2" mask="url(#path-120-inside-40_252_518)"/>
<path d="M672.822 144V142.09H668.533V141.357C669.453 139.811 670.56 138.152 672.429 135.533H673.601V141.381H674.861V142.09H673.601V144H672.822ZM669.341 141.357V141.381H672.822V136.236H672.81C671.251 138.393 670.185 139.986 669.341 141.357Z" fill="white"/>
</g>
</g>
<rect x="0.5" y="0.5" width="706" height="159" rx="3.5" stroke="white" stroke-opacity="0.2"/>
<defs>
<clipPath id="clip0_252_518">
<rect width="707" height="160" rx="4" fill="white"/>
</clipPath>
<clipPath id="clip1_252_518">
<rect width="707" height="40" fill="white"/>
</clipPath>
<clipPath id="clip2_252_518">
<rect width="707" height="40" fill="white" transform="translate(0 40)"/>
</clipPath>
<clipPath id="clip3_252_518">
<rect width="707" height="40" fill="white" transform="translate(0 80)"/>
</clipPath>
<clipPath id="clip4_252_518">
<rect width="707" height="40" fill="white" transform="translate(0 120)"/>
</clipPath>
</defs>
</svg>
