<?xml version="1.0" encoding="UTF-8"?>
<svg id="b" data-name="Layer 3" xmlns="http://www.w3.org/2000/svg" xmlns:xlink="http://www.w3.org/1999/xlink" viewBox="0 0 210.36 292.15">
    <defs>
        <clipPath id="c">
            <ellipse cx="101.49" cy="100.58" rx="101.49" ry="100.58" fill="none"/>
        </clipPath>
    </defs>
    <g>
        <path d="M101.5,201.17c-15.97,0-31.26-3.61-45.44-10.72l3.23-6.44c13.17,6.6,27.37,9.95,42.21,9.95,27.88,0,54.18-12.24,72.16-33.59l4.12,3.47,1.39,1.17c-19.35,22.98-47.66,36.16-77.67,36.16Z" fill="#fff"/>
        <path d="M202.99,101.83h-7.21c0-49.08-38.29-90.38-87.18-94.02l.54-7.19c25.47,1.9,49.13,13.27,66.61,32.02,17.57,18.84,27.24,43.42,27.24,69.19Z" fill="#fff"/>
        <path d="M5.15,133.85c-.69-2.08-1.32-4.21-1.87-6.33-2.18-8.34-3.28-16.99-3.28-25.69,0-25.87,9.74-50.51,27.42-69.38C45.01,13.67,68.79,2.36,94.38.58l.5,7.19C45.72,11.18,7.21,52.49,7.21,101.83c0,8.09,1.02,16.12,3.05,23.87.51,1.97,1.1,3.94,1.74,5.87l-6.84,2.27Z" fill="#fff"/>
        <g clip-path="url(#c)">
            <g>
                <polygon points="116.51 111.76 137.35 136.09 149.59 119.29 128.44 101.22 116.51 111.76" fill="#fff" stroke="#fff" stroke-miterlimit="10" stroke-width="4"/>
                <polygon points="103.67 48.53 103.9 78.41 115.32 76.86 111.6 47.93 103.67 48.53" fill="#fff" stroke="#fff" stroke-miterlimit="10" stroke-width="4"/>
                <polyline points="223.39 108.02 181.32 127.21 180.1 155.98 206.28 155.64" fill="#fff" stroke="#fff" stroke-miterlimit="10" stroke-width="4"/>
                <path d="M113.66,82.64c-5.91,0-10.7,4.75-10.7,10.6s4.79,10.6,10.7,10.6,10.7-4.75,10.7-10.6-4.79-10.6-10.7-10.6ZM113.66,98.3c-2.82,0-5.1-2.26-5.1-5.05s2.28-5.05,5.1-5.05,5.1,2.26,5.1,5.05-2.28,5.05-5.1,5.05Z" fill="#fff" stroke="#fff" stroke-miterlimit="10"/>
                <path d="M106.91,26.5c-4.62,0-8.37,3.72-8.37,8.3s3.75,8.3,8.37,8.3,8.37-3.71,8.37-8.3-3.75-8.3-8.37-8.3ZM106.91,38.76c-2.2,0-3.99-1.77-3.99-3.96s1.79-3.96,3.99-3.96,3.99,1.77,3.99,3.96-1.79,3.96-3.99,3.96Z" fill="#fff" stroke="#fff" stroke-miterlimit="10"/>
                <path d="M160.39,123.39c-8.16,0-14.78,6.56-14.78,14.65s6.62,14.65,14.78,14.65,14.78-6.56,14.78-14.65-6.62-14.65-14.78-14.65ZM160.39,145.02c-3.89,0-7.05-3.13-7.05-6.98s3.15-6.98,7.05-6.98,7.05,3.13,7.05,6.98-3.15,6.98-7.05,6.98Z" fill="#fff" stroke="#fff" stroke-miterlimit="10"/>
            </g>
            <g>
                <polygon points="-16.06 148.21 33.47 135.47 27.96 203.78 -16.06 148.21" fill="#fff" stroke="#fff" stroke-miterlimit="10" stroke-width="2"/>
                <polygon points="89.16 115.87 69.53 101.38 47.56 124.86 80.84 140.91 89.16 115.87" fill="#fff" stroke="#fff" stroke-miterlimit="10" stroke-width="2"/>
                <polygon points="39.58 195.16 77.26 148.79 41.57 132.67 39.58 195.16" fill="#fff" stroke="#fff" stroke-miterlimit="10" stroke-width="2"/>
                <polyline points="85.28 113.01 89.75 103.4 87.74 87.43 85.41 73.07 83.62 73.14 81.83 85.01 79.1 74.57 85.36 45.51 82.44 44.65 79.26 52.87 80.07 48.81 77.79 48.11 65.91 69.36 69.53 101.38 85.28 113.01" fill="#fff" stroke="#fff" stroke-miterlimit="10" stroke-width="2"/>
            </g>
        </g>
    </g>
    <g>
        <path d="M48.19,292.15h-23.07c-10.07,0-18.27-8.2-18.27-18.27h3.91c0,7.92,6.44,14.36,14.36,14.36h23.07c7.92,0,14.36-6.44,14.36-14.36s-6.44-14.36-14.36-14.36h-23.07c-10.07,0-18.27-8.2-18.27-18.27s8.2-18.27,18.27-18.27h23.07c10.08,0,18.27,8.2,18.27,18.27h-3.91c0-7.92-6.44-14.36-14.36-14.36h-23.07c-7.92,0-14.36,6.44-14.36,14.36s6.44,14.36,14.36,14.36h23.07c10.08,0,18.27,8.2,18.27,18.27s-8.2,18.27-18.27,18.27Z" fill="#fff"/>
        <path d="M122.71,259.52h-7.29l27.85,32.63h-5.14l-27.86-32.63h-24.99v32.63h-3.91v-69.17h41.34c10.08,0,18.27,8.2,18.27,18.27s-8.2,18.27-18.27,18.27ZM85.28,255.61h37.43c7.92,0,14.36-6.44,14.36-14.36s-6.44-14.36-14.36-14.36h-37.43v28.72Z" fill="#fff"/>
        <path d="M178.6,226.89h-27.85v-3.91h59.62v3.91h-27.85v65.26h-3.91v-65.26Z" fill="#fff"/>
    </g>
</svg>