<svg width="709" height="138" viewBox="0 0 709 138" fill="none" xmlns="http://www.w3.org/2000/svg">
<g clip-path="url(#clip0_252_659)">
<g clip-path="url(#clip1_252_659)">
<rect width="709" height="30" fill="#86A2FF" fill-opacity="0.2"/>
<mask id="path-3-inside-1_252_659" fill="white">
<path d="M0 0H118.167V30H0V0Z"/>
</mask>
<path d="M0 0V-1H-1V0H0ZM0 1H118.167V-1H0V1ZM1 30V0H-1V30H1Z" fill="white" fill-opacity="0.2" mask="url(#path-3-inside-1_252_659)"/>
<path d="M18.1406 18H17.4844V13.6562H17.457L15.6602 17.9609H15.0664L13.2695 13.6562H13.2422V18H12.5859V12.3633H13.4023L15.3477 17.0664H15.3789L17.3242 12.3633H18.1406V18ZM20.8906 18.0703C19.7656 18.0703 19.0078 17.2617 19.0078 15.9688C19.0078 14.6719 19.7656 13.8672 20.8906 13.8672C22.0117 13.8672 22.7695 14.6719 22.7695 15.9688C22.7695 17.2617 22.0117 18.0703 20.8906 18.0703ZM20.8906 17.4727C21.6094 17.4727 22.0781 16.9258 22.0781 15.9688C22.0781 15.0117 21.6094 14.4648 20.8906 14.4648C20.1719 14.4648 19.6992 15.0117 19.6992 15.9688C19.6992 16.9258 20.1719 17.4727 20.8906 17.4727ZM26.1406 17.4414V14.4961H24.6172L24.4922 16.207C24.457 16.7109 24.3516 17.1523 24.1602 17.4102V17.4414H26.1406ZM23.6758 19.0742H23.043V17.4414H23.3828C23.6797 17.2461 23.8242 16.7383 23.8633 16.1914L24.0195 13.9375H26.8164V17.4414H27.4609V19.0742H26.8281V18H23.6758V19.0742ZM29.7031 14.457C29.0664 14.457 28.6211 14.9453 28.5781 15.6211H30.7852C30.7695 14.9414 30.3438 14.457 29.7031 14.457ZM30.7695 16.8359H31.4375C31.3203 17.5469 30.6328 18.0703 29.7461 18.0703C28.582 18.0703 27.875 17.2617 27.875 15.9844C27.875 14.7227 28.5938 13.8672 29.7148 13.8672C30.8125 13.8672 31.4883 14.6641 31.4883 15.8945V16.1523H28.5742V16.1914C28.5742 16.9688 29.0312 17.4805 29.7617 17.4805C30.2773 17.4805 30.6562 17.2188 30.7695 16.8359ZM33.1719 16.207C33.0898 17.3281 32.8203 18.0352 31.9648 18.0352C31.8477 18.0352 31.7695 18.0117 31.7227 17.9922V17.3789C31.7578 17.3906 31.832 17.4102 31.9297 17.4102C32.332 17.4102 32.4844 16.9375 32.5352 16.1914L32.6914 13.9375H35.3516V18H34.6797V14.4961H33.2969L33.1719 16.207ZM37.7422 15.793H36.9844V17.4414H37.7422C38.2695 17.4414 38.6094 17.1133 38.6094 16.6172C38.6094 16.1172 38.2656 15.793 37.7422 15.793ZM36.3125 18V13.9375H36.9844V15.2344H37.7539C38.6836 15.2344 39.2812 15.7695 39.2812 16.6172C39.2812 17.4648 38.6836 18 37.7539 18H36.3125Z" fill="white"/>
<mask id="path-6-inside-2_252_659" fill="white">
<path d="M118.167 0H236.333V30H118.167V0Z"/>
</mask>
<path d="M118.167 0V-1H117.167V0H118.167ZM118.167 1H236.333V-1H118.167V1ZM119.167 30V0H117.167V30H119.167Z" fill="white" fill-opacity="0.2" mask="url(#path-6-inside-2_252_659)"/>
<path d="M157.984 16.4492H158.691C158.758 17.0586 159.336 17.4609 160.14 17.4609C160.902 17.4609 161.457 17.0586 161.457 16.5039C161.457 16.0273 161.125 15.7344 160.367 15.5391L159.644 15.3516C158.605 15.0859 158.144 14.6289 158.144 13.8633C158.144 12.9258 158.965 12.2695 160.137 12.2695C161.258 12.2695 162.07 12.9336 162.101 13.8789H161.398C161.336 13.2734 160.847 12.9023 160.113 12.9023C159.383 12.9023 158.875 13.2812 158.875 13.832C158.875 14.2578 159.187 14.5117 159.953 14.7109L160.543 14.8672C161.711 15.1602 162.183 15.6094 162.183 16.418C162.183 17.4492 161.371 18.0938 160.074 18.0938C158.879 18.0938 158.051 17.4453 157.984 16.4492ZM163.707 12.9883V15.1484H165.055C165.777 15.1484 166.187 14.7578 166.187 14.0664C166.187 13.3906 165.75 12.9883 165.023 12.9883H163.707ZM163.707 15.7695V18H163.004V12.3633H165.117C166.203 12.3633 166.914 13.0273 166.914 14.043C166.914 14.8281 166.488 15.4375 165.781 15.6602L167.086 18H166.262L165.055 15.7695H163.707ZM169.93 18H169.226V12.9961H167.449V12.3633H171.707V12.9961H169.93V18ZM172.562 12.957H173.242V13.9375H174.031V14.4961H173.242V16.9102C173.242 17.2812 173.398 17.4492 173.746 17.4492C173.824 17.4492 173.98 17.4375 174.027 17.4297V18C173.945 18.0195 173.758 18.0312 173.597 18.0312C172.851 18.0312 172.562 17.7266 172.562 16.9453V14.4961H171.957V13.9375H172.562V12.957ZM177.336 18V16.8281H174.504V16.1914C174.984 15.3008 175.644 14.2734 176.976 12.3633H178.015V16.2109H178.812V16.8281H178.015V18H177.336ZM175.199 16.1953V16.2109H177.336V12.9492H177.324C176.258 14.4727 175.644 15.4141 175.199 16.1953ZM182.039 16.0312H179.476V15.3984H182.039V16.0312ZM184.867 18.0938C183.789 18.0938 182.992 17.4219 182.933 16.4609H183.625C183.687 17.0625 184.199 17.4766 184.875 17.4766C185.64 17.4766 186.172 16.9453 186.172 16.1875C186.172 15.4297 185.637 14.8867 184.887 14.8867C184.359 14.8867 183.91 15.125 183.68 15.5195H183.019L183.328 12.3633H186.555V12.9883H183.906L183.734 14.8242H183.75C184.004 14.4844 184.472 14.2812 185.012 14.2812C186.094 14.2812 186.875 15.0742 186.875 16.168C186.875 17.3008 186.043 18.0938 184.867 18.0938ZM189.648 18.0977C188.805 18.0977 188.133 17.6406 187.785 16.8281C187.597 16.3945 187.508 15.8867 187.508 15.2773C187.508 13.3789 188.316 12.2656 189.695 12.2656C190.652 12.2656 191.387 12.8398 191.566 13.7266H190.851C190.699 13.2148 190.246 12.8867 189.687 12.8867C188.746 12.8867 188.211 13.7227 188.187 15.2227H188.199C188.453 14.6719 189.074 14.3086 189.773 14.3086C190.847 14.3086 191.644 15.1016 191.644 16.1719C191.644 17.2852 190.805 18.0977 189.648 18.0977ZM189.64 17.4727C190.359 17.4727 190.93 16.9062 190.93 16.1953C190.93 15.457 190.398 14.9258 189.652 14.9258C188.906 14.9258 188.355 15.457 188.355 16.1758C188.355 16.8984 188.918 17.4727 189.64 17.4727ZM194.371 18.0938C193.055 18.0938 192.293 16.9609 192.293 15.1797C192.293 13.4141 193.062 12.2695 194.371 12.2695C195.68 12.2695 196.441 13.4062 196.441 15.1758C196.441 16.957 195.683 18.0938 194.371 18.0938ZM194.371 17.4805C195.25 17.4805 195.734 16.5859 195.734 15.1797C195.734 13.793 195.242 12.8867 194.371 12.8867C193.5 12.8867 193 13.8008 193 15.1758C193 16.582 193.488 17.4805 194.371 17.4805Z" fill="white"/>
<mask id="path-9-inside-3_252_659" fill="white">
<path d="M236.333 0H354.5V30H236.333V0Z"/>
</mask>
<path d="M236.333 0V-1H235.333V0H236.333ZM236.333 1H354.5V-1H236.333V1ZM237.333 30V0H235.333V30H237.333Z" fill="white" fill-opacity="0.2" mask="url(#path-9-inside-3_252_659)"/>
<path d="M276.44 16.4492H277.147C277.214 17.0586 277.792 17.4609 278.597 17.4609C279.358 17.4609 279.913 17.0586 279.913 16.5039C279.913 16.0273 279.581 15.7344 278.823 15.5391L278.1 15.3516C277.061 15.0859 276.6 14.6289 276.6 13.8633C276.6 12.9258 277.421 12.2695 278.593 12.2695C279.714 12.2695 280.526 12.9336 280.557 13.8789H279.854C279.792 13.2734 279.304 12.9023 278.569 12.9023C277.839 12.9023 277.331 13.2812 277.331 13.832C277.331 14.2578 277.643 14.5117 278.409 14.7109L278.999 14.8672C280.167 15.1602 280.639 15.6094 280.639 16.418C280.639 17.4492 279.827 18.0938 278.53 18.0938C277.335 18.0938 276.507 17.4453 276.44 16.4492ZM282.163 12.9883V15.1484H283.511C284.233 15.1484 284.643 14.7578 284.643 14.0664C284.643 13.3906 284.206 12.9883 283.479 12.9883H282.163ZM282.163 15.7695V18H281.46V12.3633H283.573C284.659 12.3633 285.37 13.0273 285.37 14.043C285.37 14.8281 284.944 15.4375 284.237 15.6602L285.542 18H284.718L283.511 15.7695H282.163ZM288.386 18H287.682V12.9961H285.905V12.3633H290.163V12.9961H288.386V18ZM291.018 12.957H291.698V13.9375H292.487V14.4961H291.698V16.9102C291.698 17.2812 291.854 17.4492 292.202 17.4492C292.28 17.4492 292.436 17.4375 292.483 17.4297V18C292.401 18.0195 292.214 18.0312 292.054 18.0312C291.307 18.0312 291.018 17.7266 291.018 16.9453V14.4961H290.413V13.9375H291.018V12.957ZM293.554 18L296.104 13.0039V12.9883H293.069V12.3633H296.8V13.0156L294.292 18H293.554ZM300.143 16.0312H297.581V15.3984H300.143V16.0312ZM302.827 18.0938C301.866 18.0938 301.128 17.5156 300.956 16.6328H301.671C301.819 17.1445 302.276 17.4805 302.835 17.4805C303.772 17.4805 304.311 16.6289 304.331 15.1328H304.327C304.323 15.1328 304.323 15.1328 304.319 15.1328C304.081 15.6914 303.464 16.0547 302.745 16.0547C301.671 16.0547 300.874 15.2617 300.874 14.1914C300.874 13.0781 301.714 12.2656 302.87 12.2656C303.718 12.2656 304.389 12.7227 304.733 13.5312C304.921 13.9648 305.011 14.4727 305.011 15.0859C305.011 16.9844 304.206 18.0938 302.827 18.0938ZM302.866 15.4375C303.612 15.4375 304.167 14.9062 304.167 14.1875C304.167 13.4648 303.604 12.8984 302.878 12.8984C302.155 12.8984 301.585 13.4609 301.585 14.168C301.585 14.9023 302.128 15.4375 302.866 15.4375ZM305.71 13.9883C305.71 13.0039 306.507 12.2695 307.569 12.2695C308.577 12.2695 309.37 12.9531 309.37 13.8164C309.37 14.4453 309.085 14.9141 308.143 15.8867L306.718 17.3594V17.375H309.464V18H305.745V17.5156L307.729 15.4258C308.487 14.6289 308.667 14.3281 308.667 13.8594C308.667 13.3164 308.171 12.8828 307.55 12.8828C306.889 12.8828 306.389 13.3594 306.389 13.9883V13.9922H305.71V13.9883ZM312.249 18.0938C310.932 18.0938 310.171 16.9609 310.171 15.1797C310.171 13.4141 310.94 12.2695 312.249 12.2695C313.557 12.2695 314.319 13.4062 314.319 15.1758C314.319 16.957 313.561 18.0938 312.249 18.0938ZM312.249 17.4805C313.128 17.4805 313.612 16.5859 313.612 15.1797C313.612 13.793 313.12 12.8867 312.249 12.8867C311.378 12.8867 310.878 13.8008 310.878 15.1758C310.878 16.582 311.366 17.4805 312.249 17.4805Z" fill="white"/>
<mask id="path-12-inside-4_252_659" fill="white">
<path d="M354.5 0H472.667V30H354.5V0Z"/>
</mask>
<path d="M354.5 0V-1H353.5V0H354.5ZM354.5 1H472.667V-1H354.5V1ZM355.5 30V0H353.5V30H355.5Z" fill="white" fill-opacity="0.2" mask="url(#path-12-inside-4_252_659)"/>
<path d="M395.056 16.4492H395.763C395.829 17.0586 396.408 17.4609 397.212 17.4609C397.974 17.4609 398.529 17.0586 398.529 16.5039C398.529 16.0273 398.197 15.7344 397.439 15.5391L396.716 15.3516C395.677 15.0859 395.216 14.6289 395.216 13.8633C395.216 12.9258 396.036 12.2695 397.208 12.2695C398.329 12.2695 399.142 12.9336 399.173 13.8789H398.47C398.408 13.2734 397.919 12.9023 397.185 12.9023C396.454 12.9023 395.947 13.2812 395.947 13.832C395.947 14.2578 396.259 14.5117 397.025 14.7109L397.615 14.8672C398.783 15.1602 399.255 15.6094 399.255 16.418C399.255 17.4492 398.443 18.0938 397.146 18.0938C395.951 18.0938 395.122 17.4453 395.056 16.4492ZM400.779 12.9883V15.1484H402.126C402.849 15.1484 403.259 14.7578 403.259 14.0664C403.259 13.3906 402.822 12.9883 402.095 12.9883H400.779ZM400.779 15.7695V18H400.076V12.3633H402.189C403.275 12.3633 403.986 13.0273 403.986 14.043C403.986 14.8281 403.56 15.4375 402.853 15.6602L404.158 18H403.333L402.126 15.7695H400.779ZM407.001 18H406.298V12.9961H404.521V12.3633H408.779V12.9961H407.001V18ZM409.634 12.957H410.314V13.9375H411.103V14.4961H410.314V16.9102C410.314 17.2812 410.47 17.4492 410.818 17.4492C410.896 17.4492 411.052 17.4375 411.099 17.4297V18C411.017 18.0195 410.829 18.0312 410.669 18.0312C409.923 18.0312 409.634 17.7266 409.634 16.9453V14.4961H409.029V13.9375H409.634V12.957ZM413.783 18.0938C412.591 18.0938 411.74 17.418 411.74 16.4766C411.74 15.7734 412.224 15.1953 412.951 15.0273V15.0117C412.341 14.8242 411.962 14.3438 411.962 13.75C411.962 12.8984 412.736 12.2695 413.783 12.2695C414.837 12.2695 415.599 12.8945 415.599 13.7539C415.599 14.3398 415.228 14.8164 414.615 15.0117V15.0273C415.345 15.1992 415.829 15.7773 415.829 16.4766C415.829 17.4219 414.978 18.0938 413.783 18.0938ZM413.783 17.4805C414.56 17.4805 415.111 17.0391 415.111 16.4258C415.111 15.8047 414.56 15.3672 413.783 15.3672C413.009 15.3672 412.454 15.8086 412.454 16.4258C412.454 17.0391 413.009 17.4805 413.783 17.4805ZM413.783 14.75C414.439 14.75 414.904 14.3633 414.904 13.8164C414.904 13.2617 414.443 12.875 413.783 12.875C413.122 12.875 412.661 13.2656 412.661 13.8164C412.661 14.3633 413.122 14.75 413.783 14.75ZM419.181 16.0312H416.618V15.3984H419.181V16.0312ZM420.396 18L422.947 13.0039V12.9883H419.911V12.3633H423.642V13.0156L421.134 18H420.396ZM425.884 18V13.1094H425.868L424.376 14.1836V13.4414L425.876 12.3633H426.564V18H425.884ZM429.966 18.0938C428.65 18.0938 427.888 16.9609 427.888 15.1797C427.888 13.4141 428.658 12.2695 429.966 12.2695C431.275 12.2695 432.036 13.4062 432.036 15.1758C432.036 16.957 431.279 18.0938 429.966 18.0938ZM429.966 17.4805C430.845 17.4805 431.329 16.5859 431.329 15.1797C431.329 13.793 430.837 12.8867 429.966 12.8867C429.095 12.8867 428.595 13.8008 428.595 15.1758C428.595 16.582 429.083 17.4805 429.966 17.4805Z" fill="white"/>
<mask id="path-15-inside-5_252_659" fill="white">
<path d="M472.667 0H590.833V30H472.667V0Z"/>
</mask>
<path d="M472.667 0V-1H471.667V0H472.667ZM472.667 1H590.833V-1H472.667V1ZM473.667 30V0H471.667V30H473.667Z" fill="white" fill-opacity="0.2" mask="url(#path-15-inside-5_252_659)"/>
<path d="M509.687 16.4492H510.394C510.461 17.0586 511.039 17.4609 511.844 17.4609C512.605 17.4609 513.16 17.0586 513.16 16.5039C513.16 16.0273 512.828 15.7344 512.07 15.5391L511.347 15.3516C510.308 15.0859 509.847 14.6289 509.847 13.8633C509.847 12.9258 510.668 12.2695 511.84 12.2695C512.961 12.2695 513.773 12.9336 513.805 13.8789H513.101C513.039 13.2734 512.551 12.9023 511.816 12.9023C511.086 12.9023 510.578 13.2812 510.578 13.832C510.578 14.2578 510.89 14.5117 511.656 14.7109L512.246 14.8672C513.414 15.1602 513.887 15.6094 513.887 16.418C513.887 17.4492 513.074 18.0938 511.777 18.0938C510.582 18.0938 509.754 17.4453 509.687 16.4492ZM515.41 12.9883V15.1484H516.758C517.48 15.1484 517.89 14.7578 517.89 14.0664C517.89 13.3906 517.453 12.9883 516.726 12.9883H515.41ZM515.41 15.7695V18H514.707V12.3633H516.82C517.906 12.3633 518.617 13.0273 518.617 14.043C518.617 14.8281 518.191 15.4375 517.484 15.6602L518.789 18H517.965L516.758 15.7695H515.41ZM521.633 18H520.93V12.9961H519.152V12.3633H523.41V12.9961H521.633V18ZM524.265 12.957H524.945V13.9375H525.734V14.4961H524.945V16.9102C524.945 17.2812 525.101 17.4492 525.449 17.4492C525.527 17.4492 525.683 17.4375 525.73 17.4297V18C525.648 18.0195 525.461 18.0312 525.301 18.0312C524.555 18.0312 524.265 17.7266 524.265 16.9453V14.4961H523.66V13.9375H524.265V12.957ZM527.914 18V13.1094H527.898L526.406 14.1836V13.4414L527.906 12.3633H528.594V18H527.914ZM531.996 18.0938C530.68 18.0938 529.918 16.9609 529.918 15.1797C529.918 13.4141 530.687 12.2695 531.996 12.2695C533.305 12.2695 534.066 13.4062 534.066 15.1758C534.066 16.957 533.308 18.0938 531.996 18.0938ZM531.996 17.4805C532.875 17.4805 533.359 16.5859 533.359 15.1797C533.359 13.793 532.867 12.8867 531.996 12.8867C531.125 12.8867 530.625 13.8008 530.625 15.1758C530.625 16.582 531.113 17.4805 531.996 17.4805ZM537.414 16.0312H534.851V15.3984H537.414V16.0312ZM539.508 18V13.1094H539.492L538 14.1836V13.4414L539.5 12.3633H540.187V18H539.508ZM541.582 13.9883C541.582 13.0039 542.379 12.2695 543.441 12.2695C544.449 12.2695 545.242 12.9531 545.242 13.8164C545.242 14.4453 544.957 14.9141 544.015 15.8867L542.59 17.3594V17.375H545.336V18H541.617V17.5156L543.601 15.4258C544.359 14.6289 544.539 14.3281 544.539 13.8594C544.539 13.3164 544.043 12.8828 543.422 12.8828C542.762 12.8828 542.262 13.3594 542.262 13.9883V13.9922H541.582V13.9883ZM547.586 18V13.1094H547.57L546.078 14.1836V13.4414L547.578 12.3633H548.265V18H547.586ZM551.668 18.0938C550.351 18.0938 549.59 16.9609 549.59 15.1797C549.59 13.4141 550.359 12.2695 551.668 12.2695C552.976 12.2695 553.738 13.4062 553.738 15.1758C553.738 16.957 552.98 18.0938 551.668 18.0938ZM551.668 17.4805C552.547 17.4805 553.031 16.5859 553.031 15.1797C553.031 13.793 552.539 12.8867 551.668 12.8867C550.797 12.8867 550.297 13.8008 550.297 15.1758C550.297 16.582 550.785 17.4805 551.668 17.4805Z" fill="white"/>
<mask id="path-18-inside-6_252_659" fill="white">
<path d="M590.833 0H709V30H590.833V0Z"/>
</mask>
<path d="M590.833 0V-1H589.833V0H590.833ZM590.833 1H709V-1H590.833V1ZM591.833 30V0H589.833V30H591.833Z" fill="white" fill-opacity="0.2" mask="url(#path-18-inside-6_252_659)"/>
<path d="M628.901 16.4492H629.608C629.675 17.0586 630.253 17.4609 631.057 17.4609C631.819 17.4609 632.374 17.0586 632.374 16.5039C632.374 16.0273 632.042 15.7344 631.284 15.5391L630.561 15.3516C629.522 15.0859 629.061 14.6289 629.061 13.8633C629.061 12.9258 629.882 12.2695 631.054 12.2695C632.175 12.2695 632.987 12.9336 633.018 13.8789H632.315C632.253 13.2734 631.764 12.9023 631.03 12.9023C630.3 12.9023 629.792 13.2812 629.792 13.832C629.792 14.2578 630.104 14.5117 630.87 14.7109L631.46 14.8672C632.628 15.1602 633.1 15.6094 633.1 16.418C633.1 17.4492 632.288 18.0938 630.991 18.0938C629.796 18.0938 628.968 17.4453 628.901 16.4492ZM634.624 12.9883V15.1484H635.972C636.694 15.1484 637.104 14.7578 637.104 14.0664C637.104 13.3906 636.667 12.9883 635.94 12.9883H634.624ZM634.624 15.7695V18H633.921V12.3633H636.034C637.12 12.3633 637.831 13.0273 637.831 14.043C637.831 14.8281 637.405 15.4375 636.698 15.6602L638.003 18H637.179L635.972 15.7695H634.624ZM640.847 18H640.143V12.9961H638.366V12.3633H642.624V12.9961H640.847V18ZM643.479 12.957H644.159V13.9375H644.948V14.4961H644.159V16.9102C644.159 17.2812 644.315 17.4492 644.663 17.4492C644.741 17.4492 644.897 17.4375 644.944 17.4297V18C644.862 18.0195 644.675 18.0312 644.514 18.0312C643.768 18.0312 643.479 17.7266 643.479 16.9453V14.4961H642.874V13.9375H643.479V12.957ZM647.128 18V13.1094H647.112L645.62 14.1836V13.4414L647.12 12.3633H647.807V18H647.128ZM651.175 18.0938C650.097 18.0938 649.3 17.4219 649.241 16.4609H649.932C649.995 17.0625 650.507 17.4766 651.182 17.4766C651.948 17.4766 652.479 16.9453 652.479 16.1875C652.479 15.4297 651.944 14.8867 651.194 14.8867C650.667 14.8867 650.218 15.125 649.987 15.5195H649.327L649.636 12.3633H652.862V12.9883H650.214L650.042 14.8242H650.057C650.311 14.4844 650.78 14.2812 651.319 14.2812C652.401 14.2812 653.182 15.0742 653.182 16.168C653.182 17.3008 652.35 18.0938 651.175 18.0938ZM656.456 16.0312H653.893V15.3984H656.456V16.0312ZM659.139 18.0938C658.179 18.0938 657.44 17.5156 657.268 16.6328H657.983C658.132 17.1445 658.589 17.4805 659.147 17.4805C660.085 17.4805 660.624 16.6289 660.643 15.1328H660.639C660.636 15.1328 660.636 15.1328 660.632 15.1328C660.393 15.6914 659.776 16.0547 659.057 16.0547C657.983 16.0547 657.186 15.2617 657.186 14.1914C657.186 13.0781 658.026 12.2656 659.182 12.2656C660.03 12.2656 660.702 12.7227 661.046 13.5312C661.233 13.9648 661.323 14.4727 661.323 15.0859C661.323 16.9844 660.518 18.0938 659.139 18.0938ZM659.179 15.4375C659.925 15.4375 660.479 14.9062 660.479 14.1875C660.479 13.4648 659.917 12.8984 659.19 12.8984C658.468 12.8984 657.897 13.4609 657.897 14.168C657.897 14.9023 658.44 15.4375 659.179 15.4375ZM664.073 18.0938C662.995 18.0938 662.198 17.4219 662.139 16.4609H662.831C662.893 17.0625 663.405 17.4766 664.081 17.4766C664.847 17.4766 665.378 16.9453 665.378 16.1875C665.378 15.4297 664.843 14.8867 664.093 14.8867C663.565 14.8867 663.116 15.125 662.886 15.5195H662.225L662.534 12.3633H665.761V12.9883H663.112L662.94 14.8242H662.956C663.21 14.4844 663.679 14.2812 664.218 14.2812C665.3 14.2812 666.081 15.0742 666.081 16.168C666.081 17.3008 665.249 18.0938 664.073 18.0938ZM668.788 18.0938C667.472 18.0938 666.71 16.9609 666.71 15.1797C666.71 13.4141 667.479 12.2695 668.788 12.2695C670.097 12.2695 670.858 13.4062 670.858 15.1758C670.858 16.957 670.1 18.0938 668.788 18.0938ZM668.788 17.4805C669.667 17.4805 670.151 16.5859 670.151 15.1797C670.151 13.793 669.659 12.8867 668.788 12.8867C667.917 12.8867 667.417 13.8008 667.417 15.1758C667.417 16.582 667.905 17.4805 668.788 17.4805Z" fill="white"/>
</g>
<g clip-path="url(#clip2_252_659)">
<rect width="709" height="36" transform="translate(0 30)" fill="#86A2FF" fill-opacity="0.2"/>
<mask id="path-21-inside-7_252_659" fill="white">
<path d="M0 30H118.167V66H0V30Z"/>
</mask>
<path d="M0 30V29H-1V30H0ZM0 31H118.167V29H0V31ZM1 66V30H-1V66H1Z" fill="white" fill-opacity="0.2" mask="url(#path-21-inside-7_252_659)"/>
<path d="M12.5859 45.3633H14.5977C15.6562 45.3633 16.4023 46.1055 16.4023 47.1719C16.4023 48.2422 15.6484 48.9883 14.5898 48.9883H13.2891V51H12.5859V45.3633ZM13.2891 45.9883V48.3633H14.4141C15.2188 48.3633 15.6797 47.9219 15.6797 47.1719C15.6797 46.4258 15.2227 45.9883 14.4141 45.9883H13.2891ZM18.5156 50.4922C19.1562 50.4922 19.6484 50.043 19.6484 49.457V49.125L18.5625 49.1914C18.0156 49.2266 17.7031 49.4688 17.7031 49.8516C17.7031 50.2383 18.0273 50.4922 18.5156 50.4922ZM18.3633 51.0703C17.5547 51.0703 17.0117 50.582 17.0117 49.8516C17.0117 49.1562 17.5469 48.7188 18.4844 48.6641L19.6484 48.5977V48.2578C19.6484 47.7617 19.3203 47.4648 18.7578 47.4648C18.2344 47.4648 17.9062 47.7109 17.8203 48.1094H17.1641C17.2109 47.4062 17.8125 46.8672 18.7734 46.8672C19.7266 46.8672 20.3281 47.3828 20.3281 48.1914V51H19.6836V50.3008H19.668C19.4258 50.7656 18.9102 51.0703 18.3633 51.0703ZM23.9609 50.4414V47.4961H22.4375L22.3125 49.207C22.2773 49.7109 22.1719 50.1523 21.9805 50.4102V50.4414H23.9609ZM21.4961 52.0742H20.8633V50.4414H21.2031C21.5 50.2461 21.6445 49.7383 21.6836 49.1914L21.8398 46.9375H24.6367V50.4414H25.2812V52.0742H24.6484V51H21.4961V52.0742ZM26.5625 51H25.8906V46.9375H26.5625V49.9609H26.5938L28.625 46.9375H29.2969V51H28.625V47.9766H28.5938L26.5625 51ZM30.5898 52.5195C30.5078 52.5195 30.3711 52.5117 30.2969 52.4961V51.9258C30.3711 51.9414 30.4766 51.9453 30.5625 51.9453C30.9414 51.9453 31.1523 51.7617 31.3086 51.2891L31.4023 51.0039L29.9023 46.9375H30.6289L31.7539 50.3203H31.7656L32.8906 46.9375H33.6055L32.0078 51.2852C31.6602 52.2344 31.3242 52.5195 30.5898 52.5195ZM37.457 48.1875H36.7852C36.668 47.7969 36.3359 47.4648 35.7617 47.4648C35.0547 47.4648 34.5898 48.0625 34.5898 48.9688C34.5898 49.8984 35.0625 50.4727 35.7695 50.4727C36.3086 50.4727 36.6641 50.207 36.793 49.7578H37.4648C37.332 50.5273 36.6797 51.0703 35.7656 51.0703C34.6367 51.0703 33.8984 50.2617 33.8984 48.9688C33.8984 47.7031 34.6328 46.8672 35.7578 46.8672C36.7383 46.8672 37.3359 47.4961 37.457 48.1875ZM42.5078 50.4414V47.4961H40.9844L40.8594 49.207C40.8242 49.7109 40.7188 50.1523 40.5273 50.4102V50.4414H42.5078ZM40.043 52.0742H39.4102V50.4414H39.75C40.0469 50.2461 40.1914 49.7383 40.2305 49.1914L40.3867 46.9375H43.1836V50.4414H43.8281V52.0742H43.1953V51H40.043V52.0742ZM46.0703 47.457C45.4336 47.457 44.9883 47.9453 44.9453 48.6211H47.1523C47.1367 47.9414 46.7109 47.457 46.0703 47.457ZM47.1367 49.8359H47.8047C47.6875 50.5469 47 51.0703 46.1133 51.0703C44.9492 51.0703 44.2422 50.2617 44.2422 48.9844C44.2422 47.7227 44.9609 46.8672 46.082 46.8672C47.1797 46.8672 47.8555 47.6641 47.8555 48.8945V49.1523H44.9414V49.1914C44.9414 49.9688 45.3984 50.4805 46.1289 50.4805C46.6445 50.4805 47.0234 50.2188 47.1367 49.8359ZM49.2812 51H48.6094V46.9375H49.2812V49.9609H49.3125L51.3438 46.9375H52.0156V51H51.3438V47.9766H51.3125L49.2812 51ZM49.1289 45.1797H49.6289C49.6289 45.6328 49.9219 45.9883 50.3867 45.9883C50.8516 45.9883 51.1445 45.6328 51.1445 45.1797H51.6445C51.6445 45.8984 51.1328 46.3906 50.3867 46.3906C49.6406 46.3906 49.1289 45.8984 49.1289 45.1797ZM56.332 48.1875H55.6602C55.543 47.7969 55.2109 47.4648 54.6367 47.4648C53.9297 47.4648 53.4648 48.0625 53.4648 48.9688C53.4648 49.8984 53.9375 50.4727 54.6445 50.4727C55.1836 50.4727 55.5391 50.207 55.668 49.7578H56.3398C56.207 50.5273 55.5547 51.0703 54.6406 51.0703C53.5117 51.0703 52.7734 50.2617 52.7734 48.9688C52.7734 47.7031 53.5078 46.8672 54.6328 46.8672C55.6133 46.8672 56.2109 47.4961 56.332 48.1875ZM59.9414 46.9375V47.4961H58.6289V51H57.957V47.4961H56.6445V46.9375H59.9414ZM62.2148 47.4883H61.2422V48.625H62.1133C62.625 48.625 62.8711 48.4375 62.8711 48.0469C62.8711 47.6875 62.6406 47.4883 62.2148 47.4883ZM62.168 49.1719H61.2422V50.4492H62.2891C62.7812 50.4492 63.0469 50.2266 63.0469 49.8164C63.0469 49.3828 62.7617 49.1719 62.168 49.1719ZM60.5703 51V46.9375H62.3086C63.0703 46.9375 63.5352 47.332 63.5352 47.9766C63.5352 48.3906 63.2422 48.7734 62.8672 48.8516V48.8828C63.3789 48.9531 63.7148 49.3242 63.7148 49.832C63.7148 50.5508 63.1836 51 62.3203 51H60.5703ZM65.1641 51H64.4922V46.9375H65.1641V49.9609H65.1953L67.2266 46.9375H67.8984V51H67.2266V47.9766H67.1953L65.1641 51ZM70.3125 48.9961H71.0898V47.4961H70.3125C69.7852 47.4961 69.4492 47.7852 69.4492 48.2734C69.4492 48.6953 69.7891 48.9961 70.3125 48.9961ZM71.0898 51V49.5547H70.3711L69.3398 51H68.5625L69.6953 49.4297C69.1211 49.2656 68.7734 48.8438 68.7734 48.2852C68.7734 47.4492 69.375 46.9375 70.3086 46.9375H71.7617V51H71.0898ZM73.1484 52.1211H72.582L72.9609 50.1328H73.6836L73.1484 52.1211ZM76.6719 51H76V46.9375H76.8242L78.2695 50.1016H78.3008L79.7539 46.9375H80.5469V51H79.8711V48.1172H79.8438L78.5312 50.8828H78.0117L76.6992 48.1172H76.6719V51ZM82.1719 51H81.5V46.9375H82.3242L83.7695 50.1016H83.8008L85.2539 46.9375H86.0469V51H85.3711V48.1172H85.3438L84.0312 50.8828H83.5117L82.1992 48.1172H82.1719V51Z" fill="white"/>
<mask id="path-24-inside-8_252_659" fill="white">
<path d="M118.167 30H236.333V66H118.167V30Z"/>
</mask>
<path d="M118.167 30V29H117.167V30H118.167ZM118.167 31H236.333V29H118.167V31ZM119.167 66V30H117.167V66H119.167Z" fill="white" fill-opacity="0.2" mask="url(#path-24-inside-8_252_659)"/>
<path d="M170.207 52.1348C168.66 52.1348 167.476 51.1621 167.371 49.7969H168.156C168.267 50.7461 169.129 51.4258 170.219 51.4258C171.478 51.4258 172.375 50.5352 172.375 49.293C172.375 48.0566 171.478 47.1484 170.254 47.1484C169.398 47.1484 168.66 47.5527 168.267 48.2266H167.5L167.98 43.5449H172.668V44.2598H168.642L168.326 47.3828H168.349C168.76 46.8086 169.527 46.4512 170.383 46.4512C171.994 46.4512 173.178 47.6465 173.178 49.2754C173.178 50.9453 171.935 52.1348 170.207 52.1348ZM177.297 52.1348C176.16 52.1348 175.234 51.5605 174.713 50.5352C174.332 49.873 174.144 49.0117 174.144 47.9512C174.144 45.1152 175.351 43.4102 177.355 43.4102C178.762 43.4102 179.84 44.2598 180.08 45.5547H179.271C179.06 44.6934 178.293 44.1191 177.349 44.1191C175.803 44.1191 174.918 45.5605 174.918 48.0684H174.935C175.281 47.1191 176.283 46.4629 177.426 46.4629C179.031 46.4629 180.232 47.6582 180.232 49.2578C180.232 50.916 178.99 52.1348 177.297 52.1348ZM177.291 51.4199C178.48 51.4199 179.418 50.4766 179.418 49.2812C179.418 48.0684 178.521 47.1719 177.297 47.1719C176.09 47.1719 175.146 48.0742 175.146 49.2227C175.146 50.4531 176.078 51.4199 177.291 51.4199ZM184.258 52.1348C182.336 52.1348 181.193 50.4414 181.193 47.7695C181.193 45.1152 182.347 43.4102 184.258 43.4102C186.174 43.4102 187.316 45.1094 187.316 47.7637C187.316 50.4355 186.18 52.1348 184.258 52.1348ZM184.258 51.4316C185.687 51.4316 186.514 50.0078 186.514 47.7695C186.514 45.5488 185.676 44.1191 184.258 44.1191C182.846 44.1191 182.002 45.5605 182.002 47.7637C182.002 50.0078 182.828 51.4316 184.258 51.4316Z" fill="white"/>
<mask id="path-27-inside-9_252_659" fill="white">
<path d="M236.333 30H354.5V66H236.333V30Z"/>
</mask>
<path d="M236.333 30V29H235.333V30H236.333ZM236.333 31H354.5V29H236.333V31ZM237.333 66V30H235.333V66H237.333Z" fill="white" fill-opacity="0.2" mask="url(#path-27-inside-9_252_659)"/>
<path d="M288.298 52.1348C286.868 52.1348 285.802 51.2676 285.567 49.9902H286.382C286.587 50.834 287.325 51.4316 288.304 51.4316C289.821 51.4316 290.688 50.0254 290.729 47.6582C290.729 47.6055 290.723 47.5293 290.723 47.4648C290.718 47.4648 290.718 47.4648 290.718 47.4648C290.712 47.4648 290.712 47.4648 290.712 47.4648C290.389 48.4141 289.382 49.082 288.222 49.082C286.61 49.082 285.415 47.8926 285.415 46.3047C285.415 44.6348 286.651 43.4102 288.35 43.4102C289.493 43.4102 290.419 43.9902 290.934 45.0098C291.315 45.6719 291.503 46.5273 291.503 47.5938C291.503 50.4238 290.313 52.1348 288.298 52.1348ZM288.35 48.373C289.563 48.373 290.507 47.459 290.507 46.3223C290.507 45.0977 289.575 44.1309 288.356 44.1309C287.155 44.1309 286.223 45.0742 286.223 46.2812C286.223 47.4648 287.114 48.373 288.35 48.373ZM292.628 45.9121C292.639 44.4707 293.788 43.4102 295.335 43.4102C296.811 43.4102 297.966 44.4238 297.966 45.7188C297.966 46.6445 297.55 47.3418 296.143 48.8008L293.788 51.2617V51.2852H298.182V52H292.669V51.4375L295.657 48.2793C296.864 47.0078 297.169 46.5039 297.169 45.7656C297.169 44.8398 296.348 44.1133 295.311 44.1133C294.227 44.1133 293.413 44.8809 293.401 45.9121V45.918H292.628V45.9121ZM302.284 52.1348C300.362 52.1348 299.22 50.4414 299.22 47.7695C299.22 45.1152 300.374 43.4102 302.284 43.4102C304.2 43.4102 305.343 45.1094 305.343 47.7637C305.343 50.4355 304.206 52.1348 302.284 52.1348ZM302.284 51.4316C303.714 51.4316 304.54 50.0078 304.54 47.7695C304.54 45.5488 303.702 44.1191 302.284 44.1191C300.872 44.1191 300.028 45.5605 300.028 47.7637C300.028 50.0078 300.854 51.4316 302.284 51.4316Z" fill="white"/>
<mask id="path-30-inside-10_252_659" fill="white">
<path d="M354.5 30H472.667V66H354.5V30Z"/>
</mask>
<path d="M354.5 30V29H353.5V30H354.5ZM354.5 31H472.667V29H354.5V31ZM355.5 66V30H353.5V66H355.5Z" fill="white" fill-opacity="0.2" mask="url(#path-30-inside-10_252_659)"/>
<path d="M404.548 52L408.468 44.2832V44.2598H403.763V43.5449H409.271V44.2949L405.398 52H404.548ZM413.126 52.1348C411.204 52.1348 410.062 50.4414 410.062 47.7695C410.062 45.1152 411.216 43.4102 413.126 43.4102C415.042 43.4102 416.185 45.1094 416.185 47.7637C416.185 50.4355 415.048 52.1348 413.126 52.1348ZM413.126 51.4316C414.556 51.4316 415.382 50.0078 415.382 47.7695C415.382 45.5488 414.544 44.1191 413.126 44.1191C411.714 44.1191 410.87 45.5605 410.87 47.7637C410.87 50.0078 411.697 51.4316 413.126 51.4316ZM420.286 52.1348C418.365 52.1348 417.222 50.4414 417.222 47.7695C417.222 45.1152 418.376 43.4102 420.286 43.4102C422.202 43.4102 423.345 45.1094 423.345 47.7637C423.345 50.4355 422.208 52.1348 420.286 52.1348ZM420.286 51.4316C421.716 51.4316 422.542 50.0078 422.542 47.7695C422.542 45.5488 421.704 44.1191 420.286 44.1191C418.874 44.1191 418.031 45.5605 418.031 47.7637C418.031 50.0078 418.857 51.4316 420.286 51.4316Z" fill="white"/>
<mask id="path-33-inside-11_252_659" fill="white">
<path d="M472.667 30H590.833V66H472.667V30Z"/>
</mask>
<path d="M472.667 30V29H471.667V30H472.667ZM472.667 31H590.833V29H472.667V31ZM473.667 66V30H471.667V66H473.667Z" fill="white" fill-opacity="0.2" mask="url(#path-33-inside-11_252_659)"/>
<path d="M523.658 52V44.4062H523.635C523.447 44.5234 521.613 45.8125 521.367 45.9648V45.1094C521.601 44.9629 523.394 43.6973 523.646 43.5449H524.431V52H523.658ZM526.482 45.9121C526.494 44.4707 527.642 43.4102 529.189 43.4102C530.666 43.4102 531.82 44.4238 531.82 45.7188C531.82 46.6445 531.404 47.3418 529.998 48.8008L527.642 51.2617V51.2852H532.037V52H526.523V51.4375L529.512 48.2793C530.719 47.0078 531.023 46.5039 531.023 45.7656C531.023 44.8398 530.203 44.1133 529.166 44.1133C528.082 44.1133 527.267 44.8809 527.256 45.9121V45.918H526.482V45.9121ZM535.4 52V44.4062H535.377C535.189 44.5234 533.355 45.8125 533.109 45.9648V45.1094C533.344 44.9629 535.137 43.6973 535.389 43.5449H536.174V52H535.4ZM540.463 52V44.4062H540.439C540.252 44.5234 538.418 45.8125 538.172 45.9648V45.1094C538.406 44.9629 540.199 43.6973 540.451 43.5449H541.236V52H540.463Z" fill="white"/>
<mask id="path-36-inside-12_252_659" fill="white">
<path d="M590.833 30H709V66H590.833V30Z"/>
</mask>
<path d="M590.833 30V29H589.833V30H590.833ZM590.833 31H709V29H590.833V31ZM591.833 66V30H589.833V66H591.833Z" fill="white" fill-opacity="0.2" mask="url(#path-36-inside-12_252_659)"/>
<path d="M642.985 52.1348C641.556 52.1348 640.489 51.2676 640.255 49.9902H641.069C641.274 50.834 642.013 51.4316 642.991 51.4316C644.509 51.4316 645.376 50.0254 645.417 47.6582C645.417 47.6055 645.411 47.5293 645.411 47.4648C645.405 47.4648 645.405 47.4648 645.405 47.4648C645.399 47.4648 645.399 47.4648 645.399 47.4648C645.077 48.4141 644.069 49.082 642.909 49.082C641.298 49.082 640.102 47.8926 640.102 46.3047C640.102 44.6348 641.339 43.4102 643.038 43.4102C644.181 43.4102 645.106 43.9902 645.622 45.0098C646.003 45.6719 646.19 46.5273 646.19 47.5938C646.19 50.4238 645.001 52.1348 642.985 52.1348ZM643.038 48.373C644.251 48.373 645.194 47.459 645.194 46.3223C645.194 45.0977 644.263 44.1309 643.044 44.1309C641.843 44.1309 640.911 45.0742 640.911 46.2812C640.911 47.4648 641.802 48.373 643.038 48.373ZM651.452 52V50.0898H647.163V49.3574C648.083 47.8105 649.19 46.1523 651.059 43.5332H652.231V49.3809H653.491V50.0898H652.231V52H651.452ZM647.972 49.3574V49.3809H651.452V44.2363H651.44C649.882 46.3926 648.815 47.9863 647.972 49.3574ZM654.944 52L658.864 44.2832V44.2598H654.159V43.5449H659.667V44.2949L655.794 52H654.944Z" fill="white"/>
</g>
<g clip-path="url(#clip3_252_659)">
<rect width="709" height="36" transform="translate(0 66)" fill="#86A2FF" fill-opacity="0.2"/>
<mask id="path-39-inside-13_252_659" fill="white">
<path d="M0 66H118.167V102H0V66Z"/>
</mask>
<path d="M0 66V65H-1V66H0ZM0 67H118.167V65H0V67ZM1 102V66H-1V102H1Z" fill="white" fill-opacity="0.2" mask="url(#path-39-inside-13_252_659)"/>
<path d="M17.0039 87H16.3086V82.0039H13.293V87H12.5859V81.3633H17.0039V87ZM19.7578 87.0703C18.6328 87.0703 17.875 86.2617 17.875 84.9688C17.875 83.6719 18.6328 82.8672 19.7578 82.8672C20.8789 82.8672 21.6367 83.6719 21.6367 84.9688C21.6367 86.2617 20.8789 87.0703 19.7578 87.0703ZM19.7578 86.4727C20.4766 86.4727 20.9453 85.9258 20.9453 84.9688C20.9453 84.0117 20.4766 83.4648 19.7578 83.4648C19.0391 83.4648 18.5664 84.0117 18.5664 84.9688C18.5664 85.9258 19.0391 86.4727 19.7578 86.4727ZM23.3203 85.207C23.2383 86.3281 22.9688 87.0352 22.1133 87.0352C21.9961 87.0352 21.918 87.0117 21.8711 86.9922V86.3789C21.9062 86.3906 21.9805 86.4102 22.0781 86.4102C22.4805 86.4102 22.6328 85.9375 22.6836 85.1914L22.8398 82.9375H25.5V87H24.8281V83.4961H23.4453L23.3203 85.207ZM28.0938 83.457C27.457 83.457 27.0117 83.9453 26.9688 84.6211H29.1758C29.1602 83.9414 28.7344 83.457 28.0938 83.457ZM29.1602 85.8359H29.8281C29.7109 86.5469 29.0234 87.0703 28.1367 87.0703C26.9727 87.0703 26.2656 86.2617 26.2656 84.9844C26.2656 83.7227 26.9844 82.8672 28.1055 82.8672C29.2031 82.8672 29.8789 83.6641 29.8789 84.8945V85.1523H26.9648V85.1914C26.9648 85.9688 27.4219 86.4805 28.1523 86.4805C28.668 86.4805 29.0469 86.2188 29.1602 85.8359ZM31.9883 87.0703C31.0977 87.0703 30.4531 86.6328 30.3828 85.9453H31.0703C31.1484 86.3008 31.4844 86.5078 31.9883 86.5078C32.5781 86.5078 32.9062 86.2266 32.9062 85.832C32.9062 85.375 32.6016 85.168 31.9883 85.168H31.3789V84.6133H31.9883C32.5039 84.6133 32.7695 84.418 32.7695 84.0195C32.7695 83.6797 32.5273 83.4336 32.0039 83.4336C31.5234 83.4336 31.1875 83.6406 31.1328 83.9648H30.4727C30.5586 83.293 31.1445 82.8672 32.0039 82.8672C32.9297 82.8672 33.4336 83.3125 33.4336 83.9648C33.4336 84.3789 33.168 84.7461 32.7617 84.8398V84.8711C33.2969 84.9883 33.5742 85.332 33.5742 85.8008C33.5742 86.5586 32.9414 87.0703 31.9883 87.0703ZM37.0273 87V85.1719H35.0234V87H34.3516V82.9375H35.0234V84.6133H37.0273V82.9375H37.6992V87H37.0273ZM40 86.4922C40.6406 86.4922 41.1328 86.043 41.1328 85.457V85.125L40.0469 85.1914C39.5 85.2266 39.1875 85.4688 39.1875 85.8516C39.1875 86.2383 39.5117 86.4922 40 86.4922ZM39.8477 87.0703C39.0391 87.0703 38.4961 86.582 38.4961 85.8516C38.4961 85.1562 39.0312 84.7188 39.9688 84.6641L41.1328 84.5977V84.2578C41.1328 83.7617 40.8047 83.4648 40.2422 83.4648C39.7188 83.4648 39.3906 83.7109 39.3047 84.1094H38.6484C38.6953 83.4062 39.2969 82.8672 40.2578 82.8672C41.2109 82.8672 41.8125 83.3828 41.8125 84.1914V87H41.168V86.3008H41.1523C40.9102 86.7656 40.3945 87.0703 39.8477 87.0703ZM44.2109 84.9961H44.9883V83.4961H44.2109C43.6836 83.4961 43.3477 83.7852 43.3477 84.2734C43.3477 84.6953 43.6875 84.9961 44.2109 84.9961ZM44.9883 87V85.5547H44.2695L43.2383 87H42.4609L43.5938 85.4297C43.0195 85.2656 42.6719 84.8438 42.6719 84.2852C42.6719 83.4492 43.2734 82.9375 44.207 82.9375H45.6602V87H44.9883ZM50.9336 87V85.1719H48.9297V87H48.2578V82.9375H48.9297V84.6133H50.9336V82.9375H51.6055V87H50.9336ZM53.9062 86.4922C54.5469 86.4922 55.0391 86.043 55.0391 85.457V85.125L53.9531 85.1914C53.4062 85.2266 53.0938 85.4688 53.0938 85.8516C53.0938 86.2383 53.418 86.4922 53.9062 86.4922ZM53.7539 87.0703C52.9453 87.0703 52.4023 86.582 52.4023 85.8516C52.4023 85.1562 52.9375 84.7188 53.875 84.6641L55.0391 84.5977V84.2578C55.0391 83.7617 54.7109 83.4648 54.1484 83.4648C53.625 83.4648 53.2969 83.7109 53.2109 84.1094H52.5547C52.6016 83.4062 53.2031 82.8672 54.1641 82.8672C55.1172 82.8672 55.7188 83.3828 55.7188 84.1914V87H55.0742V86.3008H55.0586C54.8164 86.7656 54.3008 87.0703 53.7539 87.0703ZM59.2695 83.4961H57.3281V87H56.6562V82.9375H59.2695V83.4961ZM61.9844 82.8672C63.0195 82.8672 63.7227 83.6953 63.7227 84.9688C63.7227 86.2422 63.0234 87.0703 62 87.0703C61.418 87.0703 60.9492 86.7852 60.707 86.3398H60.6914V88.3555H60.0117V82.9375H60.6562V83.625H60.6719C60.9219 83.168 61.3945 82.8672 61.9844 82.8672ZM61.8516 86.4727C62.5742 86.4727 63.0273 85.8906 63.0273 84.9688C63.0273 84.0508 62.5742 83.4648 61.8516 83.4648C61.1562 83.4648 60.6875 84.0664 60.6875 84.9688C60.6875 85.875 61.1562 86.4727 61.8516 86.4727ZM64.6992 88.5195C64.6172 88.5195 64.4805 88.5117 64.4062 88.4961V87.9258C64.4805 87.9414 64.5859 87.9453 64.6719 87.9453C65.0508 87.9453 65.2617 87.7617 65.418 87.2891L65.5117 87.0039L64.0117 82.9375H64.7383L65.8633 86.3203H65.875L67 82.9375H67.7148L66.1172 87.2852C65.7695 88.2344 65.4336 88.5195 64.6992 88.5195ZM69.6758 87.0703C68.7852 87.0703 68.1406 86.6328 68.0703 85.9453H68.7578C68.8359 86.3008 69.1719 86.5078 69.6758 86.5078C70.2656 86.5078 70.5938 86.2266 70.5938 85.832C70.5938 85.375 70.2891 85.168 69.6758 85.168H69.0664V84.6133H69.6758C70.1914 84.6133 70.457 84.418 70.457 84.0195C70.457 83.6797 70.2148 83.4336 69.6914 83.4336C69.2109 83.4336 68.875 83.6406 68.8203 83.9648H68.1602C68.2461 83.293 68.832 82.8672 69.6914 82.8672C70.6172 82.8672 71.1211 83.3125 71.1211 83.9648C71.1211 84.3789 70.8555 84.7461 70.4492 84.8398V84.8711C70.9844 84.9883 71.2617 85.332 71.2617 85.8008C71.2617 86.5586 70.6289 87.0703 69.6758 87.0703ZM73.418 84.8594L75.3711 87H74.4961L72.7422 85.0469H72.7109V87H72.0391V82.9375H72.7109V84.7344H72.7422L74.4766 82.9375H75.3164L73.418 84.8594ZM77.1641 86.4922C77.8047 86.4922 78.2969 86.043 78.2969 85.457V85.125L77.2109 85.1914C76.6641 85.2266 76.3516 85.4688 76.3516 85.8516C76.3516 86.2383 76.6758 86.4922 77.1641 86.4922ZM77.0117 87.0703C76.2031 87.0703 75.6602 86.582 75.6602 85.8516C75.6602 85.1562 76.1953 84.7188 77.1328 84.6641L78.2969 84.5977V84.2578C78.2969 83.7617 77.9688 83.4648 77.4062 83.4648C76.8828 83.4648 76.5547 83.7109 76.4688 84.1094H75.8125C75.8594 83.4062 76.4609 82.8672 77.4219 82.8672C78.375 82.8672 78.9766 83.3828 78.9766 84.1914V87H78.332V86.3008H78.3164C78.0742 86.7656 77.5586 87.0703 77.0117 87.0703ZM80.3438 88.1211H79.7773L80.1562 86.1328H80.8789L80.3438 88.1211ZM84.5742 84.8594L86.5273 87H85.6523L83.8984 85.0469H83.8672V87H83.1953V82.9375H83.8672V84.7344H83.8984L85.6328 82.9375H86.4727L84.5742 84.8594ZM89.707 83.4961H87.7656V87H87.0938V82.9375H89.707V83.4961Z" fill="white"/>
<mask id="path-42-inside-14_252_659" fill="white">
<path d="M118.167 66H236.333V102H118.167V66Z"/>
</mask>
<path d="M118.167 66V65H117.167V66H118.167ZM118.167 67H236.333V65H118.167V67ZM119.167 102V66H117.167V102H119.167Z" fill="white" fill-opacity="0.2" mask="url(#path-42-inside-14_252_659)"/>
<path d="M178.422 88V86.0898H174.133V85.3574C175.053 83.8105 176.16 82.1523 178.029 79.5332H179.201V85.3809H180.461V86.0898H179.201V88H178.422ZM174.941 85.3574V85.3809H178.422V80.2363H178.41C176.851 82.3926 175.785 83.9863 174.941 85.3574Z" fill="white"/>
<mask id="path-45-inside-15_252_659" fill="white">
<path d="M236.333 66H354.5V102H236.333V66Z"/>
</mask>
<path d="M236.333 66V65H235.333V66H236.333ZM236.333 67H354.5V65H236.333V67ZM237.333 102V66H235.333V102H237.333Z" fill="white" fill-opacity="0.2" mask="url(#path-45-inside-15_252_659)"/>
<path d="M293.425 88L297.345 80.2832V80.2598H292.639V79.5449H298.147V80.2949L294.274 88H293.425Z" fill="white"/>
<mask id="path-48-inside-16_252_659" fill="white">
<path d="M354.5 66H472.667V102H354.5V66Z"/>
</mask>
<path d="M354.5 66V65H353.5V66H354.5ZM354.5 67H472.667V65H354.5V67ZM355.5 102V66H353.5V102H355.5Z" fill="white" fill-opacity="0.2" mask="url(#path-48-inside-16_252_659)"/>
<path d="M413.577 88.1348C411.802 88.1348 410.566 87.1152 410.566 85.7031C410.566 84.6367 411.327 83.7695 412.452 83.5293V83.5117C411.497 83.248 410.888 82.5273 410.888 81.6191C410.888 80.3418 412.019 79.4102 413.577 79.4102C415.142 79.4102 416.261 80.3418 416.261 81.6191C416.261 82.5156 415.652 83.2363 414.702 83.5117V83.5293C415.827 83.7695 416.589 84.6426 416.589 85.7031C416.589 87.1211 415.359 88.1348 413.577 88.1348ZM413.577 87.4316C414.884 87.4316 415.775 86.6758 415.775 85.6562C415.775 84.6426 414.878 83.9219 413.577 83.9219C412.283 83.9219 411.38 84.6426 411.38 85.6562C411.38 86.6758 412.271 87.4316 413.577 87.4316ZM413.577 83.207C414.679 83.207 415.464 82.5742 415.464 81.6836C415.464 80.7754 414.708 80.1074 413.577 80.1074C412.452 80.1074 411.685 80.7754 411.685 81.6836C411.685 82.5742 412.47 83.207 413.577 83.207Z" fill="white"/>
<mask id="path-51-inside-17_252_659" fill="white">
<path d="M472.667 66H590.833V102H472.667V66Z"/>
</mask>
<path d="M472.667 66V65H471.667V66H472.667ZM472.667 67H590.833V65H472.667V67ZM473.667 102V66H471.667V102H473.667Z" fill="white" fill-opacity="0.2" mask="url(#path-51-inside-17_252_659)"/>
<path d="M528.492 88V80.4062H528.469C528.281 80.5234 526.447 81.8125 526.201 81.9648V81.1094C526.435 80.9629 528.228 79.6973 528.48 79.5449H529.265V88H528.492ZM534.269 88.1348C532.347 88.1348 531.205 86.4414 531.205 83.7695C531.205 81.1152 532.359 79.4102 534.269 79.4102C536.185 79.4102 537.328 81.1094 537.328 83.7637C537.328 86.4355 536.191 88.1348 534.269 88.1348ZM534.269 87.4316C535.699 87.4316 536.525 86.0078 536.525 83.7695C536.525 81.5488 535.687 80.1191 534.269 80.1191C532.857 80.1191 532.014 81.5605 532.014 83.7637C532.014 86.0078 532.84 87.4316 534.269 87.4316Z" fill="white"/>
<mask id="path-54-inside-18_252_659" fill="white">
<path d="M590.833 66H709V102H590.833V66Z"/>
</mask>
<path d="M590.833 66V65H589.833V66H590.833ZM590.833 67H709V65H590.833V67ZM591.833 102V66H589.833V102H591.833Z" fill="white" fill-opacity="0.2" mask="url(#path-54-inside-18_252_659)"/>
<path d="M646.788 88V80.4062H646.764C646.577 80.5234 644.743 81.8125 644.497 81.9648V81.1094C644.731 80.9629 646.524 79.6973 646.776 79.5449H647.561V88H646.788ZM652.483 88.1348C650.936 88.1348 649.753 87.1621 649.647 85.7969H650.432C650.544 86.7461 651.405 87.4258 652.495 87.4258C653.755 87.4258 654.651 86.5352 654.651 85.293C654.651 84.0566 653.755 83.1484 652.53 83.1484C651.675 83.1484 650.936 83.5527 650.544 84.2266H649.776L650.257 79.5449H654.944V80.2598H650.919L650.602 83.3828H650.626C651.036 82.8086 651.804 82.4512 652.659 82.4512C654.27 82.4512 655.454 83.6465 655.454 85.2754C655.454 86.9453 654.212 88.1348 652.483 88.1348Z" fill="white"/>
</g>
<g clip-path="url(#clip4_252_659)">
<rect width="709" height="36" transform="translate(0 102)" fill="#86A2FF" fill-opacity="0.2"/>
<mask id="path-57-inside-19_252_659" fill="white">
<path d="M0 102H118.167V138H0V102Z"/>
</mask>
<path d="M0 102V101H-1V102H0ZM0 103H118.167V101H0V103ZM1 138V102H-1V138H1Z" fill="white" fill-opacity="0.2" mask="url(#path-57-inside-19_252_659)"/>
<path d="M14.0625 120.059L16.8867 123H15.9219L13.3203 120.262H13.2891V123H12.5859V117.363H13.2891V119.961H13.3203L15.7422 117.363H16.625L14.0625 120.059ZM18.9062 123.07C17.7812 123.07 17.0234 122.262 17.0234 120.969C17.0234 119.672 17.7812 118.867 18.9062 118.867C20.0273 118.867 20.7852 119.672 20.7852 120.969C20.7852 122.262 20.0273 123.07 18.9062 123.07ZM18.9062 122.473C19.625 122.473 20.0938 121.926 20.0938 120.969C20.0938 120.012 19.625 119.465 18.9062 119.465C18.1875 119.465 17.7148 120.012 17.7148 120.969C17.7148 121.926 18.1875 122.473 18.9062 122.473ZM22.4688 121.207C22.3867 122.328 22.1172 123.035 21.2617 123.035C21.1445 123.035 21.0664 123.012 21.0195 122.992V122.379C21.0547 122.391 21.1289 122.41 21.2266 122.41C21.6289 122.41 21.7812 121.938 21.832 121.191L21.9883 118.938H24.6484V123H23.9766V119.496H22.5938L22.4688 121.207ZM26.2812 123H25.6094V118.938H26.2812V121.961H26.3125L28.3438 118.938H29.0156V123H28.3438V119.977H28.3125L26.2812 123ZM33.0664 123H32.3945V121.246H32.3359C32.1172 121.434 31.793 121.562 31.3516 121.562C30.3789 121.562 29.8672 120.973 29.8672 120.105V118.938H30.5391V120.098C30.5391 120.629 30.8242 120.969 31.3711 120.969C31.875 120.969 32.207 120.781 32.3945 120.57V118.938H33.0664V123ZM35.6562 119.457C35.0195 119.457 34.5742 119.945 34.5312 120.621H36.7383C36.7227 119.941 36.2969 119.457 35.6562 119.457ZM36.7227 121.836H37.3906C37.2734 122.547 36.5859 123.07 35.6992 123.07C34.5352 123.07 33.8281 122.262 33.8281 120.984C33.8281 119.723 34.5469 118.867 35.668 118.867C36.7656 118.867 37.4414 119.664 37.4414 120.895V121.152H34.5273V121.191C34.5273 121.969 34.9844 122.48 35.7148 122.48C36.2305 122.48 36.6094 122.219 36.7227 121.836ZM41.5586 120.188H40.8867C40.7695 119.797 40.4375 119.465 39.8633 119.465C39.1562 119.465 38.6914 120.062 38.6914 120.969C38.6914 121.898 39.1641 122.473 39.8711 122.473C40.4102 122.473 40.7656 122.207 40.8945 121.758H41.5664C41.4336 122.527 40.7812 123.07 39.8672 123.07C38.7383 123.07 38 122.262 38 120.969C38 119.703 38.7344 118.867 39.8594 118.867C40.8398 118.867 41.4375 119.496 41.5586 120.188ZM45.168 118.938V119.496H43.8555V123H43.1836V119.496H41.8711V118.938H45.168ZM47.4414 119.488H46.4688V120.625H47.3398C47.8516 120.625 48.0977 120.438 48.0977 120.047C48.0977 119.688 47.8672 119.488 47.4414 119.488ZM47.3945 121.172H46.4688V122.449H47.5156C48.0078 122.449 48.2734 122.227 48.2734 121.816C48.2734 121.383 47.9883 121.172 47.3945 121.172ZM45.7969 123V118.938H47.5352C48.2969 118.938 48.7617 119.332 48.7617 119.977C48.7617 120.391 48.4688 120.773 48.0938 120.852V120.883C48.6055 120.953 48.9414 121.324 48.9414 121.832C48.9414 122.551 48.4102 123 47.5469 123H45.7969ZM51.4062 123.07C50.2812 123.07 49.5234 122.262 49.5234 120.969C49.5234 119.672 50.2812 118.867 51.4062 118.867C52.5273 118.867 53.2852 119.672 53.2852 120.969C53.2852 122.262 52.5273 123.07 51.4062 123.07ZM51.4062 122.473C52.125 122.473 52.5938 121.926 52.5938 120.969C52.5938 120.012 52.125 119.465 51.4062 119.465C50.6875 119.465 50.2148 120.012 50.2148 120.969C50.2148 121.926 50.6875 122.473 51.4062 122.473ZM57.3672 123.07C56.2422 123.07 55.4844 122.262 55.4844 120.969C55.4844 119.672 56.2422 118.867 57.3672 118.867C58.4883 118.867 59.2461 119.672 59.2461 120.969C59.2461 122.262 58.4883 123.07 57.3672 123.07ZM57.3672 122.473C58.0859 122.473 58.5547 121.926 58.5547 120.969C58.5547 120.012 58.0859 119.465 57.3672 119.465C56.6484 119.465 56.1758 120.012 56.1758 120.969C56.1758 121.926 56.6484 122.473 57.3672 122.473ZM63.3633 120.188H62.6914C62.5742 119.797 62.2422 119.465 61.668 119.465C60.9609 119.465 60.4961 120.062 60.4961 120.969C60.4961 121.898 60.9688 122.473 61.6758 122.473C62.2148 122.473 62.5703 122.207 62.6992 121.758H63.3711C63.2383 122.527 62.5859 123.07 61.6719 123.07C60.543 123.07 59.8047 122.262 59.8047 120.969C59.8047 119.703 60.5391 118.867 61.6641 118.867C62.6445 118.867 63.2422 119.496 63.3633 120.188ZM65.7109 119.457C65.0742 119.457 64.6289 119.945 64.5859 120.621H66.793C66.7773 119.941 66.3516 119.457 65.7109 119.457ZM66.7773 121.836H67.4453C67.3281 122.547 66.6406 123.07 65.7539 123.07C64.5898 123.07 63.8828 122.262 63.8828 120.984C63.8828 119.723 64.6016 118.867 65.7227 118.867C66.8203 118.867 67.4961 119.664 67.4961 120.895V121.152H64.582V121.191C64.582 121.969 65.0391 122.48 65.7695 122.48C66.2852 122.48 66.6641 122.219 66.7773 121.836ZM68.9219 123H68.25V118.938H68.9219V121.961H68.9531L70.9844 118.938H71.6562V123H70.9844V119.977H70.9531L68.9219 123ZM68.7695 117.18H69.2695C69.2695 117.633 69.5625 117.988 70.0273 117.988C70.4922 117.988 70.7852 117.633 70.7852 117.18H71.2852C71.2852 117.898 70.7734 118.391 70.0273 118.391C69.2812 118.391 68.7695 117.898 68.7695 117.18Z" fill="white"/>
<mask id="path-60-inside-20_252_659" fill="white">
<path d="M118.167 102H236.333V138H118.167V102Z"/>
</mask>
<path d="M118.167 102V101H117.167V102H118.167ZM118.167 103H236.333V101H118.167V103ZM119.167 138V102H117.167V138H119.167Z" fill="white" fill-opacity="0.2" mask="url(#path-60-inside-20_252_659)"/>
<path d="M177.402 124.135C176.265 124.135 175.34 123.561 174.818 122.535C174.437 121.873 174.25 121.012 174.25 119.951C174.25 117.115 175.457 115.41 177.461 115.41C178.867 115.41 179.945 116.26 180.185 117.555H179.377C179.166 116.693 178.398 116.119 177.455 116.119C175.908 116.119 175.023 117.561 175.023 120.068H175.041C175.387 119.119 176.389 118.463 177.531 118.463C179.137 118.463 180.338 119.658 180.338 121.258C180.338 122.916 179.096 124.135 177.402 124.135ZM177.396 123.42C178.586 123.42 179.523 122.477 179.523 121.281C179.523 120.068 178.627 119.172 177.402 119.172C176.195 119.172 175.252 120.074 175.252 121.223C175.252 122.453 176.183 123.42 177.396 123.42Z" fill="white"/>
<mask id="path-63-inside-21_252_659" fill="white">
<path d="M236.333 102H354.5V138H236.333V102Z"/>
</mask>
<path d="M236.333 102V101H235.333V102H236.333ZM236.333 103H354.5V101H236.333V103ZM237.333 138V102H235.333V138H237.333Z" fill="white" fill-opacity="0.2" mask="url(#path-63-inside-21_252_659)"/>
<path d="M295.569 124.135C294.432 124.135 293.507 123.561 292.985 122.535C292.604 121.873 292.417 121.012 292.417 119.951C292.417 117.115 293.624 115.41 295.628 115.41C297.034 115.41 298.112 116.26 298.352 117.555H297.544C297.333 116.693 296.565 116.119 295.622 116.119C294.075 116.119 293.19 117.561 293.19 120.068H293.208C293.554 119.119 294.556 118.463 295.698 118.463C297.304 118.463 298.505 119.658 298.505 121.258C298.505 122.916 297.263 124.135 295.569 124.135ZM295.563 123.42C296.753 123.42 297.69 122.477 297.69 121.281C297.69 120.068 296.794 119.172 295.569 119.172C294.362 119.172 293.419 120.074 293.419 121.223C293.419 122.453 294.35 123.42 295.563 123.42Z" fill="white"/>
<mask id="path-66-inside-22_252_659" fill="white">
<path d="M354.5 102H472.667V138H354.5V102Z"/>
</mask>
<path d="M354.5 102V101H353.5V102H354.5ZM354.5 103H472.667V101H354.5V103ZM355.5 138V102H353.5V138H355.5Z" fill="white" fill-opacity="0.2" mask="url(#path-66-inside-22_252_659)"/>
<path d="M413.736 124.135C412.599 124.135 411.673 123.561 411.152 122.535C410.771 121.873 410.583 121.012 410.583 119.951C410.583 117.115 411.79 115.41 413.794 115.41C415.201 115.41 416.279 116.26 416.519 117.555H415.71C415.499 116.693 414.732 116.119 413.788 116.119C412.242 116.119 411.357 117.561 411.357 120.068H411.374C411.72 119.119 412.722 118.463 413.865 118.463C415.47 118.463 416.671 119.658 416.671 121.258C416.671 122.916 415.429 124.135 413.736 124.135ZM413.73 123.42C414.919 123.42 415.857 122.477 415.857 121.281C415.857 120.068 414.96 119.172 413.736 119.172C412.529 119.172 411.585 120.074 411.585 121.223C411.585 122.453 412.517 123.42 413.73 123.42Z" fill="white"/>
<mask id="path-69-inside-23_252_659" fill="white">
<path d="M472.667 102H590.833V138H472.667V102Z"/>
</mask>
<path d="M472.667 102V101H471.667V102H472.667ZM472.667 103H590.833V101H472.667V103ZM473.667 138V102H471.667V138H473.667Z" fill="white" fill-opacity="0.2" mask="url(#path-69-inside-23_252_659)"/>
<path d="M531.902 124.135C530.765 124.135 529.84 123.561 529.318 122.535C528.937 121.873 528.75 121.012 528.75 119.951C528.75 117.115 529.957 115.41 531.961 115.41C533.367 115.41 534.445 116.26 534.685 117.555H533.877C533.666 116.693 532.898 116.119 531.955 116.119C530.408 116.119 529.523 117.561 529.523 120.068H529.541C529.887 119.119 530.889 118.463 532.031 118.463C533.637 118.463 534.838 119.658 534.838 121.258C534.838 122.916 533.596 124.135 531.902 124.135ZM531.896 123.42C533.086 123.42 534.023 122.477 534.023 121.281C534.023 120.068 533.127 119.172 531.902 119.172C530.695 119.172 529.752 120.074 529.752 121.223C529.752 122.453 530.683 123.42 531.896 123.42Z" fill="white"/>
<mask id="path-72-inside-24_252_659" fill="white">
<path d="M590.833 102H709V138H590.833V102Z"/>
</mask>
<path d="M590.833 102V101H589.833V102H590.833ZM590.833 103H709V101H590.833V103ZM591.833 138V102H589.833V138H591.833Z" fill="white" fill-opacity="0.2" mask="url(#path-72-inside-24_252_659)"/>
<path d="M650.069 124.135C648.932 124.135 648.007 123.561 647.485 122.535C647.104 121.873 646.917 121.012 646.917 119.951C646.917 117.115 648.124 115.41 650.128 115.41C651.534 115.41 652.612 116.26 652.852 117.555H652.044C651.833 116.693 651.065 116.119 650.122 116.119C648.575 116.119 647.69 117.561 647.69 120.068H647.708C648.054 119.119 649.056 118.463 650.198 118.463C651.804 118.463 653.005 119.658 653.005 121.258C653.005 122.916 651.763 124.135 650.069 124.135ZM650.063 123.42C651.253 123.42 652.19 122.477 652.19 121.281C652.19 120.068 651.294 119.172 650.069 119.172C648.862 119.172 647.919 120.074 647.919 121.223C647.919 122.453 648.85 123.42 650.063 123.42Z" fill="white"/>
</g>
</g>
<rect x="0.5" y="0.5" width="708" height="137" rx="3.5" stroke="white" stroke-opacity="0.2"/>
<defs>
<clipPath id="clip0_252_659">
<rect width="709" height="138" rx="4" fill="white"/>
</clipPath>
<clipPath id="clip1_252_659">
<rect width="709" height="30" fill="white"/>
</clipPath>
<clipPath id="clip2_252_659">
<rect width="709" height="36" fill="white" transform="translate(0 30)"/>
</clipPath>
<clipPath id="clip3_252_659">
<rect width="709" height="36" fill="white" transform="translate(0 66)"/>
</clipPath>
<clipPath id="clip4_252_659">
<rect width="709" height="36" fill="white" transform="translate(0 102)"/>
</clipPath>
</defs>
</svg>
