<svg width="645" height="156" viewBox="0 0 645 156" fill="none" xmlns="http://www.w3.org/2000/svg">
<g clip-path="url(#clip0_302_821)">
<g clip-path="url(#clip1_302_821)">
<rect width="645" height="40" fill="#86A2FF" fill-opacity="0.2"/>
<mask id="path-3-inside-1_302_821" fill="white">
<path d="M0 0H64.5V40H0V0Z"/>
</mask>
<path d="M0 0V-1H-1V0H0ZM0 1H64.5V-1H0V1ZM1 40V0H-1V40H1Z" fill="white" fill-opacity="0.2" mask="url(#path-3-inside-1_302_821)"/>
<path d="M18.1016 23H17.4453V18.6562H17.418L15.6211 22.9609H15.0273L13.2305 18.6562H13.2031V23H12.5469V17.3633H13.3633L15.3086 22.0664H15.3398L17.2852 17.3633H18.1016V23ZM20.7734 23.0703C19.6484 23.0703 18.8906 22.2617 18.8906 20.9688C18.8906 19.6719 19.6484 18.8672 20.7734 18.8672C21.8945 18.8672 22.6523 19.6719 22.6523 20.9688C22.6523 22.2617 21.8945 23.0703 20.7734 23.0703ZM20.7734 22.4727C21.4922 22.4727 21.9609 21.9258 21.9609 20.9688C21.9609 20.0117 21.4922 19.4648 20.7734 19.4648C20.0547 19.4648 19.582 20.0117 19.582 20.9688C19.582 21.9258 20.0547 22.4727 20.7734 22.4727ZM24.8789 23.0703C23.8438 23.0703 23.1406 22.2422 23.1406 20.9688C23.1406 19.6953 23.8398 18.8672 24.8633 18.8672C25.4453 18.8672 25.9141 19.1523 26.1562 19.5977H26.1719V17.3633H26.8516V23H26.2031V22.3125H26.1914C25.9297 22.7812 25.4648 23.0703 24.8789 23.0703ZM25.0078 19.4648C24.2891 19.4648 23.8359 20.0508 23.8359 20.9688C23.8359 21.8906 24.2891 22.4727 25.0078 22.4727C25.707 22.4727 26.1758 21.8789 26.1758 20.9688C26.1758 20.0625 25.707 19.4648 25.0078 19.4648ZM29.3984 19.457C28.7617 19.457 28.3164 19.9453 28.2734 20.6211H30.4805C30.4648 19.9414 30.0391 19.457 29.3984 19.457ZM30.4648 21.8359H31.1328C31.0156 22.5469 30.3281 23.0703 29.4414 23.0703C28.2773 23.0703 27.5703 22.2617 27.5703 20.9844C27.5703 19.7227 28.2891 18.8672 29.4102 18.8672C30.5078 18.8672 31.1836 19.6641 31.1836 20.8945V21.1523H28.2695V21.1914C28.2695 21.9688 28.7266 22.4805 29.457 22.4805C29.9727 22.4805 30.3516 22.2188 30.4648 21.8359ZM31.9062 23V17.3633H32.5859V23H31.9062Z" fill="white"/>
<mask id="path-6-inside-2_302_821" fill="white">
<path d="M64.5 0H129V40H64.5V0Z"/>
</mask>
<path d="M64.5 0V-1H63.5V0H64.5ZM64.5 1H129V-1H64.5V1ZM65.5 40V0H63.5V40H65.5Z" fill="white" fill-opacity="0.2" mask="url(#path-6-inside-2_302_821)"/>
<path d="M85.8477 16.4492H86.5547C86.6211 17.0586 87.1992 17.4609 88.0039 17.4609C88.7656 17.4609 89.3203 17.0586 89.3203 16.5039C89.3203 16.0273 88.9883 15.7344 88.2305 15.5391L87.5078 15.3516C86.4688 15.0859 86.0078 14.6289 86.0078 13.8633C86.0078 12.9258 86.8281 12.2695 88 12.2695C89.1211 12.2695 89.9336 12.9336 89.9648 13.8789H89.2617C89.1992 13.2734 88.7109 12.9023 87.9766 12.9023C87.2461 12.9023 86.7383 13.2812 86.7383 13.832C86.7383 14.2578 87.0508 14.5117 87.8164 14.7109L88.4062 14.8672C89.5742 15.1602 90.0469 15.6094 90.0469 16.418C90.0469 17.4492 89.2344 18.0938 87.9375 18.0938C86.7422 18.0938 85.9141 17.4453 85.8477 16.4492ZM91.5703 12.9883V15.1484H92.918C93.6406 15.1484 94.0508 14.7578 94.0508 14.0664C94.0508 13.3906 93.6133 12.9883 92.8867 12.9883H91.5703ZM91.5703 15.7695V18H90.8672V12.3633H92.9805C94.0664 12.3633 94.7773 13.0273 94.7773 14.043C94.7773 14.8281 94.3516 15.4375 93.6445 15.6602L94.9492 18H94.125L92.918 15.7695H91.5703ZM97.793 18H97.0898V12.9961H95.3125V12.3633H99.5703V12.9961H97.793V18ZM101.371 15.3984V14.8047H102.047C102.695 14.8047 103.148 14.3867 103.148 13.8164C103.148 13.2578 102.77 12.8789 102.055 12.8789C101.406 12.8789 100.977 13.25 100.914 13.8398H100.238C100.316 12.8828 101.027 12.2695 102.086 12.2695C103.094 12.2695 103.855 12.875 103.855 13.7227C103.855 14.4297 103.402 14.9375 102.699 15.0625V15.0781C103.551 15.1289 104.098 15.6562 104.098 16.4492C104.098 17.418 103.215 18.0938 102.109 18.0938C100.93 18.0938 100.176 17.4414 100.125 16.5078H100.801C100.863 17.0859 101.344 17.4844 102.102 17.4844C102.848 17.4844 103.383 17.0625 103.383 16.4727C103.383 15.8086 102.883 15.3984 102.078 15.3984H101.371ZM107.496 16.0312H104.934V15.3984H107.496V16.0312ZM92.6133 28V26.8281H89.7812V26.1914C90.2617 25.3008 90.9219 24.2734 92.2539 22.3633H93.293V26.2109H94.0898V26.8281H93.293V28H92.6133ZM90.4766 26.1953V26.2109H92.6133V22.9492H92.6016C91.5352 24.4727 90.9219 25.4141 90.4766 26.1953ZM96.75 28.0938C95.4336 28.0938 94.6719 26.9609 94.6719 25.1797C94.6719 23.4141 95.4414 22.2695 96.75 22.2695C98.0586 22.2695 98.8203 23.4062 98.8203 25.1758C98.8203 26.957 98.0625 28.0938 96.75 28.0938ZM96.75 27.4805C97.6289 27.4805 98.1133 26.5859 98.1133 25.1797C98.1133 23.793 97.6211 22.8867 96.75 22.8867C95.8789 22.8867 95.3789 23.8008 95.3789 25.1758C95.3789 26.582 95.8672 27.4805 96.75 27.4805ZM101.602 28.0938C100.285 28.0938 99.5234 26.9609 99.5234 25.1797C99.5234 23.4141 100.293 22.2695 101.602 22.2695C102.91 22.2695 103.672 23.4062 103.672 25.1758C103.672 26.957 102.914 28.0938 101.602 28.0938ZM101.602 27.4805C102.48 27.4805 102.965 26.5859 102.965 25.1797C102.965 23.793 102.473 22.8867 101.602 22.8867C100.73 22.8867 100.23 23.8008 100.23 25.1758C100.23 26.582 100.719 27.4805 101.602 27.4805Z" fill="white"/>
<mask id="path-9-inside-3_302_821" fill="white">
<path d="M129 0H193.5V40H129V0Z"/>
</mask>
<path d="M129 0V-1H128V0H129ZM129 1H193.5V-1H129V1ZM130 40V0H128V40H130Z" fill="white" fill-opacity="0.2" mask="url(#path-9-inside-3_302_821)"/>
<path d="M150.457 16.4492H151.164C151.23 17.0586 151.809 17.4609 152.613 17.4609C153.375 17.4609 153.93 17.0586 153.93 16.5039C153.93 16.0273 153.598 15.7344 152.84 15.5391L152.117 15.3516C151.078 15.0859 150.617 14.6289 150.617 13.8633C150.617 12.9258 151.438 12.2695 152.609 12.2695C153.73 12.2695 154.543 12.9336 154.574 13.8789H153.871C153.809 13.2734 153.32 12.9023 152.586 12.9023C151.855 12.9023 151.348 13.2812 151.348 13.832C151.348 14.2578 151.66 14.5117 152.426 14.7109L153.016 14.8672C154.184 15.1602 154.656 15.6094 154.656 16.418C154.656 17.4492 153.844 18.0938 152.547 18.0938C151.352 18.0938 150.523 17.4453 150.457 16.4492ZM156.18 12.9883V15.1484H157.527C158.25 15.1484 158.66 14.7578 158.66 14.0664C158.66 13.3906 158.223 12.9883 157.496 12.9883H156.18ZM156.18 15.7695V18H155.477V12.3633H157.59C158.676 12.3633 159.387 13.0273 159.387 14.043C159.387 14.8281 158.961 15.4375 158.254 15.6602L159.559 18H158.734L157.527 15.7695H156.18ZM162.402 18H161.699V12.9961H159.922V12.3633H164.18V12.9961H162.402V18ZM166.598 18.0977C165.754 18.0977 165.082 17.6406 164.734 16.8281C164.547 16.3945 164.457 15.8867 164.457 15.2773C164.457 13.3789 165.266 12.2656 166.645 12.2656C167.602 12.2656 168.336 12.8398 168.516 13.7266H167.801C167.648 13.2148 167.195 12.8867 166.637 12.8867C165.695 12.8867 165.16 13.7227 165.137 15.2227H165.148C165.402 14.6719 166.023 14.3086 166.723 14.3086C167.797 14.3086 168.594 15.1016 168.594 16.1719C168.594 17.2852 167.754 18.0977 166.598 18.0977ZM166.59 17.4727C167.309 17.4727 167.879 16.9062 167.879 16.1953C167.879 15.457 167.348 14.9258 166.602 14.9258C165.855 14.9258 165.305 15.457 165.305 16.1758C165.305 16.8984 165.867 17.4727 166.59 17.4727ZM171.887 16.0312H169.324V15.3984H171.887V16.0312ZM156.5 28.0977C155.656 28.0977 154.984 27.6406 154.637 26.8281C154.449 26.3945 154.359 25.8867 154.359 25.2773C154.359 23.3789 155.168 22.2656 156.547 22.2656C157.504 22.2656 158.238 22.8398 158.418 23.7266H157.703C157.551 23.2148 157.098 22.8867 156.539 22.8867C155.598 22.8867 155.062 23.7227 155.039 25.2227H155.051C155.305 24.6719 155.926 24.3086 156.625 24.3086C157.699 24.3086 158.496 25.1016 158.496 26.1719C158.496 27.2852 157.656 28.0977 156.5 28.0977ZM156.492 27.4727C157.211 27.4727 157.781 26.9062 157.781 26.1953C157.781 25.457 157.25 24.9258 156.504 24.9258C155.758 24.9258 155.207 25.457 155.207 26.1758C155.207 26.8984 155.77 27.4727 156.492 27.4727ZM161.223 28.0938C159.906 28.0938 159.145 26.9609 159.145 25.1797C159.145 23.4141 159.914 22.2695 161.223 22.2695C162.531 22.2695 163.293 23.4062 163.293 25.1758C163.293 26.957 162.535 28.0938 161.223 28.0938ZM161.223 27.4805C162.102 27.4805 162.586 26.5859 162.586 25.1797C162.586 23.793 162.094 22.8867 161.223 22.8867C160.352 22.8867 159.852 23.8008 159.852 25.1758C159.852 26.582 160.34 27.4805 161.223 27.4805ZM166.074 28.0938C164.758 28.0938 163.996 26.9609 163.996 25.1797C163.996 23.4141 164.766 22.2695 166.074 22.2695C167.383 22.2695 168.145 23.4062 168.145 25.1758C168.145 26.957 167.387 28.0938 166.074 28.0938ZM166.074 27.4805C166.953 27.4805 167.438 26.5859 167.438 25.1797C167.438 23.793 166.945 22.8867 166.074 22.8867C165.203 22.8867 164.703 23.8008 164.703 25.1758C164.703 26.582 165.191 27.4805 166.074 27.4805Z" fill="white"/>
<mask id="path-12-inside-4_302_821" fill="white">
<path d="M193.5 0H258V40H193.5V0Z"/>
</mask>
<path d="M193.5 0V-1H192.5V0H193.5ZM193.5 1H258V-1H193.5V1ZM194.5 40V0H192.5V40H194.5Z" fill="white" fill-opacity="0.2" mask="url(#path-12-inside-4_302_821)"/>
<path d="M214.957 16.4492H215.664C215.73 17.0586 216.309 17.4609 217.113 17.4609C217.875 17.4609 218.43 17.0586 218.43 16.5039C218.43 16.0273 218.098 15.7344 217.34 15.5391L216.617 15.3516C215.578 15.0859 215.117 14.6289 215.117 13.8633C215.117 12.9258 215.938 12.2695 217.109 12.2695C218.23 12.2695 219.043 12.9336 219.074 13.8789H218.371C218.309 13.2734 217.82 12.9023 217.086 12.9023C216.355 12.9023 215.848 13.2812 215.848 13.832C215.848 14.2578 216.16 14.5117 216.926 14.7109L217.516 14.8672C218.684 15.1602 219.156 15.6094 219.156 16.418C219.156 17.4492 218.344 18.0938 217.047 18.0938C215.852 18.0938 215.023 17.4453 214.957 16.4492ZM220.68 12.9883V15.1484H222.027C222.75 15.1484 223.16 14.7578 223.16 14.0664C223.16 13.3906 222.723 12.9883 221.996 12.9883H220.68ZM220.68 15.7695V18H219.977V12.3633H222.09C223.176 12.3633 223.887 13.0273 223.887 14.043C223.887 14.8281 223.461 15.4375 222.754 15.6602L224.059 18H223.234L222.027 15.7695H220.68ZM226.902 18H226.199V12.9961H224.422V12.3633H228.68V12.9961H226.902V18ZM231.098 18.0977C230.254 18.0977 229.582 17.6406 229.234 16.8281C229.047 16.3945 228.957 15.8867 228.957 15.2773C228.957 13.3789 229.766 12.2656 231.145 12.2656C232.102 12.2656 232.836 12.8398 233.016 13.7266H232.301C232.148 13.2148 231.695 12.8867 231.137 12.8867C230.195 12.8867 229.66 13.7227 229.637 15.2227H229.648C229.902 14.6719 230.523 14.3086 231.223 14.3086C232.297 14.3086 233.094 15.1016 233.094 16.1719C233.094 17.2852 232.254 18.0977 231.098 18.0977ZM231.09 17.4727C231.809 17.4727 232.379 16.9062 232.379 16.1953C232.379 15.457 231.848 14.9258 231.102 14.9258C230.355 14.9258 229.805 15.457 229.805 16.1758C229.805 16.8984 230.367 17.4727 231.09 17.4727ZM236.387 16.0312H233.824V15.3984H236.387V16.0312ZM219.578 28L222.129 23.0039V22.9883H219.094V22.3633H222.824V23.0156L220.316 28H219.578ZM225.566 28.0938C224.488 28.0938 223.691 27.4219 223.633 26.4609H224.324C224.387 27.0625 224.898 27.4766 225.574 27.4766C226.34 27.4766 226.871 26.9453 226.871 26.1875C226.871 25.4297 226.336 24.8867 225.586 24.8867C225.059 24.8867 224.609 25.125 224.379 25.5195H223.719L224.027 22.3633H227.254V22.9883H224.605L224.434 24.8242H224.449C224.703 24.4844 225.172 24.2812 225.711 24.2812C226.793 24.2812 227.574 25.0742 227.574 26.168C227.574 27.3008 226.742 28.0938 225.566 28.0938ZM230.281 28.0938C228.965 28.0938 228.203 26.9609 228.203 25.1797C228.203 23.4141 228.973 22.2695 230.281 22.2695C231.59 22.2695 232.352 23.4062 232.352 25.1758C232.352 26.957 231.594 28.0938 230.281 28.0938ZM230.281 27.4805C231.16 27.4805 231.645 26.5859 231.645 25.1797C231.645 23.793 231.152 22.8867 230.281 22.8867C229.41 22.8867 228.91 23.8008 228.91 25.1758C228.91 26.582 229.398 27.4805 230.281 27.4805Z" fill="white"/>
<mask id="path-15-inside-5_302_821" fill="white">
<path d="M258 0H322.5V40H258V0Z"/>
</mask>
<path d="M258 0V-1H257V0H258ZM258 1H322.5V-1H258V1ZM259 40V0H257V40H259Z" fill="white" fill-opacity="0.2" mask="url(#path-15-inside-5_302_821)"/>
<path d="M277.676 16.4492H278.383C278.449 17.0586 279.027 17.4609 279.832 17.4609C280.594 17.4609 281.148 17.0586 281.148 16.5039C281.148 16.0273 280.816 15.7344 280.059 15.5391L279.336 15.3516C278.297 15.0859 277.836 14.6289 277.836 13.8633C277.836 12.9258 278.656 12.2695 279.828 12.2695C280.949 12.2695 281.762 12.9336 281.793 13.8789H281.09C281.027 13.2734 280.539 12.9023 279.805 12.9023C279.074 12.9023 278.566 13.2812 278.566 13.832C278.566 14.2578 278.879 14.5117 279.645 14.7109L280.234 14.8672C281.402 15.1602 281.875 15.6094 281.875 16.418C281.875 17.4492 281.062 18.0938 279.766 18.0938C278.57 18.0938 277.742 17.4453 277.676 16.4492ZM283.398 12.9883V15.1484H284.746C285.469 15.1484 285.879 14.7578 285.879 14.0664C285.879 13.3906 285.441 12.9883 284.715 12.9883H283.398ZM283.398 15.7695V18H282.695V12.3633H284.809C285.895 12.3633 286.605 13.0273 286.605 14.043C286.605 14.8281 286.18 15.4375 285.473 15.6602L286.777 18H285.953L284.746 15.7695H283.398ZM289.621 18H288.918V12.9961H287.141V12.3633H291.398V12.9961H289.621V18ZM293.488 18V13.1094H293.473L291.98 14.1836V13.4414L293.48 12.3633H294.168V18H293.488ZM295.562 13.9883C295.562 13.0039 296.359 12.2695 297.422 12.2695C298.43 12.2695 299.223 12.9531 299.223 13.8164C299.223 14.4453 298.938 14.9141 297.996 15.8867L296.57 17.3594V17.375H299.316V18H295.598V17.5156L297.582 15.4258C298.34 14.6289 298.52 14.3281 298.52 13.8594C298.52 13.3164 298.023 12.8828 297.402 12.8828C296.742 12.8828 296.242 13.3594 296.242 13.9883V13.9922H295.562V13.9883ZM302.668 16.0312H300.105V15.3984H302.668V16.0312ZM285.5 28.0977C284.656 28.0977 283.984 27.6406 283.637 26.8281C283.449 26.3945 283.359 25.8867 283.359 25.2773C283.359 23.3789 284.168 22.2656 285.547 22.2656C286.504 22.2656 287.238 22.8398 287.418 23.7266H286.703C286.551 23.2148 286.098 22.8867 285.539 22.8867C284.598 22.8867 284.062 23.7227 284.039 25.2227H284.051C284.305 24.6719 284.926 24.3086 285.625 24.3086C286.699 24.3086 287.496 25.1016 287.496 26.1719C287.496 27.2852 286.656 28.0977 285.5 28.0977ZM285.492 27.4727C286.211 27.4727 286.781 26.9062 286.781 26.1953C286.781 25.457 286.25 24.9258 285.504 24.9258C284.758 24.9258 284.207 25.457 284.207 26.1758C284.207 26.8984 284.77 27.4727 285.492 27.4727ZM290.223 28.0938C288.906 28.0938 288.145 26.9609 288.145 25.1797C288.145 23.4141 288.914 22.2695 290.223 22.2695C291.531 22.2695 292.293 23.4062 292.293 25.1758C292.293 26.957 291.535 28.0938 290.223 28.0938ZM290.223 27.4805C291.102 27.4805 291.586 26.5859 291.586 25.1797C291.586 23.793 291.094 22.8867 290.223 22.8867C289.352 22.8867 288.852 23.8008 288.852 25.1758C288.852 26.582 289.34 27.4805 290.223 27.4805ZM295.074 28.0938C293.758 28.0938 292.996 26.9609 292.996 25.1797C292.996 23.4141 293.766 22.2695 295.074 22.2695C296.383 22.2695 297.145 23.4062 297.145 25.1758C297.145 26.957 296.387 28.0938 295.074 28.0938ZM295.074 27.4805C295.953 27.4805 296.438 26.5859 296.438 25.1797C296.438 23.793 295.945 22.8867 295.074 22.8867C294.203 22.8867 293.703 23.8008 293.703 25.1758C293.703 26.582 294.191 27.4805 295.074 27.4805Z" fill="white"/>
<mask id="path-18-inside-6_302_821" fill="white">
<path d="M322.5 0H387V40H322.5V0Z"/>
</mask>
<path d="M322.5 0V-1H321.5V0H322.5ZM322.5 1H387V-1H322.5V1ZM323.5 40V0H321.5V40H323.5Z" fill="white" fill-opacity="0.2" mask="url(#path-18-inside-6_302_821)"/>
<path d="M342.176 16.4492H342.883C342.949 17.0586 343.527 17.4609 344.332 17.4609C345.094 17.4609 345.648 17.0586 345.648 16.5039C345.648 16.0273 345.316 15.7344 344.559 15.5391L343.836 15.3516C342.797 15.0859 342.336 14.6289 342.336 13.8633C342.336 12.9258 343.156 12.2695 344.328 12.2695C345.449 12.2695 346.262 12.9336 346.293 13.8789H345.59C345.527 13.2734 345.039 12.9023 344.305 12.9023C343.574 12.9023 343.066 13.2812 343.066 13.832C343.066 14.2578 343.379 14.5117 344.145 14.7109L344.734 14.8672C345.902 15.1602 346.375 15.6094 346.375 16.418C346.375 17.4492 345.562 18.0938 344.266 18.0938C343.07 18.0938 342.242 17.4453 342.176 16.4492ZM347.898 12.9883V15.1484H349.246C349.969 15.1484 350.379 14.7578 350.379 14.0664C350.379 13.3906 349.941 12.9883 349.215 12.9883H347.898ZM347.898 15.7695V18H347.195V12.3633H349.309C350.395 12.3633 351.105 13.0273 351.105 14.043C351.105 14.8281 350.68 15.4375 349.973 15.6602L351.277 18H350.453L349.246 15.7695H347.898ZM354.121 18H353.418V12.9961H351.641V12.3633H355.898V12.9961H354.121V18ZM357.988 18V13.1094H357.973L356.48 14.1836V13.4414L357.98 12.3633H358.668V18H357.988ZM360.062 13.9883C360.062 13.0039 360.859 12.2695 361.922 12.2695C362.93 12.2695 363.723 12.9531 363.723 13.8164C363.723 14.4453 363.438 14.9141 362.496 15.8867L361.07 17.3594V17.375H363.816V18H360.098V17.5156L362.082 15.4258C362.84 14.6289 363.02 14.3281 363.02 13.8594C363.02 13.3164 362.523 12.8828 361.902 12.8828C361.242 12.8828 360.742 13.3594 360.742 13.9883V13.9922H360.062V13.9883ZM367.168 16.0312H364.605V15.3984H367.168V16.0312ZM348.531 28L351.082 23.0039V22.9883H348.047V22.3633H351.777V23.0156L349.27 28H348.531ZM354.477 28.0938C353.16 28.0938 352.398 26.9609 352.398 25.1797C352.398 23.4141 353.168 22.2695 354.477 22.2695C355.785 22.2695 356.547 23.4062 356.547 25.1758C356.547 26.957 355.789 28.0938 354.477 28.0938ZM354.477 27.4805C355.355 27.4805 355.84 26.5859 355.84 25.1797C355.84 23.793 355.348 22.8867 354.477 22.8867C353.605 22.8867 353.105 23.8008 353.105 25.1758C353.105 26.582 353.594 27.4805 354.477 27.4805ZM359.328 28.0938C358.012 28.0938 357.25 26.9609 357.25 25.1797C357.25 23.4141 358.02 22.2695 359.328 22.2695C360.637 22.2695 361.398 23.4062 361.398 25.1758C361.398 26.957 360.641 28.0938 359.328 28.0938ZM359.328 27.4805C360.207 27.4805 360.691 26.5859 360.691 25.1797C360.691 23.793 360.199 22.8867 359.328 22.8867C358.457 22.8867 357.957 23.8008 357.957 25.1758C357.957 26.582 358.445 27.4805 359.328 27.4805Z" fill="white"/>
<mask id="path-21-inside-7_302_821" fill="white">
<path d="M387 0H451.5V40H387V0Z"/>
</mask>
<path d="M387 0V-1H386V0H387ZM387 1H451.5V-1H387V1ZM388 40V0H386V40H388Z" fill="white" fill-opacity="0.2" mask="url(#path-21-inside-7_302_821)"/>
<path d="M406.676 16.4492H407.383C407.449 17.0586 408.027 17.4609 408.832 17.4609C409.594 17.4609 410.148 17.0586 410.148 16.5039C410.148 16.0273 409.816 15.7344 409.059 15.5391L408.336 15.3516C407.297 15.0859 406.836 14.6289 406.836 13.8633C406.836 12.9258 407.656 12.2695 408.828 12.2695C409.949 12.2695 410.762 12.9336 410.793 13.8789H410.09C410.027 13.2734 409.539 12.9023 408.805 12.9023C408.074 12.9023 407.566 13.2812 407.566 13.832C407.566 14.2578 407.879 14.5117 408.645 14.7109L409.234 14.8672C410.402 15.1602 410.875 15.6094 410.875 16.418C410.875 17.4492 410.062 18.0938 408.766 18.0938C407.57 18.0938 406.742 17.4453 406.676 16.4492ZM412.398 12.9883V15.1484H413.746C414.469 15.1484 414.879 14.7578 414.879 14.0664C414.879 13.3906 414.441 12.9883 413.715 12.9883H412.398ZM412.398 15.7695V18H411.695V12.3633H413.809C414.895 12.3633 415.605 13.0273 415.605 14.043C415.605 14.8281 415.18 15.4375 414.473 15.6602L415.777 18H414.953L413.746 15.7695H412.398ZM418.621 18H417.918V12.9961H416.141V12.3633H420.398V12.9961H418.621V18ZM422.488 18V13.1094H422.473L420.98 14.1836V13.4414L422.48 12.3633H423.168V18H422.488ZM424.562 13.9883C424.562 13.0039 425.359 12.2695 426.422 12.2695C427.43 12.2695 428.223 12.9531 428.223 13.8164C428.223 14.4453 427.938 14.9141 426.996 15.8867L425.57 17.3594V17.375H428.316V18H424.598V17.5156L426.582 15.4258C427.34 14.6289 427.52 14.3281 427.52 13.8594C427.52 13.3164 427.023 12.8828 426.402 12.8828C425.742 12.8828 425.242 13.3594 425.242 13.9883V13.9922H424.562V13.9883ZM431.668 16.0312H429.105V15.3984H431.668V16.0312ZM414.555 28.0938C413.363 28.0938 412.512 27.418 412.512 26.4766C412.512 25.7734 412.996 25.1953 413.723 25.0273V25.0117C413.113 24.8242 412.734 24.3438 412.734 23.75C412.734 22.8984 413.508 22.2695 414.555 22.2695C415.609 22.2695 416.371 22.8945 416.371 23.7539C416.371 24.3398 416 24.8164 415.387 25.0117V25.0273C416.117 25.1992 416.602 25.7773 416.602 26.4766C416.602 27.4219 415.75 28.0938 414.555 28.0938ZM414.555 27.4805C415.332 27.4805 415.883 27.0391 415.883 26.4258C415.883 25.8047 415.332 25.3672 414.555 25.3672C413.781 25.3672 413.227 25.8086 413.227 26.4258C413.227 27.0391 413.781 27.4805 414.555 27.4805ZM414.555 24.75C415.211 24.75 415.676 24.3633 415.676 23.8164C415.676 23.2617 415.215 22.875 414.555 22.875C413.895 22.875 413.434 23.2656 413.434 23.8164C413.434 24.3633 413.895 24.75 414.555 24.75ZM417.379 23.9883C417.379 23.0039 418.176 22.2695 419.238 22.2695C420.246 22.2695 421.039 22.9531 421.039 23.8164C421.039 24.4453 420.754 24.9141 419.812 25.8867L418.387 27.3594V27.375H421.133V28H417.414V27.5156L419.398 25.4258C420.156 24.6289 420.336 24.3281 420.336 23.8594C420.336 23.3164 419.84 22.8828 419.219 22.8828C418.559 22.8828 418.059 23.3594 418.059 23.9883V23.9922H417.379V23.9883ZM423.918 28.0938C422.602 28.0938 421.84 26.9609 421.84 25.1797C421.84 23.4141 422.609 22.2695 423.918 22.2695C425.227 22.2695 425.988 23.4062 425.988 25.1758C425.988 26.957 425.23 28.0938 423.918 28.0938ZM423.918 27.4805C424.797 27.4805 425.281 26.5859 425.281 25.1797C425.281 23.793 424.789 22.8867 423.918 22.8867C423.047 22.8867 422.547 23.8008 422.547 25.1758C422.547 26.582 423.035 27.4805 423.918 27.4805Z" fill="white"/>
<mask id="path-24-inside-8_302_821" fill="white">
<path d="M451.5 0H516V40H451.5V0Z"/>
</mask>
<path d="M451.5 0V-1H450.5V0H451.5ZM451.5 1H516V-1H451.5V1ZM452.5 40V0H450.5V40H452.5Z" fill="white" fill-opacity="0.2" mask="url(#path-24-inside-8_302_821)"/>
<path d="M471.176 16.4492H471.883C471.949 17.0586 472.527 17.4609 473.332 17.4609C474.094 17.4609 474.648 17.0586 474.648 16.5039C474.648 16.0273 474.316 15.7344 473.559 15.5391L472.836 15.3516C471.797 15.0859 471.336 14.6289 471.336 13.8633C471.336 12.9258 472.156 12.2695 473.328 12.2695C474.449 12.2695 475.262 12.9336 475.293 13.8789H474.59C474.527 13.2734 474.039 12.9023 473.305 12.9023C472.574 12.9023 472.066 13.2812 472.066 13.832C472.066 14.2578 472.379 14.5117 473.145 14.7109L473.734 14.8672C474.902 15.1602 475.375 15.6094 475.375 16.418C475.375 17.4492 474.562 18.0938 473.266 18.0938C472.07 18.0938 471.242 17.4453 471.176 16.4492ZM476.898 12.9883V15.1484H478.246C478.969 15.1484 479.379 14.7578 479.379 14.0664C479.379 13.3906 478.941 12.9883 478.215 12.9883H476.898ZM476.898 15.7695V18H476.195V12.3633H478.309C479.395 12.3633 480.105 13.0273 480.105 14.043C480.105 14.8281 479.68 15.4375 478.973 15.6602L480.277 18H479.453L478.246 15.7695H476.898ZM483.121 18H482.418V12.9961H480.641V12.3633H484.898V12.9961H483.121V18ZM486.988 18V13.1094H486.973L485.48 14.1836V13.4414L486.98 12.3633H487.668V18H486.988ZM489.062 13.9883C489.062 13.0039 489.859 12.2695 490.922 12.2695C491.93 12.2695 492.723 12.9531 492.723 13.8164C492.723 14.4453 492.438 14.9141 491.496 15.8867L490.07 17.3594V17.375H492.816V18H489.098V17.5156L491.082 15.4258C491.84 14.6289 492.02 14.3281 492.02 13.8594C492.02 13.3164 491.523 12.8828 490.902 12.8828C490.242 12.8828 489.742 13.3594 489.742 13.9883V13.9922H489.062V13.9883ZM496.168 16.0312H493.605V15.3984H496.168V16.0312ZM476.594 28V23.1094H476.578L475.086 24.1836V23.4414L476.586 22.3633H477.273V28H476.594ZM480.676 28.0938C479.359 28.0938 478.598 26.9609 478.598 25.1797C478.598 23.4141 479.367 22.2695 480.676 22.2695C481.984 22.2695 482.746 23.4062 482.746 25.1758C482.746 26.957 481.988 28.0938 480.676 28.0938ZM480.676 27.4805C481.555 27.4805 482.039 26.5859 482.039 25.1797C482.039 23.793 481.547 22.8867 480.676 22.8867C479.805 22.8867 479.305 23.8008 479.305 25.1758C479.305 26.582 479.793 27.4805 480.676 27.4805ZM485.527 28.0938C484.211 28.0938 483.449 26.9609 483.449 25.1797C483.449 23.4141 484.219 22.2695 485.527 22.2695C486.836 22.2695 487.598 23.4062 487.598 25.1758C487.598 26.957 486.84 28.0938 485.527 28.0938ZM485.527 27.4805C486.406 27.4805 486.891 26.5859 486.891 25.1797C486.891 23.793 486.398 22.8867 485.527 22.8867C484.656 22.8867 484.156 23.8008 484.156 25.1758C484.156 26.582 484.645 27.4805 485.527 27.4805ZM490.379 28.0938C489.062 28.0938 488.301 26.9609 488.301 25.1797C488.301 23.4141 489.07 22.2695 490.379 22.2695C491.688 22.2695 492.449 23.4062 492.449 25.1758C492.449 26.957 491.691 28.0938 490.379 28.0938ZM490.379 27.4805C491.258 27.4805 491.742 26.5859 491.742 25.1797C491.742 23.793 491.25 22.8867 490.379 22.8867C489.508 22.8867 489.008 23.8008 489.008 25.1758C489.008 26.582 489.496 27.4805 490.379 27.4805Z" fill="white"/>
<mask id="path-27-inside-9_302_821" fill="white">
<path d="M516 0H580.5V40H516V0Z"/>
</mask>
<path d="M516 0V-1H515V0H516ZM516 1H580.5V-1H516V1ZM517 40V0H515V40H517Z" fill="white" fill-opacity="0.2" mask="url(#path-27-inside-9_302_821)"/>
<path d="M535.023 16.4492H535.73C535.797 17.0586 536.375 17.4609 537.18 17.4609C537.941 17.4609 538.496 17.0586 538.496 16.5039C538.496 16.0273 538.164 15.7344 537.406 15.5391L536.684 15.3516C535.645 15.0859 535.184 14.6289 535.184 13.8633C535.184 12.9258 536.004 12.2695 537.176 12.2695C538.297 12.2695 539.109 12.9336 539.141 13.8789H538.438C538.375 13.2734 537.887 12.9023 537.152 12.9023C536.422 12.9023 535.914 13.2812 535.914 13.832C535.914 14.2578 536.227 14.5117 536.992 14.7109L537.582 14.8672C538.75 15.1602 539.223 15.6094 539.223 16.418C539.223 17.4492 538.41 18.0938 537.113 18.0938C535.918 18.0938 535.09 17.4453 535.023 16.4492ZM540.746 12.9883V15.1484H542.094C542.816 15.1484 543.227 14.7578 543.227 14.0664C543.227 13.3906 542.789 12.9883 542.062 12.9883H540.746ZM540.746 15.7695V18H540.043V12.3633H542.156C543.242 12.3633 543.953 13.0273 543.953 14.043C543.953 14.8281 543.527 15.4375 542.82 15.6602L544.125 18H543.301L542.094 15.7695H540.746ZM546.969 18H546.266V12.9961H544.488V12.3633H548.746V12.9961H546.969V18ZM549.363 13.9883C549.363 13.0039 550.16 12.2695 551.223 12.2695C552.23 12.2695 553.023 12.9531 553.023 13.8164C553.023 14.4453 552.738 14.9141 551.797 15.8867L550.371 17.3594V17.375H553.117V18H549.398V17.5156L551.383 15.4258C552.141 14.6289 552.32 14.3281 552.32 13.8594C552.32 13.3164 551.824 12.8828 551.203 12.8828C550.543 12.8828 550.043 13.3594 550.043 13.9883V13.9922H549.363V13.9883ZM555.902 18.0938C554.586 18.0938 553.824 16.9609 553.824 15.1797C553.824 13.4141 554.594 12.2695 555.902 12.2695C557.211 12.2695 557.973 13.4062 557.973 15.1758C557.973 16.957 557.215 18.0938 555.902 18.0938ZM555.902 17.4805C556.781 17.4805 557.266 16.5859 557.266 15.1797C557.266 13.793 556.773 12.8867 555.902 12.8867C555.031 12.8867 554.531 13.8008 554.531 15.1758C554.531 16.582 555.02 17.4805 555.902 17.4805ZM561.32 16.0312H558.758V15.3984H561.32V16.0312ZM543.555 28.0938C542.363 28.0938 541.512 27.418 541.512 26.4766C541.512 25.7734 541.996 25.1953 542.723 25.0273V25.0117C542.113 24.8242 541.734 24.3438 541.734 23.75C541.734 22.8984 542.508 22.2695 543.555 22.2695C544.609 22.2695 545.371 22.8945 545.371 23.7539C545.371 24.3398 545 24.8164 544.387 25.0117V25.0273C545.117 25.1992 545.602 25.7773 545.602 26.4766C545.602 27.4219 544.75 28.0938 543.555 28.0938ZM543.555 27.4805C544.332 27.4805 544.883 27.0391 544.883 26.4258C544.883 25.8047 544.332 25.3672 543.555 25.3672C542.781 25.3672 542.227 25.8086 542.227 26.4258C542.227 27.0391 542.781 27.4805 543.555 27.4805ZM543.555 24.75C544.211 24.75 544.676 24.3633 544.676 23.8164C544.676 23.2617 544.215 22.875 543.555 22.875C542.895 22.875 542.434 23.2656 542.434 23.8164C542.434 24.3633 542.895 24.75 543.555 24.75ZM546.379 23.9883C546.379 23.0039 547.176 22.2695 548.238 22.2695C549.246 22.2695 550.039 22.9531 550.039 23.8164C550.039 24.4453 549.754 24.9141 548.812 25.8867L547.387 27.3594V27.375H550.133V28H546.414V27.5156L548.398 25.4258C549.156 24.6289 549.336 24.3281 549.336 23.8594C549.336 23.3164 548.84 22.8828 548.219 22.8828C547.559 22.8828 547.059 23.3594 547.059 23.9883V23.9922H546.379V23.9883ZM552.918 28.0938C551.602 28.0938 550.84 26.9609 550.84 25.1797C550.84 23.4141 551.609 22.2695 552.918 22.2695C554.227 22.2695 554.988 23.4062 554.988 25.1758C554.988 26.957 554.23 28.0938 552.918 28.0938ZM552.918 27.4805C553.797 27.4805 554.281 26.5859 554.281 25.1797C554.281 23.793 553.789 22.8867 552.918 22.8867C552.047 22.8867 551.547 23.8008 551.547 25.1758C551.547 26.582 552.035 27.4805 552.918 27.4805Z" fill="white"/>
<mask id="path-30-inside-10_302_821" fill="white">
<path d="M580.5 0H645V40H580.5V0Z"/>
</mask>
<path d="M580.5 0V-1H579.5V0H580.5ZM580.5 1H645V-1H580.5V1ZM581.5 40V0H579.5V40H581.5Z" fill="white" fill-opacity="0.2" mask="url(#path-30-inside-10_302_821)"/>
<path d="M599.523 16.4492H600.23C600.297 17.0586 600.875 17.4609 601.68 17.4609C602.441 17.4609 602.996 17.0586 602.996 16.5039C602.996 16.0273 602.664 15.7344 601.906 15.5391L601.184 15.3516C600.145 15.0859 599.684 14.6289 599.684 13.8633C599.684 12.9258 600.504 12.2695 601.676 12.2695C602.797 12.2695 603.609 12.9336 603.641 13.8789H602.938C602.875 13.2734 602.387 12.9023 601.652 12.9023C600.922 12.9023 600.414 13.2812 600.414 13.832C600.414 14.2578 600.727 14.5117 601.492 14.7109L602.082 14.8672C603.25 15.1602 603.723 15.6094 603.723 16.418C603.723 17.4492 602.91 18.0938 601.613 18.0938C600.418 18.0938 599.59 17.4453 599.523 16.4492ZM605.246 12.9883V15.1484H606.594C607.316 15.1484 607.727 14.7578 607.727 14.0664C607.727 13.3906 607.289 12.9883 606.562 12.9883H605.246ZM605.246 15.7695V18H604.543V12.3633H606.656C607.742 12.3633 608.453 13.0273 608.453 14.043C608.453 14.8281 608.027 15.4375 607.32 15.6602L608.625 18H607.801L606.594 15.7695H605.246ZM611.469 18H610.766V12.9961H608.988V12.3633H613.246V12.9961H611.469V18ZM613.863 13.9883C613.863 13.0039 614.66 12.2695 615.723 12.2695C616.73 12.2695 617.523 12.9531 617.523 13.8164C617.523 14.4453 617.238 14.9141 616.297 15.8867L614.871 17.3594V17.375H617.617V18H613.898V17.5156L615.883 15.4258C616.641 14.6289 616.82 14.3281 616.82 13.8594C616.82 13.3164 616.324 12.8828 615.703 12.8828C615.043 12.8828 614.543 13.3594 614.543 13.9883V13.9922H613.863V13.9883ZM620.402 18.0938C619.086 18.0938 618.324 16.9609 618.324 15.1797C618.324 13.4141 619.094 12.2695 620.402 12.2695C621.711 12.2695 622.473 13.4062 622.473 15.1758C622.473 16.957 621.715 18.0938 620.402 18.0938ZM620.402 17.4805C621.281 17.4805 621.766 16.5859 621.766 15.1797C621.766 13.793 621.273 12.8867 620.402 12.8867C619.531 12.8867 619.031 13.8008 619.031 15.1758C619.031 16.582 619.52 17.4805 620.402 17.4805ZM625.82 16.0312H623.258V15.3984H625.82V16.0312ZM605.594 28V23.1094H605.578L604.086 24.1836V23.4414L605.586 22.3633H606.273V28H605.594ZM609.676 28.0938C608.359 28.0938 607.598 26.9609 607.598 25.1797C607.598 23.4141 608.367 22.2695 609.676 22.2695C610.984 22.2695 611.746 23.4062 611.746 25.1758C611.746 26.957 610.988 28.0938 609.676 28.0938ZM609.676 27.4805C610.555 27.4805 611.039 26.5859 611.039 25.1797C611.039 23.793 610.547 22.8867 609.676 22.8867C608.805 22.8867 608.305 23.8008 608.305 25.1758C608.305 26.582 608.793 27.4805 609.676 27.4805ZM614.527 28.0938C613.211 28.0938 612.449 26.9609 612.449 25.1797C612.449 23.4141 613.219 22.2695 614.527 22.2695C615.836 22.2695 616.598 23.4062 616.598 25.1758C616.598 26.957 615.84 28.0938 614.527 28.0938ZM614.527 27.4805C615.406 27.4805 615.891 26.5859 615.891 25.1797C615.891 23.793 615.398 22.8867 614.527 22.8867C613.656 22.8867 613.156 23.8008 613.156 25.1758C613.156 26.582 613.645 27.4805 614.527 27.4805ZM619.379 28.0938C618.062 28.0938 617.301 26.9609 617.301 25.1797C617.301 23.4141 618.07 22.2695 619.379 22.2695C620.688 22.2695 621.449 23.4062 621.449 25.1758C621.449 26.957 620.691 28.0938 619.379 28.0938ZM619.379 27.4805C620.258 27.4805 620.742 26.5859 620.742 25.1797C620.742 23.793 620.25 22.8867 619.379 22.8867C618.508 22.8867 618.008 23.8008 618.008 25.1758C618.008 26.582 618.496 27.4805 619.379 27.4805Z" fill="white"/>
</g>
<g clip-path="url(#clip2_302_821)">
<rect width="645" height="40" transform="translate(0 40)" fill="#86A2FF" fill-opacity="0.2"/>
<mask id="path-33-inside-11_302_821" fill="white">
<path d="M0 40H64.5V80H0V40Z"/>
</mask>
<path d="M0 40V39H-1V40H0ZM0 41H64.5V39H0V41ZM1 80V40H-1V80H1Z" fill="white" fill-opacity="0.2" mask="url(#path-33-inside-11_302_821)"/>
<path d="M16.2109 58L15.6445 56.3867H13.4023L12.8359 58H12.0977L14.1758 52.3633H14.8711L16.9492 58H16.2109ZM14.5117 53.2188L13.6094 55.7891H15.4375L14.5352 53.2188H14.5117ZM20.7852 55.2695H20.1211C20.0234 54.8281 19.6797 54.4648 19.082 54.4648C18.3789 54.4648 17.9023 55.0469 17.9023 55.9688C17.9023 56.9141 18.3867 57.4727 19.0898 57.4727C19.6445 57.4727 20.0078 57.1797 20.125 56.6914H20.793C20.6875 57.5 20.0078 58.0703 19.0859 58.0703C17.9609 58.0703 17.2109 57.2773 17.2109 55.9688C17.2109 54.6875 17.957 53.8672 19.0781 53.8672C20.0938 53.8672 20.6992 54.5391 20.7852 55.2695ZM21.6367 52.957H22.3164V53.9375H23.1055V54.4961H22.3164V56.9102C22.3164 57.2812 22.4727 57.4492 22.8203 57.4492C22.8984 57.4492 23.0547 57.4375 23.1016 57.4297V58C23.0195 58.0195 22.832 58.0312 22.6719 58.0312C21.9258 58.0312 21.6367 57.7266 21.6367 56.9453V54.4961H21.0312V53.9375H21.6367V52.957ZM23.8672 58V53.9375H24.5469V58H23.8672ZM24.207 53.2539C23.9766 53.2539 23.7852 53.0625 23.7852 52.832C23.7852 52.5977 23.9766 52.4102 24.207 52.4102C24.4414 52.4102 24.6328 52.5977 24.6328 52.832C24.6328 53.0625 24.4414 53.2539 24.207 53.2539ZM27.1484 58.0703C26.0234 58.0703 25.2656 57.2617 25.2656 55.9688C25.2656 54.6719 26.0234 53.8672 27.1484 53.8672C28.2695 53.8672 29.0273 54.6719 29.0273 55.9688C29.0273 57.2617 28.2695 58.0703 27.1484 58.0703ZM27.1484 57.4727C27.8672 57.4727 28.3359 56.9258 28.3359 55.9688C28.3359 55.0117 27.8672 54.4648 27.1484 54.4648C26.4297 54.4648 25.957 55.0117 25.957 55.9688C25.957 56.9258 26.4297 57.4727 27.1484 57.4727ZM29.7148 58V53.9375H30.3555V54.5859H30.3711C30.5977 54.1484 31.0312 53.8672 31.6602 53.8672C32.5508 53.8672 33.0664 54.4414 33.0664 55.3633V58H32.3867V55.4844C32.3867 54.8281 32.0781 54.4688 31.4531 54.4688C30.8125 54.4688 30.3945 54.9219 30.3945 55.6094V58H29.7148ZM35.5742 58V53.9375H36.2148V54.6016H36.2305C36.3633 54.1523 36.7383 53.8672 37.2148 53.8672C37.332 53.8672 37.4336 53.8867 37.4883 53.8945V54.5547C37.4336 54.5352 37.2891 54.5156 37.125 54.5156C36.5977 54.5156 36.2539 54.8945 36.2539 55.4688V58H35.5742ZM39.3047 57.4922C39.9453 57.4922 40.4375 57.043 40.4375 56.457V56.125L39.3516 56.1914C38.8047 56.2266 38.4922 56.4688 38.4922 56.8516C38.4922 57.2383 38.8164 57.4922 39.3047 57.4922ZM39.1523 58.0703C38.3438 58.0703 37.8008 57.582 37.8008 56.8516C37.8008 56.1562 38.3359 55.7188 39.2734 55.6641L40.4375 55.5977V55.2578C40.4375 54.7617 40.1094 54.4648 39.5469 54.4648C39.0234 54.4648 38.6953 54.7109 38.6094 55.1094H37.9531C38 54.4062 38.6016 53.8672 39.5625 53.8672C40.5156 53.8672 41.1172 54.3828 41.1172 55.1914V58H40.4727V57.3008H40.457C40.2148 57.7656 39.6992 58.0703 39.1523 58.0703ZM41.9805 58V53.9375H42.6211V54.5859H42.6367C42.8633 54.1484 43.2969 53.8672 43.9258 53.8672C44.8164 53.8672 45.332 54.4414 45.332 55.3633V58H44.6523V55.4844C44.6523 54.8281 44.3438 54.4688 43.7188 54.4688C43.0781 54.4688 42.6602 54.9219 42.6602 55.6094V58H41.9805ZM47.8516 57.4336C48.5586 57.4336 49.0312 56.8477 49.0312 55.9531C49.0312 55.0586 48.5586 54.4648 47.8516 54.4648C47.1523 54.4648 46.6953 55.043 46.6953 55.9531C46.6953 56.8633 47.1523 57.4336 47.8516 57.4336ZM47.875 59.5312C46.9805 59.5312 46.2734 59.0273 46.1602 58.3359H46.8594C46.9922 58.707 47.3945 58.9531 47.9023 58.9531C48.6055 58.9531 49.0312 58.5469 49.0312 57.9414V57.3008H49.0156C48.7656 57.7422 48.2852 58.0312 47.7148 58.0312C46.6797 58.0312 46 57.2148 46 55.9531C46 54.6797 46.6797 53.8672 47.7305 53.8672C48.3047 53.8672 48.7812 54.1484 49.0508 54.6211H49.0625V53.9375H49.7109V57.918C49.7109 58.8867 48.9961 59.5312 47.875 59.5312ZM52.2266 54.457C51.5898 54.457 51.1445 54.9453 51.1016 55.6211H53.3086C53.293 54.9414 52.8672 54.457 52.2266 54.457ZM53.293 56.8359H53.9609C53.8438 57.5469 53.1562 58.0703 52.2695 58.0703C51.1055 58.0703 50.3984 57.2617 50.3984 55.9844C50.3984 54.7227 51.1172 53.8672 52.2383 53.8672C53.3359 53.8672 54.0117 54.6641 54.0117 55.8945V56.1523H51.0977V56.1914C51.0977 56.9688 51.5547 57.4805 52.2852 57.4805C52.8008 57.4805 53.1797 57.2188 53.293 56.8359ZM55.1641 59.1211H54.5977L54.9766 57.1328H55.6992L55.1641 59.1211ZM12.4414 68V63.9375H13.082V64.5859H13.0977C13.2891 64.1562 13.7031 63.8672 14.25 63.8672C14.8047 63.8672 15.2148 64.1484 15.3906 64.6406H15.4062C15.6328 64.1562 16.1094 63.8672 16.6797 63.8672C17.4844 63.8672 18.0039 64.3906 18.0039 65.1953V68H17.3242V65.3516C17.3242 64.7969 17.0156 64.4688 16.4805 64.4688C15.9414 64.4688 15.5625 64.8672 15.5625 65.418V68H14.8828V65.2773C14.8828 64.7891 14.5547 64.4688 14.0508 64.4688C13.5117 64.4688 13.1211 64.8906 13.1211 65.4531V68H12.4414ZM18.8711 68V63.9375H19.5117V64.5859H19.5273C19.7188 64.1562 20.1328 63.8672 20.6797 63.8672C21.2344 63.8672 21.6445 64.1484 21.8203 64.6406H21.8359C22.0625 64.1562 22.5391 63.8672 23.1094 63.8672C23.9141 63.8672 24.4336 64.3906 24.4336 65.1953V68H23.7539V65.3516C23.7539 64.7969 23.4453 64.4688 22.9102 64.4688C22.3711 64.4688 21.9922 64.8672 21.9922 65.418V68H21.3125V65.2773C21.3125 64.7891 20.9844 64.4688 20.4805 64.4688C19.9414 64.4688 19.5508 64.8906 19.5508 65.4531V68H18.8711Z" fill="white"/>
<mask id="path-36-inside-12_302_821" fill="white">
<path d="M64.5 40H129V80H64.5V40Z"/>
</mask>
<path d="M64.5 40V39H63.5V40H64.5ZM64.5 41H129V39H64.5V41ZM65.5 80V40H63.5V80H65.5Z" fill="white" fill-opacity="0.2" mask="url(#path-36-inside-12_302_821)"/>
<path d="M90.7617 64V62.0898H86.4727V61.3574C87.3926 59.8105 88.5 58.1523 90.3691 55.5332H91.541V61.3809H92.8008V62.0898H91.541V64H90.7617ZM87.2812 61.3574V61.3809H90.7617V56.2363H90.75C89.1914 58.3926 88.125 59.9863 87.2812 61.3574ZM96.7266 64.1348C94.8047 64.1348 93.6621 62.4414 93.6621 59.7695C93.6621 57.1152 94.8164 55.4102 96.7266 55.4102C98.6426 55.4102 99.7852 57.1094 99.7852 59.7637C99.7852 62.4355 98.6484 64.1348 96.7266 64.1348ZM96.7266 63.4316C98.1562 63.4316 98.9824 62.0078 98.9824 59.7695C98.9824 57.5488 98.1445 56.1191 96.7266 56.1191C95.3145 56.1191 94.4707 57.5605 94.4707 59.7637C94.4707 62.0078 95.2969 63.4316 96.7266 63.4316ZM103.887 64.1348C101.965 64.1348 100.822 62.4414 100.822 59.7695C100.822 57.1152 101.977 55.4102 103.887 55.4102C105.803 55.4102 106.945 57.1094 106.945 59.7637C106.945 62.4355 105.809 64.1348 103.887 64.1348ZM103.887 63.4316C105.316 63.4316 106.143 62.0078 106.143 59.7695C106.143 57.5488 105.305 56.1191 103.887 56.1191C102.475 56.1191 101.631 57.5605 101.631 59.7637C101.631 62.0078 102.457 63.4316 103.887 63.4316Z" fill="white"/>
<mask id="path-39-inside-13_302_821" fill="white">
<path d="M129 40H193.5V80H129V40Z"/>
</mask>
<path d="M129 40V39H128V40H129ZM129 41H193.5V39H129V41ZM130 80V40H128V80H130Z" fill="white" fill-opacity="0.2" mask="url(#path-39-inside-13_302_821)"/>
<path d="M154.242 64.1348C153.105 64.1348 152.18 63.5605 151.658 62.5352C151.277 61.873 151.09 61.0117 151.09 59.9512C151.09 57.1152 152.297 55.4102 154.301 55.4102C155.707 55.4102 156.785 56.2598 157.025 57.5547H156.217C156.006 56.6934 155.238 56.1191 154.295 56.1191C152.748 56.1191 151.863 57.5605 151.863 60.0684H151.881C152.227 59.1191 153.229 58.4629 154.371 58.4629C155.977 58.4629 157.178 59.6582 157.178 61.2578C157.178 62.916 155.936 64.1348 154.242 64.1348ZM154.236 63.4199C155.426 63.4199 156.363 62.4766 156.363 61.2812C156.363 60.0684 155.467 59.1719 154.242 59.1719C153.035 59.1719 152.092 60.0742 152.092 61.2227C152.092 62.4531 153.023 63.4199 154.236 63.4199ZM161.203 64.1348C159.281 64.1348 158.139 62.4414 158.139 59.7695C158.139 57.1152 159.293 55.4102 161.203 55.4102C163.119 55.4102 164.262 57.1094 164.262 59.7637C164.262 62.4355 163.125 64.1348 161.203 64.1348ZM161.203 63.4316C162.633 63.4316 163.459 62.0078 163.459 59.7695C163.459 57.5488 162.621 56.1191 161.203 56.1191C159.791 56.1191 158.947 57.5605 158.947 59.7637C158.947 62.0078 159.773 63.4316 161.203 63.4316ZM168.363 64.1348C166.441 64.1348 165.299 62.4414 165.299 59.7695C165.299 57.1152 166.453 55.4102 168.363 55.4102C170.279 55.4102 171.422 57.1094 171.422 59.7637C171.422 62.4355 170.285 64.1348 168.363 64.1348ZM168.363 63.4316C169.793 63.4316 170.619 62.0078 170.619 59.7695C170.619 57.5488 169.781 56.1191 168.363 56.1191C166.951 56.1191 166.107 57.5605 166.107 59.7637C166.107 62.0078 166.934 63.4316 168.363 63.4316Z" fill="white"/>
<mask id="path-42-inside-14_302_821" fill="white">
<path d="M193.5 40H258V80H193.5V40Z"/>
</mask>
<path d="M193.5 40V39H192.5V40H193.5ZM193.5 41H258V39H193.5V41ZM194.5 80V40H192.5V80H194.5Z" fill="white" fill-opacity="0.2" mask="url(#path-42-inside-14_302_821)"/>
<path d="M216.762 64L220.682 56.2832V56.2598H215.977V55.5449H221.484V56.2949L217.611 64H216.762ZM225.422 64.1348C223.875 64.1348 222.691 63.1621 222.586 61.7969H223.371C223.482 62.7461 224.344 63.4258 225.434 63.4258C226.693 63.4258 227.59 62.5352 227.59 61.293C227.59 60.0566 226.693 59.1484 225.469 59.1484C224.613 59.1484 223.875 59.5527 223.482 60.2266H222.715L223.195 55.5449H227.883V56.2598H223.857L223.541 59.3828H223.564C223.975 58.8086 224.742 58.4512 225.598 58.4512C227.209 58.4512 228.393 59.6465 228.393 61.2754C228.393 62.9453 227.15 64.1348 225.422 64.1348ZM232.406 64.1348C230.484 64.1348 229.342 62.4414 229.342 59.7695C229.342 57.1152 230.496 55.4102 232.406 55.4102C234.322 55.4102 235.465 57.1094 235.465 59.7637C235.465 62.4355 234.328 64.1348 232.406 64.1348ZM232.406 63.4316C233.836 63.4316 234.662 62.0078 234.662 59.7695C234.662 57.5488 233.824 56.1191 232.406 56.1191C230.994 56.1191 230.15 57.5605 230.15 59.7637C230.15 62.0078 230.977 63.4316 232.406 63.4316Z" fill="white"/>
<mask id="path-45-inside-15_302_821" fill="white">
<path d="M258 40H322.5V80H258V40Z"/>
</mask>
<path d="M258 40V39H257V40H258ZM258 41H322.5V39H258V41ZM259 80V40H257V80H259Z" fill="white" fill-opacity="0.2" mask="url(#path-45-inside-15_302_821)"/>
<path d="M283.242 64.1348C282.105 64.1348 281.18 63.5605 280.658 62.5352C280.277 61.873 280.09 61.0117 280.09 59.9512C280.09 57.1152 281.297 55.4102 283.301 55.4102C284.707 55.4102 285.785 56.2598 286.025 57.5547H285.217C285.006 56.6934 284.238 56.1191 283.295 56.1191C281.748 56.1191 280.863 57.5605 280.863 60.0684H280.881C281.227 59.1191 282.229 58.4629 283.371 58.4629C284.977 58.4629 286.178 59.6582 286.178 61.2578C286.178 62.916 284.936 64.1348 283.242 64.1348ZM283.236 63.4199C284.426 63.4199 285.363 62.4766 285.363 61.2812C285.363 60.0684 284.467 59.1719 283.242 59.1719C282.035 59.1719 281.092 60.0742 281.092 61.2227C281.092 62.4531 282.023 63.4199 283.236 63.4199ZM290.203 64.1348C288.281 64.1348 287.139 62.4414 287.139 59.7695C287.139 57.1152 288.293 55.4102 290.203 55.4102C292.119 55.4102 293.262 57.1094 293.262 59.7637C293.262 62.4355 292.125 64.1348 290.203 64.1348ZM290.203 63.4316C291.633 63.4316 292.459 62.0078 292.459 59.7695C292.459 57.5488 291.621 56.1191 290.203 56.1191C288.791 56.1191 287.947 57.5605 287.947 59.7637C287.947 62.0078 288.773 63.4316 290.203 63.4316ZM297.363 64.1348C295.441 64.1348 294.299 62.4414 294.299 59.7695C294.299 57.1152 295.453 55.4102 297.363 55.4102C299.279 55.4102 300.422 57.1094 300.422 59.7637C300.422 62.4355 299.285 64.1348 297.363 64.1348ZM297.363 63.4316C298.793 63.4316 299.619 62.0078 299.619 59.7695C299.619 57.5488 298.781 56.1191 297.363 56.1191C295.951 56.1191 295.107 57.5605 295.107 59.7637C295.107 62.0078 295.934 63.4316 297.363 63.4316Z" fill="white"/>
<mask id="path-48-inside-16_302_821" fill="white">
<path d="M322.5 40H387V80H322.5V40Z"/>
</mask>
<path d="M322.5 40V39H321.5V40H322.5ZM322.5 41H387V39H322.5V41ZM323.5 80V40H321.5V80H323.5Z" fill="white" fill-opacity="0.2" mask="url(#path-48-inside-16_302_821)"/>
<path d="M345.715 64L349.635 56.2832V56.2598H344.93V55.5449H350.438V56.2949L346.564 64H345.715ZM354.293 64.1348C352.371 64.1348 351.229 62.4414 351.229 59.7695C351.229 57.1152 352.383 55.4102 354.293 55.4102C356.209 55.4102 357.352 57.1094 357.352 59.7637C357.352 62.4355 356.215 64.1348 354.293 64.1348ZM354.293 63.4316C355.723 63.4316 356.549 62.0078 356.549 59.7695C356.549 57.5488 355.711 56.1191 354.293 56.1191C352.881 56.1191 352.037 57.5605 352.037 59.7637C352.037 62.0078 352.863 63.4316 354.293 63.4316ZM361.453 64.1348C359.531 64.1348 358.389 62.4414 358.389 59.7695C358.389 57.1152 359.543 55.4102 361.453 55.4102C363.369 55.4102 364.512 57.1094 364.512 59.7637C364.512 62.4355 363.375 64.1348 361.453 64.1348ZM361.453 63.4316C362.883 63.4316 363.709 62.0078 363.709 59.7695C363.709 57.5488 362.871 56.1191 361.453 56.1191C360.041 56.1191 359.197 57.5605 359.197 59.7637C359.197 62.0078 360.023 63.4316 361.453 63.4316Z" fill="white"/>
<mask id="path-51-inside-17_302_821" fill="white">
<path d="M387 40H451.5V80H387V40Z"/>
</mask>
<path d="M387 40V39H386V40H387ZM387 41H451.5V39H387V41ZM388 80V40H386V80H388Z" fill="white" fill-opacity="0.2" mask="url(#path-51-inside-17_302_821)"/>
<path d="M412.289 64.1348C410.514 64.1348 409.277 63.1152 409.277 61.7031C409.277 60.6367 410.039 59.7695 411.164 59.5293V59.5117C410.209 59.248 409.6 58.5273 409.6 57.6191C409.6 56.3418 410.73 55.4102 412.289 55.4102C413.854 55.4102 414.973 56.3418 414.973 57.6191C414.973 58.5156 414.363 59.2363 413.414 59.5117V59.5293C414.539 59.7695 415.301 60.6426 415.301 61.7031C415.301 63.1211 414.07 64.1348 412.289 64.1348ZM412.289 63.4316C413.596 63.4316 414.486 62.6758 414.486 61.6562C414.486 60.6426 413.59 59.9219 412.289 59.9219C410.994 59.9219 410.092 60.6426 410.092 61.6562C410.092 62.6758 410.982 63.4316 412.289 63.4316ZM412.289 59.207C413.391 59.207 414.176 58.5742 414.176 57.6836C414.176 56.7754 413.42 56.1074 412.289 56.1074C411.164 56.1074 410.396 56.7754 410.396 57.6836C410.396 58.5742 411.182 59.207 412.289 59.207ZM416.52 57.9121C416.531 56.4707 417.68 55.4102 419.227 55.4102C420.703 55.4102 421.857 56.4238 421.857 57.7188C421.857 58.6445 421.441 59.3418 420.035 60.8008L417.68 63.2617V63.2852H422.074V64H416.561V63.4375L419.549 60.2793C420.756 59.0078 421.061 58.5039 421.061 57.7656C421.061 56.8398 420.24 56.1133 419.203 56.1133C418.119 56.1133 417.305 56.8809 417.293 57.9121V57.918H416.52V57.9121ZM426.176 64.1348C424.254 64.1348 423.111 62.4414 423.111 59.7695C423.111 57.1152 424.266 55.4102 426.176 55.4102C428.092 55.4102 429.234 57.1094 429.234 59.7637C429.234 62.4355 428.098 64.1348 426.176 64.1348ZM426.176 63.4316C427.605 63.4316 428.432 62.0078 428.432 59.7695C428.432 57.5488 427.594 56.1191 426.176 56.1191C424.764 56.1191 423.92 57.5605 423.92 59.7637C423.92 62.0078 424.746 63.4316 426.176 63.4316Z" fill="white"/>
<mask id="path-54-inside-18_302_821" fill="white">
<path d="M451.5 40H516V80H451.5V40Z"/>
</mask>
<path d="M451.5 40V39H450.5V40H451.5ZM451.5 41H516V39H451.5V41ZM452.5 80V40H450.5V80H452.5Z" fill="white" fill-opacity="0.2" mask="url(#path-54-inside-18_302_821)"/>
<path d="M473.332 64V56.4062H473.309C473.121 56.5234 471.287 57.8125 471.041 57.9648V57.1094C471.275 56.9629 473.068 55.6973 473.32 55.5449H474.105V64H473.332ZM479.109 64.1348C477.188 64.1348 476.045 62.4414 476.045 59.7695C476.045 57.1152 477.199 55.4102 479.109 55.4102C481.025 55.4102 482.168 57.1094 482.168 59.7637C482.168 62.4355 481.031 64.1348 479.109 64.1348ZM479.109 63.4316C480.539 63.4316 481.365 62.0078 481.365 59.7695C481.365 57.5488 480.527 56.1191 479.109 56.1191C477.697 56.1191 476.854 57.5605 476.854 59.7637C476.854 62.0078 477.68 63.4316 479.109 63.4316ZM486.27 64.1348C484.348 64.1348 483.205 62.4414 483.205 59.7695C483.205 57.1152 484.359 55.4102 486.27 55.4102C488.186 55.4102 489.328 57.1094 489.328 59.7637C489.328 62.4355 488.191 64.1348 486.27 64.1348ZM486.27 63.4316C487.699 63.4316 488.525 62.0078 488.525 59.7695C488.525 57.5488 487.688 56.1191 486.27 56.1191C484.857 56.1191 484.014 57.5605 484.014 59.7637C484.014 62.0078 484.84 63.4316 486.27 63.4316ZM493.43 64.1348C491.508 64.1348 490.365 62.4414 490.365 59.7695C490.365 57.1152 491.52 55.4102 493.43 55.4102C495.346 55.4102 496.488 57.1094 496.488 59.7637C496.488 62.4355 495.352 64.1348 493.43 64.1348ZM493.43 63.4316C494.859 63.4316 495.686 62.0078 495.686 59.7695C495.686 57.5488 494.848 56.1191 493.43 56.1191C492.018 56.1191 491.174 57.5605 491.174 59.7637C491.174 62.0078 492 63.4316 493.43 63.4316Z" fill="white"/>
<mask id="path-57-inside-19_302_821" fill="white">
<path d="M516 40H580.5V80H516V40Z"/>
</mask>
<path d="M516 40V39H515V40H516ZM516 41H580.5V39H516V41ZM517 80V40H515V80H517Z" fill="white" fill-opacity="0.2" mask="url(#path-57-inside-19_302_821)"/>
<path d="M541.289 64.1348C539.514 64.1348 538.277 63.1152 538.277 61.7031C538.277 60.6367 539.039 59.7695 540.164 59.5293V59.5117C539.209 59.248 538.6 58.5273 538.6 57.6191C538.6 56.3418 539.73 55.4102 541.289 55.4102C542.854 55.4102 543.973 56.3418 543.973 57.6191C543.973 58.5156 543.363 59.2363 542.414 59.5117V59.5293C543.539 59.7695 544.301 60.6426 544.301 61.7031C544.301 63.1211 543.07 64.1348 541.289 64.1348ZM541.289 63.4316C542.596 63.4316 543.486 62.6758 543.486 61.6562C543.486 60.6426 542.59 59.9219 541.289 59.9219C539.994 59.9219 539.092 60.6426 539.092 61.6562C539.092 62.6758 539.982 63.4316 541.289 63.4316ZM541.289 59.207C542.391 59.207 543.176 58.5742 543.176 57.6836C543.176 56.7754 542.42 56.1074 541.289 56.1074C540.164 56.1074 539.396 56.7754 539.396 57.6836C539.396 58.5742 540.182 59.207 541.289 59.207ZM545.52 57.9121C545.531 56.4707 546.68 55.4102 548.227 55.4102C549.703 55.4102 550.857 56.4238 550.857 57.7188C550.857 58.6445 550.441 59.3418 549.035 60.8008L546.68 63.2617V63.2852H551.074V64H545.561V63.4375L548.549 60.2793C549.756 59.0078 550.061 58.5039 550.061 57.7656C550.061 56.8398 549.24 56.1133 548.203 56.1133C547.119 56.1133 546.305 56.8809 546.293 57.9121V57.918H545.52V57.9121ZM555.176 64.1348C553.254 64.1348 552.111 62.4414 552.111 59.7695C552.111 57.1152 553.266 55.4102 555.176 55.4102C557.092 55.4102 558.234 57.1094 558.234 59.7637C558.234 62.4355 557.098 64.1348 555.176 64.1348ZM555.176 63.4316C556.605 63.4316 557.432 62.0078 557.432 59.7695C557.432 57.5488 556.594 56.1191 555.176 56.1191C553.764 56.1191 552.92 57.5605 552.92 59.7637C552.92 62.0078 553.746 63.4316 555.176 63.4316Z" fill="white"/>
<mask id="path-60-inside-20_302_821" fill="white">
<path d="M580.5 40H645V80H580.5V40Z"/>
</mask>
<path d="M580.5 40V39H579.5V40H580.5ZM580.5 41H645V39H580.5V41ZM581.5 80V40H579.5V80H581.5Z" fill="white" fill-opacity="0.2" mask="url(#path-60-inside-20_302_821)"/>
<path d="M602.332 64V56.4062H602.309C602.121 56.5234 600.287 57.8125 600.041 57.9648V57.1094C600.275 56.9629 602.068 55.6973 602.32 55.5449H603.105V64H602.332ZM608.109 64.1348C606.188 64.1348 605.045 62.4414 605.045 59.7695C605.045 57.1152 606.199 55.4102 608.109 55.4102C610.025 55.4102 611.168 57.1094 611.168 59.7637C611.168 62.4355 610.031 64.1348 608.109 64.1348ZM608.109 63.4316C609.539 63.4316 610.365 62.0078 610.365 59.7695C610.365 57.5488 609.527 56.1191 608.109 56.1191C606.697 56.1191 605.854 57.5605 605.854 59.7637C605.854 62.0078 606.68 63.4316 608.109 63.4316ZM615.27 64.1348C613.348 64.1348 612.205 62.4414 612.205 59.7695C612.205 57.1152 613.359 55.4102 615.27 55.4102C617.186 55.4102 618.328 57.1094 618.328 59.7637C618.328 62.4355 617.191 64.1348 615.27 64.1348ZM615.27 63.4316C616.699 63.4316 617.525 62.0078 617.525 59.7695C617.525 57.5488 616.688 56.1191 615.27 56.1191C613.857 56.1191 613.014 57.5605 613.014 59.7637C613.014 62.0078 613.84 63.4316 615.27 63.4316ZM622.43 64.1348C620.508 64.1348 619.365 62.4414 619.365 59.7695C619.365 57.1152 620.52 55.4102 622.43 55.4102C624.346 55.4102 625.488 57.1094 625.488 59.7637C625.488 62.4355 624.352 64.1348 622.43 64.1348ZM622.43 63.4316C623.859 63.4316 624.686 62.0078 624.686 59.7695C624.686 57.5488 623.848 56.1191 622.43 56.1191C621.018 56.1191 620.174 57.5605 620.174 59.7637C620.174 62.0078 621 63.4316 622.43 63.4316Z" fill="white"/>
</g>
<g clip-path="url(#clip3_302_821)">
<rect width="645" height="36" transform="translate(0 80)" fill="#86A2FF" fill-opacity="0.2"/>
<mask id="path-63-inside-21_302_821" fill="white">
<path d="M0 80H64.5V116H0V80Z"/>
</mask>
<path d="M0 80V79H-1V80H0ZM0 81H64.5V79H0V81ZM1 116V80H-1V116H1Z" fill="white" fill-opacity="0.2" mask="url(#path-63-inside-21_302_821)"/>
<path d="M12.5469 95.3633H14.5586C15.6172 95.3633 16.3633 96.1055 16.3633 97.1719C16.3633 98.2422 15.6094 98.9883 14.5508 98.9883H13.25V101H12.5469V95.3633ZM13.25 95.9883V98.3633H14.375C15.1797 98.3633 15.6406 97.9219 15.6406 97.1719C15.6406 96.4258 15.1836 95.9883 14.375 95.9883H13.25ZM18.0547 100.492C18.6953 100.492 19.1875 100.043 19.1875 99.457V99.125L18.1016 99.1914C17.5547 99.2266 17.2422 99.4688 17.2422 99.8516C17.2422 100.238 17.5664 100.492 18.0547 100.492ZM17.9023 101.07C17.0938 101.07 16.5508 100.582 16.5508 99.8516C16.5508 99.1562 17.0859 98.7188 18.0234 98.6641L19.1875 98.5977V98.2578C19.1875 97.7617 18.8594 97.4648 18.2969 97.4648C17.7734 97.4648 17.4453 97.7109 17.3594 98.1094H16.7031C16.75 97.4062 17.3516 96.8672 18.3125 96.8672C19.2656 96.8672 19.8672 97.3828 19.8672 98.1914V101H19.2227V100.301H19.207C18.9648 100.766 18.4492 101.07 17.9023 101.07ZM21.0664 102.52C20.9844 102.52 20.8477 102.512 20.7734 102.496V101.926C20.8477 101.941 20.9531 101.945 21.0391 101.945C21.418 101.945 21.6289 101.762 21.7852 101.289L21.8789 101.004L20.3789 96.9375H21.1055L22.2305 100.32H22.2422L23.3672 96.9375H24.082L22.4844 101.285C22.1367 102.234 21.8008 102.52 21.0664 102.52ZM24.6562 101V95.3633H25.3359V101H24.6562ZM27.9375 101.07C26.8125 101.07 26.0547 100.262 26.0547 98.9688C26.0547 97.6719 26.8125 96.8672 27.9375 96.8672C29.0586 96.8672 29.8164 97.6719 29.8164 98.9688C29.8164 100.262 29.0586 101.07 27.9375 101.07ZM27.9375 100.473C28.6562 100.473 29.125 99.9258 29.125 98.9688C29.125 98.0117 28.6562 97.4648 27.9375 97.4648C27.2188 97.4648 26.7461 98.0117 26.7461 98.9688C26.7461 99.9258 27.2188 100.473 27.9375 100.473ZM31.8438 100.492C32.4844 100.492 32.9766 100.043 32.9766 99.457V99.125L31.8906 99.1914C31.3438 99.2266 31.0312 99.4688 31.0312 99.8516C31.0312 100.238 31.3555 100.492 31.8438 100.492ZM31.6914 101.07C30.8828 101.07 30.3398 100.582 30.3398 99.8516C30.3398 99.1562 30.875 98.7188 31.8125 98.6641L32.9766 98.5977V98.2578C32.9766 97.7617 32.6484 97.4648 32.0859 97.4648C31.5625 97.4648 31.2344 97.7109 31.1484 98.1094H30.4922C30.5391 97.4062 31.1406 96.8672 32.1016 96.8672C33.0547 96.8672 33.6562 97.3828 33.6562 98.1914V101H33.0117V100.301H32.9961C32.7539 100.766 32.2383 101.07 31.6914 101.07ZM36.0586 101.07C35.0234 101.07 34.3203 100.242 34.3203 98.9688C34.3203 97.6953 35.0195 96.8672 36.043 96.8672C36.625 96.8672 37.0938 97.1523 37.3359 97.5977H37.3516V95.3633H38.0312V101H37.3828V100.312H37.3711C37.1094 100.781 36.6445 101.07 36.0586 101.07ZM36.1875 97.4648C35.4688 97.4648 35.0156 98.0508 35.0156 98.9688C35.0156 99.8906 35.4688 100.473 36.1875 100.473C36.8867 100.473 37.3555 99.8789 37.3555 98.9688C37.3555 98.0625 36.8867 97.4648 36.1875 97.4648ZM39.4141 102.121H38.8477L39.2266 100.133H39.9492L39.4141 102.121ZM42.9453 98.7422L44.7422 96.9375H45.5664L43.8047 98.6914L45.6211 101H44.832L43.3242 99.1094L42.9453 99.4688V101H42.2656V95.3633H42.9453V98.7422ZM47.5703 100.434C48.2773 100.434 48.75 99.8477 48.75 98.9531C48.75 98.0586 48.2773 97.4648 47.5703 97.4648C46.8711 97.4648 46.4141 98.043 46.4141 98.9531C46.4141 99.8633 46.8711 100.434 47.5703 100.434ZM47.5938 102.531C46.6992 102.531 45.9922 102.027 45.8789 101.336H46.5781C46.7109 101.707 47.1133 101.953 47.6211 101.953C48.3242 101.953 48.75 101.547 48.75 100.941V100.301H48.7344C48.4844 100.742 48.0039 101.031 47.4336 101.031C46.3984 101.031 45.7188 100.215 45.7188 98.9531C45.7188 97.6797 46.3984 96.8672 47.4492 96.8672C48.0234 96.8672 48.5 97.1484 48.7695 97.6211H48.7812V96.9375H49.4297V100.918C49.4297 101.887 48.7148 102.531 47.5938 102.531Z" fill="white"/>
<mask id="path-66-inside-22_302_821" fill="white">
<path d="M64.5 80H129V116H64.5V80Z"/>
</mask>
<path d="M64.5 80V79H63.5V80H64.5ZM64.5 81H129V79H64.5V81ZM65.5 116V80H63.5V116H65.5Z" fill="white" fill-opacity="0.2" mask="url(#path-66-inside-22_302_821)"/>
<path d="M95.6191 97.9746V97.2949H96.6035C97.7109 97.2949 98.4727 96.6152 98.4727 95.6719C98.4727 94.7578 97.7812 94.1133 96.6387 94.1133C95.5898 94.1133 94.8457 94.7461 94.7578 95.6836H93.9844C94.084 94.3242 95.1504 93.4102 96.6738 93.4102C98.1621 93.4102 99.2812 94.3184 99.2812 95.5723C99.2812 96.6328 98.5957 97.3945 97.5176 97.5879V97.6113C98.8125 97.6875 99.6445 98.4902 99.6445 99.6855C99.6445 101.115 98.3672 102.135 96.7207 102.135C95.0156 102.135 93.8613 101.162 93.8086 99.8086H94.582C94.6465 100.752 95.4961 101.432 96.7148 101.432C97.9395 101.432 98.8301 100.711 98.8301 99.709C98.8301 98.6309 97.998 97.9746 96.6387 97.9746H95.6191Z" fill="white"/>
<mask id="path-69-inside-23_302_821" fill="white">
<path d="M129 80H193.5V116H129V80Z"/>
</mask>
<path d="M129 80V79H128V80H129ZM129 81H193.5V79H129V81ZM130 116V80H128V116H130Z" fill="white" fill-opacity="0.2" mask="url(#path-69-inside-23_302_821)"/>
<path d="M161.402 102.135C160.266 102.135 159.34 101.561 158.818 100.535C158.438 99.873 158.25 99.0117 158.25 97.9512C158.25 95.1152 159.457 93.4102 161.461 93.4102C162.867 93.4102 163.945 94.2598 164.186 95.5547H163.377C163.166 94.6934 162.398 94.1191 161.455 94.1191C159.908 94.1191 159.023 95.5605 159.023 98.0684H159.041C159.387 97.1191 160.389 96.4629 161.531 96.4629C163.137 96.4629 164.338 97.6582 164.338 99.2578C164.338 100.916 163.096 102.135 161.402 102.135ZM161.396 101.42C162.586 101.42 163.523 100.477 163.523 99.2812C163.523 98.0684 162.627 97.1719 161.402 97.1719C160.195 97.1719 159.252 98.0742 159.252 99.2227C159.252 100.453 160.184 101.42 161.396 101.42Z" fill="white"/>
<mask id="path-72-inside-24_302_821" fill="white">
<path d="M193.5 80H258V116H193.5V80Z"/>
</mask>
<path d="M193.5 80V79H192.5V80H193.5ZM193.5 81H258V79H193.5V81ZM194.5 116V80H192.5V116H194.5Z" fill="white" fill-opacity="0.2" mask="url(#path-72-inside-24_302_821)"/>
<path d="M225.902 102.135C224.766 102.135 223.84 101.561 223.318 100.535C222.938 99.873 222.75 99.0117 222.75 97.9512C222.75 95.1152 223.957 93.4102 225.961 93.4102C227.367 93.4102 228.445 94.2598 228.686 95.5547H227.877C227.666 94.6934 226.898 94.1191 225.955 94.1191C224.408 94.1191 223.523 95.5605 223.523 98.0684H223.541C223.887 97.1191 224.889 96.4629 226.031 96.4629C227.637 96.4629 228.838 97.6582 228.838 99.2578C228.838 100.916 227.596 102.135 225.902 102.135ZM225.896 101.42C227.086 101.42 228.023 100.477 228.023 99.2812C228.023 98.0684 227.127 97.1719 225.902 97.1719C224.695 97.1719 223.752 98.0742 223.752 99.2227C223.752 100.453 224.684 101.42 225.896 101.42Z" fill="white"/>
<mask id="path-75-inside-25_302_821" fill="white">
<path d="M258 80H322.5V116H258V80Z"/>
</mask>
<path d="M258 80V79H257V80H258ZM258 81H322.5V79H258V81ZM259 116V80H257V116H259Z" fill="white" fill-opacity="0.2" mask="url(#path-75-inside-25_302_821)"/>
<path d="M287.221 102V94.4062H287.197C287.01 94.5234 285.176 95.8125 284.93 95.9648V95.1094C285.164 94.9629 286.957 93.6973 287.209 93.5449H287.994V102H287.221ZM290.045 95.9121C290.057 94.4707 291.205 93.4102 292.752 93.4102C294.229 93.4102 295.383 94.4238 295.383 95.7188C295.383 96.6445 294.967 97.3418 293.561 98.8008L291.205 101.262V101.285H295.6V102H290.086V101.438L293.074 98.2793C294.281 97.0078 294.586 96.5039 294.586 95.7656C294.586 94.8398 293.766 94.1133 292.729 94.1133C291.645 94.1133 290.83 94.8809 290.818 95.9121V95.918H290.045V95.9121Z" fill="white"/>
<mask id="path-78-inside-26_302_821" fill="white">
<path d="M322.5 80H387V116H322.5V80Z"/>
</mask>
<path d="M322.5 80V79H321.5V80H322.5ZM322.5 81H387V79H322.5V81ZM323.5 116V80H321.5V116H323.5Z" fill="white" fill-opacity="0.2" mask="url(#path-78-inside-26_302_821)"/>
<path d="M351.721 102V94.4062H351.697C351.51 94.5234 349.676 95.8125 349.43 95.9648V95.1094C349.664 94.9629 351.457 93.6973 351.709 93.5449H352.494V102H351.721ZM354.545 95.9121C354.557 94.4707 355.705 93.4102 357.252 93.4102C358.729 93.4102 359.883 94.4238 359.883 95.7188C359.883 96.6445 359.467 97.3418 358.061 98.8008L355.705 101.262V101.285H360.1V102H354.586V101.438L357.574 98.2793C358.781 97.0078 359.086 96.5039 359.086 95.7656C359.086 94.8398 358.266 94.1133 357.229 94.1133C356.145 94.1133 355.33 94.8809 355.318 95.9121V95.918H354.545V95.9121Z" fill="white"/>
<mask id="path-81-inside-27_302_821" fill="white">
<path d="M387 80H451.5V116H387V80Z"/>
</mask>
<path d="M387 80V79H386V80H387ZM387 81H451.5V79H387V81ZM388 116V80H386V116H388Z" fill="white" fill-opacity="0.2" mask="url(#path-81-inside-27_302_821)"/>
<path d="M416.221 102V94.4062H416.197C416.01 94.5234 414.176 95.8125 413.93 95.9648V95.1094C414.164 94.9629 415.957 93.6973 416.209 93.5449H416.994V102H416.221ZM419.045 95.9121C419.057 94.4707 420.205 93.4102 421.752 93.4102C423.229 93.4102 424.383 94.4238 424.383 95.7188C424.383 96.6445 423.967 97.3418 422.561 98.8008L420.205 101.262V101.285H424.6V102H419.086V101.438L422.074 98.2793C423.281 97.0078 423.586 96.5039 423.586 95.7656C423.586 94.8398 422.766 94.1133 421.729 94.1133C420.645 94.1133 419.83 94.8809 419.818 95.9121V95.918H419.045V95.9121Z" fill="white"/>
<mask id="path-84-inside-28_302_821" fill="white">
<path d="M451.5 80H516V116H451.5V80Z"/>
</mask>
<path d="M451.5 80V79H450.5V80H451.5ZM451.5 81H516V79H451.5V81ZM452.5 116V80H450.5V116H452.5Z" fill="white" fill-opacity="0.2" mask="url(#path-84-inside-28_302_821)"/>
<path d="M480.721 102V94.4062H480.697C480.51 94.5234 478.676 95.8125 478.43 95.9648V95.1094C478.664 94.9629 480.457 93.6973 480.709 93.5449H481.494V102H480.721ZM483.545 95.9121C483.557 94.4707 484.705 93.4102 486.252 93.4102C487.729 93.4102 488.883 94.4238 488.883 95.7188C488.883 96.6445 488.467 97.3418 487.061 98.8008L484.705 101.262V101.285H489.1V102H483.586V101.438L486.574 98.2793C487.781 97.0078 488.086 96.5039 488.086 95.7656C488.086 94.8398 487.266 94.1133 486.229 94.1133C485.145 94.1133 484.33 94.8809 484.318 95.9121V95.918H483.545V95.9121Z" fill="white"/>
<mask id="path-87-inside-29_302_821" fill="white">
<path d="M516 80H580.5V116H516V80Z"/>
</mask>
<path d="M516 80V79H515V80H516ZM516 81H580.5V79H516V81ZM517 116V80H515V116H517Z" fill="white" fill-opacity="0.2" mask="url(#path-87-inside-29_302_821)"/>
<path d="M541.969 95.9121C541.98 94.4707 543.129 93.4102 544.676 93.4102C546.152 93.4102 547.307 94.4238 547.307 95.7188C547.307 96.6445 546.891 97.3418 545.484 98.8008L543.129 101.262V101.285H547.523V102H542.01V101.438L544.998 98.2793C546.205 97.0078 546.51 96.5039 546.51 95.7656C546.51 94.8398 545.689 94.1133 544.652 94.1133C543.568 94.1133 542.754 94.8809 542.742 95.9121V95.918H541.969V95.9121ZM551.625 102.135C549.703 102.135 548.561 100.441 548.561 97.7695C548.561 95.1152 549.715 93.4102 551.625 93.4102C553.541 93.4102 554.684 95.1094 554.684 97.7637C554.684 100.436 553.547 102.135 551.625 102.135ZM551.625 101.432C553.055 101.432 553.881 100.008 553.881 97.7695C553.881 95.5488 553.043 94.1191 551.625 94.1191C550.213 94.1191 549.369 95.5605 549.369 97.7637C549.369 100.008 550.195 101.432 551.625 101.432Z" fill="white"/>
<mask id="path-90-inside-30_302_821" fill="white">
<path d="M580.5 80H645V116H580.5V80Z"/>
</mask>
<path d="M580.5 80V79H579.5V80H580.5ZM580.5 81H645V79H580.5V81ZM581.5 116V80H579.5V116H581.5Z" fill="white" fill-opacity="0.2" mask="url(#path-90-inside-30_302_821)"/>
<path d="M606.469 95.9121C606.48 94.4707 607.629 93.4102 609.176 93.4102C610.652 93.4102 611.807 94.4238 611.807 95.7188C611.807 96.6445 611.391 97.3418 609.984 98.8008L607.629 101.262V101.285H612.023V102H606.51V101.438L609.498 98.2793C610.705 97.0078 611.01 96.5039 611.01 95.7656C611.01 94.8398 610.189 94.1133 609.152 94.1133C608.068 94.1133 607.254 94.8809 607.242 95.9121V95.918H606.469V95.9121ZM616.125 102.135C614.203 102.135 613.061 100.441 613.061 97.7695C613.061 95.1152 614.215 93.4102 616.125 93.4102C618.041 93.4102 619.184 95.1094 619.184 97.7637C619.184 100.436 618.047 102.135 616.125 102.135ZM616.125 101.432C617.555 101.432 618.381 100.008 618.381 97.7695C618.381 95.5488 617.543 94.1191 616.125 94.1191C614.713 94.1191 613.869 95.5605 613.869 97.7637C613.869 100.008 614.695 101.432 616.125 101.432Z" fill="white"/>
</g>
<g clip-path="url(#clip4_302_821)">
<rect width="645" height="40" transform="translate(0 116)" fill="#86A2FF" fill-opacity="0.2"/>
<mask id="path-93-inside-31_302_821" fill="white">
<path d="M0 116H64.5V156H0V116Z"/>
</mask>
<path d="M0 116V115H-1V116H0ZM0 117H64.5V115H0V117ZM1 156V116H-1V156H1Z" fill="white" fill-opacity="0.2" mask="url(#path-93-inside-31_302_821)"/>
<path d="M13.2422 134H12.5469V128.363H13.2305L16.3164 132.789H16.3516V128.363H17.0469V134H16.3633L13.2773 129.59H13.2422V134ZM21.3711 129.938V134H20.7266V133.34H20.7109C20.4688 133.809 20.0469 134.07 19.4219 134.07C18.5352 134.07 18.0156 133.496 18.0156 132.574V129.938H18.6953V132.453C18.6953 133.113 19.0039 133.469 19.6328 133.469C20.293 133.469 20.6914 133.016 20.6914 132.324V129.938H21.3711ZM22.2539 134V129.938H22.8945V130.586H22.9102C23.1016 130.156 23.5156 129.867 24.0625 129.867C24.6172 129.867 25.0273 130.148 25.2031 130.641H25.2188C25.4453 130.156 25.9219 129.867 26.4922 129.867C27.2969 129.867 27.8164 130.391 27.8164 131.195V134H27.1367V131.352C27.1367 130.797 26.8281 130.469 26.293 130.469C25.7539 130.469 25.375 130.867 25.375 131.418V134H24.6953V131.277C24.6953 130.789 24.3672 130.469 23.8633 130.469C23.3242 130.469 22.9336 130.891 22.9336 131.453V134H22.2539ZM30.7031 134.07C30.1094 134.07 29.6445 133.781 29.3828 133.312H29.3672V134H28.7188V128.363H29.3984V130.617H29.4141C29.668 130.152 30.1406 129.867 30.7148 129.867C31.7383 129.867 32.4297 130.695 32.4297 131.969C32.4297 133.246 31.7422 134.07 30.7031 134.07ZM30.5703 130.465C29.8828 130.465 29.3945 131.066 29.3945 131.969C29.3945 132.875 29.8828 133.473 30.5703 133.473C31.2891 133.473 31.7344 132.898 31.7344 131.969C31.7344 131.047 31.2891 130.465 30.5703 130.465ZM34.75 130.457C34.1133 130.457 33.668 130.945 33.625 131.621H35.832C35.8164 130.941 35.3906 130.457 34.75 130.457ZM35.8164 132.836H36.4844C36.3672 133.547 35.6797 134.07 34.793 134.07C33.6289 134.07 32.9219 133.262 32.9219 131.984C32.9219 130.723 33.6406 129.867 34.7617 129.867C35.8594 129.867 36.5352 130.664 36.5352 131.895V132.152H33.6211V132.191C33.6211 132.969 34.0781 133.48 34.8086 133.48C35.3242 133.48 35.7031 133.219 35.8164 132.836ZM37.2227 134V129.938H37.8633V130.602H37.8789C38.0117 130.152 38.3867 129.867 38.8633 129.867C38.9805 129.867 39.082 129.887 39.1367 129.895V130.555C39.082 130.535 38.9375 130.516 38.7734 130.516C38.2461 130.516 37.9023 130.895 37.9023 131.469V134H37.2227ZM14.125 144.07C13 144.07 12.2422 143.262 12.2422 141.969C12.2422 140.672 13 139.867 14.125 139.867C15.2461 139.867 16.0039 140.672 16.0039 141.969C16.0039 143.262 15.2461 144.07 14.125 144.07ZM14.125 143.473C14.8438 143.473 15.3125 142.926 15.3125 141.969C15.3125 141.012 14.8438 140.465 14.125 140.465C13.4062 140.465 12.9336 141.012 12.9336 141.969C12.9336 142.926 13.4062 143.473 14.125 143.473ZM16.9102 144V140.496H16.3438V139.938H16.9102V139.484C16.9102 138.703 17.2734 138.332 18.0234 138.332C18.1758 138.332 18.3398 138.348 18.4375 138.363V138.914C18.3555 138.902 18.2422 138.891 18.1289 138.891C17.7617 138.891 17.5859 139.086 17.5859 139.488V139.938H18.418V140.496H17.5898V144H16.9102ZM22.1016 143.492C22.7422 143.492 23.2344 143.043 23.2344 142.457V142.125L22.1484 142.191C21.6016 142.227 21.2891 142.469 21.2891 142.852C21.2891 143.238 21.6133 143.492 22.1016 143.492ZM21.9492 144.07C21.1406 144.07 20.5977 143.582 20.5977 142.852C20.5977 142.156 21.1328 141.719 22.0703 141.664L23.2344 141.598V141.258C23.2344 140.762 22.9062 140.465 22.3438 140.465C21.8203 140.465 21.4922 140.711 21.4062 141.109H20.75C20.7969 140.406 21.3984 139.867 22.3594 139.867C23.3125 139.867 23.9141 140.383 23.9141 141.191V144H23.2695V143.301H23.2539C23.0117 143.766 22.4961 144.07 21.9492 144.07ZM26.2148 142.453H26.1992L25.2188 144H24.4648L25.8477 141.969L24.4883 139.938H25.2461L26.2227 141.461H26.2383L27.2031 139.938H27.9609L26.5898 141.941L27.9414 144H27.1875L26.2148 142.453ZM30.0859 140.457C29.4492 140.457 29.0039 140.945 28.9609 141.621H31.168C31.1523 140.941 30.7266 140.457 30.0859 140.457ZM31.1523 142.836H31.8203C31.7031 143.547 31.0156 144.07 30.1289 144.07C28.9648 144.07 28.2578 143.262 28.2578 141.984C28.2578 140.723 28.9766 139.867 30.0977 139.867C31.1953 139.867 31.8711 140.664 31.8711 141.895V142.152H28.957V142.191C28.957 142.969 29.4141 143.48 30.1445 143.48C30.6602 143.48 31.0391 143.219 31.1523 142.836ZM32.4883 141.059C32.4883 140.363 33.1094 139.867 34.0039 139.867C34.8438 139.867 35.4609 140.367 35.4922 141.055H34.8438C34.7969 140.664 34.4805 140.422 33.9805 140.422C33.4844 140.422 33.1562 140.668 33.1562 141.023C33.1562 141.305 33.3711 141.492 33.832 141.609L34.4609 141.762C35.2812 141.969 35.5781 142.266 35.5781 142.863C35.5781 143.57 34.9102 144.07 33.9609 144.07C33.0703 144.07 32.4492 143.586 32.3789 142.867H33.0586C33.1328 143.289 33.4531 143.516 34.0039 143.516C34.5547 143.516 34.8945 143.281 34.8945 142.914C34.8945 142.625 34.7266 142.469 34.2695 142.348L33.5547 142.164C32.8398 141.98 32.4883 141.613 32.4883 141.059Z" fill="white"/>
<mask id="path-96-inside-32_302_821" fill="white">
<path d="M64.5 116H129V156H64.5V116Z"/>
</mask>
<path d="M64.5 116V115H63.5V116H64.5ZM64.5 117H129V115H64.5V117ZM65.5 156V116H63.5V156H65.5Z" fill="white" fill-opacity="0.2" mask="url(#path-96-inside-32_302_821)"/>
<path d="M97.9219 140V138.09H93.6328V137.357C94.5527 135.811 95.6602 134.152 97.5293 131.533H98.7012V137.381H99.9609V138.09H98.7012V140H97.9219ZM94.4414 137.357V137.381H97.9219V132.236H97.9102C96.3516 134.393 95.2852 135.986 94.4414 137.357Z" fill="white"/>
<mask id="path-99-inside-33_302_821" fill="white">
<path d="M129 116H193.5V156H129V116Z"/>
</mask>
<path d="M129 116V115H128V116H129ZM129 117H193.5V115H129V117ZM130 156V116H128V156H130Z" fill="white" fill-opacity="0.2" mask="url(#path-99-inside-33_302_821)"/>
<path d="M162.422 140V138.09H158.133V137.357C159.053 135.811 160.16 134.152 162.029 131.533H163.201V137.381H164.461V138.09H163.201V140H162.422ZM158.941 137.357V137.381H162.422V132.236H162.41C160.852 134.393 159.785 135.986 158.941 137.357Z" fill="white"/>
<mask id="path-102-inside-34_302_821" fill="white">
<path d="M193.5 116H258V156H193.5V116Z"/>
</mask>
<path d="M193.5 116V115H192.5V116H193.5ZM193.5 117H258V115H193.5V117ZM194.5 156V116H192.5V156H194.5Z" fill="white" fill-opacity="0.2" mask="url(#path-102-inside-34_302_821)"/>
<path d="M226.922 140V138.09H222.633V137.357C223.553 135.811 224.66 134.152 226.529 131.533H227.701V137.381H228.961V138.09H227.701V140H226.922ZM223.441 137.357V137.381H226.922V132.236H226.91C225.352 134.393 224.285 135.986 223.441 137.357Z" fill="white"/>
<mask id="path-105-inside-35_302_821" fill="white">
<path d="M258 116H322.5V156H258V116Z"/>
</mask>
<path d="M258 116V115H257V116H258ZM258 117H322.5V115H258V117ZM259 156V116H257V156H259Z" fill="white" fill-opacity="0.2" mask="url(#path-105-inside-35_302_821)"/>
<path d="M291.422 140V138.09H287.133V137.357C288.053 135.811 289.16 134.152 291.029 131.533H292.201V137.381H293.461V138.09H292.201V140H291.422ZM287.941 137.357V137.381H291.422V132.236H291.41C289.852 134.393 288.785 135.986 287.941 137.357Z" fill="white"/>
<mask id="path-108-inside-36_302_821" fill="white">
<path d="M322.5 116H387V156H322.5V116Z"/>
</mask>
<path d="M322.5 116V115H321.5V116H322.5ZM322.5 117H387V115H322.5V117ZM323.5 156V116H321.5V156H323.5Z" fill="white" fill-opacity="0.2" mask="url(#path-108-inside-36_302_821)"/>
<path d="M355.922 140V138.09H351.633V137.357C352.553 135.811 353.66 134.152 355.529 131.533H356.701V137.381H357.961V138.09H356.701V140H355.922ZM352.441 137.357V137.381H355.922V132.236H355.91C354.352 134.393 353.285 135.986 352.441 137.357Z" fill="white"/>
<mask id="path-111-inside-37_302_821" fill="white">
<path d="M387 116H451.5V156H387V116Z"/>
</mask>
<path d="M387 116V115H386V116H387ZM387 117H451.5V115H387V117ZM388 156V116H386V156H388Z" fill="white" fill-opacity="0.2" mask="url(#path-111-inside-37_302_821)"/>
<path d="M420.422 140V138.09H416.133V137.357C417.053 135.811 418.16 134.152 420.029 131.533H421.201V137.381H422.461V138.09H421.201V140H420.422ZM416.941 137.357V137.381H420.422V132.236H420.41C418.852 134.393 417.785 135.986 416.941 137.357Z" fill="white"/>
<mask id="path-114-inside-38_302_821" fill="white">
<path d="M451.5 116H516V156H451.5V116Z"/>
</mask>
<path d="M451.5 116V115H450.5V116H451.5ZM451.5 117H516V115H451.5V117ZM452.5 156V116H450.5V156H452.5Z" fill="white" fill-opacity="0.2" mask="url(#path-114-inside-38_302_821)"/>
<path d="M484.922 140V138.09H480.633V137.357C481.553 135.811 482.66 134.152 484.529 131.533H485.701V137.381H486.961V138.09H485.701V140H484.922ZM481.441 137.357V137.381H484.922V132.236H484.91C483.352 134.393 482.285 135.986 481.441 137.357Z" fill="white"/>
<mask id="path-117-inside-39_302_821" fill="white">
<path d="M516 116H580.5V156H516V116Z"/>
</mask>
<path d="M516 116V115H515V116H516ZM516 117H580.5V115H516V117ZM517 156V116H515V156H517Z" fill="white" fill-opacity="0.2" mask="url(#path-117-inside-39_302_821)"/>
<path d="M549.422 140V138.09H545.133V137.357C546.053 135.811 547.16 134.152 549.029 131.533H550.201V137.381H551.461V138.09H550.201V140H549.422ZM545.941 137.357V137.381H549.422V132.236H549.41C547.852 134.393 546.785 135.986 545.941 137.357Z" fill="white"/>
<mask id="path-120-inside-40_302_821" fill="white">
<path d="M580.5 116H645V156H580.5V116Z"/>
</mask>
<path d="M580.5 116V115H579.5V116H580.5ZM580.5 117H645V115H580.5V117ZM581.5 156V116H579.5V156H581.5Z" fill="white" fill-opacity="0.2" mask="url(#path-120-inside-40_302_821)"/>
<path d="M613.922 140V138.09H609.633V137.357C610.553 135.811 611.66 134.152 613.529 131.533H614.701V137.381H615.961V138.09H614.701V140H613.922ZM610.441 137.357V137.381H613.922V132.236H613.91C612.352 134.393 611.285 135.986 610.441 137.357Z" fill="white"/>
</g>
</g>
<rect x="0.5" y="0.5" width="644" height="155" rx="3.5" stroke="white" stroke-opacity="0.2"/>
<defs>
<clipPath id="clip0_302_821">
<rect width="645" height="156" rx="4" fill="white"/>
</clipPath>
<clipPath id="clip1_302_821">
<rect width="645" height="40" fill="white"/>
</clipPath>
<clipPath id="clip2_302_821">
<rect width="645" height="40" fill="white" transform="translate(0 40)"/>
</clipPath>
<clipPath id="clip3_302_821">
<rect width="645" height="36" fill="white" transform="translate(0 80)"/>
</clipPath>
<clipPath id="clip4_302_821">
<rect width="645" height="40" fill="white" transform="translate(0 116)"/>
</clipPath>
</defs>
</svg>
