<svg width="645" height="156" viewBox="0 0 645 156" fill="none" xmlns="http://www.w3.org/2000/svg">
<g clip-path="url(#clip0_302_833)">
<g clip-path="url(#clip1_302_833)">
<rect width="645" height="40" fill="#86A2FF" fill-opacity="0.2"/>
<mask id="path-3-inside-1_302_833" fill="white">
<path d="M0 0H64.5V40H0V0Z"/>
</mask>
<path d="M0 0V-1H-1V0H0ZM0 1H64.5V-1H0V1ZM1 40V0H-1V40H1Z" fill="white" fill-opacity="0.2" mask="url(#path-3-inside-1_302_833)"/>
<path d="M18.1016 23H17.4453V18.6562H17.418L15.6211 22.9609H15.0273L13.2305 18.6562H13.2031V23H12.5469V17.3633H13.3633L15.3086 22.0664H15.3398L17.2852 17.3633H18.1016V23ZM20.7734 23.0703C19.6484 23.0703 18.8906 22.2617 18.8906 20.9688C18.8906 19.6719 19.6484 18.8672 20.7734 18.8672C21.8945 18.8672 22.6523 19.6719 22.6523 20.9688C22.6523 22.2617 21.8945 23.0703 20.7734 23.0703ZM20.7734 22.4727C21.4922 22.4727 21.9609 21.9258 21.9609 20.9688C21.9609 20.0117 21.4922 19.4648 20.7734 19.4648C20.0547 19.4648 19.582 20.0117 19.582 20.9688C19.582 21.9258 20.0547 22.4727 20.7734 22.4727ZM24.8789 23.0703C23.8438 23.0703 23.1406 22.2422 23.1406 20.9688C23.1406 19.6953 23.8398 18.8672 24.8633 18.8672C25.4453 18.8672 25.9141 19.1523 26.1562 19.5977H26.1719V17.3633H26.8516V23H26.2031V22.3125H26.1914C25.9297 22.7812 25.4648 23.0703 24.8789 23.0703ZM25.0078 19.4648C24.2891 19.4648 23.8359 20.0508 23.8359 20.9688C23.8359 21.8906 24.2891 22.4727 25.0078 22.4727C25.707 22.4727 26.1758 21.8789 26.1758 20.9688C26.1758 20.0625 25.707 19.4648 25.0078 19.4648ZM29.3984 19.457C28.7617 19.457 28.3164 19.9453 28.2734 20.6211H30.4805C30.4648 19.9414 30.0391 19.457 29.3984 19.457ZM30.4648 21.8359H31.1328C31.0156 22.5469 30.3281 23.0703 29.4414 23.0703C28.2773 23.0703 27.5703 22.2617 27.5703 20.9844C27.5703 19.7227 28.2891 18.8672 29.4102 18.8672C30.5078 18.8672 31.1836 19.6641 31.1836 20.8945V21.1523H28.2695V21.1914C28.2695 21.9688 28.7266 22.4805 29.457 22.4805C29.9727 22.4805 30.3516 22.2188 30.4648 21.8359ZM31.9062 23V17.3633H32.5859V23H31.9062Z" fill="white"/>
<mask id="path-6-inside-2_302_833" fill="white">
<path d="M64.5 0H129V40H64.5V0Z"/>
</mask>
<path d="M64.5 0V-1H63.5V0H64.5ZM64.5 1H129V-1H64.5V1ZM65.5 40V0H63.5V40H65.5Z" fill="white" fill-opacity="0.2" mask="url(#path-6-inside-2_302_833)"/>
<path d="M84.2969 16.4492H85.0039C85.0703 17.0586 85.6484 17.4609 86.4531 17.4609C87.2148 17.4609 87.7695 17.0586 87.7695 16.5039C87.7695 16.0273 87.4375 15.7344 86.6797 15.5391L85.957 15.3516C84.918 15.0859 84.457 14.6289 84.457 13.8633C84.457 12.9258 85.2773 12.2695 86.4492 12.2695C87.5703 12.2695 88.3828 12.9336 88.4141 13.8789H87.7109C87.6484 13.2734 87.1602 12.9023 86.4258 12.9023C85.6953 12.9023 85.1875 13.2812 85.1875 13.832C85.1875 14.2578 85.5 14.5117 86.2656 14.7109L86.8555 14.8672C88.0234 15.1602 88.4961 15.6094 88.4961 16.418C88.4961 17.4492 87.6836 18.0938 86.3867 18.0938C85.1914 18.0938 84.3633 17.4453 84.2969 16.4492ZM90.0195 12.9883V15.1484H91.3672C92.0898 15.1484 92.5 14.7578 92.5 14.0664C92.5 13.3906 92.0625 12.9883 91.3359 12.9883H90.0195ZM90.0195 15.7695V18H89.3164V12.3633H91.4297C92.5156 12.3633 93.2266 13.0273 93.2266 14.043C93.2266 14.8281 92.8008 15.4375 92.0938 15.6602L93.3984 18H92.5742L91.3672 15.7695H90.0195ZM96.2422 18H95.5391V12.9961H93.7617V12.3633H98.0195V12.9961H96.2422V18ZM99.2305 14.457C98.5938 14.457 98.1484 14.9453 98.1055 15.6211H100.312C100.297 14.9414 99.8711 14.457 99.2305 14.457ZM100.297 16.8359H100.965C100.848 17.5469 100.16 18.0703 99.2734 18.0703C98.1094 18.0703 97.4023 17.2617 97.4023 15.9844C97.4023 14.7227 98.1211 13.8672 99.2422 13.8672C100.34 13.8672 101.016 14.6641 101.016 15.8945V16.1523H98.1016V16.1914C98.1016 16.9688 98.5586 17.4805 99.2891 17.4805C99.8047 17.4805 100.184 17.2188 100.297 16.8359ZM103.758 18.0977C102.914 18.0977 102.242 17.6406 101.895 16.8281C101.707 16.3945 101.617 15.8867 101.617 15.2773C101.617 13.3789 102.426 12.2656 103.805 12.2656C104.762 12.2656 105.496 12.8398 105.676 13.7266H104.961C104.809 13.2148 104.355 12.8867 103.797 12.8867C102.855 12.8867 102.32 13.7227 102.297 15.2227H102.309C102.562 14.6719 103.184 14.3086 103.883 14.3086C104.957 14.3086 105.754 15.1016 105.754 16.1719C105.754 17.2852 104.914 18.0977 103.758 18.0977ZM103.75 17.4727C104.469 17.4727 105.039 16.9062 105.039 16.1953C105.039 15.457 104.508 14.9258 103.762 14.9258C103.016 14.9258 102.465 15.457 102.465 16.1758C102.465 16.8984 103.027 17.4727 103.75 17.4727ZM109.047 16.0312H106.484V15.3984H109.047V16.0312ZM89.6836 28V23.1094H89.668L88.1758 24.1836V23.4414L89.6758 22.3633H90.3633V28H89.6836ZM94.4727 28V26.8281H91.6406V26.1914C92.1211 25.3008 92.7812 24.2734 94.1133 22.3633H95.1523V26.2109H95.9492V26.8281H95.1523V28H94.4727ZM92.3359 26.1953V26.2109H94.4727V22.9492H94.4609C93.3945 24.4727 92.7812 25.4141 92.3359 26.1953ZM98.5742 28.0938C97.4961 28.0938 96.6992 27.4219 96.6406 26.4609H97.332C97.3945 27.0625 97.9062 27.4766 98.582 27.4766C99.3477 27.4766 99.8789 26.9453 99.8789 26.1875C99.8789 25.4297 99.3438 24.8867 98.5938 24.8867C98.0664 24.8867 97.6172 25.125 97.3867 25.5195H96.7266L97.0352 22.3633H100.262V22.9883H97.6133L97.4414 24.8242H97.457C97.7109 24.4844 98.1797 24.2812 98.7188 24.2812C99.8008 24.2812 100.582 25.0742 100.582 26.168C100.582 27.3008 99.75 28.0938 98.5742 28.0938ZM103.289 28.0938C101.973 28.0938 101.211 26.9609 101.211 25.1797C101.211 23.4141 101.98 22.2695 103.289 22.2695C104.598 22.2695 105.359 23.4062 105.359 25.1758C105.359 26.957 104.602 28.0938 103.289 28.0938ZM103.289 27.4805C104.168 27.4805 104.652 26.5859 104.652 25.1797C104.652 23.793 104.16 22.8867 103.289 22.8867C102.418 22.8867 101.918 23.8008 101.918 25.1758C101.918 26.582 102.406 27.4805 103.289 27.4805Z" fill="white"/>
<mask id="path-9-inside-3_302_833" fill="white">
<path d="M129 0H193.5V40H129V0Z"/>
</mask>
<path d="M129 0V-1H128V0H129ZM129 1H193.5V-1H129V1ZM130 40V0H128V40H130Z" fill="white" fill-opacity="0.2" mask="url(#path-9-inside-3_302_833)"/>
<path d="M147.07 16.4492H147.777C147.844 17.0586 148.422 17.4609 149.227 17.4609C149.988 17.4609 150.543 17.0586 150.543 16.5039C150.543 16.0273 150.211 15.7344 149.453 15.5391L148.73 15.3516C147.691 15.0859 147.23 14.6289 147.23 13.8633C147.23 12.9258 148.051 12.2695 149.223 12.2695C150.344 12.2695 151.156 12.9336 151.188 13.8789H150.484C150.422 13.2734 149.934 12.9023 149.199 12.9023C148.469 12.9023 147.961 13.2812 147.961 13.832C147.961 14.2578 148.273 14.5117 149.039 14.7109L149.629 14.8672C150.797 15.1602 151.27 15.6094 151.27 16.418C151.27 17.4492 150.457 18.0938 149.16 18.0938C147.965 18.0938 147.137 17.4453 147.07 16.4492ZM152.793 12.9883V15.1484H154.141C154.863 15.1484 155.273 14.7578 155.273 14.0664C155.273 13.3906 154.836 12.9883 154.109 12.9883H152.793ZM152.793 15.7695V18H152.09V12.3633H154.203C155.289 12.3633 156 13.0273 156 14.043C156 14.8281 155.574 15.4375 154.867 15.6602L156.172 18H155.348L154.141 15.7695H152.793ZM159.016 18H158.312V12.9961H156.535V12.3633H160.793V12.9961H159.016V18ZM162.004 14.457C161.367 14.457 160.922 14.9453 160.879 15.6211H163.086C163.07 14.9414 162.645 14.457 162.004 14.457ZM163.07 16.8359H163.738C163.621 17.5469 162.934 18.0703 162.047 18.0703C160.883 18.0703 160.176 17.2617 160.176 15.9844C160.176 14.7227 160.895 13.8672 162.016 13.8672C163.113 13.8672 163.789 14.6641 163.789 15.8945V16.1523H160.875V16.1914C160.875 16.9688 161.332 17.4805 162.062 17.4805C162.578 17.4805 162.957 17.2188 163.07 16.8359ZM165.773 18V13.1094H165.758L164.266 14.1836V13.4414L165.766 12.3633H166.453V18H165.773ZM169.855 18.0938C168.539 18.0938 167.777 16.9609 167.777 15.1797C167.777 13.4141 168.547 12.2695 169.855 12.2695C171.164 12.2695 171.926 13.4062 171.926 15.1758C171.926 16.957 171.168 18.0938 169.855 18.0938ZM169.855 17.4805C170.734 17.4805 171.219 16.5859 171.219 15.1797C171.219 13.793 170.727 12.8867 169.855 12.8867C168.984 12.8867 168.484 13.8008 168.484 15.1758C168.484 16.582 168.973 17.4805 169.855 17.4805ZM175.273 16.0312H172.711V15.3984H175.273V16.0312ZM154.258 28V23.1094H154.242L152.75 24.1836V23.4414L154.25 22.3633H154.938V28H154.258ZM159.047 28V26.8281H156.215V26.1914C156.695 25.3008 157.355 24.2734 158.688 22.3633H159.727V26.2109H160.523V26.8281H159.727V28H159.047ZM156.91 26.1953V26.2109H159.047V22.9492H159.035C157.969 24.4727 157.355 25.4141 156.91 26.1953ZM161.176 23.9883C161.176 23.0039 161.973 22.2695 163.035 22.2695C164.043 22.2695 164.836 22.9531 164.836 23.8164C164.836 24.4453 164.551 24.9141 163.609 25.8867L162.184 27.3594V27.375H164.93V28H161.211V27.5156L163.195 25.4258C163.953 24.6289 164.133 24.3281 164.133 23.8594C164.133 23.3164 163.637 22.8828 163.016 22.8828C162.355 22.8828 161.855 23.3594 161.855 23.9883V23.9922H161.176V23.9883ZM167.715 28.0938C166.398 28.0938 165.637 26.9609 165.637 25.1797C165.637 23.4141 166.406 22.2695 167.715 22.2695C169.023 22.2695 169.785 23.4062 169.785 25.1758C169.785 26.957 169.027 28.0938 167.715 28.0938ZM167.715 27.4805C168.594 27.4805 169.078 26.5859 169.078 25.1797C169.078 23.793 168.586 22.8867 167.715 22.8867C166.844 22.8867 166.344 23.8008 166.344 25.1758C166.344 26.582 166.832 27.4805 167.715 27.4805Z" fill="white"/>
<mask id="path-12-inside-4_302_833" fill="white">
<path d="M193.5 0H258V40H193.5V0Z"/>
</mask>
<path d="M193.5 0V-1H192.5V0H193.5ZM193.5 1H258V-1H193.5V1ZM194.5 40V0H192.5V40H194.5Z" fill="white" fill-opacity="0.2" mask="url(#path-12-inside-4_302_833)"/>
<path d="M211.57 16.4492H212.277C212.344 17.0586 212.922 17.4609 213.727 17.4609C214.488 17.4609 215.043 17.0586 215.043 16.5039C215.043 16.0273 214.711 15.7344 213.953 15.5391L213.23 15.3516C212.191 15.0859 211.73 14.6289 211.73 13.8633C211.73 12.9258 212.551 12.2695 213.723 12.2695C214.844 12.2695 215.656 12.9336 215.688 13.8789H214.984C214.922 13.2734 214.434 12.9023 213.699 12.9023C212.969 12.9023 212.461 13.2812 212.461 13.832C212.461 14.2578 212.773 14.5117 213.539 14.7109L214.129 14.8672C215.297 15.1602 215.77 15.6094 215.77 16.418C215.77 17.4492 214.957 18.0938 213.66 18.0938C212.465 18.0938 211.637 17.4453 211.57 16.4492ZM217.293 12.9883V15.1484H218.641C219.363 15.1484 219.773 14.7578 219.773 14.0664C219.773 13.3906 219.336 12.9883 218.609 12.9883H217.293ZM217.293 15.7695V18H216.59V12.3633H218.703C219.789 12.3633 220.5 13.0273 220.5 14.043C220.5 14.8281 220.074 15.4375 219.367 15.6602L220.672 18H219.848L218.641 15.7695H217.293ZM223.516 18H222.812V12.9961H221.035V12.3633H225.293V12.9961H223.516V18ZM226.504 14.457C225.867 14.457 225.422 14.9453 225.379 15.6211H227.586C227.57 14.9414 227.145 14.457 226.504 14.457ZM227.57 16.8359H228.238C228.121 17.5469 227.434 18.0703 226.547 18.0703C225.383 18.0703 224.676 17.2617 224.676 15.9844C224.676 14.7227 225.395 13.8672 226.516 13.8672C227.613 13.8672 228.289 14.6641 228.289 15.8945V16.1523H225.375V16.1914C225.375 16.9688 225.832 17.4805 226.562 17.4805C227.078 17.4805 227.457 17.2188 227.57 16.8359ZM230.273 18V13.1094H230.258L228.766 14.1836V13.4414L230.266 12.3633H230.953V18H230.273ZM234.355 18.0938C233.039 18.0938 232.277 16.9609 232.277 15.1797C232.277 13.4141 233.047 12.2695 234.355 12.2695C235.664 12.2695 236.426 13.4062 236.426 15.1758C236.426 16.957 235.668 18.0938 234.355 18.0938ZM234.355 17.4805C235.234 17.4805 235.719 16.5859 235.719 15.1797C235.719 13.793 235.227 12.8867 234.355 12.8867C233.484 12.8867 232.984 13.8008 232.984 15.1758C232.984 16.582 233.473 17.4805 234.355 17.4805ZM239.773 16.0312H237.211V15.3984H239.773V16.0312ZM218.992 28V23.1094H218.977L217.484 24.1836V23.4414L218.984 22.3633H219.672V28H218.992ZM221.426 28L223.977 23.0039V22.9883H220.941V22.3633H224.672V23.0156L222.164 28H221.426ZM225.441 23.9883C225.441 23.0039 226.238 22.2695 227.301 22.2695C228.309 22.2695 229.102 22.9531 229.102 23.8164C229.102 24.4453 228.816 24.9141 227.875 25.8867L226.449 27.3594V27.375H229.195V28H225.477V27.5156L227.461 25.4258C228.219 24.6289 228.398 24.3281 228.398 23.8594C228.398 23.3164 227.902 22.8828 227.281 22.8828C226.621 22.8828 226.121 23.3594 226.121 23.9883V23.9922H225.441V23.9883ZM231.98 28.0938C230.664 28.0938 229.902 26.9609 229.902 25.1797C229.902 23.4141 230.672 22.2695 231.98 22.2695C233.289 22.2695 234.051 23.4062 234.051 25.1758C234.051 26.957 233.293 28.0938 231.98 28.0938ZM231.98 27.4805C232.859 27.4805 233.344 26.5859 233.344 25.1797C233.344 23.793 232.852 22.8867 231.98 22.8867C231.109 22.8867 230.609 23.8008 230.609 25.1758C230.609 26.582 231.098 27.4805 231.98 27.4805Z" fill="white"/>
<mask id="path-15-inside-5_302_833" fill="white">
<path d="M258 0H322.5V40H258V0Z"/>
</mask>
<path d="M258 0V-1H257V0H258ZM258 1H322.5V-1H258V1ZM259 40V0H257V40H259Z" fill="white" fill-opacity="0.2" mask="url(#path-15-inside-5_302_833)"/>
<path d="M276.23 16.4492H276.938C277.004 17.0586 277.582 17.4609 278.387 17.4609C279.148 17.4609 279.703 17.0586 279.703 16.5039C279.703 16.0273 279.371 15.7344 278.613 15.5391L277.891 15.3516C276.852 15.0859 276.391 14.6289 276.391 13.8633C276.391 12.9258 277.211 12.2695 278.383 12.2695C279.504 12.2695 280.316 12.9336 280.348 13.8789H279.645C279.582 13.2734 279.094 12.9023 278.359 12.9023C277.629 12.9023 277.121 13.2812 277.121 13.832C277.121 14.2578 277.434 14.5117 278.199 14.7109L278.789 14.8672C279.957 15.1602 280.43 15.6094 280.43 16.418C280.43 17.4492 279.617 18.0938 278.32 18.0938C277.125 18.0938 276.297 17.4453 276.23 16.4492ZM281.953 12.9883V15.1484H283.301C284.023 15.1484 284.434 14.7578 284.434 14.0664C284.434 13.3906 283.996 12.9883 283.27 12.9883H281.953ZM281.953 15.7695V18H281.25V12.3633H283.363C284.449 12.3633 285.16 13.0273 285.16 14.043C285.16 14.8281 284.734 15.4375 284.027 15.6602L285.332 18H284.508L283.301 15.7695H281.953ZM288.176 18H287.473V12.9961H285.695V12.3633H289.953V12.9961H288.176V18ZM291.164 14.457C290.527 14.457 290.082 14.9453 290.039 15.6211H292.246C292.23 14.9414 291.805 14.457 291.164 14.457ZM292.23 16.8359H292.898C292.781 17.5469 292.094 18.0703 291.207 18.0703C290.043 18.0703 289.336 17.2617 289.336 15.9844C289.336 14.7227 290.055 13.8672 291.176 13.8672C292.273 13.8672 292.949 14.6641 292.949 15.8945V16.1523H290.035V16.1914C290.035 16.9688 290.492 17.4805 291.223 17.4805C291.738 17.4805 292.117 17.2188 292.23 16.8359ZM294.934 18V13.1094H294.918L293.426 14.1836V13.4414L294.926 12.3633H295.613V18H294.934ZM297.008 13.9883C297.008 13.0039 297.805 12.2695 298.867 12.2695C299.875 12.2695 300.668 12.9531 300.668 13.8164C300.668 14.4453 300.383 14.9141 299.441 15.8867L298.016 17.3594V17.375H300.762V18H297.043V17.5156L299.027 15.4258C299.785 14.6289 299.965 14.3281 299.965 13.8594C299.965 13.3164 299.469 12.8828 298.848 12.8828C298.188 12.8828 297.688 13.3594 297.688 13.9883V13.9922H297.008V13.9883ZM304.113 16.0312H301.551V15.3984H304.113V16.0312ZM281.129 23.9883C281.129 23.0039 281.926 22.2695 282.988 22.2695C283.996 22.2695 284.789 22.9531 284.789 23.8164C284.789 24.4453 284.504 24.9141 283.562 25.8867L282.137 27.3594V27.375H284.883V28H281.164V27.5156L283.148 25.4258C283.906 24.6289 284.086 24.3281 284.086 23.8594C284.086 23.3164 283.59 22.8828 282.969 22.8828C282.309 22.8828 281.809 23.3594 281.809 23.9883V23.9922H281.129V23.9883ZM287.668 28.0938C286.352 28.0938 285.59 26.9609 285.59 25.1797C285.59 23.4141 286.359 22.2695 287.668 22.2695C288.977 22.2695 289.738 23.4062 289.738 25.1758C289.738 26.957 288.98 28.0938 287.668 28.0938ZM287.668 27.4805C288.547 27.4805 289.031 26.5859 289.031 25.1797C289.031 23.793 288.539 22.8867 287.668 22.8867C286.797 22.8867 286.297 23.8008 286.297 25.1758C286.297 26.582 286.785 27.4805 287.668 27.4805ZM292.52 28.0938C291.203 28.0938 290.441 26.9609 290.441 25.1797C290.441 23.4141 291.211 22.2695 292.52 22.2695C293.828 22.2695 294.59 23.4062 294.59 25.1758C294.59 26.957 293.832 28.0938 292.52 28.0938ZM292.52 27.4805C293.398 27.4805 293.883 26.5859 293.883 25.1797C293.883 23.793 293.391 22.8867 292.52 22.8867C291.648 22.8867 291.148 23.8008 291.148 25.1758C291.148 26.582 291.637 27.4805 292.52 27.4805ZM297.371 28.0938C296.055 28.0938 295.293 26.9609 295.293 25.1797C295.293 23.4141 296.062 22.2695 297.371 22.2695C298.68 22.2695 299.441 23.4062 299.441 25.1758C299.441 26.957 298.684 28.0938 297.371 28.0938ZM297.371 27.4805C298.25 27.4805 298.734 26.5859 298.734 25.1797C298.734 23.793 298.242 22.8867 297.371 22.8867C296.5 22.8867 296 23.8008 296 25.1758C296 26.582 296.488 27.4805 297.371 27.4805Z" fill="white"/>
<mask id="path-18-inside-6_302_833" fill="white">
<path d="M322.5 0H387V40H322.5V0Z"/>
</mask>
<path d="M322.5 0V-1H321.5V0H322.5ZM322.5 1H387V-1H322.5V1ZM323.5 40V0H321.5V40H323.5Z" fill="white" fill-opacity="0.2" mask="url(#path-18-inside-6_302_833)"/>
<path d="M340 16.4492H340.707C340.773 17.0586 341.352 17.4609 342.156 17.4609C342.918 17.4609 343.473 17.0586 343.473 16.5039C343.473 16.0273 343.141 15.7344 342.383 15.5391L341.66 15.3516C340.621 15.0859 340.16 14.6289 340.16 13.8633C340.16 12.9258 340.98 12.2695 342.152 12.2695C343.273 12.2695 344.086 12.9336 344.117 13.8789H343.414C343.352 13.2734 342.863 12.9023 342.129 12.9023C341.398 12.9023 340.891 13.2812 340.891 13.832C340.891 14.2578 341.203 14.5117 341.969 14.7109L342.559 14.8672C343.727 15.1602 344.199 15.6094 344.199 16.418C344.199 17.4492 343.387 18.0938 342.09 18.0938C340.895 18.0938 340.066 17.4453 340 16.4492ZM345.723 12.9883V15.1484H347.07C347.793 15.1484 348.203 14.7578 348.203 14.0664C348.203 13.3906 347.766 12.9883 347.039 12.9883H345.723ZM345.723 15.7695V18H345.02V12.3633H347.133C348.219 12.3633 348.93 13.0273 348.93 14.043C348.93 14.8281 348.504 15.4375 347.797 15.6602L349.102 18H348.277L347.07 15.7695H345.723ZM351.945 18H351.242V12.9961H349.465V12.3633H353.723V12.9961H351.945V18ZM354.934 14.457C354.297 14.457 353.852 14.9453 353.809 15.6211H356.016C356 14.9414 355.574 14.457 354.934 14.457ZM356 16.8359H356.668C356.551 17.5469 355.863 18.0703 354.977 18.0703C353.812 18.0703 353.105 17.2617 353.105 15.9844C353.105 14.7227 353.824 13.8672 354.945 13.8672C356.043 13.8672 356.719 14.6641 356.719 15.8945V16.1523H353.805V16.1914C353.805 16.9688 354.262 17.4805 354.992 17.4805C355.508 17.4805 355.887 17.2188 356 16.8359ZM357.387 13.9883C357.387 13.0039 358.184 12.2695 359.246 12.2695C360.254 12.2695 361.047 12.9531 361.047 13.8164C361.047 14.4453 360.762 14.9141 359.82 15.8867L358.395 17.3594V17.375H361.141V18H357.422V17.5156L359.406 15.4258C360.164 14.6289 360.344 14.3281 360.344 13.8594C360.344 13.3164 359.848 12.8828 359.227 12.8828C358.566 12.8828 358.066 13.3594 358.066 13.9883V13.9922H357.387V13.9883ZM363.926 18.0938C362.609 18.0938 361.848 16.9609 361.848 15.1797C361.848 13.4141 362.617 12.2695 363.926 12.2695C365.234 12.2695 365.996 13.4062 365.996 15.1758C365.996 16.957 365.238 18.0938 363.926 18.0938ZM363.926 17.4805C364.805 17.4805 365.289 16.5859 365.289 15.1797C365.289 13.793 364.797 12.8867 363.926 12.8867C363.055 12.8867 362.555 13.8008 362.555 15.1758C362.555 16.582 363.043 17.4805 363.926 17.4805ZM369.344 16.0312H366.781V15.3984H369.344V16.0312ZM345.629 23.9883C345.629 23.0039 346.426 22.2695 347.488 22.2695C348.496 22.2695 349.289 22.9531 349.289 23.8164C349.289 24.4453 349.004 24.9141 348.062 25.8867L346.637 27.3594V27.375H349.383V28H345.664V27.5156L347.648 25.4258C348.406 24.6289 348.586 24.3281 348.586 23.8594C348.586 23.3164 348.09 22.8828 347.469 22.8828C346.809 22.8828 346.309 23.3594 346.309 23.9883V23.9922H345.629V23.9883ZM352.168 28.0938C350.852 28.0938 350.09 26.9609 350.09 25.1797C350.09 23.4141 350.859 22.2695 352.168 22.2695C353.477 22.2695 354.238 23.4062 354.238 25.1758C354.238 26.957 353.48 28.0938 352.168 28.0938ZM352.168 27.4805C353.047 27.4805 353.531 26.5859 353.531 25.1797C353.531 23.793 353.039 22.8867 352.168 22.8867C351.297 22.8867 350.797 23.8008 350.797 25.1758C350.797 26.582 351.285 27.4805 352.168 27.4805ZM357.02 28.0938C355.703 28.0938 354.941 26.9609 354.941 25.1797C354.941 23.4141 355.711 22.2695 357.02 22.2695C358.328 22.2695 359.09 23.4062 359.09 25.1758C359.09 26.957 358.332 28.0938 357.02 28.0938ZM357.02 27.4805C357.898 27.4805 358.383 26.5859 358.383 25.1797C358.383 23.793 357.891 22.8867 357.02 22.8867C356.148 22.8867 355.648 23.8008 355.648 25.1758C355.648 26.582 356.137 27.4805 357.02 27.4805ZM361.871 28.0938C360.555 28.0938 359.793 26.9609 359.793 25.1797C359.793 23.4141 360.562 22.2695 361.871 22.2695C363.18 22.2695 363.941 23.4062 363.941 25.1758C363.941 26.957 363.184 28.0938 361.871 28.0938ZM361.871 27.4805C362.75 27.4805 363.234 26.5859 363.234 25.1797C363.234 23.793 362.742 22.8867 361.871 22.8867C361 22.8867 360.5 23.8008 360.5 25.1758C360.5 26.582 360.988 27.4805 361.871 27.4805Z" fill="white"/>
<mask id="path-21-inside-7_302_833" fill="white">
<path d="M387 0H451.5V40H387V0Z"/>
</mask>
<path d="M387 0V-1H386V0H387ZM387 1H451.5V-1H387V1ZM388 40V0H386V40H388Z" fill="white" fill-opacity="0.2" mask="url(#path-21-inside-7_302_833)"/>
<path d="M404.586 16.4492H405.293C405.359 17.0586 405.938 17.4609 406.742 17.4609C407.504 17.4609 408.059 17.0586 408.059 16.5039C408.059 16.0273 407.727 15.7344 406.969 15.5391L406.246 15.3516C405.207 15.0859 404.746 14.6289 404.746 13.8633C404.746 12.9258 405.566 12.2695 406.738 12.2695C407.859 12.2695 408.672 12.9336 408.703 13.8789H408C407.938 13.2734 407.449 12.9023 406.715 12.9023C405.984 12.9023 405.477 13.2812 405.477 13.832C405.477 14.2578 405.789 14.5117 406.555 14.7109L407.145 14.8672C408.312 15.1602 408.785 15.6094 408.785 16.418C408.785 17.4492 407.973 18.0938 406.676 18.0938C405.48 18.0938 404.652 17.4453 404.586 16.4492ZM410.309 12.9883V15.1484H411.656C412.379 15.1484 412.789 14.7578 412.789 14.0664C412.789 13.3906 412.352 12.9883 411.625 12.9883H410.309ZM410.309 15.7695V18H409.605V12.3633H411.719C412.805 12.3633 413.516 13.0273 413.516 14.043C413.516 14.8281 413.09 15.4375 412.383 15.6602L413.688 18H412.863L411.656 15.7695H410.309ZM416.531 18H415.828V12.9961H414.051V12.3633H418.309V12.9961H416.531V18ZM419.52 14.457C418.883 14.457 418.438 14.9453 418.395 15.6211H420.602C420.586 14.9414 420.16 14.457 419.52 14.457ZM420.586 16.8359H421.254C421.137 17.5469 420.449 18.0703 419.562 18.0703C418.398 18.0703 417.691 17.2617 417.691 15.9844C417.691 14.7227 418.41 13.8672 419.531 13.8672C420.629 13.8672 421.305 14.6641 421.305 15.8945V16.1523H418.391V16.1914C418.391 16.9688 418.848 17.4805 419.578 17.4805C420.094 17.4805 420.473 17.2188 420.586 16.8359ZM421.973 13.9883C421.973 13.0039 422.77 12.2695 423.832 12.2695C424.84 12.2695 425.633 12.9531 425.633 13.8164C425.633 14.4453 425.348 14.9141 424.406 15.8867L422.98 17.3594V17.375H425.727V18H422.008V17.5156L423.992 15.4258C424.75 14.6289 424.93 14.3281 424.93 13.8594C424.93 13.3164 424.434 12.8828 423.812 12.8828C423.152 12.8828 422.652 13.3594 422.652 13.9883V13.9922H421.973V13.9883ZM428.477 18.0938C427.398 18.0938 426.602 17.4219 426.543 16.4609H427.234C427.297 17.0625 427.809 17.4766 428.484 17.4766C429.25 17.4766 429.781 16.9453 429.781 16.1875C429.781 15.4297 429.246 14.8867 428.496 14.8867C427.969 14.8867 427.52 15.125 427.289 15.5195H426.629L426.938 12.3633H430.164V12.9883H427.516L427.344 14.8242H427.359C427.613 14.4844 428.082 14.2812 428.621 14.2812C429.703 14.2812 430.484 15.0742 430.484 16.168C430.484 17.3008 429.652 18.0938 428.477 18.0938ZM433.758 16.0312H431.195V15.3984H433.758V16.0312ZM412.371 28V23.1094H412.355L410.863 24.1836V23.4414L412.363 22.3633H413.051V28H412.371ZM414.805 28L417.355 23.0039V22.9883H414.32V22.3633H418.051V23.0156L415.543 28H414.805ZM420.75 28.0938C419.434 28.0938 418.672 26.9609 418.672 25.1797C418.672 23.4141 419.441 22.2695 420.75 22.2695C422.059 22.2695 422.82 23.4062 422.82 25.1758C422.82 26.957 422.062 28.0938 420.75 28.0938ZM420.75 27.4805C421.629 27.4805 422.113 26.5859 422.113 25.1797C422.113 23.793 421.621 22.8867 420.75 22.8867C419.879 22.8867 419.379 23.8008 419.379 25.1758C419.379 26.582 419.867 27.4805 420.75 27.4805ZM425.602 28.0938C424.285 28.0938 423.523 26.9609 423.523 25.1797C423.523 23.4141 424.293 22.2695 425.602 22.2695C426.91 22.2695 427.672 23.4062 427.672 25.1758C427.672 26.957 426.914 28.0938 425.602 28.0938ZM425.602 27.4805C426.48 27.4805 426.965 26.5859 426.965 25.1797C426.965 23.793 426.473 22.8867 425.602 22.8867C424.73 22.8867 424.23 23.8008 424.23 25.1758C424.23 26.582 424.719 27.4805 425.602 27.4805Z" fill="white"/>
<mask id="path-24-inside-8_302_833" fill="white">
<path d="M451.5 0H516V40H451.5V0Z"/>
</mask>
<path d="M451.5 0V-1H450.5V0H451.5ZM451.5 1H516V-1H451.5V1ZM452.5 40V0H450.5V40H452.5Z" fill="white" fill-opacity="0.2" mask="url(#path-24-inside-8_302_833)"/>
<path d="M468.984 16.4492H469.691C469.758 17.0586 470.336 17.4609 471.141 17.4609C471.902 17.4609 472.457 17.0586 472.457 16.5039C472.457 16.0273 472.125 15.7344 471.367 15.5391L470.645 15.3516C469.605 15.0859 469.145 14.6289 469.145 13.8633C469.145 12.9258 469.965 12.2695 471.137 12.2695C472.258 12.2695 473.07 12.9336 473.102 13.8789H472.398C472.336 13.2734 471.848 12.9023 471.113 12.9023C470.383 12.9023 469.875 13.2812 469.875 13.832C469.875 14.2578 470.188 14.5117 470.953 14.7109L471.543 14.8672C472.711 15.1602 473.184 15.6094 473.184 16.418C473.184 17.4492 472.371 18.0938 471.074 18.0938C469.879 18.0938 469.051 17.4453 468.984 16.4492ZM474.707 12.9883V15.1484H476.055C476.777 15.1484 477.188 14.7578 477.188 14.0664C477.188 13.3906 476.75 12.9883 476.023 12.9883H474.707ZM474.707 15.7695V18H474.004V12.3633H476.117C477.203 12.3633 477.914 13.0273 477.914 14.043C477.914 14.8281 477.488 15.4375 476.781 15.6602L478.086 18H477.262L476.055 15.7695H474.707ZM480.93 18H480.227V12.9961H478.449V12.3633H482.707V12.9961H480.93V18ZM483.918 14.457C483.281 14.457 482.836 14.9453 482.793 15.6211H485C484.984 14.9414 484.559 14.457 483.918 14.457ZM484.984 16.8359H485.652C485.535 17.5469 484.848 18.0703 483.961 18.0703C482.797 18.0703 482.09 17.2617 482.09 15.9844C482.09 14.7227 482.809 13.8672 483.93 13.8672C485.027 13.8672 485.703 14.6641 485.703 15.8945V16.1523H482.789V16.1914C482.789 16.9688 483.246 17.4805 483.977 17.4805C484.492 17.4805 484.871 17.2188 484.984 16.8359ZM487.555 15.3984V14.8047H488.23C488.879 14.8047 489.332 14.3867 489.332 13.8164C489.332 13.2578 488.953 12.8789 488.238 12.8789C487.59 12.8789 487.16 13.25 487.098 13.8398H486.422C486.5 12.8828 487.211 12.2695 488.27 12.2695C489.277 12.2695 490.039 12.875 490.039 13.7227C490.039 14.4297 489.586 14.9375 488.883 15.0625V15.0781C489.734 15.1289 490.281 15.6562 490.281 16.4492C490.281 17.418 489.398 18.0938 488.293 18.0938C487.113 18.0938 486.359 17.4414 486.309 16.5078H486.984C487.047 17.0859 487.527 17.4844 488.285 17.4844C489.031 17.4844 489.566 17.0625 489.566 16.4727C489.566 15.8086 489.066 15.3984 488.262 15.3984H487.555ZM493.078 18.0938C492 18.0938 491.203 17.4219 491.145 16.4609H491.836C491.898 17.0625 492.41 17.4766 493.086 17.4766C493.852 17.4766 494.383 16.9453 494.383 16.1875C494.383 15.4297 493.848 14.8867 493.098 14.8867C492.57 14.8867 492.121 15.125 491.891 15.5195H491.23L491.539 12.3633H494.766V12.9883H492.117L491.945 14.8242H491.961C492.215 14.4844 492.684 14.2812 493.223 14.2812C494.305 14.2812 495.086 15.0742 495.086 16.168C495.086 17.3008 494.254 18.0938 493.078 18.0938ZM498.359 16.0312H495.797V15.3984H498.359V16.0312ZM476.871 28V23.1094H476.855L475.363 24.1836V23.4414L476.863 22.3633H477.551V28H476.871ZM479.305 28L481.855 23.0039V22.9883H478.82V22.3633H482.551V23.0156L480.043 28H479.305ZM485.25 28.0938C483.934 28.0938 483.172 26.9609 483.172 25.1797C483.172 23.4141 483.941 22.2695 485.25 22.2695C486.559 22.2695 487.32 23.4062 487.32 25.1758C487.32 26.957 486.562 28.0938 485.25 28.0938ZM485.25 27.4805C486.129 27.4805 486.613 26.5859 486.613 25.1797C486.613 23.793 486.121 22.8867 485.25 22.8867C484.379 22.8867 483.879 23.8008 483.879 25.1758C483.879 26.582 484.367 27.4805 485.25 27.4805ZM490.102 28.0938C488.785 28.0938 488.023 26.9609 488.023 25.1797C488.023 23.4141 488.793 22.2695 490.102 22.2695C491.41 22.2695 492.172 23.4062 492.172 25.1758C492.172 26.957 491.414 28.0938 490.102 28.0938ZM490.102 27.4805C490.98 27.4805 491.465 26.5859 491.465 25.1797C491.465 23.793 490.973 22.8867 490.102 22.8867C489.23 22.8867 488.73 23.8008 488.73 25.1758C488.73 26.582 489.219 27.4805 490.102 27.4805Z" fill="white"/>
<mask id="path-27-inside-9_302_833" fill="white">
<path d="M516 0H580.5V40H516V0Z"/>
</mask>
<path d="M516 0V-1H515V0H516ZM516 1H580.5V-1H516V1ZM517 40V0H515V40H517Z" fill="white" fill-opacity="0.2" mask="url(#path-27-inside-9_302_833)"/>
<path d="M533.426 16.4492H534.133C534.199 17.0586 534.777 17.4609 535.582 17.4609C536.344 17.4609 536.898 17.0586 536.898 16.5039C536.898 16.0273 536.566 15.7344 535.809 15.5391L535.086 15.3516C534.047 15.0859 533.586 14.6289 533.586 13.8633C533.586 12.9258 534.406 12.2695 535.578 12.2695C536.699 12.2695 537.512 12.9336 537.543 13.8789H536.84C536.777 13.2734 536.289 12.9023 535.555 12.9023C534.824 12.9023 534.316 13.2812 534.316 13.832C534.316 14.2578 534.629 14.5117 535.395 14.7109L535.984 14.8672C537.152 15.1602 537.625 15.6094 537.625 16.418C537.625 17.4492 536.812 18.0938 535.516 18.0938C534.32 18.0938 533.492 17.4453 533.426 16.4492ZM539.148 12.9883V15.1484H540.496C541.219 15.1484 541.629 14.7578 541.629 14.0664C541.629 13.3906 541.191 12.9883 540.465 12.9883H539.148ZM539.148 15.7695V18H538.445V12.3633H540.559C541.645 12.3633 542.355 13.0273 542.355 14.043C542.355 14.8281 541.93 15.4375 541.223 15.6602L542.527 18H541.703L540.496 15.7695H539.148ZM545.371 18H544.668V12.9961H542.891V12.3633H547.148V12.9961H545.371V18ZM548.359 14.457C547.723 14.457 547.277 14.9453 547.234 15.6211H549.441C549.426 14.9414 549 14.457 548.359 14.457ZM549.426 16.8359H550.094C549.977 17.5469 549.289 18.0703 548.402 18.0703C547.238 18.0703 546.531 17.2617 546.531 15.9844C546.531 14.7227 547.25 13.8672 548.371 13.8672C549.469 13.8672 550.145 14.6641 550.145 15.8945V16.1523H547.23V16.1914C547.23 16.9688 547.688 17.4805 548.418 17.4805C548.934 17.4805 549.312 17.2188 549.426 16.8359ZM552.785 18.0938C551.707 18.0938 550.91 17.4219 550.852 16.4609H551.543C551.605 17.0625 552.117 17.4766 552.793 17.4766C553.559 17.4766 554.09 16.9453 554.09 16.1875C554.09 15.4297 553.555 14.8867 552.805 14.8867C552.277 14.8867 551.828 15.125 551.598 15.5195H550.938L551.246 12.3633H554.473V12.9883H551.824L551.652 14.8242H551.668C551.922 14.4844 552.391 14.2812 552.93 14.2812C554.012 14.2812 554.793 15.0742 554.793 16.168C554.793 17.3008 553.961 18.0938 552.785 18.0938ZM557.5 18.0938C556.184 18.0938 555.422 16.9609 555.422 15.1797C555.422 13.4141 556.191 12.2695 557.5 12.2695C558.809 12.2695 559.57 13.4062 559.57 15.1758C559.57 16.957 558.812 18.0938 557.5 18.0938ZM557.5 17.4805C558.379 17.4805 558.863 16.5859 558.863 15.1797C558.863 13.793 558.371 12.8867 557.5 12.8867C556.629 12.8867 556.129 13.8008 556.129 15.1758C556.129 16.582 556.617 17.4805 557.5 17.4805ZM562.918 16.0312H560.355V15.3984H562.918V16.0312ZM539.348 23.9883C539.348 23.0039 540.145 22.2695 541.207 22.2695C542.215 22.2695 543.008 22.9531 543.008 23.8164C543.008 24.4453 542.723 24.9141 541.781 25.8867L540.355 27.3594V27.375H543.102V28H539.383V27.5156L541.367 25.4258C542.125 24.6289 542.305 24.3281 542.305 23.8594C542.305 23.3164 541.809 22.8828 541.188 22.8828C540.527 22.8828 540.027 23.3594 540.027 23.9883V23.9922H539.348V23.9883ZM543.879 23.9883C543.879 23.0039 544.676 22.2695 545.738 22.2695C546.746 22.2695 547.539 22.9531 547.539 23.8164C547.539 24.4453 547.254 24.9141 546.312 25.8867L544.887 27.3594V27.375H547.633V28H543.914V27.5156L545.898 25.4258C546.656 24.6289 546.836 24.3281 546.836 23.8594C546.836 23.3164 546.34 22.8828 545.719 22.8828C545.059 22.8828 544.559 23.3594 544.559 23.9883V23.9922H543.879V23.9883ZM549.594 25.3984V24.8047H550.27C550.918 24.8047 551.371 24.3867 551.371 23.8164C551.371 23.2578 550.992 22.8789 550.277 22.8789C549.629 22.8789 549.199 23.25 549.137 23.8398H548.461C548.539 22.8828 549.25 22.2695 550.309 22.2695C551.316 22.2695 552.078 22.875 552.078 23.7227C552.078 24.4297 551.625 24.9375 550.922 25.0625V25.0781C551.773 25.1289 552.32 25.6562 552.32 26.4492C552.32 27.418 551.438 28.0938 550.332 28.0938C549.152 28.0938 548.398 27.4414 548.348 26.5078H549.023C549.086 27.0859 549.566 27.4844 550.324 27.4844C551.07 27.4844 551.605 27.0625 551.605 26.4727C551.605 25.8086 551.105 25.3984 550.301 25.3984H549.594ZM555.152 28.0938C553.836 28.0938 553.074 26.9609 553.074 25.1797C553.074 23.4141 553.844 22.2695 555.152 22.2695C556.461 22.2695 557.223 23.4062 557.223 25.1758C557.223 26.957 556.465 28.0938 555.152 28.0938ZM555.152 27.4805C556.031 27.4805 556.516 26.5859 556.516 25.1797C556.516 23.793 556.023 22.8867 555.152 22.8867C554.281 22.8867 553.781 23.8008 553.781 25.1758C553.781 26.582 554.27 27.4805 555.152 27.4805Z" fill="white"/>
<mask id="path-30-inside-10_302_833" fill="white">
<path d="M580.5 0H645V40H580.5V0Z"/>
</mask>
<path d="M580.5 0V-1H579.5V0H580.5ZM580.5 1H645V-1H580.5V1ZM581.5 40V0H579.5V40H581.5Z" fill="white" fill-opacity="0.2" mask="url(#path-30-inside-10_302_833)"/>
<path d="M598.164 16.4492H598.871C598.938 17.0586 599.516 17.4609 600.32 17.4609C601.082 17.4609 601.637 17.0586 601.637 16.5039C601.637 16.0273 601.305 15.7344 600.547 15.5391L599.824 15.3516C598.785 15.0859 598.324 14.6289 598.324 13.8633C598.324 12.9258 599.145 12.2695 600.316 12.2695C601.438 12.2695 602.25 12.9336 602.281 13.8789H601.578C601.516 13.2734 601.027 12.9023 600.293 12.9023C599.562 12.9023 599.055 13.2812 599.055 13.832C599.055 14.2578 599.367 14.5117 600.133 14.7109L600.723 14.8672C601.891 15.1602 602.363 15.6094 602.363 16.418C602.363 17.4492 601.551 18.0938 600.254 18.0938C599.059 18.0938 598.23 17.4453 598.164 16.4492ZM603.887 12.9883V15.1484H605.234C605.957 15.1484 606.367 14.7578 606.367 14.0664C606.367 13.3906 605.93 12.9883 605.203 12.9883H603.887ZM603.887 15.7695V18H603.184V12.3633H605.297C606.383 12.3633 607.094 13.0273 607.094 14.043C607.094 14.8281 606.668 15.4375 605.961 15.6602L607.266 18H606.441L605.234 15.7695H603.887ZM610.109 18H609.406V12.9961H607.629V12.3633H611.887V12.9961H610.109V18ZM613.098 14.457C612.461 14.457 612.016 14.9453 611.973 15.6211H614.18C614.164 14.9414 613.738 14.457 613.098 14.457ZM614.164 16.8359H614.832C614.715 17.5469 614.027 18.0703 613.141 18.0703C611.977 18.0703 611.27 17.2617 611.27 15.9844C611.27 14.7227 611.988 13.8672 613.109 13.8672C614.207 13.8672 614.883 14.6641 614.883 15.8945V16.1523H611.969V16.1914C611.969 16.9688 612.426 17.4805 613.156 17.4805C613.672 17.4805 614.051 17.2188 614.164 16.8359ZM615.91 18L618.461 13.0039V12.9883H615.426V12.3633H619.156V13.0156L616.648 18H615.91ZM621.898 18.0938C620.82 18.0938 620.023 17.4219 619.965 16.4609H620.656C620.719 17.0625 621.23 17.4766 621.906 17.4766C622.672 17.4766 623.203 16.9453 623.203 16.1875C623.203 15.4297 622.668 14.8867 621.918 14.8867C621.391 14.8867 620.941 15.125 620.711 15.5195H620.051L620.359 12.3633H623.586V12.9883H620.938L620.766 14.8242H620.781C621.035 14.4844 621.504 14.2812 622.043 14.2812C623.125 14.2812 623.906 15.0742 623.906 16.168C623.906 17.3008 623.074 18.0938 621.898 18.0938ZM627.18 16.0312H624.617V15.3984H627.18V16.0312ZM604.281 23.9883C604.281 23.0039 605.078 22.2695 606.141 22.2695C607.148 22.2695 607.941 22.9531 607.941 23.8164C607.941 24.4453 607.656 24.9141 606.715 25.8867L605.289 27.3594V27.375H608.035V28H604.316V27.5156L606.301 25.4258C607.059 24.6289 607.238 24.3281 607.238 23.8594C607.238 23.3164 606.742 22.8828 606.121 22.8828C605.461 22.8828 604.961 23.3594 604.961 23.9883V23.9922H604.281V23.9883ZM610.285 28V23.1094H610.27L608.777 24.1836V23.4414L610.277 22.3633H610.965V28H610.285ZM614.367 28.0938C613.051 28.0938 612.289 26.9609 612.289 25.1797C612.289 23.4141 613.059 22.2695 614.367 22.2695C615.676 22.2695 616.438 23.4062 616.438 25.1758C616.438 26.957 615.68 28.0938 614.367 28.0938ZM614.367 27.4805C615.246 27.4805 615.73 26.5859 615.73 25.1797C615.73 23.793 615.238 22.8867 614.367 22.8867C613.496 22.8867 612.996 23.8008 612.996 25.1758C612.996 26.582 613.484 27.4805 614.367 27.4805ZM619.219 28.0938C617.902 28.0938 617.141 26.9609 617.141 25.1797C617.141 23.4141 617.91 22.2695 619.219 22.2695C620.527 22.2695 621.289 23.4062 621.289 25.1758C621.289 26.957 620.531 28.0938 619.219 28.0938ZM619.219 27.4805C620.098 27.4805 620.582 26.5859 620.582 25.1797C620.582 23.793 620.09 22.8867 619.219 22.8867C618.348 22.8867 617.848 23.8008 617.848 25.1758C617.848 26.582 618.336 27.4805 619.219 27.4805Z" fill="white"/>
</g>
<g clip-path="url(#clip2_302_833)">
<rect width="645" height="40" transform="translate(0 40)" fill="#86A2FF" fill-opacity="0.2"/>
<mask id="path-33-inside-11_302_833" fill="white">
<path d="M0 40H64.5V80H0V40Z"/>
</mask>
<path d="M0 40V39H-1V40H0ZM0 41H64.5V39H0V41ZM1 80V40H-1V80H1Z" fill="white" fill-opacity="0.2" mask="url(#path-33-inside-11_302_833)"/>
<path d="M16.2109 58L15.6445 56.3867H13.4023L12.8359 58H12.0977L14.1758 52.3633H14.8711L16.9492 58H16.2109ZM14.5117 53.2188L13.6094 55.7891H15.4375L14.5352 53.2188H14.5117ZM20.7852 55.2695H20.1211C20.0234 54.8281 19.6797 54.4648 19.082 54.4648C18.3789 54.4648 17.9023 55.0469 17.9023 55.9688C17.9023 56.9141 18.3867 57.4727 19.0898 57.4727C19.6445 57.4727 20.0078 57.1797 20.125 56.6914H20.793C20.6875 57.5 20.0078 58.0703 19.0859 58.0703C17.9609 58.0703 17.2109 57.2773 17.2109 55.9688C17.2109 54.6875 17.957 53.8672 19.0781 53.8672C20.0938 53.8672 20.6992 54.5391 20.7852 55.2695ZM21.6367 52.957H22.3164V53.9375H23.1055V54.4961H22.3164V56.9102C22.3164 57.2812 22.4727 57.4492 22.8203 57.4492C22.8984 57.4492 23.0547 57.4375 23.1016 57.4297V58C23.0195 58.0195 22.832 58.0312 22.6719 58.0312C21.9258 58.0312 21.6367 57.7266 21.6367 56.9453V54.4961H21.0312V53.9375H21.6367V52.957ZM23.8672 58V53.9375H24.5469V58H23.8672ZM24.207 53.2539C23.9766 53.2539 23.7852 53.0625 23.7852 52.832C23.7852 52.5977 23.9766 52.4102 24.207 52.4102C24.4414 52.4102 24.6328 52.5977 24.6328 52.832C24.6328 53.0625 24.4414 53.2539 24.207 53.2539ZM27.1484 58.0703C26.0234 58.0703 25.2656 57.2617 25.2656 55.9688C25.2656 54.6719 26.0234 53.8672 27.1484 53.8672C28.2695 53.8672 29.0273 54.6719 29.0273 55.9688C29.0273 57.2617 28.2695 58.0703 27.1484 58.0703ZM27.1484 57.4727C27.8672 57.4727 28.3359 56.9258 28.3359 55.9688C28.3359 55.0117 27.8672 54.4648 27.1484 54.4648C26.4297 54.4648 25.957 55.0117 25.957 55.9688C25.957 56.9258 26.4297 57.4727 27.1484 57.4727ZM29.7148 58V53.9375H30.3555V54.5859H30.3711C30.5977 54.1484 31.0312 53.8672 31.6602 53.8672C32.5508 53.8672 33.0664 54.4414 33.0664 55.3633V58H32.3867V55.4844C32.3867 54.8281 32.0781 54.4688 31.4531 54.4688C30.8125 54.4688 30.3945 54.9219 30.3945 55.6094V58H29.7148ZM35.5742 58V53.9375H36.2148V54.6016H36.2305C36.3633 54.1523 36.7383 53.8672 37.2148 53.8672C37.332 53.8672 37.4336 53.8867 37.4883 53.8945V54.5547C37.4336 54.5352 37.2891 54.5156 37.125 54.5156C36.5977 54.5156 36.2539 54.8945 36.2539 55.4688V58H35.5742ZM39.3047 57.4922C39.9453 57.4922 40.4375 57.043 40.4375 56.457V56.125L39.3516 56.1914C38.8047 56.2266 38.4922 56.4688 38.4922 56.8516C38.4922 57.2383 38.8164 57.4922 39.3047 57.4922ZM39.1523 58.0703C38.3438 58.0703 37.8008 57.582 37.8008 56.8516C37.8008 56.1562 38.3359 55.7188 39.2734 55.6641L40.4375 55.5977V55.2578C40.4375 54.7617 40.1094 54.4648 39.5469 54.4648C39.0234 54.4648 38.6953 54.7109 38.6094 55.1094H37.9531C38 54.4062 38.6016 53.8672 39.5625 53.8672C40.5156 53.8672 41.1172 54.3828 41.1172 55.1914V58H40.4727V57.3008H40.457C40.2148 57.7656 39.6992 58.0703 39.1523 58.0703ZM41.9805 58V53.9375H42.6211V54.5859H42.6367C42.8633 54.1484 43.2969 53.8672 43.9258 53.8672C44.8164 53.8672 45.332 54.4414 45.332 55.3633V58H44.6523V55.4844C44.6523 54.8281 44.3438 54.4688 43.7188 54.4688C43.0781 54.4688 42.6602 54.9219 42.6602 55.6094V58H41.9805ZM47.8516 57.4336C48.5586 57.4336 49.0312 56.8477 49.0312 55.9531C49.0312 55.0586 48.5586 54.4648 47.8516 54.4648C47.1523 54.4648 46.6953 55.043 46.6953 55.9531C46.6953 56.8633 47.1523 57.4336 47.8516 57.4336ZM47.875 59.5312C46.9805 59.5312 46.2734 59.0273 46.1602 58.3359H46.8594C46.9922 58.707 47.3945 58.9531 47.9023 58.9531C48.6055 58.9531 49.0312 58.5469 49.0312 57.9414V57.3008H49.0156C48.7656 57.7422 48.2852 58.0312 47.7148 58.0312C46.6797 58.0312 46 57.2148 46 55.9531C46 54.6797 46.6797 53.8672 47.7305 53.8672C48.3047 53.8672 48.7812 54.1484 49.0508 54.6211H49.0625V53.9375H49.7109V57.918C49.7109 58.8867 48.9961 59.5312 47.875 59.5312ZM52.2266 54.457C51.5898 54.457 51.1445 54.9453 51.1016 55.6211H53.3086C53.293 54.9414 52.8672 54.457 52.2266 54.457ZM53.293 56.8359H53.9609C53.8438 57.5469 53.1562 58.0703 52.2695 58.0703C51.1055 58.0703 50.3984 57.2617 50.3984 55.9844C50.3984 54.7227 51.1172 53.8672 52.2383 53.8672C53.3359 53.8672 54.0117 54.6641 54.0117 55.8945V56.1523H51.0977V56.1914C51.0977 56.9688 51.5547 57.4805 52.2852 57.4805C52.8008 57.4805 53.1797 57.2188 53.293 56.8359ZM55.1641 59.1211H54.5977L54.9766 57.1328H55.6992L55.1641 59.1211ZM12.4414 68V63.9375H13.082V64.5859H13.0977C13.2891 64.1562 13.7031 63.8672 14.25 63.8672C14.8047 63.8672 15.2148 64.1484 15.3906 64.6406H15.4062C15.6328 64.1562 16.1094 63.8672 16.6797 63.8672C17.4844 63.8672 18.0039 64.3906 18.0039 65.1953V68H17.3242V65.3516C17.3242 64.7969 17.0156 64.4688 16.4805 64.4688C15.9414 64.4688 15.5625 64.8672 15.5625 65.418V68H14.8828V65.2773C14.8828 64.7891 14.5547 64.4688 14.0508 64.4688C13.5117 64.4688 13.1211 64.8906 13.1211 65.4531V68H12.4414ZM18.8711 68V63.9375H19.5117V64.5859H19.5273C19.7188 64.1562 20.1328 63.8672 20.6797 63.8672C21.2344 63.8672 21.6445 64.1484 21.8203 64.6406H21.8359C22.0625 64.1562 22.5391 63.8672 23.1094 63.8672C23.9141 63.8672 24.4336 64.3906 24.4336 65.1953V68H23.7539V65.3516C23.7539 64.7969 23.4453 64.4688 22.9102 64.4688C22.3711 64.4688 21.9922 64.8672 21.9922 65.418V68H21.3125V65.2773C21.3125 64.7891 20.9844 64.4688 20.4805 64.4688C19.9414 64.4688 19.5508 64.8906 19.5508 65.4531V68H18.8711Z" fill="white"/>
<mask id="path-36-inside-12_302_833" fill="white">
<path d="M64.5 40H129V80H64.5V40Z"/>
</mask>
<path d="M64.5 40V39H63.5V40H64.5ZM64.5 41H129V39H64.5V41ZM65.5 80V40H63.5V80H65.5Z" fill="white" fill-opacity="0.2" mask="url(#path-36-inside-12_302_833)"/>
<path d="M86.6191 64V56.4062H86.5957C86.4082 56.5234 84.5742 57.8125 84.3281 57.9648V57.1094C84.5625 56.9629 86.3555 55.6973 86.6074 55.5449H87.3926V64H86.6191ZM93.4395 64V62.0898H89.1504V61.3574C90.0703 59.8105 91.1777 58.1523 93.0469 55.5332H94.2188V61.3809H95.4785V62.0898H94.2188V64H93.4395ZM89.959 61.3574V61.3809H93.4395V56.2363H93.4277C91.8691 58.3926 90.8027 59.9863 89.959 61.3574ZM99.3691 64.1348C97.8223 64.1348 96.6387 63.1621 96.5332 61.7969H97.3184C97.4297 62.7461 98.291 63.4258 99.3809 63.4258C100.641 63.4258 101.537 62.5352 101.537 61.293C101.537 60.0566 100.641 59.1484 99.416 59.1484C98.5605 59.1484 97.8223 59.5527 97.4297 60.2266H96.6621L97.1426 55.5449H101.83V56.2598H97.8047L97.4883 59.3828H97.5117C97.9219 58.8086 98.6895 58.4512 99.5449 58.4512C101.156 58.4512 102.34 59.6465 102.34 61.2754C102.34 62.9453 101.098 64.1348 99.3691 64.1348ZM106.318 64.1348C104.771 64.1348 103.588 63.1621 103.482 61.7969H104.268C104.379 62.7461 105.24 63.4258 106.33 63.4258C107.59 63.4258 108.486 62.5352 108.486 61.293C108.486 60.0566 107.59 59.1484 106.365 59.1484C105.51 59.1484 104.771 59.5527 104.379 60.2266H103.611L104.092 55.5449H108.779V56.2598H104.754L104.438 59.3828H104.461C104.871 58.8086 105.639 58.4512 106.494 58.4512C108.105 58.4512 109.289 59.6465 109.289 61.2754C109.289 62.9453 108.047 64.1348 106.318 64.1348Z" fill="white"/>
<mask id="path-39-inside-13_302_833" fill="white">
<path d="M129 40H193.5V80H129V40Z"/>
</mask>
<path d="M129 40V39H128V40H129ZM129 41H193.5V39H129V41ZM130 80V40H128V80H130Z" fill="white" fill-opacity="0.2" mask="url(#path-39-inside-13_302_833)"/>
<path d="M151.113 64V56.4062H151.09C150.902 56.5234 149.068 57.8125 148.822 57.9648V57.1094C149.057 56.9629 150.85 55.6973 151.102 55.5449H151.887V64H151.113ZM157.934 64V62.0898H153.645V61.3574C154.564 59.8105 155.672 58.1523 157.541 55.5332H158.713V61.3809H159.973V62.0898H158.713V64H157.934ZM154.453 61.3574V61.3809H157.934V56.2363H157.922C156.363 58.3926 155.297 59.9863 154.453 61.3574ZM160.992 57.9121C161.004 56.4707 162.152 55.4102 163.699 55.4102C165.176 55.4102 166.33 56.4238 166.33 57.7188C166.33 58.6445 165.914 59.3418 164.508 60.8008L162.152 63.2617V63.2852H166.547V64H161.033V63.4375L164.021 60.2793C165.229 59.0078 165.533 58.5039 165.533 57.7656C165.533 56.8398 164.713 56.1133 163.676 56.1133C162.592 56.1133 161.777 56.8809 161.766 57.9121V57.918H160.992V57.9121ZM170.648 64.1348C168.727 64.1348 167.584 62.4414 167.584 59.7695C167.584 57.1152 168.738 55.4102 170.648 55.4102C172.564 55.4102 173.707 57.1094 173.707 59.7637C173.707 62.4355 172.57 64.1348 170.648 64.1348ZM170.648 63.4316C172.078 63.4316 172.904 62.0078 172.904 59.7695C172.904 57.5488 172.066 56.1191 170.648 56.1191C169.236 56.1191 168.393 57.5605 168.393 59.7637C168.393 62.0078 169.219 63.4316 170.648 63.4316Z" fill="white"/>
<mask id="path-42-inside-14_302_833" fill="white">
<path d="M193.5 40H258V80H193.5V40Z"/>
</mask>
<path d="M193.5 40V39H192.5V40H193.5ZM193.5 41H258V39H193.5V41ZM194.5 80V40H192.5V80H194.5Z" fill="white" fill-opacity="0.2" mask="url(#path-42-inside-14_302_833)"/>
<path d="M216.943 64V56.4062H216.92C216.732 56.5234 214.898 57.8125 214.652 57.9648V57.1094C214.887 56.9629 216.68 55.6973 216.932 55.5449H217.717V64H216.943ZM220.412 64L224.332 56.2832V56.2598H219.627V55.5449H225.135V56.2949L221.262 64H220.412ZM226.26 57.9121C226.271 56.4707 227.42 55.4102 228.967 55.4102C230.443 55.4102 231.598 56.4238 231.598 57.7188C231.598 58.6445 231.182 59.3418 229.775 60.8008L227.42 63.2617V63.2852H231.814V64H226.301V63.4375L229.289 60.2793C230.496 59.0078 230.801 58.5039 230.801 57.7656C230.801 56.8398 229.98 56.1133 228.943 56.1133C227.859 56.1133 227.045 56.8809 227.033 57.9121V57.918H226.26V57.9121ZM235.178 64V56.4062H235.154C234.967 56.5234 233.133 57.8125 232.887 57.9648V57.1094C233.121 56.9629 234.914 55.6973 235.166 55.5449H235.951V64H235.178Z" fill="white"/>
<mask id="path-45-inside-15_302_833" fill="white">
<path d="M258 40H322.5V80H258V40Z"/>
</mask>
<path d="M258 40V39H257V40H258ZM258 41H322.5V39H258V41ZM259 80V40H257V80H259Z" fill="white" fill-opacity="0.2" mask="url(#path-45-inside-15_302_833)"/>
<path d="M277.898 57.9121C277.91 56.4707 279.059 55.4102 280.605 55.4102C282.082 55.4102 283.236 56.4238 283.236 57.7188C283.236 58.6445 282.82 59.3418 281.414 60.8008L279.059 63.2617V63.2852H283.453V64H277.939V63.4375L280.928 60.2793C282.135 59.0078 282.439 58.5039 282.439 57.7656C282.439 56.8398 281.619 56.1133 280.582 56.1133C279.498 56.1133 278.684 56.8809 278.672 57.9121V57.918H277.898V57.9121ZM287.555 64.1348C285.633 64.1348 284.49 62.4414 284.49 59.7695C284.49 57.1152 285.645 55.4102 287.555 55.4102C289.471 55.4102 290.613 57.1094 290.613 59.7637C290.613 62.4355 289.477 64.1348 287.555 64.1348ZM287.555 63.4316C288.984 63.4316 289.811 62.0078 289.811 59.7695C289.811 57.5488 288.973 56.1191 287.555 56.1191C286.143 56.1191 285.299 57.5605 285.299 59.7637C285.299 62.0078 286.125 63.4316 287.555 63.4316ZM294.715 64.1348C292.793 64.1348 291.65 62.4414 291.65 59.7695C291.65 57.1152 292.805 55.4102 294.715 55.4102C296.631 55.4102 297.773 57.1094 297.773 59.7637C297.773 62.4355 296.637 64.1348 294.715 64.1348ZM294.715 63.4316C296.145 63.4316 296.971 62.0078 296.971 59.7695C296.971 57.5488 296.133 56.1191 294.715 56.1191C293.303 56.1191 292.459 57.5605 292.459 59.7637C292.459 62.0078 293.285 63.4316 294.715 63.4316ZM301.055 64V56.4062H301.031C300.844 56.5234 299.01 57.8125 298.764 57.9648V57.1094C298.998 56.9629 300.791 55.6973 301.043 55.5449H301.828V64H301.055Z" fill="white"/>
<mask id="path-48-inside-16_302_833" fill="white">
<path d="M322.5 40H387V80H322.5V40Z"/>
</mask>
<path d="M322.5 40V39H321.5V40H322.5ZM322.5 41H387V39H322.5V41ZM323.5 80V40H321.5V80H323.5Z" fill="white" fill-opacity="0.2" mask="url(#path-48-inside-16_302_833)"/>
<path d="M342.398 57.9121C342.41 56.4707 343.559 55.4102 345.105 55.4102C346.582 55.4102 347.736 56.4238 347.736 57.7188C347.736 58.6445 347.32 59.3418 345.914 60.8008L343.559 63.2617V63.2852H347.953V64H342.439V63.4375L345.428 60.2793C346.635 59.0078 346.939 58.5039 346.939 57.7656C346.939 56.8398 346.119 56.1133 345.082 56.1133C343.998 56.1133 343.184 56.8809 343.172 57.9121V57.918H342.398V57.9121ZM352.055 64.1348C350.133 64.1348 348.99 62.4414 348.99 59.7695C348.99 57.1152 350.145 55.4102 352.055 55.4102C353.971 55.4102 355.113 57.1094 355.113 59.7637C355.113 62.4355 353.977 64.1348 352.055 64.1348ZM352.055 63.4316C353.484 63.4316 354.311 62.0078 354.311 59.7695C354.311 57.5488 353.473 56.1191 352.055 56.1191C350.643 56.1191 349.799 57.5605 349.799 59.7637C349.799 62.0078 350.625 63.4316 352.055 63.4316ZM359.215 64.1348C357.293 64.1348 356.15 62.4414 356.15 59.7695C356.15 57.1152 357.305 55.4102 359.215 55.4102C361.131 55.4102 362.273 57.1094 362.273 59.7637C362.273 62.4355 361.137 64.1348 359.215 64.1348ZM359.215 63.4316C360.645 63.4316 361.471 62.0078 361.471 59.7695C361.471 57.5488 360.633 56.1191 359.215 56.1191C357.803 56.1191 356.959 57.5605 356.959 59.7637C356.959 62.0078 357.785 63.4316 359.215 63.4316ZM365.555 64V56.4062H365.531C365.344 56.5234 363.51 57.8125 363.264 57.9648V57.1094C363.498 56.9629 365.291 55.6973 365.543 55.5449H366.328V64H365.555Z" fill="white"/>
<mask id="path-51-inside-17_302_833" fill="white">
<path d="M387 40H451.5V80H387V40Z"/>
</mask>
<path d="M387 40V39H386V40H387ZM387 41H451.5V39H387V41ZM388 80V40H386V80H388Z" fill="white" fill-opacity="0.2" mask="url(#path-51-inside-17_302_833)"/>
<path d="M409.523 64V56.4062H409.5C409.312 56.5234 407.479 57.8125 407.232 57.9648V57.1094C407.467 56.9629 409.26 55.6973 409.512 55.5449H410.297V64H409.523ZM412.992 64L416.912 56.2832V56.2598H412.207V55.5449H417.715V56.2949L413.842 64H412.992ZM421.57 64.1348C419.648 64.1348 418.506 62.4414 418.506 59.7695C418.506 57.1152 419.66 55.4102 421.57 55.4102C423.486 55.4102 424.629 57.1094 424.629 59.7637C424.629 62.4355 423.492 64.1348 421.57 64.1348ZM421.57 63.4316C423 63.4316 423.826 62.0078 423.826 59.7695C423.826 57.5488 422.988 56.1191 421.57 56.1191C420.158 56.1191 419.314 57.5605 419.314 59.7637C419.314 62.0078 420.141 63.4316 421.57 63.4316ZM425.742 57.9121C425.754 56.4707 426.902 55.4102 428.449 55.4102C429.926 55.4102 431.08 56.4238 431.08 57.7188C431.08 58.6445 430.664 59.3418 429.258 60.8008L426.902 63.2617V63.2852H431.297V64H425.783V63.4375L428.771 60.2793C429.979 59.0078 430.283 58.5039 430.283 57.7656C430.283 56.8398 429.463 56.1133 428.426 56.1133C427.342 56.1133 426.527 56.8809 426.516 57.9121V57.918H425.742V57.9121Z" fill="white"/>
<mask id="path-54-inside-18_302_833" fill="white">
<path d="M451.5 40H516V80H451.5V40Z"/>
</mask>
<path d="M451.5 40V39H450.5V40H451.5ZM451.5 41H516V39H451.5V41ZM452.5 80V40H450.5V80H452.5Z" fill="white" fill-opacity="0.2" mask="url(#path-54-inside-18_302_833)"/>
<path d="M474.023 64V56.4062H474C473.812 56.5234 471.979 57.8125 471.732 57.9648V57.1094C471.967 56.9629 473.76 55.6973 474.012 55.5449H474.797V64H474.023ZM477.492 64L481.412 56.2832V56.2598H476.707V55.5449H482.215V56.2949L478.342 64H477.492ZM486.07 64.1348C484.148 64.1348 483.006 62.4414 483.006 59.7695C483.006 57.1152 484.16 55.4102 486.07 55.4102C487.986 55.4102 489.129 57.1094 489.129 59.7637C489.129 62.4355 487.992 64.1348 486.07 64.1348ZM486.07 63.4316C487.5 63.4316 488.326 62.0078 488.326 59.7695C488.326 57.5488 487.488 56.1191 486.07 56.1191C484.658 56.1191 483.814 57.5605 483.814 59.7637C483.814 62.0078 484.641 63.4316 486.07 63.4316ZM490.242 57.9121C490.254 56.4707 491.402 55.4102 492.949 55.4102C494.426 55.4102 495.58 56.4238 495.58 57.7188C495.58 58.6445 495.164 59.3418 493.758 60.8008L491.402 63.2617V63.2852H495.797V64H490.283V63.4375L493.271 60.2793C494.479 59.0078 494.783 58.5039 494.783 57.7656C494.783 56.8398 493.963 56.1133 492.926 56.1133C491.842 56.1133 491.027 56.8809 491.016 57.9121V57.918H490.242V57.9121Z" fill="white"/>
<mask id="path-57-inside-19_302_833" fill="white">
<path d="M516 40H580.5V80H516V40Z"/>
</mask>
<path d="M516 40V39H515V40H516ZM516 41H580.5V39H516V41ZM517 80V40H515V80H517Z" fill="white" fill-opacity="0.2" mask="url(#path-57-inside-19_302_833)"/>
<path d="M535.154 57.9121C535.166 56.4707 536.314 55.4102 537.861 55.4102C539.338 55.4102 540.492 56.4238 540.492 57.7188C540.492 58.6445 540.076 59.3418 538.67 60.8008L536.314 63.2617V63.2852H540.709V64H535.195V63.4375L538.184 60.2793C539.391 59.0078 539.695 58.5039 539.695 57.7656C539.695 56.8398 538.875 56.1133 537.838 56.1133C536.754 56.1133 535.939 56.8809 535.928 57.9121V57.918H535.154V57.9121ZM541.904 57.9121C541.916 56.4707 543.064 55.4102 544.611 55.4102C546.088 55.4102 547.242 56.4238 547.242 57.7188C547.242 58.6445 546.826 59.3418 545.42 60.8008L543.064 63.2617V63.2852H547.459V64H541.945V63.4375L544.934 60.2793C546.141 59.0078 546.445 58.5039 546.445 57.7656C546.445 56.8398 545.625 56.1133 544.588 56.1133C543.504 56.1133 542.689 56.8809 542.678 57.9121V57.918H541.904V57.9121ZM550.318 59.9746V59.2949H551.303C552.41 59.2949 553.172 58.6152 553.172 57.6719C553.172 56.7578 552.48 56.1133 551.338 56.1133C550.289 56.1133 549.545 56.7461 549.457 57.6836H548.684C548.783 56.3242 549.85 55.4102 551.373 55.4102C552.861 55.4102 553.98 56.3184 553.98 57.5723C553.98 58.6328 553.295 59.3945 552.217 59.5879V59.6113C553.512 59.6875 554.344 60.4902 554.344 61.6855C554.344 63.1152 553.066 64.1348 551.42 64.1348C549.715 64.1348 548.561 63.1621 548.508 61.8086H549.281C549.346 62.752 550.195 63.4316 551.414 63.4316C552.639 63.4316 553.529 62.7109 553.529 61.709C553.529 60.6309 552.697 59.9746 551.338 59.9746H550.318ZM558.463 64.1348C556.688 64.1348 555.451 63.1152 555.451 61.7031C555.451 60.6367 556.213 59.7695 557.338 59.5293V59.5117C556.383 59.248 555.773 58.5273 555.773 57.6191C555.773 56.3418 556.904 55.4102 558.463 55.4102C560.027 55.4102 561.146 56.3418 561.146 57.6191C561.146 58.5156 560.537 59.2363 559.588 59.5117V59.5293C560.713 59.7695 561.475 60.6426 561.475 61.7031C561.475 63.1211 560.244 64.1348 558.463 64.1348ZM558.463 63.4316C559.77 63.4316 560.66 62.6758 560.66 61.6562C560.66 60.6426 559.764 59.9219 558.463 59.9219C557.168 59.9219 556.266 60.6426 556.266 61.6562C556.266 62.6758 557.156 63.4316 558.463 63.4316ZM558.463 59.207C559.564 59.207 560.35 58.5742 560.35 57.6836C560.35 56.7754 559.594 56.1074 558.463 56.1074C557.338 56.1074 556.57 56.7754 556.57 57.6836C556.57 58.5742 557.355 59.207 558.463 59.207Z" fill="white"/>
<mask id="path-60-inside-20_302_833" fill="white">
<path d="M580.5 40H645V80H580.5V40Z"/>
</mask>
<path d="M580.5 40V39H579.5V40H580.5ZM580.5 41H645V39H580.5V41ZM581.5 80V40H579.5V80H581.5Z" fill="white" fill-opacity="0.2" mask="url(#path-60-inside-20_302_833)"/>
<path d="M601.646 57.9121C601.658 56.4707 602.807 55.4102 604.354 55.4102C605.83 55.4102 606.984 56.4238 606.984 57.7188C606.984 58.6445 606.568 59.3418 605.162 60.8008L602.807 63.2617V63.2852H607.201V64H601.688V63.4375L604.676 60.2793C605.883 59.0078 606.188 58.5039 606.188 57.7656C606.188 56.8398 605.367 56.1133 604.33 56.1133C603.246 56.1133 602.432 56.8809 602.42 57.9121V57.918H601.646V57.9121ZM610.564 64V56.4062H610.541C610.354 56.5234 608.52 57.8125 608.273 57.9648V57.1094C608.508 56.9629 610.301 55.6973 610.553 55.5449H611.338V64H610.564ZM615.627 64V56.4062H615.604C615.416 56.5234 613.582 57.8125 613.336 57.9648V57.1094C613.57 56.9629 615.363 55.6973 615.615 55.5449H616.4V64H615.627ZM618.451 57.9121C618.463 56.4707 619.611 55.4102 621.158 55.4102C622.635 55.4102 623.789 56.4238 623.789 57.7188C623.789 58.6445 623.373 59.3418 621.967 60.8008L619.611 63.2617V63.2852H624.006V64H618.492V63.4375L621.48 60.2793C622.688 59.0078 622.992 58.5039 622.992 57.7656C622.992 56.8398 622.172 56.1133 621.135 56.1133C620.051 56.1133 619.236 56.8809 619.225 57.9121V57.918H618.451V57.9121Z" fill="white"/>
</g>
<g clip-path="url(#clip3_302_833)">
<rect width="645" height="36" transform="translate(0 80)" fill="#86A2FF" fill-opacity="0.2"/>
<mask id="path-63-inside-21_302_833" fill="white">
<path d="M0 80H64.5V116H0V80Z"/>
</mask>
<path d="M0 80V79H-1V80H0ZM0 81H64.5V79H0V81ZM1 116V80H-1V116H1Z" fill="white" fill-opacity="0.2" mask="url(#path-63-inside-21_302_833)"/>
<path d="M12.5469 95.3633H14.5586C15.6172 95.3633 16.3633 96.1055 16.3633 97.1719C16.3633 98.2422 15.6094 98.9883 14.5508 98.9883H13.25V101H12.5469V95.3633ZM13.25 95.9883V98.3633H14.375C15.1797 98.3633 15.6406 97.9219 15.6406 97.1719C15.6406 96.4258 15.1836 95.9883 14.375 95.9883H13.25ZM18.0547 100.492C18.6953 100.492 19.1875 100.043 19.1875 99.457V99.125L18.1016 99.1914C17.5547 99.2266 17.2422 99.4688 17.2422 99.8516C17.2422 100.238 17.5664 100.492 18.0547 100.492ZM17.9023 101.07C17.0938 101.07 16.5508 100.582 16.5508 99.8516C16.5508 99.1562 17.0859 98.7188 18.0234 98.6641L19.1875 98.5977V98.2578C19.1875 97.7617 18.8594 97.4648 18.2969 97.4648C17.7734 97.4648 17.4453 97.7109 17.3594 98.1094H16.7031C16.75 97.4062 17.3516 96.8672 18.3125 96.8672C19.2656 96.8672 19.8672 97.3828 19.8672 98.1914V101H19.2227V100.301H19.207C18.9648 100.766 18.4492 101.07 17.9023 101.07ZM21.0664 102.52C20.9844 102.52 20.8477 102.512 20.7734 102.496V101.926C20.8477 101.941 20.9531 101.945 21.0391 101.945C21.418 101.945 21.6289 101.762 21.7852 101.289L21.8789 101.004L20.3789 96.9375H21.1055L22.2305 100.32H22.2422L23.3672 96.9375H24.082L22.4844 101.285C22.1367 102.234 21.8008 102.52 21.0664 102.52ZM24.6562 101V95.3633H25.3359V101H24.6562ZM27.9375 101.07C26.8125 101.07 26.0547 100.262 26.0547 98.9688C26.0547 97.6719 26.8125 96.8672 27.9375 96.8672C29.0586 96.8672 29.8164 97.6719 29.8164 98.9688C29.8164 100.262 29.0586 101.07 27.9375 101.07ZM27.9375 100.473C28.6562 100.473 29.125 99.9258 29.125 98.9688C29.125 98.0117 28.6562 97.4648 27.9375 97.4648C27.2188 97.4648 26.7461 98.0117 26.7461 98.9688C26.7461 99.9258 27.2188 100.473 27.9375 100.473ZM31.8438 100.492C32.4844 100.492 32.9766 100.043 32.9766 99.457V99.125L31.8906 99.1914C31.3438 99.2266 31.0312 99.4688 31.0312 99.8516C31.0312 100.238 31.3555 100.492 31.8438 100.492ZM31.6914 101.07C30.8828 101.07 30.3398 100.582 30.3398 99.8516C30.3398 99.1562 30.875 98.7188 31.8125 98.6641L32.9766 98.5977V98.2578C32.9766 97.7617 32.6484 97.4648 32.0859 97.4648C31.5625 97.4648 31.2344 97.7109 31.1484 98.1094H30.4922C30.5391 97.4062 31.1406 96.8672 32.1016 96.8672C33.0547 96.8672 33.6562 97.3828 33.6562 98.1914V101H33.0117V100.301H32.9961C32.7539 100.766 32.2383 101.07 31.6914 101.07ZM36.0586 101.07C35.0234 101.07 34.3203 100.242 34.3203 98.9688C34.3203 97.6953 35.0195 96.8672 36.043 96.8672C36.625 96.8672 37.0938 97.1523 37.3359 97.5977H37.3516V95.3633H38.0312V101H37.3828V100.312H37.3711C37.1094 100.781 36.6445 101.07 36.0586 101.07ZM36.1875 97.4648C35.4688 97.4648 35.0156 98.0508 35.0156 98.9688C35.0156 99.8906 35.4688 100.473 36.1875 100.473C36.8867 100.473 37.3555 99.8789 37.3555 98.9688C37.3555 98.0625 36.8867 97.4648 36.1875 97.4648ZM39.4141 102.121H38.8477L39.2266 100.133H39.9492L39.4141 102.121ZM42.9453 98.7422L44.7422 96.9375H45.5664L43.8047 98.6914L45.6211 101H44.832L43.3242 99.1094L42.9453 99.4688V101H42.2656V95.3633H42.9453V98.7422ZM47.5703 100.434C48.2773 100.434 48.75 99.8477 48.75 98.9531C48.75 98.0586 48.2773 97.4648 47.5703 97.4648C46.8711 97.4648 46.4141 98.043 46.4141 98.9531C46.4141 99.8633 46.8711 100.434 47.5703 100.434ZM47.5938 102.531C46.6992 102.531 45.9922 102.027 45.8789 101.336H46.5781C46.7109 101.707 47.1133 101.953 47.6211 101.953C48.3242 101.953 48.75 101.547 48.75 100.941V100.301H48.7344C48.4844 100.742 48.0039 101.031 47.4336 101.031C46.3984 101.031 45.7188 100.215 45.7188 98.9531C45.7188 97.6797 46.3984 96.8672 47.4492 96.8672C48.0234 96.8672 48.5 97.1484 48.7695 97.6211H48.7812V96.9375H49.4297V100.918C49.4297 101.887 48.7148 102.531 47.5938 102.531Z" fill="white"/>
<mask id="path-66-inside-22_302_833" fill="white">
<path d="M64.5 80H129V116H64.5V80Z"/>
</mask>
<path d="M64.5 80V79H63.5V80H64.5ZM64.5 81H129V79H64.5V81ZM65.5 116V80H63.5V116H65.5Z" fill="white" fill-opacity="0.2" mask="url(#path-66-inside-22_302_833)"/>
<path d="M96.9023 102.135C95.7656 102.135 94.8398 101.561 94.3184 100.535C93.9375 99.873 93.75 99.0117 93.75 97.9512C93.75 95.1152 94.957 93.4102 96.9609 93.4102C98.3672 93.4102 99.4453 94.2598 99.6855 95.5547H98.877C98.666 94.6934 97.8984 94.1191 96.9551 94.1191C95.4082 94.1191 94.5234 95.5605 94.5234 98.0684H94.541C94.8867 97.1191 95.8887 96.4629 97.0312 96.4629C98.6367 96.4629 99.8379 97.6582 99.8379 99.2578C99.8379 100.916 98.5957 102.135 96.9023 102.135ZM96.8965 101.42C98.0859 101.42 99.0234 100.477 99.0234 99.2812C99.0234 98.0684 98.127 97.1719 96.9023 97.1719C95.6953 97.1719 94.752 98.0742 94.752 99.2227C94.752 100.453 95.6836 101.42 96.8965 101.42Z" fill="white"/>
<mask id="path-69-inside-23_302_833" fill="white">
<path d="M129 80H193.5V116H129V80Z"/>
</mask>
<path d="M129 80V79H128V80H129ZM129 81H193.5V79H129V81ZM130 116V80H128V116H130Z" fill="white" fill-opacity="0.2" mask="url(#path-69-inside-23_302_833)"/>
<path d="M157.992 102V94.4062H157.969C157.781 94.5234 155.947 95.8125 155.701 95.9648V95.1094C155.936 94.9629 157.729 93.6973 157.98 93.5449H158.766V102H157.992ZM163.77 102.135C161.848 102.135 160.705 100.441 160.705 97.7695C160.705 95.1152 161.859 93.4102 163.77 93.4102C165.686 93.4102 166.828 95.1094 166.828 97.7637C166.828 100.436 165.691 102.135 163.77 102.135ZM163.77 101.432C165.199 101.432 166.025 100.008 166.025 97.7695C166.025 95.5488 165.188 94.1191 163.77 94.1191C162.357 94.1191 161.514 95.5605 161.514 97.7637C161.514 100.008 162.34 101.432 163.77 101.432Z" fill="white"/>
<mask id="path-72-inside-24_302_833" fill="white">
<path d="M193.5 80H258V116H193.5V80Z"/>
</mask>
<path d="M193.5 80V79H192.5V80H193.5ZM193.5 81H258V79H193.5V81ZM194.5 116V80H192.5V116H194.5Z" fill="white" fill-opacity="0.2" mask="url(#path-72-inside-24_302_833)"/>
<path d="M222.492 102V94.4062H222.469C222.281 94.5234 220.447 95.8125 220.201 95.9648V95.1094C220.436 94.9629 222.229 93.6973 222.48 93.5449H223.266V102H222.492ZM228.27 102.135C226.348 102.135 225.205 100.441 225.205 97.7695C225.205 95.1152 226.359 93.4102 228.27 93.4102C230.186 93.4102 231.328 95.1094 231.328 97.7637C231.328 100.436 230.191 102.135 228.27 102.135ZM228.27 101.432C229.699 101.432 230.525 100.008 230.525 97.7695C230.525 95.5488 229.688 94.1191 228.27 94.1191C226.857 94.1191 226.014 95.5605 226.014 97.7637C226.014 100.008 226.84 101.432 228.27 101.432Z" fill="white"/>
<mask id="path-75-inside-25_302_833" fill="white">
<path d="M258 80H322.5V116H258V80Z"/>
</mask>
<path d="M258 80V79H257V80H258ZM258 81H322.5V79H258V81ZM259 116V80H257V116H259Z" fill="white" fill-opacity="0.2" mask="url(#path-75-inside-25_302_833)"/>
<path d="M287.221 102V94.4062H287.197C287.01 94.5234 285.176 95.8125 284.93 95.9648V95.1094C285.164 94.9629 286.957 93.6973 287.209 93.5449H287.994V102H287.221ZM290.045 95.9121C290.057 94.4707 291.205 93.4102 292.752 93.4102C294.229 93.4102 295.383 94.4238 295.383 95.7188C295.383 96.6445 294.967 97.3418 293.561 98.8008L291.205 101.262V101.285H295.6V102H290.086V101.438L293.074 98.2793C294.281 97.0078 294.586 96.5039 294.586 95.7656C294.586 94.8398 293.766 94.1133 292.729 94.1133C291.645 94.1133 290.83 94.8809 290.818 95.9121V95.918H290.045V95.9121Z" fill="white"/>
<mask id="path-78-inside-26_302_833" fill="white">
<path d="M322.5 80H387V116H322.5V80Z"/>
</mask>
<path d="M322.5 80V79H321.5V80H322.5ZM322.5 81H387V79H322.5V81ZM323.5 116V80H321.5V116H323.5Z" fill="white" fill-opacity="0.2" mask="url(#path-78-inside-26_302_833)"/>
<path d="M348.469 95.9121C348.48 94.4707 349.629 93.4102 351.176 93.4102C352.652 93.4102 353.807 94.4238 353.807 95.7188C353.807 96.6445 353.391 97.3418 351.984 98.8008L349.629 101.262V101.285H354.023V102H348.51V101.438L351.498 98.2793C352.705 97.0078 353.01 96.5039 353.01 95.7656C353.01 94.8398 352.189 94.1133 351.152 94.1133C350.068 94.1133 349.254 94.8809 349.242 95.9121V95.918H348.469V95.9121ZM358.125 102.135C356.203 102.135 355.061 100.441 355.061 97.7695C355.061 95.1152 356.215 93.4102 358.125 93.4102C360.041 93.4102 361.184 95.1094 361.184 97.7637C361.184 100.436 360.047 102.135 358.125 102.135ZM358.125 101.432C359.555 101.432 360.381 100.008 360.381 97.7695C360.381 95.5488 359.543 94.1191 358.125 94.1191C356.713 94.1191 355.869 95.5605 355.869 97.7637C355.869 100.008 356.695 101.432 358.125 101.432Z" fill="white"/>
<mask id="path-81-inside-27_302_833" fill="white">
<path d="M387 80H451.5V116H387V80Z"/>
</mask>
<path d="M387 80V79H386V80H387ZM387 81H451.5V79H387V81ZM388 116V80H386V116H388Z" fill="white" fill-opacity="0.2" mask="url(#path-81-inside-27_302_833)"/>
<path d="M413.121 95.9121C413.133 94.4707 414.281 93.4102 415.828 93.4102C417.305 93.4102 418.459 94.4238 418.459 95.7188C418.459 96.6445 418.043 97.3418 416.637 98.8008L414.281 101.262V101.285H418.676V102H413.162V101.438L416.15 98.2793C417.357 97.0078 417.662 96.5039 417.662 95.7656C417.662 94.8398 416.842 94.1133 415.805 94.1133C414.721 94.1133 413.906 94.8809 413.895 95.9121V95.918H413.121V95.9121ZM422.648 102.135C421.102 102.135 419.918 101.162 419.812 99.7969H420.598C420.709 100.746 421.57 101.426 422.66 101.426C423.92 101.426 424.816 100.535 424.816 99.293C424.816 98.0566 423.92 97.1484 422.695 97.1484C421.84 97.1484 421.102 97.5527 420.709 98.2266H419.941L420.422 93.5449H425.109V94.2598H421.084L420.768 97.3828H420.791C421.201 96.8086 421.969 96.4512 422.824 96.4512C424.436 96.4512 425.619 97.6465 425.619 99.2754C425.619 100.945 424.377 102.135 422.648 102.135Z" fill="white"/>
<mask id="path-84-inside-28_302_833" fill="white">
<path d="M451.5 80H516V116H451.5V80Z"/>
</mask>
<path d="M451.5 80V79H450.5V80H451.5ZM451.5 81H516V79H451.5V81ZM452.5 116V80H450.5V116H452.5Z" fill="white" fill-opacity="0.2" mask="url(#path-84-inside-28_302_833)"/>
<path d="M479.145 97.9746V97.2949H480.129C481.236 97.2949 481.998 96.6152 481.998 95.6719C481.998 94.7578 481.307 94.1133 480.164 94.1133C479.115 94.1133 478.371 94.7461 478.283 95.6836H477.51C477.609 94.3242 478.676 93.4102 480.199 93.4102C481.688 93.4102 482.807 94.3184 482.807 95.5723C482.807 96.6328 482.121 97.3945 481.043 97.5879V97.6113C482.338 97.6875 483.17 98.4902 483.17 99.6855C483.17 101.115 481.893 102.135 480.246 102.135C478.541 102.135 477.387 101.162 477.334 99.8086H478.107C478.172 100.752 479.021 101.432 480.24 101.432C481.465 101.432 482.355 100.711 482.355 99.709C482.355 98.6309 481.523 97.9746 480.164 97.9746H479.145ZM487.289 102.135C485.742 102.135 484.559 101.162 484.453 99.7969H485.238C485.35 100.746 486.211 101.426 487.301 101.426C488.561 101.426 489.457 100.535 489.457 99.293C489.457 98.0566 488.561 97.1484 487.336 97.1484C486.48 97.1484 485.742 97.5527 485.35 98.2266H484.582L485.062 93.5449H489.75V94.2598H485.725L485.408 97.3828H485.432C485.842 96.8086 486.609 96.4512 487.465 96.4512C489.076 96.4512 490.26 97.6465 490.26 99.2754C490.26 100.945 489.018 102.135 487.289 102.135Z" fill="white"/>
<mask id="path-87-inside-29_302_833" fill="white">
<path d="M516 80H580.5V116H516V80Z"/>
</mask>
<path d="M516 80V79H515V80H516ZM516 81H580.5V79H516V81ZM517 116V80H515V116H517Z" fill="white" fill-opacity="0.2" mask="url(#path-87-inside-29_302_833)"/>
<path d="M544.74 102.135C543.193 102.135 542.01 101.162 541.904 99.7969H542.689C542.801 100.746 543.662 101.426 544.752 101.426C546.012 101.426 546.908 100.535 546.908 99.293C546.908 98.0566 546.012 97.1484 544.787 97.1484C543.932 97.1484 543.193 97.5527 542.801 98.2266H542.033L542.514 93.5449H547.201V94.2598H543.176L542.859 97.3828H542.883C543.293 96.8086 544.061 96.4512 544.916 96.4512C546.527 96.4512 547.711 97.6465 547.711 99.2754C547.711 100.945 546.469 102.135 544.74 102.135ZM551.725 102.135C549.803 102.135 548.66 100.441 548.66 97.7695C548.66 95.1152 549.814 93.4102 551.725 93.4102C553.641 93.4102 554.783 95.1094 554.783 97.7637C554.783 100.436 553.646 102.135 551.725 102.135ZM551.725 101.432C553.154 101.432 553.98 100.008 553.98 97.7695C553.98 95.5488 553.143 94.1191 551.725 94.1191C550.312 94.1191 549.469 95.5605 549.469 97.7637C549.469 100.008 550.295 101.432 551.725 101.432Z" fill="white"/>
<mask id="path-90-inside-30_302_833" fill="white">
<path d="M580.5 80H645V116H580.5V80Z"/>
</mask>
<path d="M580.5 80V79H579.5V80H580.5ZM580.5 81H645V79H580.5V81ZM581.5 116V80H579.5V116H581.5Z" fill="white" fill-opacity="0.2" mask="url(#path-90-inside-30_302_833)"/>
<path d="M607.342 102L611.262 94.2832V94.2598H606.557V93.5449H612.064V94.2949L608.191 102H607.342ZM616.002 102.135C614.455 102.135 613.271 101.162 613.166 99.7969H613.951C614.062 100.746 614.924 101.426 616.014 101.426C617.273 101.426 618.17 100.535 618.17 99.293C618.17 98.0566 617.273 97.1484 616.049 97.1484C615.193 97.1484 614.455 97.5527 614.062 98.2266H613.295L613.775 93.5449H618.463V94.2598H614.438L614.121 97.3828H614.145C614.555 96.8086 615.322 96.4512 616.178 96.4512C617.789 96.4512 618.973 97.6465 618.973 99.2754C618.973 100.945 617.73 102.135 616.002 102.135Z" fill="white"/>
</g>
<g clip-path="url(#clip4_302_833)">
<rect width="645" height="40" transform="translate(0 116)" fill="#86A2FF" fill-opacity="0.2"/>
<mask id="path-93-inside-31_302_833" fill="white">
<path d="M0 116H64.5V156H0V116Z"/>
</mask>
<path d="M0 116V115H-1V116H0ZM0 117H64.5V115H0V117ZM1 156V116H-1V156H1Z" fill="white" fill-opacity="0.2" mask="url(#path-93-inside-31_302_833)"/>
<path d="M13.2422 134H12.5469V128.363H13.2305L16.3164 132.789H16.3516V128.363H17.0469V134H16.3633L13.2773 129.59H13.2422V134ZM21.3711 129.938V134H20.7266V133.34H20.7109C20.4688 133.809 20.0469 134.07 19.4219 134.07C18.5352 134.07 18.0156 133.496 18.0156 132.574V129.938H18.6953V132.453C18.6953 133.113 19.0039 133.469 19.6328 133.469C20.293 133.469 20.6914 133.016 20.6914 132.324V129.938H21.3711ZM22.2539 134V129.938H22.8945V130.586H22.9102C23.1016 130.156 23.5156 129.867 24.0625 129.867C24.6172 129.867 25.0273 130.148 25.2031 130.641H25.2188C25.4453 130.156 25.9219 129.867 26.4922 129.867C27.2969 129.867 27.8164 130.391 27.8164 131.195V134H27.1367V131.352C27.1367 130.797 26.8281 130.469 26.293 130.469C25.7539 130.469 25.375 130.867 25.375 131.418V134H24.6953V131.277C24.6953 130.789 24.3672 130.469 23.8633 130.469C23.3242 130.469 22.9336 130.891 22.9336 131.453V134H22.2539ZM30.7031 134.07C30.1094 134.07 29.6445 133.781 29.3828 133.312H29.3672V134H28.7188V128.363H29.3984V130.617H29.4141C29.668 130.152 30.1406 129.867 30.7148 129.867C31.7383 129.867 32.4297 130.695 32.4297 131.969C32.4297 133.246 31.7422 134.07 30.7031 134.07ZM30.5703 130.465C29.8828 130.465 29.3945 131.066 29.3945 131.969C29.3945 132.875 29.8828 133.473 30.5703 133.473C31.2891 133.473 31.7344 132.898 31.7344 131.969C31.7344 131.047 31.2891 130.465 30.5703 130.465ZM34.75 130.457C34.1133 130.457 33.668 130.945 33.625 131.621H35.832C35.8164 130.941 35.3906 130.457 34.75 130.457ZM35.8164 132.836H36.4844C36.3672 133.547 35.6797 134.07 34.793 134.07C33.6289 134.07 32.9219 133.262 32.9219 131.984C32.9219 130.723 33.6406 129.867 34.7617 129.867C35.8594 129.867 36.5352 130.664 36.5352 131.895V132.152H33.6211V132.191C33.6211 132.969 34.0781 133.48 34.8086 133.48C35.3242 133.48 35.7031 133.219 35.8164 132.836ZM37.2227 134V129.938H37.8633V130.602H37.8789C38.0117 130.152 38.3867 129.867 38.8633 129.867C38.9805 129.867 39.082 129.887 39.1367 129.895V130.555C39.082 130.535 38.9375 130.516 38.7734 130.516C38.2461 130.516 37.9023 130.895 37.9023 131.469V134H37.2227ZM14.125 144.07C13 144.07 12.2422 143.262 12.2422 141.969C12.2422 140.672 13 139.867 14.125 139.867C15.2461 139.867 16.0039 140.672 16.0039 141.969C16.0039 143.262 15.2461 144.07 14.125 144.07ZM14.125 143.473C14.8438 143.473 15.3125 142.926 15.3125 141.969C15.3125 141.012 14.8438 140.465 14.125 140.465C13.4062 140.465 12.9336 141.012 12.9336 141.969C12.9336 142.926 13.4062 143.473 14.125 143.473ZM16.9102 144V140.496H16.3438V139.938H16.9102V139.484C16.9102 138.703 17.2734 138.332 18.0234 138.332C18.1758 138.332 18.3398 138.348 18.4375 138.363V138.914C18.3555 138.902 18.2422 138.891 18.1289 138.891C17.7617 138.891 17.5859 139.086 17.5859 139.488V139.938H18.418V140.496H17.5898V144H16.9102ZM22.1016 143.492C22.7422 143.492 23.2344 143.043 23.2344 142.457V142.125L22.1484 142.191C21.6016 142.227 21.2891 142.469 21.2891 142.852C21.2891 143.238 21.6133 143.492 22.1016 143.492ZM21.9492 144.07C21.1406 144.07 20.5977 143.582 20.5977 142.852C20.5977 142.156 21.1328 141.719 22.0703 141.664L23.2344 141.598V141.258C23.2344 140.762 22.9062 140.465 22.3438 140.465C21.8203 140.465 21.4922 140.711 21.4062 141.109H20.75C20.7969 140.406 21.3984 139.867 22.3594 139.867C23.3125 139.867 23.9141 140.383 23.9141 141.191V144H23.2695V143.301H23.2539C23.0117 143.766 22.4961 144.07 21.9492 144.07ZM26.2148 142.453H26.1992L25.2188 144H24.4648L25.8477 141.969L24.4883 139.938H25.2461L26.2227 141.461H26.2383L27.2031 139.938H27.9609L26.5898 141.941L27.9414 144H27.1875L26.2148 142.453ZM30.0859 140.457C29.4492 140.457 29.0039 140.945 28.9609 141.621H31.168C31.1523 140.941 30.7266 140.457 30.0859 140.457ZM31.1523 142.836H31.8203C31.7031 143.547 31.0156 144.07 30.1289 144.07C28.9648 144.07 28.2578 143.262 28.2578 141.984C28.2578 140.723 28.9766 139.867 30.0977 139.867C31.1953 139.867 31.8711 140.664 31.8711 141.895V142.152H28.957V142.191C28.957 142.969 29.4141 143.48 30.1445 143.48C30.6602 143.48 31.0391 143.219 31.1523 142.836ZM32.4883 141.059C32.4883 140.363 33.1094 139.867 34.0039 139.867C34.8438 139.867 35.4609 140.367 35.4922 141.055H34.8438C34.7969 140.664 34.4805 140.422 33.9805 140.422C33.4844 140.422 33.1562 140.668 33.1562 141.023C33.1562 141.305 33.3711 141.492 33.832 141.609L34.4609 141.762C35.2812 141.969 35.5781 142.266 35.5781 142.863C35.5781 143.57 34.9102 144.07 33.9609 144.07C33.0703 144.07 32.4492 143.586 32.3789 142.867H33.0586C33.1328 143.289 33.4531 143.516 34.0039 143.516C34.5547 143.516 34.8945 143.281 34.8945 142.914C34.8945 142.625 34.7266 142.469 34.2695 142.348L33.5547 142.164C32.8398 141.98 32.4883 141.613 32.4883 141.059Z" fill="white"/>
<mask id="path-96-inside-32_302_833" fill="white">
<path d="M64.5 116H129V156H64.5V116Z"/>
</mask>
<path d="M64.5 116V115H63.5V116H64.5ZM64.5 117H129V115H64.5V117ZM65.5 156V116H63.5V156H65.5Z" fill="white" fill-opacity="0.2" mask="url(#path-96-inside-32_302_833)"/>
<path d="M96.9023 140.135C95.7656 140.135 94.8398 139.561 94.3184 138.535C93.9375 137.873 93.75 137.012 93.75 135.951C93.75 133.115 94.957 131.41 96.9609 131.41C98.3672 131.41 99.4453 132.26 99.6855 133.555H98.877C98.666 132.693 97.8984 132.119 96.9551 132.119C95.4082 132.119 94.5234 133.561 94.5234 136.068H94.541C94.8867 135.119 95.8887 134.463 97.0312 134.463C98.6367 134.463 99.8379 135.658 99.8379 137.258C99.8379 138.916 98.5957 140.135 96.9023 140.135ZM96.8965 139.42C98.0859 139.42 99.0234 138.477 99.0234 137.281C99.0234 136.068 98.127 135.172 96.9023 135.172C95.6953 135.172 94.752 136.074 94.752 137.223C94.752 138.453 95.6836 139.42 96.8965 139.42Z" fill="white"/>
<mask id="path-99-inside-33_302_833" fill="white">
<path d="M129 116H193.5V156H129V116Z"/>
</mask>
<path d="M129 116V115H128V116H129ZM129 117H193.5V115H129V117ZM130 156V116H128V156H130Z" fill="white" fill-opacity="0.2" mask="url(#path-99-inside-33_302_833)"/>
<path d="M161.402 140.135C160.266 140.135 159.34 139.561 158.818 138.535C158.438 137.873 158.25 137.012 158.25 135.951C158.25 133.115 159.457 131.41 161.461 131.41C162.867 131.41 163.945 132.26 164.186 133.555H163.377C163.166 132.693 162.398 132.119 161.455 132.119C159.908 132.119 159.023 133.561 159.023 136.068H159.041C159.387 135.119 160.389 134.463 161.531 134.463C163.137 134.463 164.338 135.658 164.338 137.258C164.338 138.916 163.096 140.135 161.402 140.135ZM161.396 139.42C162.586 139.42 163.523 138.477 163.523 137.281C163.523 136.068 162.627 135.172 161.402 135.172C160.195 135.172 159.252 136.074 159.252 137.223C159.252 138.453 160.184 139.42 161.396 139.42Z" fill="white"/>
<mask id="path-102-inside-34_302_833" fill="white">
<path d="M193.5 116H258V156H193.5V116Z"/>
</mask>
<path d="M193.5 116V115H192.5V116H193.5ZM193.5 117H258V115H193.5V117ZM194.5 156V116H192.5V156H194.5Z" fill="white" fill-opacity="0.2" mask="url(#path-102-inside-34_302_833)"/>
<path d="M225.902 140.135C224.766 140.135 223.84 139.561 223.318 138.535C222.938 137.873 222.75 137.012 222.75 135.951C222.75 133.115 223.957 131.41 225.961 131.41C227.367 131.41 228.445 132.26 228.686 133.555H227.877C227.666 132.693 226.898 132.119 225.955 132.119C224.408 132.119 223.523 133.561 223.523 136.068H223.541C223.887 135.119 224.889 134.463 226.031 134.463C227.637 134.463 228.838 135.658 228.838 137.258C228.838 138.916 227.596 140.135 225.902 140.135ZM225.896 139.42C227.086 139.42 228.023 138.477 228.023 137.281C228.023 136.068 227.127 135.172 225.902 135.172C224.695 135.172 223.752 136.074 223.752 137.223C223.752 138.453 224.684 139.42 225.896 139.42Z" fill="white"/>
<mask id="path-105-inside-35_302_833" fill="white">
<path d="M258 116H322.5V156H258V116Z"/>
</mask>
<path d="M258 116V115H257V116H258ZM258 117H322.5V115H258V117ZM259 156V116H257V156H259Z" fill="white" fill-opacity="0.2" mask="url(#path-105-inside-35_302_833)"/>
<path d="M290.402 140.135C289.266 140.135 288.34 139.561 287.818 138.535C287.438 137.873 287.25 137.012 287.25 135.951C287.25 133.115 288.457 131.41 290.461 131.41C291.867 131.41 292.945 132.26 293.186 133.555H292.377C292.166 132.693 291.398 132.119 290.455 132.119C288.908 132.119 288.023 133.561 288.023 136.068H288.041C288.387 135.119 289.389 134.463 290.531 134.463C292.137 134.463 293.338 135.658 293.338 137.258C293.338 138.916 292.096 140.135 290.402 140.135ZM290.396 139.42C291.586 139.42 292.523 138.477 292.523 137.281C292.523 136.068 291.627 135.172 290.402 135.172C289.195 135.172 288.252 136.074 288.252 137.223C288.252 138.453 289.184 139.42 290.396 139.42Z" fill="white"/>
<mask id="path-108-inside-36_302_833" fill="white">
<path d="M322.5 116H387V156H322.5V116Z"/>
</mask>
<path d="M322.5 116V115H321.5V116H322.5ZM322.5 117H387V115H322.5V117ZM323.5 156V116H321.5V156H323.5Z" fill="white" fill-opacity="0.2" mask="url(#path-108-inside-36_302_833)"/>
<path d="M354.902 140.135C353.766 140.135 352.84 139.561 352.318 138.535C351.938 137.873 351.75 137.012 351.75 135.951C351.75 133.115 352.957 131.41 354.961 131.41C356.367 131.41 357.445 132.26 357.686 133.555H356.877C356.666 132.693 355.898 132.119 354.955 132.119C353.408 132.119 352.523 133.561 352.523 136.068H352.541C352.887 135.119 353.889 134.463 355.031 134.463C356.637 134.463 357.838 135.658 357.838 137.258C357.838 138.916 356.596 140.135 354.902 140.135ZM354.896 139.42C356.086 139.42 357.023 138.477 357.023 137.281C357.023 136.068 356.127 135.172 354.902 135.172C353.695 135.172 352.752 136.074 352.752 137.223C352.752 138.453 353.684 139.42 354.896 139.42Z" fill="white"/>
<mask id="path-111-inside-37_302_833" fill="white">
<path d="M387 116H451.5V156H387V116Z"/>
</mask>
<path d="M387 116V115H386V116H387ZM387 117H451.5V115H387V117ZM388 156V116H386V156H388Z" fill="white" fill-opacity="0.2" mask="url(#path-111-inside-37_302_833)"/>
<path d="M419.402 140.135C418.266 140.135 417.34 139.561 416.818 138.535C416.438 137.873 416.25 137.012 416.25 135.951C416.25 133.115 417.457 131.41 419.461 131.41C420.867 131.41 421.945 132.26 422.186 133.555H421.377C421.166 132.693 420.398 132.119 419.455 132.119C417.908 132.119 417.023 133.561 417.023 136.068H417.041C417.387 135.119 418.389 134.463 419.531 134.463C421.137 134.463 422.338 135.658 422.338 137.258C422.338 138.916 421.096 140.135 419.402 140.135ZM419.396 139.42C420.586 139.42 421.523 138.477 421.523 137.281C421.523 136.068 420.627 135.172 419.402 135.172C418.195 135.172 417.252 136.074 417.252 137.223C417.252 138.453 418.184 139.42 419.396 139.42Z" fill="white"/>
<mask id="path-114-inside-38_302_833" fill="white">
<path d="M451.5 116H516V156H451.5V116Z"/>
</mask>
<path d="M451.5 116V115H450.5V116H451.5ZM451.5 117H516V115H451.5V117ZM452.5 156V116H450.5V156H452.5Z" fill="white" fill-opacity="0.2" mask="url(#path-114-inside-38_302_833)"/>
<path d="M483.902 140.135C482.766 140.135 481.84 139.561 481.318 138.535C480.938 137.873 480.75 137.012 480.75 135.951C480.75 133.115 481.957 131.41 483.961 131.41C485.367 131.41 486.445 132.26 486.686 133.555H485.877C485.666 132.693 484.898 132.119 483.955 132.119C482.408 132.119 481.523 133.561 481.523 136.068H481.541C481.887 135.119 482.889 134.463 484.031 134.463C485.637 134.463 486.838 135.658 486.838 137.258C486.838 138.916 485.596 140.135 483.902 140.135ZM483.896 139.42C485.086 139.42 486.023 138.477 486.023 137.281C486.023 136.068 485.127 135.172 483.902 135.172C482.695 135.172 481.752 136.074 481.752 137.223C481.752 138.453 482.684 139.42 483.896 139.42Z" fill="white"/>
<mask id="path-117-inside-39_302_833" fill="white">
<path d="M516 116H580.5V156H516V116Z"/>
</mask>
<path d="M516 116V115H515V116H516ZM516 117H580.5V115H516V117ZM517 156V116H515V156H517Z" fill="white" fill-opacity="0.2" mask="url(#path-117-inside-39_302_833)"/>
<path d="M548.402 140.135C547.266 140.135 546.34 139.561 545.818 138.535C545.438 137.873 545.25 137.012 545.25 135.951C545.25 133.115 546.457 131.41 548.461 131.41C549.867 131.41 550.945 132.26 551.186 133.555H550.377C550.166 132.693 549.398 132.119 548.455 132.119C546.908 132.119 546.023 133.561 546.023 136.068H546.041C546.387 135.119 547.389 134.463 548.531 134.463C550.137 134.463 551.338 135.658 551.338 137.258C551.338 138.916 550.096 140.135 548.402 140.135ZM548.396 139.42C549.586 139.42 550.523 138.477 550.523 137.281C550.523 136.068 549.627 135.172 548.402 135.172C547.195 135.172 546.252 136.074 546.252 137.223C546.252 138.453 547.184 139.42 548.396 139.42Z" fill="white"/>
<mask id="path-120-inside-40_302_833" fill="white">
<path d="M580.5 116H645V156H580.5V116Z"/>
</mask>
<path d="M580.5 116V115H579.5V116H580.5ZM580.5 117H645V115H580.5V117ZM581.5 156V116H579.5V156H581.5Z" fill="white" fill-opacity="0.2" mask="url(#path-120-inside-40_302_833)"/>
<path d="M612.902 140.135C611.766 140.135 610.84 139.561 610.318 138.535C609.938 137.873 609.75 137.012 609.75 135.951C609.75 133.115 610.957 131.41 612.961 131.41C614.367 131.41 615.445 132.26 615.686 133.555H614.877C614.666 132.693 613.898 132.119 612.955 132.119C611.408 132.119 610.523 133.561 610.523 136.068H610.541C610.887 135.119 611.889 134.463 613.031 134.463C614.637 134.463 615.838 135.658 615.838 137.258C615.838 138.916 614.596 140.135 612.902 140.135ZM612.896 139.42C614.086 139.42 615.023 138.477 615.023 137.281C615.023 136.068 614.127 135.172 612.902 135.172C611.695 135.172 610.752 136.074 610.752 137.223C610.752 138.453 611.684 139.42 612.896 139.42Z" fill="white"/>
</g>
</g>
<rect x="0.5" y="0.5" width="644" height="155" rx="3.5" stroke="white" stroke-opacity="0.2"/>
<defs>
<clipPath id="clip0_302_833">
<rect width="645" height="156" rx="4" fill="white"/>
</clipPath>
<clipPath id="clip1_302_833">
<rect width="645" height="40" fill="white"/>
</clipPath>
<clipPath id="clip2_302_833">
<rect width="645" height="40" fill="white" transform="translate(0 40)"/>
</clipPath>
<clipPath id="clip3_302_833">
<rect width="645" height="36" fill="white" transform="translate(0 80)"/>
</clipPath>
<clipPath id="clip4_302_833">
<rect width="645" height="40" fill="white" transform="translate(0 116)"/>
</clipPath>
</defs>
</svg>
