<svg width="645" height="152" viewBox="0 0 645 152" fill="none" xmlns="http://www.w3.org/2000/svg">
<g clip-path="url(#clip0_302_839)">
<g clip-path="url(#clip1_302_839)">
<rect width="645" height="40" fill="#86A2FF" fill-opacity="0.2"/>
<mask id="path-3-inside-1_302_839" fill="white">
<path d="M0 0H71.6667V40H0V0Z"/>
</mask>
<path d="M0 0V-1H-1V0H0ZM0 1H71.6667V-1H0V1ZM1 40V0H-1V40H1Z" fill="white" fill-opacity="0.2" mask="url(#path-3-inside-1_302_839)"/>
<path d="M18.1016 23H17.4453V18.6562H17.418L15.6211 22.9609H15.0273L13.2305 18.6562H13.2031V23H12.5469V17.3633H13.3633L15.3086 22.0664H15.3398L17.2852 17.3633H18.1016V23ZM20.7734 23.0703C19.6484 23.0703 18.8906 22.2617 18.8906 20.9688C18.8906 19.6719 19.6484 18.8672 20.7734 18.8672C21.8945 18.8672 22.6523 19.6719 22.6523 20.9688C22.6523 22.2617 21.8945 23.0703 20.7734 23.0703ZM20.7734 22.4727C21.4922 22.4727 21.9609 21.9258 21.9609 20.9688C21.9609 20.0117 21.4922 19.4648 20.7734 19.4648C20.0547 19.4648 19.582 20.0117 19.582 20.9688C19.582 21.9258 20.0547 22.4727 20.7734 22.4727ZM24.8789 23.0703C23.8438 23.0703 23.1406 22.2422 23.1406 20.9688C23.1406 19.6953 23.8398 18.8672 24.8633 18.8672C25.4453 18.8672 25.9141 19.1523 26.1562 19.5977H26.1719V17.3633H26.8516V23H26.2031V22.3125H26.1914C25.9297 22.7812 25.4648 23.0703 24.8789 23.0703ZM25.0078 19.4648C24.2891 19.4648 23.8359 20.0508 23.8359 20.9688C23.8359 21.8906 24.2891 22.4727 25.0078 22.4727C25.707 22.4727 26.1758 21.8789 26.1758 20.9688C26.1758 20.0625 25.707 19.4648 25.0078 19.4648ZM29.3984 19.457C28.7617 19.457 28.3164 19.9453 28.2734 20.6211H30.4805C30.4648 19.9414 30.0391 19.457 29.3984 19.457ZM30.4648 21.8359H31.1328C31.0156 22.5469 30.3281 23.0703 29.4414 23.0703C28.2773 23.0703 27.5703 22.2617 27.5703 20.9844C27.5703 19.7227 28.2891 18.8672 29.4102 18.8672C30.5078 18.8672 31.1836 19.6641 31.1836 20.8945V21.1523H28.2695V21.1914C28.2695 21.9688 28.7266 22.4805 29.457 22.4805C29.9727 22.4805 30.3516 22.2188 30.4648 21.8359ZM31.9062 23V17.3633H32.5859V23H31.9062Z" fill="white"/>
<mask id="path-6-inside-2_302_839" fill="white">
<path d="M71.6667 0H143.333V40H71.6667V0Z"/>
</mask>
<path d="M71.6667 0V-1H70.6667V0H71.6667ZM71.6667 1H143.333V-1H71.6667V1ZM72.6667 40V0H70.6667V40H72.6667Z" fill="white" fill-opacity="0.2" mask="url(#path-6-inside-2_302_839)"/>
<path d="M90.3399 16.4492H91.0469C91.1133 17.0586 91.6914 17.4609 92.4961 17.4609C93.2578 17.4609 93.8125 17.0586 93.8125 16.5039C93.8125 16.0273 93.4805 15.7344 92.7227 15.5391L92 15.3516C90.961 15.0859 90.5 14.6289 90.5 13.8633C90.5 12.9258 91.3203 12.2695 92.4922 12.2695C93.6133 12.2695 94.4258 12.9336 94.4571 13.8789H93.7539C93.6914 13.2734 93.2031 12.9023 92.4688 12.9023C91.7383 12.9023 91.2305 13.2812 91.2305 13.832C91.2305 14.2578 91.543 14.5117 92.3086 14.7109L92.8985 14.8672C94.0664 15.1602 94.5391 15.6094 94.5391 16.418C94.5391 17.4492 93.7266 18.0938 92.4297 18.0938C91.2344 18.0938 90.4063 17.4453 90.3399 16.4492ZM96.0625 12.9883V15.1484H97.4102C98.1328 15.1484 98.543 14.7578 98.543 14.0664C98.543 13.3906 98.1055 12.9883 97.3789 12.9883H96.0625ZM96.0625 15.7695V18H95.3594V12.3633H97.4727C98.5586 12.3633 99.2696 13.0273 99.2696 14.043C99.2696 14.8281 98.8438 15.4375 98.1367 15.6602L99.4414 18H98.6172L97.4102 15.7695H96.0625ZM102.285 18H101.582V12.9961H99.8047V12.3633H104.063V12.9961H102.285V18ZM104.734 18V12.3633H105.414V14.5859H105.43C105.656 14.1328 106.102 13.8672 106.719 13.8672C107.609 13.8672 108.148 14.4688 108.148 15.375V18H107.469V15.5C107.469 14.8555 107.145 14.4688 106.508 14.4688C105.832 14.4688 105.414 14.9297 105.414 15.6328V18H104.734ZM110.27 18V13.1094H110.254L108.762 14.1836V13.4414L110.262 12.3633H110.949V18H110.27ZM113.527 15.3984V14.8047H114.203C114.852 14.8047 115.305 14.3867 115.305 13.8164C115.305 13.2578 114.926 12.8789 114.211 12.8789C113.563 12.8789 113.133 13.25 113.07 13.8398H112.395C112.473 12.8828 113.184 12.2695 114.242 12.2695C115.25 12.2695 116.012 12.875 116.012 13.7227C116.012 14.4297 115.559 14.9375 114.855 15.0625V15.0781C115.707 15.1289 116.254 15.6562 116.254 16.4492C116.254 17.418 115.371 18.0938 114.266 18.0938C113.086 18.0938 112.332 17.4414 112.281 16.5078H112.957C113.02 17.0859 113.5 17.4844 114.258 17.4844C115.004 17.4844 115.539 17.0625 115.539 16.4727C115.539 15.8086 115.039 15.3984 114.234 15.3984H113.527ZM119.086 18.0938C117.77 18.0938 117.008 16.9609 117.008 15.1797C117.008 13.4141 117.777 12.2695 119.086 12.2695C120.395 12.2695 121.156 13.4062 121.156 15.1758C121.156 16.957 120.398 18.0938 119.086 18.0938ZM119.086 17.4805C119.965 17.4805 120.449 16.5859 120.449 15.1797C120.449 13.793 119.957 12.8867 119.086 12.8867C118.215 12.8867 117.715 13.8008 117.715 15.1758C117.715 16.582 118.203 17.4805 119.086 17.4805ZM124.504 16.0312H121.941V15.3984H124.504V16.0312ZM98.6563 23.9883C98.6563 23.0039 99.4531 22.2695 100.516 22.2695C101.523 22.2695 102.316 22.9531 102.316 23.8164C102.316 24.4453 102.031 24.9141 101.09 25.8867L99.6641 27.3594V27.375H102.41V28H98.6914V27.5156L100.676 25.4258C101.434 24.6289 101.613 24.3281 101.613 23.8594C101.613 23.3164 101.117 22.8828 100.496 22.8828C99.836 22.8828 99.336 23.3594 99.336 23.9883V23.9922H98.6563V23.9883ZM103.547 28L106.098 23.0039V22.9883H103.063V22.3633H106.793V23.0156L104.285 28H103.547ZM109.492 28.0938C108.176 28.0938 107.414 26.9609 107.414 25.1797C107.414 23.4141 108.184 22.2695 109.492 22.2695C110.801 22.2695 111.563 23.4062 111.563 25.1758C111.563 26.957 110.805 28.0938 109.492 28.0938ZM109.492 27.4805C110.371 27.4805 110.855 26.5859 110.855 25.1797C110.855 23.793 110.363 22.8867 109.492 22.8867C108.621 22.8867 108.121 23.8008 108.121 25.1758C108.121 26.582 108.609 27.4805 109.492 27.4805ZM114.344 28.0938C113.027 28.0938 112.266 26.9609 112.266 25.1797C112.266 23.4141 113.035 22.2695 114.344 22.2695C115.652 22.2695 116.414 23.4062 116.414 25.1758C116.414 26.957 115.656 28.0938 114.344 28.0938ZM114.344 27.4805C115.223 27.4805 115.707 26.5859 115.707 25.1797C115.707 23.793 115.215 22.8867 114.344 22.8867C113.473 22.8867 112.973 23.8008 112.973 25.1758C112.973 26.582 113.461 27.4805 114.344 27.4805Z" fill="white"/>
<mask id="path-9-inside-3_302_839" fill="white">
<path d="M143.333 0H215V40H143.333V0Z"/>
</mask>
<path d="M143.333 0V-1H142.333V0H143.333ZM143.333 1H215V-1H143.333V1ZM144.333 40V0H142.333V40H144.333Z" fill="white" fill-opacity="0.2" mask="url(#path-9-inside-3_302_839)"/>
<path d="M162.006 16.4492H162.713C162.78 17.0586 163.358 17.4609 164.163 17.4609C164.924 17.4609 165.479 17.0586 165.479 16.5039C165.479 16.0273 165.147 15.7344 164.389 15.5391L163.667 15.3516C162.628 15.0859 162.167 14.6289 162.167 13.8633C162.167 12.9258 162.987 12.2695 164.159 12.2695C165.28 12.2695 166.092 12.9336 166.124 13.8789H165.42C165.358 13.2734 164.87 12.9023 164.135 12.9023C163.405 12.9023 162.897 13.2812 162.897 13.832C162.897 14.2578 163.21 14.5117 163.975 14.7109L164.565 14.8672C165.733 15.1602 166.206 15.6094 166.206 16.418C166.206 17.4492 165.393 18.0938 164.096 18.0938C162.901 18.0938 162.073 17.4453 162.006 16.4492ZM167.729 12.9883V15.1484H169.077C169.799 15.1484 170.21 14.7578 170.21 14.0664C170.21 13.3906 169.772 12.9883 169.045 12.9883H167.729ZM167.729 15.7695V18H167.026V12.3633H169.139C170.225 12.3633 170.936 13.0273 170.936 14.043C170.936 14.8281 170.51 15.4375 169.803 15.6602L171.108 18H170.284L169.077 15.7695H167.729ZM173.952 18H173.249V12.9961H171.471V12.3633H175.729V12.9961H173.952V18ZM176.401 18V12.3633H177.081V14.5859H177.096C177.323 14.1328 177.768 13.8672 178.385 13.8672C179.276 13.8672 179.815 14.4688 179.815 15.375V18H179.135V15.5C179.135 14.8555 178.811 14.4688 178.174 14.4688C177.499 14.4688 177.081 14.9297 177.081 15.6328V18H176.401ZM181.936 18V13.1094H181.92L180.428 14.1836V13.4414L181.928 12.3633H182.616V18H181.936ZM185.194 15.3984V14.8047H185.87C186.518 14.8047 186.971 14.3867 186.971 13.8164C186.971 13.2578 186.592 12.8789 185.878 12.8789C185.229 12.8789 184.799 13.25 184.737 13.8398H184.061C184.139 12.8828 184.85 12.2695 185.909 12.2695C186.917 12.2695 187.678 12.875 187.678 13.7227C187.678 14.4297 187.225 14.9375 186.522 15.0625V15.0781C187.374 15.1289 187.92 15.6562 187.92 16.4492C187.92 17.418 187.038 18.0938 185.932 18.0938C184.753 18.0938 183.999 17.4414 183.948 16.5078H184.624C184.686 17.0859 185.167 17.4844 185.924 17.4844C186.67 17.4844 187.206 17.0625 187.206 16.4727C187.206 15.8086 186.706 15.3984 185.901 15.3984H185.194ZM190.753 18.0938C189.436 18.0938 188.674 16.9609 188.674 15.1797C188.674 13.4141 189.444 12.2695 190.753 12.2695C192.061 12.2695 192.823 13.4062 192.823 15.1758C192.823 16.957 192.065 18.0938 190.753 18.0938ZM190.753 17.4805C191.631 17.4805 192.116 16.5859 192.116 15.1797C192.116 13.793 191.624 12.8867 190.753 12.8867C189.881 12.8867 189.381 13.8008 189.381 15.1758C189.381 16.582 189.87 17.4805 190.753 17.4805ZM196.17 16.0312H193.608V15.3984H196.17V16.0312ZM171.78 25.3984V24.8047H172.456C173.104 24.8047 173.557 24.3867 173.557 23.8164C173.557 23.2578 173.178 22.8789 172.463 22.8789C171.815 22.8789 171.385 23.25 171.323 23.8398H170.647C170.725 22.8828 171.436 22.2695 172.495 22.2695C173.503 22.2695 174.264 22.875 174.264 23.7227C174.264 24.4297 173.811 24.9375 173.108 25.0625V25.0781C173.96 25.1289 174.506 25.6562 174.506 26.4492C174.506 27.418 173.624 28.0938 172.518 28.0938C171.338 28.0938 170.585 27.4414 170.534 26.5078H171.21C171.272 27.0859 171.753 27.4844 172.51 27.4844C173.256 27.4844 173.792 27.0625 173.792 26.4727C173.792 25.8086 173.292 25.3984 172.487 25.3984H171.78ZM176.803 28V23.1094H176.788L175.295 24.1836V23.4414L176.795 22.3633H177.483V28H176.803ZM180.885 28.0938C179.569 28.0938 178.807 26.9609 178.807 25.1797C178.807 23.4141 179.577 22.2695 180.885 22.2695C182.194 22.2695 182.956 23.4062 182.956 25.1758C182.956 26.957 182.198 28.0938 180.885 28.0938ZM180.885 27.4805C181.764 27.4805 182.249 26.5859 182.249 25.1797C182.249 23.793 181.756 22.8867 180.885 22.8867C180.014 22.8867 179.514 23.8008 179.514 25.1758C179.514 26.582 180.003 27.4805 180.885 27.4805ZM185.737 28.0938C184.42 28.0938 183.659 26.9609 183.659 25.1797C183.659 23.4141 184.428 22.2695 185.737 22.2695C187.045 22.2695 187.807 23.4062 187.807 25.1758C187.807 26.957 187.049 28.0938 185.737 28.0938ZM185.737 27.4805C186.616 27.4805 187.1 26.5859 187.1 25.1797C187.1 23.793 186.608 22.8867 185.737 22.8867C184.866 22.8867 184.366 23.8008 184.366 25.1758C184.366 26.582 184.854 27.4805 185.737 27.4805Z" fill="white"/>
<mask id="path-12-inside-4_302_839" fill="white">
<path d="M215 0H286.667V40H215V0Z"/>
</mask>
<path d="M215 0V-1H214V0H215ZM215 1H286.667V-1H215V1ZM216 40V0H214V40H216Z" fill="white" fill-opacity="0.2" mask="url(#path-12-inside-4_302_839)"/>
<path d="M233.732 16.4492H234.439C234.505 17.0586 235.083 17.4609 235.888 17.4609C236.65 17.4609 237.204 17.0586 237.204 16.5039C237.204 16.0273 236.872 15.7344 236.115 15.5391L235.392 15.3516C234.353 15.0859 233.892 14.6289 233.892 13.8633C233.892 12.9258 234.712 12.2695 235.884 12.2695C237.005 12.2695 237.818 12.9336 237.849 13.8789H237.146C237.083 13.2734 236.595 12.9023 235.861 12.9023C235.13 12.9023 234.622 13.2812 234.622 13.832C234.622 14.2578 234.935 14.5117 235.701 14.7109L236.29 14.8672C237.458 15.1602 237.931 15.6094 237.931 16.418C237.931 17.4492 237.118 18.0938 235.822 18.0938C234.626 18.0938 233.798 17.4453 233.732 16.4492ZM239.454 12.9883V15.1484H240.802C241.525 15.1484 241.935 14.7578 241.935 14.0664C241.935 13.3906 241.497 12.9883 240.771 12.9883H239.454ZM239.454 15.7695V18H238.751V12.3633H240.865C241.951 12.3633 242.661 13.0273 242.661 14.043C242.661 14.8281 242.236 15.4375 241.529 15.6602L242.833 18H242.009L240.802 15.7695H239.454ZM245.677 18H244.974V12.9961H243.197V12.3633H247.454V12.9961H245.677V18ZM248.126 18V12.3633H248.806V14.5859H248.822C249.048 14.1328 249.493 13.8672 250.111 13.8672C251.001 13.8672 251.54 14.4688 251.54 15.375V18H250.861V15.5C250.861 14.8555 250.536 14.4688 249.9 14.4688C249.224 14.4688 248.806 14.9297 248.806 15.6328V18H248.126ZM253.661 18V13.1094H253.646L252.154 14.1836V13.4414L253.654 12.3633H254.341V18H253.661ZM257.81 18.0977C256.966 18.0977 256.294 17.6406 255.947 16.8281C255.759 16.3945 255.669 15.8867 255.669 15.2773C255.669 13.3789 256.478 12.2656 257.857 12.2656C258.814 12.2656 259.548 12.8398 259.728 13.7266H259.013C258.861 13.2148 258.408 12.8867 257.849 12.8867C256.908 12.8867 256.372 13.7227 256.349 15.2227H256.361C256.615 14.6719 257.236 14.3086 257.935 14.3086C259.009 14.3086 259.806 15.1016 259.806 16.1719C259.806 17.2852 258.966 18.0977 257.81 18.0977ZM257.802 17.4727C258.521 17.4727 259.091 16.9062 259.091 16.1953C259.091 15.457 258.56 14.9258 257.814 14.9258C257.068 14.9258 256.517 15.457 256.517 16.1758C256.517 16.8984 257.079 17.4727 257.802 17.4727ZM262.497 18.0938C261.419 18.0938 260.622 17.4219 260.564 16.4609H261.255C261.318 17.0625 261.829 17.4766 262.505 17.4766C263.271 17.4766 263.802 16.9453 263.802 16.1875C263.802 15.4297 263.267 14.8867 262.517 14.8867C261.99 14.8867 261.54 15.125 261.31 15.5195H260.65L260.958 12.3633H264.185V12.9883H261.536L261.365 14.8242H261.38C261.634 14.4844 262.103 14.2812 262.642 14.2812C263.724 14.2812 264.505 15.0742 264.505 16.168C264.505 17.3008 263.673 18.0938 262.497 18.0938ZM267.779 16.0312H265.216V15.3984H267.779V16.0312ZM242.036 23.9883C242.036 23.0039 242.833 22.2695 243.896 22.2695C244.904 22.2695 245.697 22.9531 245.697 23.8164C245.697 24.4453 245.411 24.9141 244.47 25.8867L243.044 27.3594V27.375H245.79V28H242.072V27.5156L244.056 25.4258C244.814 24.6289 244.993 24.3281 244.993 23.8594C244.993 23.3164 244.497 22.8828 243.876 22.8828C243.216 22.8828 242.716 23.3594 242.716 23.9883V23.9922H242.036V23.9883ZM246.927 28L249.478 23.0039V22.9883H246.443V22.3633H250.173V23.0156L247.665 28H246.927ZM252.915 28.0938C251.837 28.0938 251.04 27.4219 250.982 26.4609H251.673C251.736 27.0625 252.247 27.4766 252.923 27.4766C253.689 27.4766 254.22 26.9453 254.22 26.1875C254.22 25.4297 253.685 24.8867 252.935 24.8867C252.408 24.8867 251.958 25.125 251.728 25.5195H251.068L251.376 22.3633H254.603V22.9883H251.954L251.783 24.8242H251.798C252.052 24.4844 252.521 24.2812 253.06 24.2812C254.142 24.2812 254.923 25.0742 254.923 26.168C254.923 27.3008 254.091 28.0938 252.915 28.0938ZM257.63 28.0938C256.314 28.0938 255.552 26.9609 255.552 25.1797C255.552 23.4141 256.322 22.2695 257.63 22.2695C258.939 22.2695 259.701 23.4062 259.701 25.1758C259.701 26.957 258.943 28.0938 257.63 28.0938ZM257.63 27.4805C258.509 27.4805 258.993 26.5859 258.993 25.1797C258.993 23.793 258.501 22.8867 257.63 22.8867C256.759 22.8867 256.259 23.8008 256.259 25.1758C256.259 26.582 256.747 27.4805 257.63 27.4805Z" fill="white"/>
<mask id="path-15-inside-5_302_839" fill="white">
<path d="M286.667 0H358.333V40H286.667V0Z"/>
</mask>
<path d="M286.667 0V-1H285.667V0H286.667ZM286.667 1H358.333V-1H286.667V1ZM287.667 40V0H285.667V40H287.667Z" fill="white" fill-opacity="0.2" mask="url(#path-15-inside-5_302_839)"/>
<path d="M305.559 16.4492H306.266C306.332 17.0586 306.91 17.4609 307.715 17.4609C308.477 17.4609 309.031 17.0586 309.031 16.5039C309.031 16.0273 308.699 15.7344 307.941 15.5391L307.219 15.3516C306.18 15.0859 305.719 14.6289 305.719 13.8633C305.719 12.9258 306.539 12.2695 307.711 12.2695C308.832 12.2695 309.644 12.9336 309.676 13.8789H308.973C308.91 13.2734 308.422 12.9023 307.687 12.9023C306.957 12.9023 306.449 13.2812 306.449 13.832C306.449 14.2578 306.762 14.5117 307.527 14.7109L308.117 14.8672C309.285 15.1602 309.758 15.6094 309.758 16.418C309.758 17.4492 308.945 18.0938 307.648 18.0938C306.453 18.0938 305.625 17.4453 305.559 16.4492ZM311.281 12.9883V15.1484H312.629C313.352 15.1484 313.762 14.7578 313.762 14.0664C313.762 13.3906 313.324 12.9883 312.598 12.9883H311.281ZM311.281 15.7695V18H310.578V12.3633H312.691C313.777 12.3633 314.488 13.0273 314.488 14.043C314.488 14.8281 314.062 15.4375 313.355 15.6602L314.66 18H313.836L312.629 15.7695H311.281ZM317.504 18H316.801V12.9961H315.023V12.3633H319.281V12.9961H317.504V18ZM319.953 18V12.3633H320.633V14.5859H320.648C320.875 14.1328 321.32 13.8672 321.937 13.8672C322.828 13.8672 323.367 14.4688 323.367 15.375V18H322.687V15.5C322.687 14.8555 322.363 14.4688 321.727 14.4688C321.051 14.4688 320.633 14.9297 320.633 15.6328V18H319.953ZM325.488 18V13.1094H325.473L323.98 14.1836V13.4414L325.48 12.3633H326.168V18H325.488ZM327.922 18L330.473 13.0039V12.9883H327.437V12.3633H331.168V13.0156L328.66 18H327.922ZM333.867 18.0938C332.551 18.0938 331.789 16.9609 331.789 15.1797C331.789 13.4141 332.559 12.2695 333.867 12.2695C335.176 12.2695 335.937 13.4062 335.937 15.1758C335.937 16.957 335.18 18.0938 333.867 18.0938ZM333.867 17.4805C334.746 17.4805 335.23 16.5859 335.23 15.1797C335.23 13.793 334.738 12.8867 333.867 12.8867C332.996 12.8867 332.496 13.8008 332.496 15.1758C332.496 16.582 332.984 17.4805 333.867 17.4805ZM339.285 16.0312H336.723V15.3984H339.285V16.0312ZM313.656 23.9883C313.656 23.0039 314.453 22.2695 315.516 22.2695C316.523 22.2695 317.316 22.9531 317.316 23.8164C317.316 24.4453 317.031 24.9141 316.09 25.8867L314.664 27.3594V27.375H317.41V28H313.691V27.5156L315.676 25.4258C316.434 24.6289 316.613 24.3281 316.613 23.8594C316.613 23.3164 316.117 22.8828 315.496 22.8828C314.836 22.8828 314.336 23.3594 314.336 23.9883V23.9922H313.656V23.9883ZM318.547 28L321.098 23.0039V22.9883H318.062V22.3633H321.793V23.0156L319.285 28H318.547ZM324.492 28.0938C323.176 28.0938 322.414 26.9609 322.414 25.1797C322.414 23.4141 323.184 22.2695 324.492 22.2695C325.801 22.2695 326.562 23.4062 326.562 25.1758C326.562 26.957 325.805 28.0938 324.492 28.0938ZM324.492 27.4805C325.371 27.4805 325.855 26.5859 325.855 25.1797C325.855 23.793 325.363 22.8867 324.492 22.8867C323.621 22.8867 323.121 23.8008 323.121 25.1758C323.121 26.582 323.609 27.4805 324.492 27.4805ZM329.344 28.0938C328.027 28.0938 327.266 26.9609 327.266 25.1797C327.266 23.4141 328.035 22.2695 329.344 22.2695C330.652 22.2695 331.414 23.4062 331.414 25.1758C331.414 26.957 330.656 28.0938 329.344 28.0938ZM329.344 27.4805C330.223 27.4805 330.707 26.5859 330.707 25.1797C330.707 23.793 330.215 22.8867 329.344 22.8867C328.473 22.8867 327.973 23.8008 327.973 25.1758C327.973 26.582 328.461 27.4805 329.344 27.4805Z" fill="white"/>
<mask id="path-18-inside-6_302_839" fill="white">
<path d="M358.333 0H430V40H358.333V0Z"/>
</mask>
<path d="M358.333 0V-1H357.333V0H358.333ZM358.333 1H430V-1H358.333V1ZM359.333 40V0H357.333V40H359.333Z" fill="white" fill-opacity="0.2" mask="url(#path-18-inside-6_302_839)"/>
<path d="M377.225 16.4492H377.932C377.999 17.0586 378.577 17.4609 379.381 17.4609C380.143 17.4609 380.698 17.0586 380.698 16.5039C380.698 16.0273 380.366 15.7344 379.608 15.5391L378.885 15.3516C377.846 15.0859 377.385 14.6289 377.385 13.8633C377.385 12.9258 378.206 12.2695 379.378 12.2695C380.499 12.2695 381.311 12.9336 381.342 13.8789H380.639C380.577 13.2734 380.088 12.9023 379.354 12.9023C378.624 12.9023 378.116 13.2812 378.116 13.832C378.116 14.2578 378.428 14.5117 379.194 14.7109L379.784 14.8672C380.952 15.1602 381.424 15.6094 381.424 16.418C381.424 17.4492 380.612 18.0938 379.315 18.0938C378.12 18.0938 377.292 17.4453 377.225 16.4492ZM382.948 12.9883V15.1484H384.295C385.018 15.1484 385.428 14.7578 385.428 14.0664C385.428 13.3906 384.991 12.9883 384.264 12.9883H382.948ZM382.948 15.7695V18H382.245V12.3633H384.358C385.444 12.3633 386.155 13.0273 386.155 14.043C386.155 14.8281 385.729 15.4375 385.022 15.6602L386.327 18H385.503L384.295 15.7695H382.948ZM389.17 18H388.467V12.9961H386.69V12.3633H390.948V12.9961H389.17V18ZM391.62 18V12.3633H392.299V14.5859H392.315C392.542 14.1328 392.987 13.8672 393.604 13.8672C394.495 13.8672 395.034 14.4688 395.034 15.375V18H394.354V15.5C394.354 14.8555 394.03 14.4688 393.393 14.4688C392.717 14.4688 392.299 14.9297 392.299 15.6328V18H391.62ZM397.155 18V13.1094H397.139L395.647 14.1836V13.4414L397.147 12.3633H397.835V18H397.155ZM399.588 18L402.139 13.0039V12.9883H399.104V12.3633H402.835V13.0156L400.327 18H399.588ZM405.534 18.0938C404.217 18.0938 403.456 16.9609 403.456 15.1797C403.456 13.4141 404.225 12.2695 405.534 12.2695C406.842 12.2695 407.604 13.4062 407.604 15.1758C407.604 16.957 406.846 18.0938 405.534 18.0938ZM405.534 17.4805C406.413 17.4805 406.897 16.5859 406.897 15.1797C406.897 13.793 406.405 12.8867 405.534 12.8867C404.663 12.8867 404.163 13.8008 404.163 15.1758C404.163 16.582 404.651 17.4805 405.534 17.4805ZM410.952 16.0312H408.389V15.3984H410.952V16.0312ZM386.78 25.3984V24.8047H387.456C388.104 24.8047 388.557 24.3867 388.557 23.8164C388.557 23.2578 388.178 22.8789 387.463 22.8789C386.815 22.8789 386.385 23.25 386.323 23.8398H385.647C385.725 22.8828 386.436 22.2695 387.495 22.2695C388.503 22.2695 389.264 22.875 389.264 23.7227C389.264 24.4297 388.811 24.9375 388.108 25.0625V25.0781C388.96 25.1289 389.506 25.6562 389.506 26.4492C389.506 27.418 388.624 28.0938 387.518 28.0938C386.338 28.0938 385.585 27.4414 385.534 26.5078H386.21C386.272 27.0859 386.753 27.4844 387.51 27.4844C388.256 27.4844 388.792 27.0625 388.792 26.4727C388.792 25.8086 388.292 25.3984 387.487 25.3984H386.78ZM391.803 28V23.1094H391.788L390.295 24.1836V23.4414L391.795 22.3633H392.483V28H391.803ZM395.885 28.0938C394.569 28.0938 393.807 26.9609 393.807 25.1797C393.807 23.4141 394.577 22.2695 395.885 22.2695C397.194 22.2695 397.956 23.4062 397.956 25.1758C397.956 26.957 397.198 28.0938 395.885 28.0938ZM395.885 27.4805C396.764 27.4805 397.249 26.5859 397.249 25.1797C397.249 23.793 396.756 22.8867 395.885 22.8867C395.014 22.8867 394.514 23.8008 394.514 25.1758C394.514 26.582 395.003 27.4805 395.885 27.4805ZM400.737 28.0938C399.42 28.0938 398.659 26.9609 398.659 25.1797C398.659 23.4141 399.428 22.2695 400.737 22.2695C402.045 22.2695 402.807 23.4062 402.807 25.1758C402.807 26.957 402.049 28.0938 400.737 28.0938ZM400.737 27.4805C401.616 27.4805 402.1 26.5859 402.1 25.1797C402.1 23.793 401.608 22.8867 400.737 22.8867C399.866 22.8867 399.366 23.8008 399.366 25.1758C399.366 26.582 399.854 27.4805 400.737 27.4805Z" fill="white"/>
<mask id="path-21-inside-7_302_839" fill="white">
<path d="M430 0H501.667V40H430V0Z"/>
</mask>
<path d="M430 0V-1H429V0H430ZM430 1H501.667V-1H430V1ZM431 40V0H429V40H431Z" fill="white" fill-opacity="0.2" mask="url(#path-21-inside-7_302_839)"/>
<path d="M448.185 16.4492H448.892C448.958 17.0586 449.536 17.4609 450.341 17.4609C451.103 17.4609 451.658 17.0586 451.658 16.5039C451.658 16.0273 451.326 15.7344 450.568 15.5391L449.845 15.3516C448.806 15.0859 448.345 14.6289 448.345 13.8633C448.345 12.9258 449.165 12.2695 450.337 12.2695C451.458 12.2695 452.271 12.9336 452.302 13.8789H451.599C451.536 13.2734 451.048 12.9023 450.314 12.9023C449.583 12.9023 449.076 13.2812 449.076 13.832C449.076 14.2578 449.388 14.5117 450.154 14.7109L450.743 14.8672C451.911 15.1602 452.384 15.6094 452.384 16.418C452.384 17.4492 451.572 18.0938 450.275 18.0938C449.079 18.0938 448.251 17.4453 448.185 16.4492ZM453.908 12.9883V15.1484H455.255C455.978 15.1484 456.388 14.7578 456.388 14.0664C456.388 13.3906 455.951 12.9883 455.224 12.9883H453.908ZM453.908 15.7695V18H453.204V12.3633H455.318C456.404 12.3633 457.115 13.0273 457.115 14.043C457.115 14.8281 456.689 15.4375 455.982 15.6602L457.286 18H456.462L455.255 15.7695H453.908ZM460.13 18H459.427V12.9961H457.65V12.3633H461.908V12.9961H460.13V18ZM462.579 18V12.3633H463.259V14.5859H463.275C463.501 14.1328 463.947 13.8672 464.564 13.8672C465.454 13.8672 465.993 14.4688 465.993 15.375V18H465.314V15.5C465.314 14.8555 464.99 14.4688 464.353 14.4688C463.677 14.4688 463.259 14.9297 463.259 15.6328V18H462.579ZM466.837 13.9883C466.837 13.0039 467.634 12.2695 468.697 12.2695C469.704 12.2695 470.497 12.9531 470.497 13.8164C470.497 14.4453 470.212 14.9141 469.271 15.8867L467.845 17.3594V17.375H470.591V18H466.872V17.5156L468.857 15.4258C469.615 14.6289 469.794 14.3281 469.794 13.8594C469.794 13.3164 469.298 12.8828 468.677 12.8828C468.017 12.8828 467.517 13.3594 467.517 13.9883V13.9922H466.837V13.9883ZM471.368 13.9883C471.368 13.0039 472.165 12.2695 473.228 12.2695C474.236 12.2695 475.029 12.9531 475.029 13.8164C475.029 14.4453 474.743 14.9141 473.802 15.8867L472.376 17.3594V17.375H475.122V18H471.404V17.5156L473.388 15.4258C474.146 14.6289 474.326 14.3281 474.326 13.8594C474.326 13.3164 473.829 12.8828 473.208 12.8828C472.548 12.8828 472.048 13.3594 472.048 13.9883V13.9922H471.368V13.9883ZM477.908 18.0938C476.591 18.0938 475.829 16.9609 475.829 15.1797C475.829 13.4141 476.599 12.2695 477.908 12.2695C479.216 12.2695 479.978 13.4062 479.978 15.1758C479.978 16.957 479.22 18.0938 477.908 18.0938ZM477.908 17.4805C478.786 17.4805 479.271 16.5859 479.271 15.1797C479.271 13.793 478.779 12.8867 477.908 12.8867C477.036 12.8867 476.536 13.8008 476.536 15.1758C476.536 16.582 477.025 17.4805 477.908 17.4805ZM483.326 16.0312H480.763V15.3984H483.326V16.0312ZM456.99 23.9883C456.99 23.0039 457.786 22.2695 458.849 22.2695C459.857 22.2695 460.65 22.9531 460.65 23.8164C460.65 24.4453 460.365 24.9141 459.423 25.8867L457.997 27.3594V27.375H460.743V28H457.025V27.5156L459.009 25.4258C459.767 24.6289 459.947 24.3281 459.947 23.8594C459.947 23.3164 459.451 22.8828 458.829 22.8828C458.169 22.8828 457.669 23.3594 457.669 23.9883V23.9922H456.99V23.9883ZM461.88 28L464.431 23.0039V22.9883H461.396V22.3633H465.126V23.0156L462.618 28H461.88ZM467.826 28.0938C466.509 28.0938 465.747 26.9609 465.747 25.1797C465.747 23.4141 466.517 22.2695 467.826 22.2695C469.134 22.2695 469.896 23.4062 469.896 25.1758C469.896 26.957 469.138 28.0938 467.826 28.0938ZM467.826 27.4805C468.704 27.4805 469.189 26.5859 469.189 25.1797C469.189 23.793 468.697 22.8867 467.826 22.8867C466.954 22.8867 466.454 23.8008 466.454 25.1758C466.454 26.582 466.943 27.4805 467.826 27.4805ZM472.677 28.0938C471.361 28.0938 470.599 26.9609 470.599 25.1797C470.599 23.4141 471.368 22.2695 472.677 22.2695C473.986 22.2695 474.747 23.4062 474.747 25.1758C474.747 26.957 473.99 28.0938 472.677 28.0938ZM472.677 27.4805C473.556 27.4805 474.04 26.5859 474.04 25.1797C474.04 23.793 473.548 22.8867 472.677 22.8867C471.806 22.8867 471.306 23.8008 471.306 25.1758C471.306 26.582 471.794 27.4805 472.677 27.4805Z" fill="white"/>
<mask id="path-24-inside-8_302_839" fill="white">
<path d="M501.667 0H573.333V40H501.667V0Z"/>
</mask>
<path d="M501.667 0V-1H500.667V0H501.667ZM501.667 1H573.333V-1H501.667V1ZM502.667 40V0H500.667V40H502.667Z" fill="white" fill-opacity="0.2" mask="url(#path-24-inside-8_302_839)"/>
<path d="M519.852 16.4492H520.559C520.625 17.0586 521.203 17.4609 522.008 17.4609C522.77 17.4609 523.324 17.0586 523.324 16.5039C523.324 16.0273 522.992 15.7344 522.234 15.5391L521.512 15.3516C520.473 15.0859 520.012 14.6289 520.012 13.8633C520.012 12.9258 520.832 12.2695 522.004 12.2695C523.125 12.2695 523.938 12.9336 523.969 13.8789H523.266C523.203 13.2734 522.715 12.9023 521.981 12.9023C521.25 12.9023 520.742 13.2812 520.742 13.832C520.742 14.2578 521.055 14.5117 521.82 14.7109L522.41 14.8672C523.578 15.1602 524.051 15.6094 524.051 16.418C524.051 17.4492 523.238 18.0938 521.941 18.0938C520.746 18.0938 519.918 17.4453 519.852 16.4492ZM525.574 12.9883V15.1484H526.922C527.645 15.1484 528.055 14.7578 528.055 14.0664C528.055 13.3906 527.617 12.9883 526.891 12.9883H525.574ZM525.574 15.7695V18H524.871V12.3633H526.984C528.07 12.3633 528.781 13.0273 528.781 14.043C528.781 14.8281 528.356 15.4375 527.649 15.6602L528.953 18H528.129L526.922 15.7695H525.574ZM531.797 18H531.094V12.9961H529.316V12.3633H533.574V12.9961H531.797V18ZM534.246 18V12.3633H534.926V14.5859H534.941C535.168 14.1328 535.613 13.8672 536.231 13.8672C537.121 13.8672 537.66 14.4688 537.66 15.375V18H536.981V15.5C536.981 14.8555 536.656 14.4688 536.02 14.4688C535.344 14.4688 534.926 14.9297 534.926 15.6328V18H534.246ZM538.504 13.9883C538.504 13.0039 539.301 12.2695 540.363 12.2695C541.371 12.2695 542.164 12.9531 542.164 13.8164C542.164 14.4453 541.879 14.9141 540.938 15.8867L539.512 17.3594V17.375H542.258V18H538.539V17.5156L540.524 15.4258C541.281 14.6289 541.461 14.3281 541.461 13.8594C541.461 13.3164 540.965 12.8828 540.344 12.8828C539.684 12.8828 539.184 13.3594 539.184 13.9883V13.9922H538.504V13.9883ZM543.035 13.9883C543.035 13.0039 543.832 12.2695 544.895 12.2695C545.902 12.2695 546.695 12.9531 546.695 13.8164C546.695 14.4453 546.41 14.9141 545.469 15.8867L544.043 17.3594V17.375H546.789V18H543.07V17.5156L545.055 15.4258C545.813 14.6289 545.992 14.3281 545.992 13.8594C545.992 13.3164 545.496 12.8828 544.875 12.8828C544.215 12.8828 543.715 13.3594 543.715 13.9883V13.9922H543.035V13.9883ZM549.574 18.0938C548.258 18.0938 547.496 16.9609 547.496 15.1797C547.496 13.4141 548.266 12.2695 549.574 12.2695C550.883 12.2695 551.645 13.4062 551.645 15.1758C551.645 16.957 550.887 18.0938 549.574 18.0938ZM549.574 17.4805C550.453 17.4805 550.938 16.5859 550.938 15.1797C550.938 13.793 550.445 12.8867 549.574 12.8867C548.703 12.8867 548.203 13.8008 548.203 15.1758C548.203 16.582 548.691 17.4805 549.574 17.4805ZM554.992 16.0312H552.43V15.3984H554.992V16.0312ZM530.113 25.3984V24.8047H530.789C531.438 24.8047 531.891 24.3867 531.891 23.8164C531.891 23.2578 531.512 22.8789 530.797 22.8789C530.149 22.8789 529.719 23.25 529.656 23.8398H528.981C529.059 22.8828 529.77 22.2695 530.828 22.2695C531.836 22.2695 532.598 22.875 532.598 23.7227C532.598 24.4297 532.145 24.9375 531.441 25.0625V25.0781C532.293 25.1289 532.84 25.6562 532.84 26.4492C532.84 27.418 531.957 28.0938 530.852 28.0938C529.672 28.0938 528.918 27.4414 528.867 26.5078H529.543C529.606 27.0859 530.086 27.4844 530.844 27.4844C531.59 27.4844 532.125 27.0625 532.125 26.4727C532.125 25.8086 531.625 25.3984 530.82 25.3984H530.113ZM535.137 28V23.1094H535.121L533.629 24.1836V23.4414L535.129 22.3633H535.816V28H535.137ZM539.219 28.0938C537.902 28.0938 537.141 26.9609 537.141 25.1797C537.141 23.4141 537.91 22.2695 539.219 22.2695C540.527 22.2695 541.289 23.4062 541.289 25.1758C541.289 26.957 540.531 28.0938 539.219 28.0938ZM539.219 27.4805C540.098 27.4805 540.582 26.5859 540.582 25.1797C540.582 23.793 540.09 22.8867 539.219 22.8867C538.348 22.8867 537.848 23.8008 537.848 25.1758C537.848 26.582 538.336 27.4805 539.219 27.4805ZM544.07 28.0938C542.754 28.0938 541.992 26.9609 541.992 25.1797C541.992 23.4141 542.762 22.2695 544.07 22.2695C545.379 22.2695 546.141 23.4062 546.141 25.1758C546.141 26.957 545.383 28.0938 544.07 28.0938ZM544.07 27.4805C544.949 27.4805 545.434 26.5859 545.434 25.1797C545.434 23.793 544.941 22.8867 544.07 22.8867C543.199 22.8867 542.699 23.8008 542.699 25.1758C542.699 26.582 543.188 27.4805 544.07 27.4805Z" fill="white"/>
<mask id="path-27-inside-9_302_839" fill="white">
<path d="M573.333 0H645V40H573.333V0Z"/>
</mask>
<path d="M573.333 0V-1H572.333V0H573.333ZM573.333 1H645V-1H573.333V1ZM574.333 40V0H572.333V40H574.333Z" fill="white" fill-opacity="0.2" mask="url(#path-27-inside-9_302_839)"/>
<path d="M591.385 16.4492H592.092C592.159 17.0586 592.737 17.4609 593.542 17.4609C594.303 17.4609 594.858 17.0586 594.858 16.5039C594.858 16.0273 594.526 15.7344 593.768 15.5391L593.046 15.3516C592.007 15.0859 591.546 14.6289 591.546 13.8633C591.546 12.9258 592.366 12.2695 593.538 12.2695C594.659 12.2695 595.471 12.9336 595.503 13.8789H594.8C594.737 13.2734 594.249 12.9023 593.514 12.9023C592.784 12.9023 592.276 13.2812 592.276 13.832C592.276 14.2578 592.589 14.5117 593.354 14.7109L593.944 14.8672C595.112 15.1602 595.585 15.6094 595.585 16.418C595.585 17.4492 594.772 18.0938 593.475 18.0938C592.28 18.0938 591.452 17.4453 591.385 16.4492ZM597.108 12.9883V15.1484H598.456C599.178 15.1484 599.589 14.7578 599.589 14.0664C599.589 13.3906 599.151 12.9883 598.425 12.9883H597.108ZM597.108 15.7695V18H596.405V12.3633H598.518C599.604 12.3633 600.315 13.0273 600.315 14.043C600.315 14.8281 599.889 15.4375 599.182 15.6602L600.487 18H599.663L598.456 15.7695H597.108ZM603.331 18H602.628V12.9961H600.85V12.3633H605.108V12.9961H603.331V18ZM605.78 18V12.3633H606.46V14.5859H606.475C606.702 14.1328 607.147 13.8672 607.764 13.8672C608.655 13.8672 609.194 14.4688 609.194 15.375V18H608.514V15.5C608.514 14.8555 608.19 14.4688 607.553 14.4688C606.878 14.4688 606.46 14.9297 606.46 15.6328V18H605.78ZM610.038 13.9883C610.038 13.0039 610.835 12.2695 611.897 12.2695C612.905 12.2695 613.698 12.9531 613.698 13.8164C613.698 14.4453 613.413 14.9141 612.471 15.8867L611.046 17.3594V17.375H613.792V18H610.073V17.5156L612.057 15.4258C612.815 14.6289 612.995 14.3281 612.995 13.8594C612.995 13.3164 612.499 12.8828 611.878 12.8828C611.217 12.8828 610.717 13.3594 610.717 13.9883V13.9922H610.038V13.9883ZM616.542 18.0938C615.35 18.0938 614.499 17.418 614.499 16.4766C614.499 15.7734 614.983 15.1953 615.71 15.0273V15.0117C615.1 14.8242 614.721 14.3438 614.721 13.75C614.721 12.8984 615.495 12.2695 616.542 12.2695C617.596 12.2695 618.358 12.8945 618.358 13.7539C618.358 14.3398 617.987 14.8164 617.374 15.0117V15.0273C618.104 15.1992 618.589 15.7773 618.589 16.4766C618.589 17.4219 617.737 18.0938 616.542 18.0938ZM616.542 17.4805C617.319 17.4805 617.87 17.0391 617.87 16.4258C617.87 15.8047 617.319 15.3672 616.542 15.3672C615.768 15.3672 615.214 15.8086 615.214 16.4258C615.214 17.0391 615.768 17.4805 616.542 17.4805ZM616.542 14.75C617.198 14.75 617.663 14.3633 617.663 13.8164C617.663 13.2617 617.202 12.875 616.542 12.875C615.882 12.875 615.421 13.2656 615.421 13.8164C615.421 14.3633 615.882 14.75 616.542 14.75ZM621.374 18.0938C620.057 18.0938 619.296 16.9609 619.296 15.1797C619.296 13.4141 620.065 12.2695 621.374 12.2695C622.682 12.2695 623.444 13.4062 623.444 15.1758C623.444 16.957 622.686 18.0938 621.374 18.0938ZM621.374 17.4805C622.253 17.4805 622.737 16.5859 622.737 15.1797C622.737 13.793 622.245 12.8867 621.374 12.8867C620.503 12.8867 620.003 13.8008 620.003 15.1758C620.003 16.582 620.491 17.4805 621.374 17.4805ZM626.792 16.0312H624.229V15.3984H626.792V16.0312ZM600.323 23.9883C600.323 23.0039 601.12 22.2695 602.182 22.2695C603.19 22.2695 603.983 22.9531 603.983 23.8164C603.983 24.4453 603.698 24.9141 602.757 25.8867L601.331 27.3594V27.375H604.077V28H600.358V27.5156L602.342 25.4258C603.1 24.6289 603.28 24.3281 603.28 23.8594C603.28 23.3164 602.784 22.8828 602.163 22.8828C601.503 22.8828 601.003 23.3594 601.003 23.9883V23.9922H600.323V23.9883ZM605.214 28L607.764 23.0039V22.9883H604.729V22.3633H608.46V23.0156L605.952 28H605.214ZM611.159 28.0938C609.842 28.0938 609.081 26.9609 609.081 25.1797C609.081 23.4141 609.85 22.2695 611.159 22.2695C612.467 22.2695 613.229 23.4062 613.229 25.1758C613.229 26.957 612.471 28.0938 611.159 28.0938ZM611.159 27.4805C612.038 27.4805 612.522 26.5859 612.522 25.1797C612.522 23.793 612.03 22.8867 611.159 22.8867C610.288 22.8867 609.788 23.8008 609.788 25.1758C609.788 26.582 610.276 27.4805 611.159 27.4805ZM616.01 28.0938C614.694 28.0938 613.932 26.9609 613.932 25.1797C613.932 23.4141 614.702 22.2695 616.01 22.2695C617.319 22.2695 618.081 23.4062 618.081 25.1758C618.081 26.957 617.323 28.0938 616.01 28.0938ZM616.01 27.4805C616.889 27.4805 617.374 26.5859 617.374 25.1797C617.374 23.793 616.882 22.8867 616.01 22.8867C615.139 22.8867 614.639 23.8008 614.639 25.1758C614.639 26.582 615.128 27.4805 616.01 27.4805Z" fill="white"/>
</g>
<g clip-path="url(#clip2_302_839)">
<rect width="645" height="40" transform="translate(0 40)" fill="#86A2FF" fill-opacity="0.2"/>
<mask id="path-30-inside-10_302_839" fill="white">
<path d="M0 40H71.6667V80H0V40Z"/>
</mask>
<path d="M0 40V39H-1V40H0ZM0 41H71.6667V39H0V41ZM1 80V40H-1V80H1Z" fill="white" fill-opacity="0.2" mask="url(#path-30-inside-10_302_839)"/>
<path d="M16.2109 58L15.6445 56.3867H13.4023L12.8359 58H12.0977L14.1758 52.3633H14.8711L16.9492 58H16.2109ZM14.5117 53.2188L13.6094 55.7891H15.4375L14.5352 53.2188H14.5117ZM20.7852 55.2695H20.1211C20.0234 54.8281 19.6797 54.4648 19.082 54.4648C18.3789 54.4648 17.9023 55.0469 17.9023 55.9688C17.9023 56.9141 18.3867 57.4727 19.0898 57.4727C19.6445 57.4727 20.0078 57.1797 20.125 56.6914H20.793C20.6875 57.5 20.0078 58.0703 19.0859 58.0703C17.9609 58.0703 17.2109 57.2773 17.2109 55.9688C17.2109 54.6875 17.957 53.8672 19.0781 53.8672C20.0938 53.8672 20.6992 54.5391 20.7852 55.2695ZM21.6367 52.957H22.3164V53.9375H23.1055V54.4961H22.3164V56.9102C22.3164 57.2812 22.4727 57.4492 22.8203 57.4492C22.8984 57.4492 23.0547 57.4375 23.1016 57.4297V58C23.0195 58.0195 22.832 58.0312 22.6719 58.0312C21.9258 58.0312 21.6367 57.7266 21.6367 56.9453V54.4961H21.0312V53.9375H21.6367V52.957ZM23.8672 58V53.9375H24.5469V58H23.8672ZM24.207 53.2539C23.9766 53.2539 23.7852 53.0625 23.7852 52.832C23.7852 52.5977 23.9766 52.4102 24.207 52.4102C24.4414 52.4102 24.6328 52.5977 24.6328 52.832C24.6328 53.0625 24.4414 53.2539 24.207 53.2539ZM27.1484 58.0703C26.0234 58.0703 25.2656 57.2617 25.2656 55.9688C25.2656 54.6719 26.0234 53.8672 27.1484 53.8672C28.2695 53.8672 29.0273 54.6719 29.0273 55.9688C29.0273 57.2617 28.2695 58.0703 27.1484 58.0703ZM27.1484 57.4727C27.8672 57.4727 28.3359 56.9258 28.3359 55.9688C28.3359 55.0117 27.8672 54.4648 27.1484 54.4648C26.4297 54.4648 25.957 55.0117 25.957 55.9688C25.957 56.9258 26.4297 57.4727 27.1484 57.4727ZM29.7148 58V53.9375H30.3555V54.5859H30.3711C30.5977 54.1484 31.0312 53.8672 31.6602 53.8672C32.5508 53.8672 33.0664 54.4414 33.0664 55.3633V58H32.3867V55.4844C32.3867 54.8281 32.0781 54.4688 31.4531 54.4688C30.8125 54.4688 30.3945 54.9219 30.3945 55.6094V58H29.7148ZM35.5742 58V53.9375H36.2148V54.6016H36.2305C36.3633 54.1523 36.7383 53.8672 37.2148 53.8672C37.332 53.8672 37.4336 53.8867 37.4883 53.8945V54.5547C37.4336 54.5352 37.2891 54.5156 37.125 54.5156C36.5977 54.5156 36.2539 54.8945 36.2539 55.4688V58H35.5742ZM39.3047 57.4922C39.9453 57.4922 40.4375 57.043 40.4375 56.457V56.125L39.3516 56.1914C38.8047 56.2266 38.4922 56.4688 38.4922 56.8516C38.4922 57.2383 38.8164 57.4922 39.3047 57.4922ZM39.1523 58.0703C38.3438 58.0703 37.8008 57.582 37.8008 56.8516C37.8008 56.1562 38.3359 55.7188 39.2734 55.6641L40.4375 55.5977V55.2578C40.4375 54.7617 40.1094 54.4648 39.5469 54.4648C39.0234 54.4648 38.6953 54.7109 38.6094 55.1094H37.9531C38 54.4062 38.6016 53.8672 39.5625 53.8672C40.5156 53.8672 41.1172 54.3828 41.1172 55.1914V58H40.4727V57.3008H40.457C40.2148 57.7656 39.6992 58.0703 39.1523 58.0703ZM41.9805 58V53.9375H42.6211V54.5859H42.6367C42.8633 54.1484 43.2969 53.8672 43.9258 53.8672C44.8164 53.8672 45.332 54.4414 45.332 55.3633V58H44.6523V55.4844C44.6523 54.8281 44.3438 54.4688 43.7188 54.4688C43.0781 54.4688 42.6602 54.9219 42.6602 55.6094V58H41.9805ZM47.8516 57.4336C48.5586 57.4336 49.0312 56.8477 49.0312 55.9531C49.0312 55.0586 48.5586 54.4648 47.8516 54.4648C47.1523 54.4648 46.6953 55.043 46.6953 55.9531C46.6953 56.8633 47.1523 57.4336 47.8516 57.4336ZM47.875 59.5312C46.9805 59.5312 46.2734 59.0273 46.1602 58.3359H46.8594C46.9922 58.707 47.3945 58.9531 47.9023 58.9531C48.6055 58.9531 49.0312 58.5469 49.0312 57.9414V57.3008H49.0156C48.7656 57.7422 48.2852 58.0312 47.7148 58.0312C46.6797 58.0312 46 57.2148 46 55.9531C46 54.6797 46.6797 53.8672 47.7305 53.8672C48.3047 53.8672 48.7812 54.1484 49.0508 54.6211H49.0625V53.9375H49.7109V57.918C49.7109 58.8867 48.9961 59.5312 47.875 59.5312ZM52.2266 54.457C51.5898 54.457 51.1445 54.9453 51.1016 55.6211H53.3086C53.293 54.9414 52.8672 54.457 52.2266 54.457ZM53.293 56.8359H53.9609C53.8438 57.5469 53.1562 58.0703 52.2695 58.0703C51.1055 58.0703 50.3984 57.2617 50.3984 55.9844C50.3984 54.7227 51.1172 53.8672 52.2383 53.8672C53.3359 53.8672 54.0117 54.6641 54.0117 55.8945V56.1523H51.0977V56.1914C51.0977 56.9688 51.5547 57.4805 52.2852 57.4805C52.8008 57.4805 53.1797 57.2188 53.293 56.8359ZM55.1641 59.1211H54.5977L54.9766 57.1328H55.6992L55.1641 59.1211ZM12.4414 68V63.9375H13.082V64.5859H13.0977C13.2891 64.1562 13.7031 63.8672 14.25 63.8672C14.8047 63.8672 15.2148 64.1484 15.3906 64.6406H15.4062C15.6328 64.1562 16.1094 63.8672 16.6797 63.8672C17.4844 63.8672 18.0039 64.3906 18.0039 65.1953V68H17.3242V65.3516C17.3242 64.7969 17.0156 64.4688 16.4805 64.4688C15.9414 64.4688 15.5625 64.8672 15.5625 65.418V68H14.8828V65.2773C14.8828 64.7891 14.5547 64.4688 14.0508 64.4688C13.5117 64.4688 13.1211 64.8906 13.1211 65.4531V68H12.4414ZM18.8711 68V63.9375H19.5117V64.5859H19.5273C19.7188 64.1562 20.1328 63.8672 20.6797 63.8672C21.2344 63.8672 21.6445 64.1484 21.8203 64.6406H21.8359C22.0625 64.1562 22.5391 63.8672 23.1094 63.8672C23.9141 63.8672 24.4336 64.3906 24.4336 65.1953V68H23.7539V65.3516C23.7539 64.7969 23.4453 64.4688 22.9102 64.4688C22.3711 64.4688 21.9922 64.8672 21.9922 65.418V68H21.3125V65.2773C21.3125 64.7891 20.9844 64.4688 20.4805 64.4688C19.9414 64.4688 19.5508 64.8906 19.5508 65.4531V68H18.8711Z" fill="white"/>
<mask id="path-33-inside-11_302_839" fill="white">
<path d="M71.6667 40H143.333V80H71.6667V40Z"/>
</mask>
<path d="M71.6667 40V39H70.6667V40H71.6667ZM71.6667 41H143.333V39H71.6667V41ZM72.6667 80V40H70.6667V80H72.6667Z" fill="white" fill-opacity="0.2" mask="url(#path-33-inside-11_302_839)"/>
<path d="M95.043 57.9121C95.0547 56.4707 96.2031 55.4102 97.75 55.4102C99.2266 55.4102 100.381 56.4238 100.381 57.7188C100.381 58.6445 99.9649 59.3418 98.5586 60.8008L96.2031 63.2617V63.2852H100.598V64H95.084V63.4375L98.0723 60.2793C99.2793 59.0078 99.584 58.5039 99.584 57.7656C99.584 56.8398 98.7637 56.1133 97.7266 56.1133C96.6426 56.1133 95.8281 56.8809 95.8164 57.9121V57.918H95.043V57.9121ZM102.297 64L106.217 56.2832V56.2598H101.512V55.5449H107.02V56.2949L103.147 64H102.297ZM110.875 64.1348C108.953 64.1348 107.811 62.4414 107.811 59.7695C107.811 57.1152 108.965 55.4102 110.875 55.4102C112.791 55.4102 113.934 57.1094 113.934 59.7637C113.934 62.4355 112.797 64.1348 110.875 64.1348ZM110.875 63.4316C112.305 63.4316 113.131 62.0078 113.131 59.7695C113.131 57.5488 112.293 56.1191 110.875 56.1191C109.463 56.1191 108.619 57.5605 108.619 59.7637C108.619 62.0078 109.445 63.4316 110.875 63.4316ZM115.398 64L119.318 56.2832V56.2598H114.613V55.5449H120.121V56.2949L116.248 64H115.398Z" fill="white"/>
<mask id="path-36-inside-12_302_839" fill="white">
<path d="M143.333 40H215V80H143.333V40Z"/>
</mask>
<path d="M143.333 40V39H142.333V40H143.333ZM143.333 41H215V39H143.333V41ZM144.333 80V40H142.333V80H144.333Z" fill="white" fill-opacity="0.2" mask="url(#path-36-inside-12_302_839)"/>
<path d="M168.397 59.9746V59.2949H169.381C170.489 59.2949 171.251 58.6152 171.251 57.6719C171.251 56.7578 170.559 56.1133 169.417 56.1133C168.368 56.1133 167.624 56.7461 167.536 57.6836H166.762C166.862 56.3242 167.928 55.4102 169.452 55.4102C170.94 55.4102 172.059 56.3184 172.059 57.5723C172.059 58.6328 171.374 59.3945 170.295 59.5879V59.6113C171.59 59.6875 172.422 60.4902 172.422 61.6855C172.422 63.1152 171.145 64.1348 169.499 64.1348C167.794 64.1348 166.639 63.1621 166.587 61.8086H167.36C167.424 62.752 168.274 63.4316 169.493 63.4316C170.717 63.4316 171.608 62.7109 171.608 61.709C171.608 60.6309 170.776 59.9746 169.417 59.9746H168.397ZM175.803 64V56.4062H175.78C175.592 56.5234 173.758 57.8125 173.512 57.9648V57.1094C173.747 56.9629 175.54 55.6973 175.792 55.5449H176.577V64H175.803ZM181.581 64.1348C179.659 64.1348 178.516 62.4414 178.516 59.7695C178.516 57.1152 179.67 55.4102 181.581 55.4102C183.497 55.4102 184.639 57.1094 184.639 59.7637C184.639 62.4355 183.503 64.1348 181.581 64.1348ZM181.581 63.4316C183.01 63.4316 183.837 62.0078 183.837 59.7695C183.837 57.5488 182.999 56.1191 181.581 56.1191C180.169 56.1191 179.325 57.5605 179.325 59.7637C179.325 62.0078 180.151 63.4316 181.581 63.4316ZM189.889 64V62.0898H185.6V61.3574C186.52 59.8105 187.628 58.1523 189.497 55.5332H190.669V61.3809H191.928V62.0898H190.669V64H189.889ZM186.409 61.3574V61.3809H189.889V56.2363H189.878C188.319 58.3926 187.253 59.9863 186.409 61.3574Z" fill="white"/>
<mask id="path-39-inside-13_302_839" fill="white">
<path d="M215 40H286.667V80H215V40Z"/>
</mask>
<path d="M215 40V39H214V40H215ZM215 41H286.667V39H215V41ZM216 80V40H214V80H216Z" fill="white" fill-opacity="0.2" mask="url(#path-39-inside-13_302_839)"/>
<path d="M237.931 57.9121C237.943 56.4707 239.091 55.4102 240.638 55.4102C242.115 55.4102 243.269 56.4238 243.269 57.7188C243.269 58.6445 242.853 59.3418 241.447 60.8008L239.091 63.2617V63.2852H243.486V64H237.972V63.4375L240.96 60.2793C242.167 59.0078 242.472 58.5039 242.472 57.7656C242.472 56.8398 241.652 56.1133 240.615 56.1133C239.531 56.1133 238.716 56.8809 238.704 57.9121V57.918H237.931V57.9121ZM245.185 64L249.105 56.2832V56.2598H244.4V55.5449H249.908V56.2949L246.035 64H245.185ZM253.845 64.1348C252.298 64.1348 251.115 63.1621 251.009 61.7969H251.794C251.906 62.7461 252.767 63.4258 253.857 63.4258C255.117 63.4258 256.013 62.5352 256.013 61.293C256.013 60.0566 255.117 59.1484 253.892 59.1484C253.036 59.1484 252.298 59.5527 251.906 60.2266H251.138L251.618 55.5449H256.306V56.2598H252.281L251.964 59.3828H251.988C252.398 58.8086 253.165 58.4512 254.021 58.4512C255.632 58.4512 256.816 59.6465 256.816 61.2754C256.816 62.9453 255.574 64.1348 253.845 64.1348ZM260.829 64.1348C258.908 64.1348 257.765 62.4414 257.765 59.7695C257.765 57.1152 258.919 55.4102 260.829 55.4102C262.745 55.4102 263.888 57.1094 263.888 59.7637C263.888 62.4355 262.751 64.1348 260.829 64.1348ZM260.829 63.4316C262.259 63.4316 263.085 62.0078 263.085 59.7695C263.085 57.5488 262.247 56.1191 260.829 56.1191C259.417 56.1191 258.574 57.5605 258.574 59.7637C258.574 62.0078 259.4 63.4316 260.829 63.4316Z" fill="white"/>
<mask id="path-42-inside-14_302_839" fill="white">
<path d="M286.667 40H358.333V80H286.667V40Z"/>
</mask>
<path d="M286.667 40V39H285.667V40H286.667ZM286.667 41H358.333V39H286.667V41ZM287.667 80V40H285.667V80H287.667Z" fill="white" fill-opacity="0.2" mask="url(#path-42-inside-14_302_839)"/>
<path d="M310.043 57.9121C310.055 56.4707 311.203 55.4102 312.75 55.4102C314.227 55.4102 315.381 56.4238 315.381 57.7188C315.381 58.6445 314.965 59.3418 313.559 60.8008L311.203 63.2617V63.2852H315.598V64H310.084V63.4375L313.072 60.2793C314.279 59.0078 314.584 58.5039 314.584 57.7656C314.584 56.8398 313.764 56.1133 312.727 56.1133C311.643 56.1133 310.828 56.8809 310.816 57.9121V57.918H310.043V57.9121ZM317.297 64L321.217 56.2832V56.2598H316.512V55.5449H322.019V56.2949L318.146 64H317.297ZM325.875 64.1348C323.953 64.1348 322.811 62.4414 322.811 59.7695C322.811 57.1152 323.965 55.4102 325.875 55.4102C327.791 55.4102 328.934 57.1094 328.934 59.7637C328.934 62.4355 327.797 64.1348 325.875 64.1348ZM325.875 63.4316C327.305 63.4316 328.131 62.0078 328.131 59.7695C328.131 57.5488 327.293 56.1191 325.875 56.1191C324.463 56.1191 323.619 57.5605 323.619 59.7637C323.619 62.0078 324.445 63.4316 325.875 63.4316ZM330.398 64L334.318 56.2832V56.2598H329.613V55.5449H335.121V56.2949L331.248 64H330.398Z" fill="white"/>
<mask id="path-45-inside-15_302_839" fill="white">
<path d="M358.333 40H430V80H358.333V40Z"/>
</mask>
<path d="M358.333 40V39H357.333V40H358.333ZM358.333 41H430V39H358.333V41ZM359.333 80V40H357.333V80H359.333Z" fill="white" fill-opacity="0.2" mask="url(#path-45-inside-15_302_839)"/>
<path d="M383.397 59.9746V59.2949H384.381C385.489 59.2949 386.251 58.6152 386.251 57.6719C386.251 56.7578 385.559 56.1133 384.417 56.1133C383.368 56.1133 382.624 56.7461 382.536 57.6836H381.762C381.862 56.3242 382.928 55.4102 384.452 55.4102C385.94 55.4102 387.059 56.3184 387.059 57.5723C387.059 58.6328 386.374 59.3945 385.295 59.5879V59.6113C386.59 59.6875 387.422 60.4902 387.422 61.6855C387.422 63.1152 386.145 64.1348 384.499 64.1348C382.794 64.1348 381.639 63.1621 381.587 61.8086H382.36C382.424 62.752 383.274 63.4316 384.493 63.4316C385.717 63.4316 386.608 62.7109 386.608 61.709C386.608 60.6309 385.776 59.9746 384.417 59.9746H383.397ZM390.803 64V56.4062H390.78C390.592 56.5234 388.758 57.8125 388.512 57.9648V57.1094C388.747 56.9629 390.54 55.6973 390.792 55.5449H391.577V64H390.803ZM396.581 64.1348C394.659 64.1348 393.516 62.4414 393.516 59.7695C393.516 57.1152 394.67 55.4102 396.581 55.4102C398.497 55.4102 399.639 57.1094 399.639 59.7637C399.639 62.4355 398.503 64.1348 396.581 64.1348ZM396.581 63.4316C398.01 63.4316 398.837 62.0078 398.837 59.7695C398.837 57.5488 397.999 56.1191 396.581 56.1191C395.169 56.1191 394.325 57.5605 394.325 59.7637C394.325 62.0078 395.151 63.4316 396.581 63.4316ZM404.889 64V62.0898H400.6V61.3574C401.52 59.8105 402.628 58.1523 404.497 55.5332H405.669V61.3809H406.928V62.0898H405.669V64H404.889ZM401.409 61.3574V61.3809H404.889V56.2363H404.878C403.319 58.3926 402.253 59.9863 401.409 61.3574Z" fill="white"/>
<mask id="path-48-inside-16_302_839" fill="white">
<path d="M430 40H501.667V80H430V40Z"/>
</mask>
<path d="M430 40V39H429V40H430ZM430 41H501.667V39H430V41ZM431 80V40H429V80H431Z" fill="white" fill-opacity="0.2" mask="url(#path-48-inside-16_302_839)"/>
<path d="M453.376 57.9121C453.388 56.4707 454.536 55.4102 456.083 55.4102C457.56 55.4102 458.714 56.4238 458.714 57.7188C458.714 58.6445 458.298 59.3418 456.892 60.8008L454.536 63.2617V63.2852H458.931V64H453.417V63.4375L456.406 60.2793C457.613 59.0078 457.917 58.5039 457.917 57.7656C457.917 56.8398 457.097 56.1133 456.06 56.1133C454.976 56.1133 454.161 56.8809 454.15 57.9121V57.918H453.376V57.9121ZM460.63 64L464.55 56.2832V56.2598H459.845V55.5449H465.353V56.2949L461.48 64H460.63ZM469.208 64.1348C467.286 64.1348 466.144 62.4414 466.144 59.7695C466.144 57.1152 467.298 55.4102 469.208 55.4102C471.124 55.4102 472.267 57.1094 472.267 59.7637C472.267 62.4355 471.13 64.1348 469.208 64.1348ZM469.208 63.4316C470.638 63.4316 471.464 62.0078 471.464 59.7695C471.464 57.5488 470.626 56.1191 469.208 56.1191C467.796 56.1191 466.952 57.5605 466.952 59.7637C466.952 62.0078 467.779 63.4316 469.208 63.4316ZM473.732 64L477.652 56.2832V56.2598H472.947V55.5449H478.454V56.2949L474.581 64H473.732Z" fill="white"/>
<mask id="path-51-inside-17_302_839" fill="white">
<path d="M501.667 40H573.333V80H501.667V40Z"/>
</mask>
<path d="M501.667 40V39H500.667V40H501.667ZM501.667 41H573.333V39H501.667V41ZM502.667 80V40H500.667V80H502.667Z" fill="white" fill-opacity="0.2" mask="url(#path-51-inside-17_302_839)"/>
<path d="M526.731 59.9746V59.2949H527.715C528.822 59.2949 529.584 58.6152 529.584 57.6719C529.584 56.7578 528.893 56.1133 527.75 56.1133C526.701 56.1133 525.957 56.7461 525.869 57.6836H525.096C525.195 56.3242 526.262 55.4102 527.785 55.4102C529.274 55.4102 530.393 56.3184 530.393 57.5723C530.393 58.6328 529.707 59.3945 528.629 59.5879V59.6113C529.924 59.6875 530.756 60.4902 530.756 61.6855C530.756 63.1152 529.479 64.1348 527.832 64.1348C526.127 64.1348 524.973 63.1621 524.92 61.8086H525.693C525.758 62.752 526.608 63.4316 527.826 63.4316C529.051 63.4316 529.941 62.7109 529.941 61.709C529.941 60.6309 529.109 59.9746 527.75 59.9746H526.731ZM534.137 64V56.4062H534.113C533.926 56.5234 532.092 57.8125 531.846 57.9648V57.1094C532.08 56.9629 533.873 55.6973 534.125 55.5449H534.91V64H534.137ZM539.914 64.1348C537.992 64.1348 536.85 62.4414 536.85 59.7695C536.85 57.1152 538.004 55.4102 539.914 55.4102C541.83 55.4102 542.973 57.1094 542.973 59.7637C542.973 62.4355 541.836 64.1348 539.914 64.1348ZM539.914 63.4316C541.344 63.4316 542.17 62.0078 542.17 59.7695C542.17 57.5488 541.332 56.1191 539.914 56.1191C538.502 56.1191 537.658 57.5605 537.658 59.7637C537.658 62.0078 538.484 63.4316 539.914 63.4316ZM548.223 64V62.0898H543.934V61.3574C544.854 59.8105 545.961 58.1523 547.83 55.5332H549.002V61.3809H550.262V62.0898H549.002V64H548.223ZM544.742 61.3574V61.3809H548.223V56.2363H548.211C546.652 58.3926 545.586 59.9863 544.742 61.3574Z" fill="white"/>
<mask id="path-54-inside-18_302_839" fill="white">
<path d="M573.333 40H645V80H573.333V40Z"/>
</mask>
<path d="M573.333 40V39H572.333V40H573.333ZM573.333 41H645V39H573.333V41ZM574.333 80V40H572.333V80H574.333Z" fill="white" fill-opacity="0.2" mask="url(#path-54-inside-18_302_839)"/>
<path d="M596.71 57.9121C596.721 56.4707 597.87 55.4102 599.417 55.4102C600.893 55.4102 602.048 56.4238 602.048 57.7188C602.048 58.6445 601.632 59.3418 600.225 60.8008L597.87 63.2617V63.2852H602.264V64H596.751V63.4375L599.739 60.2793C600.946 59.0078 601.251 58.5039 601.251 57.7656C601.251 56.8398 600.43 56.1133 599.393 56.1133C598.309 56.1133 597.495 56.8809 597.483 57.9121V57.918H596.71V57.9121ZM603.964 64L607.884 56.2832V56.2598H603.178V55.5449H608.686V56.2949L604.813 64H603.964ZM612.542 64.1348C610.62 64.1348 609.477 62.4414 609.477 59.7695C609.477 57.1152 610.632 55.4102 612.542 55.4102C614.458 55.4102 615.6 57.1094 615.6 59.7637C615.6 62.4355 614.464 64.1348 612.542 64.1348ZM612.542 63.4316C613.971 63.4316 614.798 62.0078 614.798 59.7695C614.798 57.5488 613.96 56.1191 612.542 56.1191C611.13 56.1191 610.286 57.5605 610.286 59.7637C610.286 62.0078 611.112 63.4316 612.542 63.4316ZM617.065 64L620.985 56.2832V56.2598H616.28V55.5449H621.788V56.2949L617.915 64H617.065Z" fill="white"/>
</g>
<g clip-path="url(#clip3_302_839)">
<rect width="645" height="36" transform="translate(0 80)" fill="#86A2FF" fill-opacity="0.2"/>
<mask id="path-57-inside-19_302_839" fill="white">
<path d="M0 80H71.6667V116H0V80Z"/>
</mask>
<path d="M0 80V79H-1V80H0ZM0 81H71.6667V79H0V81ZM1 116V80H-1V116H1Z" fill="white" fill-opacity="0.2" mask="url(#path-57-inside-19_302_839)"/>
<path d="M12.5469 95.3633H14.5586C15.6172 95.3633 16.3633 96.1055 16.3633 97.1719C16.3633 98.2422 15.6094 98.9883 14.5508 98.9883H13.25V101H12.5469V95.3633ZM13.25 95.9883V98.3633H14.375C15.1797 98.3633 15.6406 97.9219 15.6406 97.1719C15.6406 96.4258 15.1836 95.9883 14.375 95.9883H13.25ZM18.0547 100.492C18.6953 100.492 19.1875 100.043 19.1875 99.457V99.125L18.1016 99.1914C17.5547 99.2266 17.2422 99.4688 17.2422 99.8516C17.2422 100.238 17.5664 100.492 18.0547 100.492ZM17.9023 101.07C17.0938 101.07 16.5508 100.582 16.5508 99.8516C16.5508 99.1562 17.0859 98.7188 18.0234 98.6641L19.1875 98.5977V98.2578C19.1875 97.7617 18.8594 97.4648 18.2969 97.4648C17.7734 97.4648 17.4453 97.7109 17.3594 98.1094H16.7031C16.75 97.4062 17.3516 96.8672 18.3125 96.8672C19.2656 96.8672 19.8672 97.3828 19.8672 98.1914V101H19.2227V100.301H19.207C18.9648 100.766 18.4492 101.07 17.9023 101.07ZM21.0664 102.52C20.9844 102.52 20.8477 102.512 20.7734 102.496V101.926C20.8477 101.941 20.9531 101.945 21.0391 101.945C21.418 101.945 21.6289 101.762 21.7852 101.289L21.8789 101.004L20.3789 96.9375H21.1055L22.2305 100.32H22.2422L23.3672 96.9375H24.082L22.4844 101.285C22.1367 102.234 21.8008 102.52 21.0664 102.52ZM24.6562 101V95.3633H25.3359V101H24.6562ZM27.9375 101.07C26.8125 101.07 26.0547 100.262 26.0547 98.9688C26.0547 97.6719 26.8125 96.8672 27.9375 96.8672C29.0586 96.8672 29.8164 97.6719 29.8164 98.9688C29.8164 100.262 29.0586 101.07 27.9375 101.07ZM27.9375 100.473C28.6562 100.473 29.125 99.9258 29.125 98.9688C29.125 98.0117 28.6562 97.4648 27.9375 97.4648C27.2188 97.4648 26.7461 98.0117 26.7461 98.9688C26.7461 99.9258 27.2188 100.473 27.9375 100.473ZM31.8438 100.492C32.4844 100.492 32.9766 100.043 32.9766 99.457V99.125L31.8906 99.1914C31.3438 99.2266 31.0312 99.4688 31.0312 99.8516C31.0312 100.238 31.3555 100.492 31.8438 100.492ZM31.6914 101.07C30.8828 101.07 30.3398 100.582 30.3398 99.8516C30.3398 99.1562 30.875 98.7188 31.8125 98.6641L32.9766 98.5977V98.2578C32.9766 97.7617 32.6484 97.4648 32.0859 97.4648C31.5625 97.4648 31.2344 97.7109 31.1484 98.1094H30.4922C30.5391 97.4062 31.1406 96.8672 32.1016 96.8672C33.0547 96.8672 33.6562 97.3828 33.6562 98.1914V101H33.0117V100.301H32.9961C32.7539 100.766 32.2383 101.07 31.6914 101.07ZM36.0586 101.07C35.0234 101.07 34.3203 100.242 34.3203 98.9688C34.3203 97.6953 35.0195 96.8672 36.043 96.8672C36.625 96.8672 37.0938 97.1523 37.3359 97.5977H37.3516V95.3633H38.0312V101H37.3828V100.312H37.3711C37.1094 100.781 36.6445 101.07 36.0586 101.07ZM36.1875 97.4648C35.4688 97.4648 35.0156 98.0508 35.0156 98.9688C35.0156 99.8906 35.4688 100.473 36.1875 100.473C36.8867 100.473 37.3555 99.8789 37.3555 98.9688C37.3555 98.0625 36.8867 97.4648 36.1875 97.4648ZM39.4141 102.121H38.8477L39.2266 100.133H39.9492L39.4141 102.121ZM42.9453 98.7422L44.7422 96.9375H45.5664L43.8047 98.6914L45.6211 101H44.832L43.3242 99.1094L42.9453 99.4688V101H42.2656V95.3633H42.9453V98.7422ZM47.5703 100.434C48.2773 100.434 48.75 99.8477 48.75 98.9531C48.75 98.0586 48.2773 97.4648 47.5703 97.4648C46.8711 97.4648 46.4141 98.043 46.4141 98.9531C46.4141 99.8633 46.8711 100.434 47.5703 100.434ZM47.5938 102.531C46.6992 102.531 45.9922 102.027 45.8789 101.336H46.5781C46.7109 101.707 47.1133 101.953 47.6211 101.953C48.3242 101.953 48.75 101.547 48.75 100.941V100.301H48.7344C48.4844 100.742 48.0039 101.031 47.4336 101.031C46.3984 101.031 45.7188 100.215 45.7188 98.9531C45.7188 97.6797 46.3984 96.8672 47.4492 96.8672C48.0234 96.8672 48.5 97.1484 48.7695 97.6211H48.7812V96.9375H49.4297V100.918C49.4297 101.887 48.7148 102.531 47.5938 102.531Z" fill="white"/>
<mask id="path-60-inside-20_302_839" fill="white">
<path d="M71.6667 80H143.333V116H71.6667V80Z"/>
</mask>
<path d="M71.6667 80V79H70.6667V80H71.6667ZM71.6667 81H143.333V79H71.6667V81ZM72.6667 116V80H70.6667V116H72.6667Z" fill="white" fill-opacity="0.2" mask="url(#path-60-inside-20_302_839)"/>
<path d="M100.773 102V94.4062H100.75C100.563 94.5234 98.7285 95.8125 98.4824 95.9648V95.1094C98.7168 94.9629 100.51 93.6973 100.762 93.5449H101.547V102H100.773ZM105.309 97.9746V97.2949H106.293C107.4 97.2949 108.162 96.6152 108.162 95.6719C108.162 94.7578 107.471 94.1133 106.328 94.1133C105.279 94.1133 104.535 94.7461 104.447 95.6836H103.674C103.773 94.3242 104.84 93.4102 106.363 93.4102C107.852 93.4102 108.971 94.3184 108.971 95.5723C108.971 96.6328 108.285 97.3945 107.207 97.5879V97.6113C108.502 97.6875 109.334 98.4902 109.334 99.6855C109.334 101.115 108.057 102.135 106.41 102.135C104.705 102.135 103.551 101.162 103.498 99.8086H104.272C104.336 100.752 105.186 101.432 106.404 101.432C107.629 101.432 108.52 100.711 108.52 99.709C108.52 98.6309 107.688 97.9746 106.328 97.9746H105.309ZM113.488 102.135C111.566 102.135 110.424 100.441 110.424 97.7695C110.424 95.1152 111.578 93.4102 113.488 93.4102C115.404 93.4102 116.547 95.1094 116.547 97.7637C116.547 100.436 115.41 102.135 113.488 102.135ZM113.488 101.432C114.918 101.432 115.744 100.008 115.744 97.7695C115.744 95.5488 114.906 94.1191 113.488 94.1191C112.076 94.1191 111.232 95.5605 111.232 97.7637C111.232 100.008 112.059 101.432 113.488 101.432Z" fill="white"/>
<mask id="path-63-inside-21_302_839" fill="white">
<path d="M143.333 80H215V116H143.333V80Z"/>
</mask>
<path d="M143.333 80V79H142.333V80H143.333ZM143.333 81H215V79H143.333V81ZM144.333 116V80H142.333V116H144.333Z" fill="white" fill-opacity="0.2" mask="url(#path-63-inside-21_302_839)"/>
<path d="M172.44 102V94.4062H172.417C172.229 94.5234 170.395 95.8125 170.149 95.9648V95.1094C170.383 94.9629 172.176 93.6973 172.428 93.5449H173.213V102H172.44ZM176.975 97.9746V97.2949H177.96C179.067 97.2949 179.829 96.6152 179.829 95.6719C179.829 94.7578 179.137 94.1133 177.995 94.1133C176.946 94.1133 176.202 94.7461 176.114 95.6836H175.34C175.44 94.3242 176.506 93.4102 178.03 93.4102C179.518 93.4102 180.637 94.3184 180.637 95.5723C180.637 96.6328 179.952 97.3945 178.874 97.5879V97.6113C180.169 97.6875 181.001 98.4902 181.001 99.6855C181.001 101.115 179.723 102.135 178.077 102.135C176.372 102.135 175.217 101.162 175.165 99.8086H175.938C176.003 100.752 176.852 101.432 178.071 101.432C179.295 101.432 180.186 100.711 180.186 99.709C180.186 98.6309 179.354 97.9746 177.995 97.9746H176.975ZM185.155 102.135C183.233 102.135 182.09 100.441 182.09 97.7695C182.09 95.1152 183.245 93.4102 185.155 93.4102C187.071 93.4102 188.213 95.1094 188.213 97.7637C188.213 100.436 187.077 102.135 185.155 102.135ZM185.155 101.432C186.585 101.432 187.411 100.008 187.411 97.7695C187.411 95.5488 186.573 94.1191 185.155 94.1191C183.743 94.1191 182.899 95.5605 182.899 97.7637C182.899 100.008 183.725 101.432 185.155 101.432Z" fill="white"/>
<mask id="path-66-inside-22_302_839" fill="white">
<path d="M215 80H286.667V116H215V80Z"/>
</mask>
<path d="M215 80V79H214V80H215ZM215 81H286.667V79H215V81ZM216 116V80H214V116H216Z" fill="white" fill-opacity="0.2" mask="url(#path-66-inside-22_302_839)"/>
<path d="M244.148 102V94.4062H244.124C243.937 94.5234 242.103 95.8125 241.857 95.9648V95.1094C242.091 94.9629 243.884 93.6973 244.136 93.5449H244.921V102H244.148ZM250.031 102.135C248.894 102.135 247.968 101.561 247.447 100.535C247.066 99.873 246.878 99.0117 246.878 97.9512C246.878 95.1152 248.085 93.4102 250.089 93.4102C251.495 93.4102 252.574 94.2598 252.814 95.5547H252.005C251.794 94.6934 251.027 94.1191 250.083 94.1191C248.536 94.1191 247.652 95.5605 247.652 98.0684H247.669C248.015 97.1191 249.017 96.4629 250.16 96.4629C251.765 96.4629 252.966 97.6582 252.966 99.2578C252.966 100.916 251.724 102.135 250.031 102.135ZM250.025 101.42C251.214 101.42 252.152 100.477 252.152 99.2812C252.152 98.0684 251.255 97.1719 250.031 97.1719C248.824 97.1719 247.88 98.0742 247.88 99.2227C247.88 100.453 248.812 101.42 250.025 101.42ZM256.956 102.135C255.41 102.135 254.226 101.162 254.12 99.7969H254.906C255.017 100.746 255.878 101.426 256.968 101.426C258.228 101.426 259.124 100.535 259.124 99.293C259.124 98.0566 258.228 97.1484 257.003 97.1484C256.148 97.1484 255.41 97.5527 255.017 98.2266H254.249L254.73 93.5449H259.417V94.2598H255.392L255.076 97.3828H255.099C255.509 96.8086 256.277 96.4512 257.132 96.4512C258.743 96.4512 259.927 97.6465 259.927 99.2754C259.927 100.945 258.685 102.135 256.956 102.135Z" fill="white"/>
<mask id="path-69-inside-23_302_839" fill="white">
<path d="M286.667 80H358.333V116H286.667V80Z"/>
</mask>
<path d="M286.667 80V79H285.667V80H286.667ZM286.667 81H358.333V79H286.667V81ZM287.667 116V80H285.667V116H287.667Z" fill="white" fill-opacity="0.2" mask="url(#path-69-inside-23_302_839)"/>
<path d="M316.107 102V94.4062H316.084C315.896 94.5234 314.062 95.8125 313.816 95.9648V95.1094C314.051 94.9629 315.844 93.6973 316.096 93.5449H316.881V102H316.107ZM319.576 102L323.496 94.2832V94.2598H318.791V93.5449H324.299V94.2949L320.426 102H319.576ZM328.154 102.135C326.232 102.135 325.09 100.441 325.09 97.7695C325.09 95.1152 326.244 93.4102 328.154 93.4102C330.07 93.4102 331.213 95.1094 331.213 97.7637C331.213 100.436 330.076 102.135 328.154 102.135ZM328.154 101.432C329.584 101.432 330.41 100.008 330.41 97.7695C330.41 95.5488 329.572 94.1191 328.154 94.1191C326.742 94.1191 325.898 95.5605 325.898 97.7637C325.898 100.008 326.725 101.432 328.154 101.432Z" fill="white"/>
<mask id="path-72-inside-24_302_839" fill="white">
<path d="M358.333 80H430V116H358.333V80Z"/>
</mask>
<path d="M358.333 80V79H357.333V80H358.333ZM358.333 81H430V79H358.333V81ZM359.333 116V80H357.333V116H359.333Z" fill="white" fill-opacity="0.2" mask="url(#path-72-inside-24_302_839)"/>
<path d="M387.774 102V94.4062H387.751C387.563 94.5234 385.729 95.8125 385.483 95.9648V95.1094C385.717 94.9629 387.51 93.6973 387.762 93.5449H388.547V102H387.774ZM391.243 102L395.163 94.2832V94.2598H390.458V93.5449H395.965V94.2949L392.092 102H391.243ZM399.821 102.135C397.899 102.135 396.756 100.441 396.756 97.7695C396.756 95.1152 397.911 93.4102 399.821 93.4102C401.737 93.4102 402.879 95.1094 402.879 97.7637C402.879 100.436 401.743 102.135 399.821 102.135ZM399.821 101.432C401.251 101.432 402.077 100.008 402.077 97.7695C402.077 95.5488 401.239 94.1191 399.821 94.1191C398.409 94.1191 397.565 95.5605 397.565 97.7637C397.565 100.008 398.391 101.432 399.821 101.432Z" fill="white"/>
<mask id="path-75-inside-25_302_839" fill="white">
<path d="M430 80H501.667V116H430V80Z"/>
</mask>
<path d="M430 80V79H429V80H430ZM430 81H501.667V79H430V81ZM431 116V80H429V116H431Z" fill="white" fill-opacity="0.2" mask="url(#path-75-inside-25_302_839)"/>
<path d="M456.177 95.9121C456.189 94.4707 457.337 93.4102 458.884 93.4102C460.361 93.4102 461.515 94.4238 461.515 95.7188C461.515 96.6445 461.099 97.3418 459.693 98.8008L457.337 101.262V101.285H461.732V102H456.218V101.438L459.206 98.2793C460.413 97.0078 460.718 96.5039 460.718 95.7656C460.718 94.8398 459.898 94.1133 458.861 94.1133C457.777 94.1133 456.962 94.8809 456.951 95.9121V95.918H456.177V95.9121ZM462.927 95.9121C462.939 94.4707 464.087 93.4102 465.634 93.4102C467.111 93.4102 468.265 94.4238 468.265 95.7188C468.265 96.6445 467.849 97.3418 466.443 98.8008L464.087 101.262V101.285H468.482V102H462.968V101.438L465.956 98.2793C467.163 97.0078 467.468 96.5039 467.468 95.7656C467.468 94.8398 466.648 94.1133 465.611 94.1133C464.527 94.1133 463.712 94.8809 463.701 95.9121V95.918H462.927V95.9121ZM472.583 102.135C470.661 102.135 469.519 100.441 469.519 97.7695C469.519 95.1152 470.673 93.4102 472.583 93.4102C474.499 93.4102 475.642 95.1094 475.642 97.7637C475.642 100.436 474.505 102.135 472.583 102.135ZM472.583 101.432C474.013 101.432 474.839 100.008 474.839 97.7695C474.839 95.5488 474.001 94.1191 472.583 94.1191C471.171 94.1191 470.327 95.5605 470.327 97.7637C470.327 100.008 471.154 101.432 472.583 101.432Z" fill="white"/>
<mask id="path-78-inside-26_302_839" fill="white">
<path d="M501.667 80H573.333V116H501.667V80Z"/>
</mask>
<path d="M501.667 80V79H500.667V80H501.667ZM501.667 81H573.333V79H501.667V81ZM502.667 116V80H500.667V116H502.667Z" fill="white" fill-opacity="0.2" mask="url(#path-78-inside-26_302_839)"/>
<path d="M527.844 95.9121C527.856 94.4707 529.004 93.4102 530.551 93.4102C532.027 93.4102 533.182 94.4238 533.182 95.7188C533.182 96.6445 532.766 97.3418 531.359 98.8008L529.004 101.262V101.285H533.399V102H527.885V101.438L530.873 98.2793C532.08 97.0078 532.385 96.5039 532.385 95.7656C532.385 94.8398 531.565 94.1133 530.527 94.1133C529.443 94.1133 528.629 94.8809 528.617 95.9121V95.918H527.844V95.9121ZM534.594 95.9121C534.606 94.4707 535.754 93.4102 537.301 93.4102C538.777 93.4102 539.932 94.4238 539.932 95.7188C539.932 96.6445 539.516 97.3418 538.109 98.8008L535.754 101.262V101.285H540.149V102H534.635V101.438L537.623 98.2793C538.83 97.0078 539.135 96.5039 539.135 95.7656C539.135 94.8398 538.315 94.1133 537.277 94.1133C536.193 94.1133 535.379 94.8809 535.367 95.9121V95.918H534.594V95.9121ZM544.25 102.135C542.328 102.135 541.186 100.441 541.186 97.7695C541.186 95.1152 542.34 93.4102 544.25 93.4102C546.166 93.4102 547.309 95.1094 547.309 97.7637C547.309 100.436 546.172 102.135 544.25 102.135ZM544.25 101.432C545.68 101.432 546.506 100.008 546.506 97.7695C546.506 95.5488 545.668 94.1191 544.25 94.1191C542.838 94.1191 541.994 95.5605 541.994 97.7637C541.994 100.008 542.82 101.432 544.25 101.432Z" fill="white"/>
<mask id="path-81-inside-27_302_839" fill="white">
<path d="M573.333 80H645V116H573.333V80Z"/>
</mask>
<path d="M573.333 80V79H572.333V80H573.333ZM573.333 81H645V79H573.333V81ZM574.333 116V80H572.333V116H574.333Z" fill="white" fill-opacity="0.2" mask="url(#path-81-inside-27_302_839)"/>
<path d="M599.335 95.9121C599.346 94.4707 600.495 93.4102 602.042 93.4102C603.518 93.4102 604.673 94.4238 604.673 95.7188C604.673 96.6445 604.257 97.3418 602.85 98.8008L600.495 101.262V101.285H604.889V102H599.376V101.438L602.364 98.2793C603.571 97.0078 603.876 96.5039 603.876 95.7656C603.876 94.8398 603.055 94.1133 602.018 94.1133C600.934 94.1133 600.12 94.8809 600.108 95.9121V95.918H599.335V95.9121ZM608.956 102.135C607.18 102.135 605.944 101.115 605.944 99.7031C605.944 98.6367 606.706 97.7695 607.831 97.5293V97.5117C606.876 97.248 606.266 96.5273 606.266 95.6191C606.266 94.3418 607.397 93.4102 608.956 93.4102C610.52 93.4102 611.639 94.3418 611.639 95.6191C611.639 96.5156 611.03 97.2363 610.081 97.5117V97.5293C611.206 97.7695 611.967 98.6426 611.967 99.7031C611.967 101.121 610.737 102.135 608.956 102.135ZM608.956 101.432C610.262 101.432 611.153 100.676 611.153 99.6562C611.153 98.6426 610.257 97.9219 608.956 97.9219C607.661 97.9219 606.759 98.6426 606.759 99.6562C606.759 100.676 607.649 101.432 608.956 101.432ZM608.956 97.207C610.057 97.207 610.842 96.5742 610.842 95.6836C610.842 94.7754 610.087 94.1074 608.956 94.1074C607.831 94.1074 607.063 94.7754 607.063 95.6836C607.063 96.5742 607.848 97.207 608.956 97.207ZM616.092 102.135C614.171 102.135 613.028 100.441 613.028 97.7695C613.028 95.1152 614.182 93.4102 616.092 93.4102C618.009 93.4102 619.151 95.1094 619.151 97.7637C619.151 100.436 618.014 102.135 616.092 102.135ZM616.092 101.432C617.522 101.432 618.348 100.008 618.348 97.7695C618.348 95.5488 617.51 94.1191 616.092 94.1191C614.68 94.1191 613.837 95.5605 613.837 97.7637C613.837 100.008 614.663 101.432 616.092 101.432Z" fill="white"/>
</g>
<g clip-path="url(#clip4_302_839)">
<rect width="645" height="36" transform="translate(0 116)" fill="#86A2FF" fill-opacity="0.2"/>
<mask id="path-84-inside-28_302_839" fill="white">
<path d="M0 116H71.6667V152H0V116Z"/>
</mask>
<path d="M0 116V115H-1V116H0ZM0 117H71.6667V115H0V117ZM1 152V116H-1V152H1Z" fill="white" fill-opacity="0.2" mask="url(#path-84-inside-28_302_839)"/>
<path d="M13.2422 137H12.5469V131.363H13.2305L16.3164 135.789H16.3516V131.363H17.0469V137H16.3633L13.2773 132.59H13.2422V137ZM21.3711 132.938V137H20.7266V136.34H20.7109C20.4688 136.809 20.0469 137.07 19.4219 137.07C18.5352 137.07 18.0156 136.496 18.0156 135.574V132.938H18.6953V135.453C18.6953 136.113 19.0039 136.469 19.6328 136.469C20.293 136.469 20.6914 136.016 20.6914 135.324V132.938H21.3711ZM22.2539 137V132.938H22.8945V133.586H22.9102C23.1016 133.156 23.5156 132.867 24.0625 132.867C24.6172 132.867 25.0273 133.148 25.2031 133.641H25.2188C25.4453 133.156 25.9219 132.867 26.4922 132.867C27.2969 132.867 27.8164 133.391 27.8164 134.195V137H27.1367V134.352C27.1367 133.797 26.8281 133.469 26.293 133.469C25.7539 133.469 25.375 133.867 25.375 134.418V137H24.6953V134.277C24.6953 133.789 24.3672 133.469 23.8633 133.469C23.3242 133.469 22.9336 133.891 22.9336 134.453V137H22.2539ZM30.7031 137.07C30.1094 137.07 29.6445 136.781 29.3828 136.312H29.3672V137H28.7188V131.363H29.3984V133.617H29.4141C29.668 133.152 30.1406 132.867 30.7148 132.867C31.7383 132.867 32.4297 133.695 32.4297 134.969C32.4297 136.246 31.7422 137.07 30.7031 137.07ZM30.5703 133.465C29.8828 133.465 29.3945 134.066 29.3945 134.969C29.3945 135.875 29.8828 136.473 30.5703 136.473C31.2891 136.473 31.7344 135.898 31.7344 134.969C31.7344 134.047 31.2891 133.465 30.5703 133.465ZM34.75 133.457C34.1133 133.457 33.668 133.945 33.625 134.621H35.832C35.8164 133.941 35.3906 133.457 34.75 133.457ZM35.8164 135.836H36.4844C36.3672 136.547 35.6797 137.07 34.793 137.07C33.6289 137.07 32.9219 136.262 32.9219 134.984C32.9219 133.723 33.6406 132.867 34.7617 132.867C35.8594 132.867 36.5352 133.664 36.5352 134.895V135.152H33.6211V135.191C33.6211 135.969 34.0781 136.48 34.8086 136.48C35.3242 136.48 35.7031 136.219 35.8164 135.836ZM37.2227 137V132.938H37.8633V133.602H37.8789C38.0117 133.152 38.3867 132.867 38.8633 132.867C38.9805 132.867 39.082 132.887 39.1367 132.895V133.555C39.082 133.535 38.9375 133.516 38.7734 133.516C38.2461 133.516 37.9023 133.895 37.9023 134.469V137H37.2227ZM43.0156 137.07C41.8906 137.07 41.1328 136.262 41.1328 134.969C41.1328 133.672 41.8906 132.867 43.0156 132.867C44.1367 132.867 44.8945 133.672 44.8945 134.969C44.8945 136.262 44.1367 137.07 43.0156 137.07ZM43.0156 136.473C43.7344 136.473 44.2031 135.926 44.2031 134.969C44.2031 134.012 43.7344 133.465 43.0156 133.465C42.2969 133.465 41.8242 134.012 41.8242 134.969C41.8242 135.926 42.2969 136.473 43.0156 136.473ZM45.8008 137V133.496H45.2344V132.938H45.8008V132.484C45.8008 131.703 46.1641 131.332 46.9141 131.332C47.0664 131.332 47.2305 131.348 47.3281 131.363V131.914C47.2461 131.902 47.1328 131.891 47.0195 131.891C46.6523 131.891 46.4766 132.086 46.4766 132.488V132.938H47.3086V133.496H46.4805V137H45.8008ZM50.9922 136.492C51.6328 136.492 52.125 136.043 52.125 135.457V135.125L51.0391 135.191C50.4922 135.227 50.1797 135.469 50.1797 135.852C50.1797 136.238 50.5039 136.492 50.9922 136.492ZM50.8398 137.07C50.0312 137.07 49.4883 136.582 49.4883 135.852C49.4883 135.156 50.0234 134.719 50.9609 134.664L52.125 134.598V134.258C52.125 133.762 51.7969 133.465 51.2344 133.465C50.7109 133.465 50.3828 133.711 50.2969 134.109H49.6406C49.6875 133.406 50.2891 132.867 51.25 132.867C52.2031 132.867 52.8047 133.383 52.8047 134.191V137H52.1602V136.301H52.1445C51.9023 136.766 51.3867 137.07 50.8398 137.07ZM55.1055 135.453H55.0898L54.1094 137H53.3555L54.7383 134.969L53.3789 132.938H54.1367L55.1133 134.461H55.1289L56.0938 132.938H56.8516L55.4805 134.941L56.832 137H56.0781L55.1055 135.453ZM58.9766 133.457C58.3398 133.457 57.8945 133.945 57.8516 134.621H60.0586C60.043 133.941 59.6172 133.457 58.9766 133.457ZM60.043 135.836H60.7109C60.5938 136.547 59.9062 137.07 59.0195 137.07C57.8555 137.07 57.1484 136.262 57.1484 134.984C57.1484 133.723 57.8672 132.867 58.9883 132.867C60.0859 132.867 60.7617 133.664 60.7617 134.895V135.152H57.8477V135.191C57.8477 135.969 58.3047 136.48 59.0352 136.48C59.5508 136.48 59.9297 136.219 60.043 135.836ZM61.3789 134.059C61.3789 133.363 62 132.867 62.8945 132.867C63.7344 132.867 64.3516 133.367 64.3828 134.055H63.7344C63.6875 133.664 63.3711 133.422 62.8711 133.422C62.375 133.422 62.0469 133.668 62.0469 134.023C62.0469 134.305 62.2617 134.492 62.7227 134.609L63.3516 134.762C64.1719 134.969 64.4688 135.266 64.4688 135.863C64.4688 136.57 63.8008 137.07 62.8516 137.07C61.9609 137.07 61.3398 136.586 61.2695 135.867H61.9492C62.0234 136.289 62.3438 136.516 62.8945 136.516C63.4453 136.516 63.7852 136.281 63.7852 135.914C63.7852 135.625 63.6172 135.469 63.1602 135.348L62.4453 135.164C61.7305 134.98 61.3789 134.613 61.3789 134.059Z" fill="white"/>
<mask id="path-87-inside-29_302_839" fill="white">
<path d="M71.6667 116H143.333V152H71.6667V116Z"/>
</mask>
<path d="M71.6667 116V115H70.6667V116H71.6667ZM71.6667 117H143.333V115H71.6667V117ZM72.6667 152V116H70.6667V152H72.6667Z" fill="white" fill-opacity="0.2" mask="url(#path-87-inside-29_302_839)"/>
<path d="M107.652 138.135C106.516 138.135 105.59 137.561 105.068 136.535C104.688 135.873 104.5 135.012 104.5 133.951C104.5 131.115 105.707 129.41 107.711 129.41C109.117 129.41 110.195 130.26 110.436 131.555H109.627C109.416 130.693 108.648 130.119 107.705 130.119C106.158 130.119 105.273 131.561 105.273 134.068H105.291C105.637 133.119 106.639 132.463 107.781 132.463C109.387 132.463 110.588 133.658 110.588 135.258C110.588 136.916 109.346 138.135 107.652 138.135ZM107.647 137.42C108.836 137.42 109.773 136.477 109.773 135.281C109.773 134.068 108.877 133.172 107.652 133.172C106.445 133.172 105.502 134.074 105.502 135.223C105.502 136.453 106.434 137.42 107.647 137.42Z" fill="white"/>
<mask id="path-90-inside-30_302_839" fill="white">
<path d="M143.333 116H215V152H143.333V116Z"/>
</mask>
<path d="M143.333 116V115H142.333V116H143.333ZM143.333 117H215V115H143.333V117ZM144.333 152V116H142.333V152H144.333Z" fill="white" fill-opacity="0.2" mask="url(#path-90-inside-30_302_839)"/>
<path d="M179.319 138.135C178.182 138.135 177.256 137.561 176.735 136.535C176.354 135.873 176.167 135.012 176.167 133.951C176.167 131.115 177.374 129.41 179.378 129.41C180.784 129.41 181.862 130.26 182.102 131.555H181.294C181.083 130.693 180.315 130.119 179.372 130.119C177.825 130.119 176.94 131.561 176.94 134.068H176.958C177.303 133.119 178.305 132.463 179.448 132.463C181.053 132.463 182.254 133.658 182.254 135.258C182.254 136.916 181.012 138.135 179.319 138.135ZM179.313 137.42C180.503 137.42 181.44 136.477 181.44 135.281C181.44 134.068 180.544 133.172 179.319 133.172C178.112 133.172 177.169 134.074 177.169 135.223C177.169 136.453 178.1 137.42 179.313 137.42Z" fill="white"/>
<mask id="path-93-inside-31_302_839" fill="white">
<path d="M215 116H286.667V152H215V116Z"/>
</mask>
<path d="M215 116V115H214V116H215ZM215 117H286.667V115H215V117ZM216 152V116H214V152H216Z" fill="white" fill-opacity="0.2" mask="url(#path-93-inside-31_302_839)"/>
<path d="M250.986 138.135C249.849 138.135 248.923 137.561 248.402 136.535C248.021 135.873 247.833 135.012 247.833 133.951C247.833 131.115 249.04 129.41 251.044 129.41C252.451 129.41 253.529 130.26 253.769 131.555H252.96C252.749 130.693 251.982 130.119 251.038 130.119C249.492 130.119 248.607 131.561 248.607 134.068H248.624C248.97 133.119 249.972 132.463 251.115 132.463C252.72 132.463 253.921 133.658 253.921 135.258C253.921 136.916 252.679 138.135 250.986 138.135ZM250.98 137.42C252.169 137.42 253.107 136.477 253.107 135.281C253.107 134.068 252.21 133.172 250.986 133.172C249.779 133.172 248.835 134.074 248.835 135.223C248.835 136.453 249.767 137.42 250.98 137.42Z" fill="white"/>
<mask id="path-96-inside-32_302_839" fill="white">
<path d="M286.667 116H358.333V152H286.667V116Z"/>
</mask>
<path d="M286.667 116V115H285.667V116H286.667ZM286.667 117H358.333V115H286.667V117ZM287.667 152V116H285.667V152H287.667Z" fill="white" fill-opacity="0.2" mask="url(#path-96-inside-32_302_839)"/>
<path d="M322.652 138.135C321.516 138.135 320.59 137.561 320.068 136.535C319.687 135.873 319.5 135.012 319.5 133.951C319.5 131.115 320.707 129.41 322.711 129.41C324.117 129.41 325.195 130.26 325.436 131.555H324.627C324.416 130.693 323.648 130.119 322.705 130.119C321.158 130.119 320.273 131.561 320.273 134.068H320.291C320.637 133.119 321.639 132.463 322.781 132.463C324.387 132.463 325.588 133.658 325.588 135.258C325.588 136.916 324.346 138.135 322.652 138.135ZM322.646 137.42C323.836 137.42 324.773 136.477 324.773 135.281C324.773 134.068 323.877 133.172 322.652 133.172C321.445 133.172 320.502 134.074 320.502 135.223C320.502 136.453 321.434 137.42 322.646 137.42Z" fill="white"/>
<mask id="path-99-inside-33_302_839" fill="white">
<path d="M358.333 116H430V152H358.333V116Z"/>
</mask>
<path d="M358.333 116V115H357.333V116H358.333ZM358.333 117H430V115H358.333V117ZM359.333 152V116H357.333V152H359.333Z" fill="white" fill-opacity="0.2" mask="url(#path-99-inside-33_302_839)"/>
<path d="M394.319 138.135C393.182 138.135 392.256 137.561 391.735 136.535C391.354 135.873 391.167 135.012 391.167 133.951C391.167 131.115 392.374 129.41 394.378 129.41C395.784 129.41 396.862 130.26 397.102 131.555H396.294C396.083 130.693 395.315 130.119 394.372 130.119C392.825 130.119 391.94 131.561 391.94 134.068H391.958C392.303 133.119 393.305 132.463 394.448 132.463C396.053 132.463 397.254 133.658 397.254 135.258C397.254 136.916 396.012 138.135 394.319 138.135ZM394.313 137.42C395.503 137.42 396.44 136.477 396.44 135.281C396.44 134.068 395.544 133.172 394.319 133.172C393.112 133.172 392.169 134.074 392.169 135.223C392.169 136.453 393.1 137.42 394.313 137.42Z" fill="white"/>
<mask id="path-102-inside-34_302_839" fill="white">
<path d="M430 116H501.667V152H430V116Z"/>
</mask>
<path d="M430 116V115H429V116H430ZM430 117H501.667V115H430V117ZM431 152V116H429V152H431Z" fill="white" fill-opacity="0.2" mask="url(#path-102-inside-34_302_839)"/>
<path d="M465.986 138.135C464.849 138.135 463.923 137.561 463.402 136.535C463.021 135.873 462.833 135.012 462.833 133.951C462.833 131.115 464.04 129.41 466.044 129.41C467.451 129.41 468.529 130.26 468.769 131.555H467.96C467.749 130.693 466.982 130.119 466.038 130.119C464.492 130.119 463.607 131.561 463.607 134.068H463.624C463.97 133.119 464.972 132.463 466.115 132.463C467.72 132.463 468.921 133.658 468.921 135.258C468.921 136.916 467.679 138.135 465.986 138.135ZM465.98 137.42C467.169 137.42 468.107 136.477 468.107 135.281C468.107 134.068 467.21 133.172 465.986 133.172C464.779 133.172 463.835 134.074 463.835 135.223C463.835 136.453 464.767 137.42 465.98 137.42Z" fill="white"/>
<mask id="path-105-inside-35_302_839" fill="white">
<path d="M501.667 116H573.333V152H501.667V116Z"/>
</mask>
<path d="M501.667 116V115H500.667V116H501.667ZM501.667 117H573.333V115H501.667V117ZM502.667 152V116H500.667V152H502.667Z" fill="white" fill-opacity="0.2" mask="url(#path-105-inside-35_302_839)"/>
<path d="M537.652 138.135C536.516 138.135 535.59 137.561 535.068 136.535C534.688 135.873 534.5 135.012 534.5 133.951C534.5 131.115 535.707 129.41 537.711 129.41C539.117 129.41 540.195 130.26 540.436 131.555H539.627C539.416 130.693 538.649 130.119 537.705 130.119C536.158 130.119 535.274 131.561 535.274 134.068H535.291C535.637 133.119 536.639 132.463 537.781 132.463C539.387 132.463 540.588 133.658 540.588 135.258C540.588 136.916 539.346 138.135 537.652 138.135ZM537.647 137.42C538.836 137.42 539.774 136.477 539.774 135.281C539.774 134.068 538.877 133.172 537.652 133.172C536.445 133.172 535.502 134.074 535.502 135.223C535.502 136.453 536.434 137.42 537.647 137.42Z" fill="white"/>
<mask id="path-108-inside-36_302_839" fill="white">
<path d="M573.333 116H645V152H573.333V116Z"/>
</mask>
<path d="M573.333 116V115H572.333V116H573.333ZM573.333 117H645V115H573.333V117ZM574.333 152V116H572.333V152H574.333Z" fill="white" fill-opacity="0.2" mask="url(#path-108-inside-36_302_839)"/>
<path d="M609.319 138.135C608.182 138.135 607.257 137.561 606.735 136.535C606.354 135.873 606.167 135.012 606.167 133.951C606.167 131.115 607.374 129.41 609.378 129.41C610.784 129.41 611.862 130.26 612.102 131.555H611.294C611.083 130.693 610.315 130.119 609.372 130.119C607.825 130.119 606.94 131.561 606.94 134.068H606.958C607.303 133.119 608.305 132.463 609.448 132.463C611.053 132.463 612.255 133.658 612.255 135.258C612.255 136.916 611.012 138.135 609.319 138.135ZM609.313 137.42C610.503 137.42 611.44 136.477 611.44 135.281C611.44 134.068 610.544 133.172 609.319 133.172C608.112 133.172 607.169 134.074 607.169 135.223C607.169 136.453 608.1 137.42 609.313 137.42Z" fill="white"/>
</g>
</g>
<rect x="0.5" y="0.5" width="644" height="151" rx="3.5" stroke="white" stroke-opacity="0.2"/>
<defs>
<clipPath id="clip0_302_839">
<rect width="645" height="152" rx="4" fill="white"/>
</clipPath>
<clipPath id="clip1_302_839">
<rect width="645" height="40" fill="white"/>
</clipPath>
<clipPath id="clip2_302_839">
<rect width="645" height="40" fill="white" transform="translate(0 40)"/>
</clipPath>
<clipPath id="clip3_302_839">
<rect width="645" height="36" fill="white" transform="translate(0 80)"/>
</clipPath>
<clipPath id="clip4_302_839">
<rect width="645" height="36" fill="white" transform="translate(0 116)"/>
</clipPath>
</defs>
</svg>
