<svg width="710" height="160" viewBox="0 0 710 160" fill="none" xmlns="http://www.w3.org/2000/svg">
<g clip-path="url(#clip0_252_671)">
<g clip-path="url(#clip1_252_671)">
<rect width="710" height="40" fill="#86A2FF" fill-opacity="0.2"/>
<mask id="path-3-inside-1_252_671" fill="white">
<path d="M0 0H78.8889V40H0V0Z"/>
</mask>
<path d="M0 0V-1H-1V0H0ZM0 1H78.8889V-1H0V1ZM1 40V0H-1V40H1Z" fill="white" fill-opacity="0.2" mask="url(#path-3-inside-1_252_671)"/>
<path d="M18.1406 23H17.4844V18.6562H17.457L15.6602 22.9609H15.0664L13.2695 18.6562H13.2422V23H12.5859V17.3633H13.4023L15.3477 22.0664H15.3789L17.3242 17.3633H18.1406V23ZM20.8906 23.0703C19.7656 23.0703 19.0078 22.2617 19.0078 20.9688C19.0078 19.6719 19.7656 18.8672 20.8906 18.8672C22.0117 18.8672 22.7695 19.6719 22.7695 20.9688C22.7695 22.2617 22.0117 23.0703 20.8906 23.0703ZM20.8906 22.4727C21.6094 22.4727 22.0781 21.9258 22.0781 20.9688C22.0781 20.0117 21.6094 19.4648 20.8906 19.4648C20.1719 19.4648 19.6992 20.0117 19.6992 20.9688C19.6992 21.9258 20.1719 22.4727 20.8906 22.4727ZM26.1406 22.4414V19.4961H24.6172L24.4922 21.207C24.457 21.7109 24.3516 22.1523 24.1602 22.4102V22.4414H26.1406ZM23.6758 24.0742H23.043V22.4414H23.3828C23.6797 22.2461 23.8242 21.7383 23.8633 21.1914L24.0195 18.9375H26.8164V22.4414H27.4609V24.0742H26.8281V23H23.6758V24.0742ZM29.7031 19.457C29.0664 19.457 28.6211 19.9453 28.5781 20.6211H30.7852C30.7695 19.9414 30.3438 19.457 29.7031 19.457ZM30.7695 21.8359H31.4375C31.3203 22.5469 30.6328 23.0703 29.7461 23.0703C28.582 23.0703 27.875 22.2617 27.875 20.9844C27.875 19.7227 28.5938 18.8672 29.7148 18.8672C30.8125 18.8672 31.4883 19.6641 31.4883 20.8945V21.1523H28.5742V21.1914C28.5742 21.9688 29.0312 22.4805 29.7617 22.4805C30.2773 22.4805 30.6562 22.2188 30.7695 21.8359ZM33.1719 21.207C33.0898 22.3281 32.8203 23.0352 31.9648 23.0352C31.8477 23.0352 31.7695 23.0117 31.7227 22.9922V22.3789C31.7578 22.3906 31.832 22.4102 31.9297 22.4102C32.332 22.4102 32.4844 21.9375 32.5352 21.1914L32.6914 18.9375H35.3516V23H34.6797V19.4961H33.2969L33.1719 21.207ZM37.7422 20.793H36.9844V22.4414H37.7422C38.2695 22.4414 38.6094 22.1133 38.6094 21.6172C38.6094 21.1172 38.2656 20.793 37.7422 20.793ZM36.3125 23V18.9375H36.9844V20.2344H37.7539C38.6836 20.2344 39.2812 20.7695 39.2812 21.6172C39.2812 22.4648 38.6836 23 37.7539 23H36.3125Z" fill="white"/>
<mask id="path-6-inside-2_252_671" fill="white">
<path d="M78.8887 0H157.778V40H78.8887V0Z"/>
</mask>
<path d="M78.8887 0V-1H77.8887V0H78.8887ZM78.8887 1H157.778V-1H78.8887V1ZM79.8887 40V0H77.8887V40H79.8887Z" fill="white" fill-opacity="0.2" mask="url(#path-6-inside-2_252_671)"/>
<path d="M101.173 16.4492H101.88C101.946 17.0586 102.525 17.4609 103.329 17.4609C104.091 17.4609 104.646 17.0586 104.646 16.5039C104.646 16.0273 104.314 15.7344 103.556 15.5391L102.833 15.3516C101.794 15.0859 101.333 14.6289 101.333 13.8633C101.333 12.9258 102.153 12.2695 103.325 12.2695C104.446 12.2695 105.259 12.9336 105.29 13.8789H104.587C104.525 13.2734 104.036 12.9023 103.302 12.9023C102.571 12.9023 102.064 13.2812 102.064 13.832C102.064 14.2578 102.376 14.5117 103.142 14.7109L103.732 14.8672C104.9 15.1602 105.372 15.6094 105.372 16.418C105.372 17.4492 104.56 18.0938 103.263 18.0938C102.067 18.0938 101.239 17.4453 101.173 16.4492ZM106.896 12.9883V15.1484H108.243C108.966 15.1484 109.376 14.7578 109.376 14.0664C109.376 13.3906 108.939 12.9883 108.212 12.9883H106.896ZM106.896 15.7695V18H106.192V12.3633H108.306C109.392 12.3633 110.103 13.0273 110.103 14.043C110.103 14.8281 109.677 15.4375 108.97 15.6602L110.275 18H109.45L108.243 15.7695H106.896ZM113.118 18H112.415V12.9961H110.638V12.3633H114.896V12.9961H113.118V18ZM115.567 18V12.3633H116.247V14.5859H116.263C116.489 14.1328 116.935 13.8672 117.552 13.8672C118.442 13.8672 118.982 14.4688 118.982 15.375V18H118.302V15.5C118.302 14.8555 117.978 14.4688 117.341 14.4688C116.665 14.4688 116.247 14.9297 116.247 15.6328V18H115.567ZM121.103 18V13.1094H121.087L119.595 14.1836V13.4414L121.095 12.3633H121.782V18H121.103ZM124.36 15.3984V14.8047H125.036C125.685 14.8047 126.138 14.3867 126.138 13.8164C126.138 13.2578 125.759 12.8789 125.044 12.8789C124.396 12.8789 123.966 13.25 123.903 13.8398H123.228C123.306 12.8828 124.017 12.2695 125.075 12.2695C126.083 12.2695 126.845 12.875 126.845 13.7227C126.845 14.4297 126.392 14.9375 125.689 15.0625V15.0781C126.54 15.1289 127.087 15.6562 127.087 16.4492C127.087 17.418 126.204 18.0938 125.099 18.0938C123.919 18.0938 123.165 17.4414 123.114 16.5078H123.79C123.853 17.0859 124.333 17.4844 125.091 17.4844C125.837 17.4844 126.372 17.0625 126.372 16.4727C126.372 15.8086 125.872 15.3984 125.067 15.3984H124.36ZM129.919 18.0938C128.603 18.0938 127.841 16.9609 127.841 15.1797C127.841 13.4141 128.61 12.2695 129.919 12.2695C131.228 12.2695 131.989 13.4062 131.989 15.1758C131.989 16.957 131.232 18.0938 129.919 18.0938ZM129.919 17.4805C130.798 17.4805 131.282 16.5859 131.282 15.1797C131.282 13.793 130.79 12.8867 129.919 12.8867C129.048 12.8867 128.548 13.8008 128.548 15.1758C128.548 16.582 129.036 17.4805 129.919 17.4805ZM135.337 16.0312H132.775V15.3984H135.337V16.0312ZM109.489 23.9883C109.489 23.0039 110.286 22.2695 111.349 22.2695C112.357 22.2695 113.15 22.9531 113.15 23.8164C113.15 24.4453 112.864 24.9141 111.923 25.8867L110.497 27.3594V27.375H113.243V28H109.525V27.5156L111.509 25.4258C112.267 24.6289 112.446 24.3281 112.446 23.8594C112.446 23.3164 111.95 22.8828 111.329 22.8828C110.669 22.8828 110.169 23.3594 110.169 23.9883V23.9922H109.489V23.9883ZM114.38 28L116.931 23.0039V22.9883H113.896V22.3633H117.626V23.0156L115.118 28H114.38ZM120.325 28.0938C119.009 28.0938 118.247 26.9609 118.247 25.1797C118.247 23.4141 119.017 22.2695 120.325 22.2695C121.634 22.2695 122.396 23.4062 122.396 25.1758C122.396 26.957 121.638 28.0938 120.325 28.0938ZM120.325 27.4805C121.204 27.4805 121.689 26.5859 121.689 25.1797C121.689 23.793 121.196 22.8867 120.325 22.8867C119.454 22.8867 118.954 23.8008 118.954 25.1758C118.954 26.582 119.442 27.4805 120.325 27.4805ZM125.177 28.0938C123.86 28.0938 123.099 26.9609 123.099 25.1797C123.099 23.4141 123.868 22.2695 125.177 22.2695C126.485 22.2695 127.247 23.4062 127.247 25.1758C127.247 26.957 126.489 28.0938 125.177 28.0938ZM125.177 27.4805C126.056 27.4805 126.54 26.5859 126.54 25.1797C126.54 23.793 126.048 22.8867 125.177 22.8867C124.306 22.8867 123.806 23.8008 123.806 25.1758C123.806 26.582 124.294 27.4805 125.177 27.4805Z" fill="white"/>
<mask id="path-9-inside-3_252_671" fill="white">
<path d="M157.778 0H236.667V40H157.778V0Z"/>
</mask>
<path d="M157.778 0V-1H156.778V0H157.778ZM157.778 1H236.667V-1H157.778V1ZM158.778 40V0H156.778V40H158.778Z" fill="white" fill-opacity="0.2" mask="url(#path-9-inside-3_252_671)"/>
<path d="M180.062 16.4492H180.769C180.836 17.0586 181.414 17.4609 182.218 17.4609C182.98 17.4609 183.535 17.0586 183.535 16.5039C183.535 16.0273 183.203 15.7344 182.445 15.5391L181.722 15.3516C180.683 15.0859 180.222 14.6289 180.222 13.8633C180.222 12.9258 181.043 12.2695 182.214 12.2695C183.336 12.2695 184.148 12.9336 184.179 13.8789H183.476C183.414 13.2734 182.925 12.9023 182.191 12.9023C181.461 12.9023 180.953 13.2812 180.953 13.832C180.953 14.2578 181.265 14.5117 182.031 14.7109L182.621 14.8672C183.789 15.1602 184.261 15.6094 184.261 16.418C184.261 17.4492 183.449 18.0938 182.152 18.0938C180.957 18.0938 180.129 17.4453 180.062 16.4492ZM185.785 12.9883V15.1484H187.132C187.855 15.1484 188.265 14.7578 188.265 14.0664C188.265 13.3906 187.828 12.9883 187.101 12.9883H185.785ZM185.785 15.7695V18H185.082V12.3633H187.195C188.281 12.3633 188.992 13.0273 188.992 14.043C188.992 14.8281 188.566 15.4375 187.859 15.6602L189.164 18H188.339L187.132 15.7695H185.785ZM192.007 18H191.304V12.9961H189.527V12.3633H193.785V12.9961H192.007V18ZM194.457 18V12.3633H195.136V14.5859H195.152C195.379 14.1328 195.824 13.8672 196.441 13.8672C197.332 13.8672 197.871 14.4688 197.871 15.375V18H197.191V15.5C197.191 14.8555 196.867 14.4688 196.23 14.4688C195.554 14.4688 195.136 14.9297 195.136 15.6328V18H194.457ZM199.992 18V13.1094H199.976L198.484 14.1836V13.4414L199.984 12.3633H200.671V18H199.992ZM203.25 15.3984V14.8047H203.925C204.574 14.8047 205.027 14.3867 205.027 13.8164C205.027 13.2578 204.648 12.8789 203.933 12.8789C203.285 12.8789 202.855 13.25 202.793 13.8398H202.117C202.195 12.8828 202.906 12.2695 203.964 12.2695C204.972 12.2695 205.734 12.875 205.734 13.7227C205.734 14.4297 205.281 14.9375 204.578 15.0625V15.0781C205.429 15.1289 205.976 15.6562 205.976 16.4492C205.976 17.418 205.093 18.0938 203.988 18.0938C202.808 18.0938 202.054 17.4414 202.004 16.5078H202.679C202.742 17.0859 203.222 17.4844 203.98 17.4844C204.726 17.4844 205.261 17.0625 205.261 16.4727C205.261 15.8086 204.761 15.3984 203.957 15.3984H203.25ZM208.808 18.0938C207.492 18.0938 206.73 16.9609 206.73 15.1797C206.73 13.4141 207.5 12.2695 208.808 12.2695C210.117 12.2695 210.879 13.4062 210.879 15.1758C210.879 16.957 210.121 18.0938 208.808 18.0938ZM208.808 17.4805C209.687 17.4805 210.171 16.5859 210.171 15.1797C210.171 13.793 209.679 12.8867 208.808 12.8867C207.937 12.8867 207.437 13.8008 207.437 15.1758C207.437 16.582 207.925 17.4805 208.808 17.4805ZM214.226 16.0312H211.664V15.3984H214.226V16.0312ZM189.836 25.3984V24.8047H190.511C191.16 24.8047 191.613 24.3867 191.613 23.8164C191.613 23.2578 191.234 22.8789 190.519 22.8789C189.871 22.8789 189.441 23.25 189.379 23.8398H188.703C188.781 22.8828 189.492 22.2695 190.55 22.2695C191.558 22.2695 192.32 22.875 192.32 23.7227C192.32 24.4297 191.867 24.9375 191.164 25.0625V25.0781C192.015 25.1289 192.562 25.6562 192.562 26.4492C192.562 27.418 191.679 28.0938 190.574 28.0938C189.394 28.0938 188.64 27.4414 188.589 26.5078H189.265C189.328 27.0859 189.808 27.4844 190.566 27.4844C191.312 27.4844 191.847 27.0625 191.847 26.4727C191.847 25.8086 191.347 25.3984 190.543 25.3984H189.836ZM194.859 28V23.1094H194.843L193.351 24.1836V23.4414L194.851 22.3633H195.539V28H194.859ZM198.941 28.0938C197.625 28.0938 196.863 26.9609 196.863 25.1797C196.863 23.4141 197.632 22.2695 198.941 22.2695C200.25 22.2695 201.011 23.4062 201.011 25.1758C201.011 26.957 200.254 28.0938 198.941 28.0938ZM198.941 27.4805C199.82 27.4805 200.304 26.5859 200.304 25.1797C200.304 23.793 199.812 22.8867 198.941 22.8867C198.07 22.8867 197.57 23.8008 197.57 25.1758C197.57 26.582 198.058 27.4805 198.941 27.4805ZM203.793 28.0938C202.476 28.0938 201.714 26.9609 201.714 25.1797C201.714 23.4141 202.484 22.2695 203.793 22.2695C205.101 22.2695 205.863 23.4062 205.863 25.1758C205.863 26.957 205.105 28.0938 203.793 28.0938ZM203.793 27.4805C204.671 27.4805 205.156 26.5859 205.156 25.1797C205.156 23.793 204.664 22.8867 203.793 22.8867C202.921 22.8867 202.421 23.8008 202.421 25.1758C202.421 26.582 202.91 27.4805 203.793 27.4805Z" fill="white"/>
<mask id="path-12-inside-4_252_671" fill="white">
<path d="M236.667 0H315.555V40H236.667V0Z"/>
</mask>
<path d="M236.667 0V-1H235.667V0H236.667ZM236.667 1H315.555V-1H236.667V1ZM237.667 40V0H235.667V40H237.667Z" fill="white" fill-opacity="0.2" mask="url(#path-12-inside-4_252_671)"/>
<path d="M259.009 16.4492H259.716C259.783 17.0586 260.361 17.4609 261.166 17.4609C261.927 17.4609 262.482 17.0586 262.482 16.5039C262.482 16.0273 262.15 15.7344 261.392 15.5391L260.67 15.3516C259.63 15.0859 259.17 14.6289 259.17 13.8633C259.17 12.9258 259.99 12.2695 261.162 12.2695C262.283 12.2695 263.095 12.9336 263.127 13.8789H262.423C262.361 13.2734 261.873 12.9023 261.138 12.9023C260.408 12.9023 259.9 13.2812 259.9 13.832C259.9 14.2578 260.213 14.5117 260.978 14.7109L261.568 14.8672C262.736 15.1602 263.209 15.6094 263.209 16.418C263.209 17.4492 262.396 18.0938 261.099 18.0938C259.904 18.0938 259.076 17.4453 259.009 16.4492ZM264.732 12.9883V15.1484H266.08C266.802 15.1484 267.213 14.7578 267.213 14.0664C267.213 13.3906 266.775 12.9883 266.048 12.9883H264.732ZM264.732 15.7695V18H264.029V12.3633H266.142C267.228 12.3633 267.939 13.0273 267.939 14.043C267.939 14.8281 267.513 15.4375 266.806 15.6602L268.111 18H267.287L266.08 15.7695H264.732ZM270.955 18H270.252V12.9961H268.474V12.3633H272.732V12.9961H270.955V18ZM273.404 18V12.3633H274.084V14.5859H274.099C274.326 14.1328 274.771 13.8672 275.388 13.8672C276.279 13.8672 276.818 14.4688 276.818 15.375V18H276.138V15.5C276.138 14.8555 275.814 14.4688 275.177 14.4688C274.502 14.4688 274.084 14.9297 274.084 15.6328V18H273.404ZM278.939 18V13.1094H278.923L277.431 14.1836V13.4414L278.931 12.3633H279.619V18H278.939ZM283.088 18.0977C282.244 18.0977 281.572 17.6406 281.224 16.8281C281.037 16.3945 280.947 15.8867 280.947 15.2773C280.947 13.3789 281.755 12.2656 283.134 12.2656C284.091 12.2656 284.826 12.8398 285.005 13.7266H284.291C284.138 13.2148 283.685 12.8867 283.127 12.8867C282.185 12.8867 281.65 13.7227 281.627 15.2227H281.638C281.892 14.6719 282.513 14.3086 283.213 14.3086C284.287 14.3086 285.084 15.1016 285.084 16.1719C285.084 17.2852 284.244 18.0977 283.088 18.0977ZM283.08 17.4727C283.798 17.4727 284.369 16.9062 284.369 16.1953C284.369 15.457 283.838 14.9258 283.091 14.9258C282.345 14.9258 281.795 15.457 281.795 16.1758C281.795 16.8984 282.357 17.4727 283.08 17.4727ZM287.775 18.0938C286.697 18.0938 285.9 17.4219 285.841 16.4609H286.533C286.595 17.0625 287.107 17.4766 287.783 17.4766C288.548 17.4766 289.08 16.9453 289.08 16.1875C289.08 15.4297 288.545 14.8867 287.795 14.8867C287.267 14.8867 286.818 15.125 286.588 15.5195H285.927L286.236 12.3633H289.463V12.9883H286.814L286.642 14.8242H286.658C286.912 14.4844 287.38 14.2812 287.92 14.2812C289.002 14.2812 289.783 15.0742 289.783 16.168C289.783 17.3008 288.951 18.0938 287.775 18.0938ZM293.056 16.0312H290.494V15.3984H293.056V16.0312ZM267.314 23.9883C267.314 23.0039 268.111 22.2695 269.173 22.2695C270.181 22.2695 270.974 22.9531 270.974 23.8164C270.974 24.4453 270.689 24.9141 269.748 25.8867L268.322 27.3594V27.375H271.068V28H267.349V27.5156L269.334 25.4258C270.091 24.6289 270.271 24.3281 270.271 23.8594C270.271 23.3164 269.775 22.8828 269.154 22.8828C268.494 22.8828 267.994 23.3594 267.994 23.9883V23.9922H267.314V23.9883ZM272.205 28L274.755 23.0039V22.9883H271.72V22.3633H275.451V23.0156L272.943 28H272.205ZM278.193 28.0938C277.115 28.0938 276.318 27.4219 276.259 26.4609H276.951C277.013 27.0625 277.525 27.4766 278.201 27.4766C278.966 27.4766 279.498 26.9453 279.498 26.1875C279.498 25.4297 278.963 24.8867 278.213 24.8867C277.685 24.8867 277.236 25.125 277.005 25.5195H276.345L276.654 22.3633H279.88V22.9883H277.232L277.06 24.8242H277.076C277.33 24.4844 277.798 24.2812 278.338 24.2812C279.42 24.2812 280.201 25.0742 280.201 26.168C280.201 27.3008 279.369 28.0938 278.193 28.0938ZM282.908 28.0938C281.591 28.0938 280.83 26.9609 280.83 25.1797C280.83 23.4141 281.599 22.2695 282.908 22.2695C284.216 22.2695 284.978 23.4062 284.978 25.1758C284.978 26.957 284.22 28.0938 282.908 28.0938ZM282.908 27.4805C283.787 27.4805 284.271 26.5859 284.271 25.1797C284.271 23.793 283.779 22.8867 282.908 22.8867C282.037 22.8867 281.537 23.8008 281.537 25.1758C281.537 26.582 282.025 27.4805 282.908 27.4805Z" fill="white"/>
<mask id="path-15-inside-5_252_671" fill="white">
<path d="M315.556 0H394.445V40H315.556V0Z"/>
</mask>
<path d="M315.556 0V-1H314.556V0H315.556ZM315.556 1H394.445V-1H315.556V1ZM316.556 40V0H314.556V40H316.556Z" fill="white" fill-opacity="0.2" mask="url(#path-15-inside-5_252_671)"/>
<path d="M338.059 16.4492H338.766C338.832 17.0586 339.41 17.4609 340.215 17.4609C340.977 17.4609 341.531 17.0586 341.531 16.5039C341.531 16.0273 341.199 15.7344 340.442 15.5391L339.719 15.3516C338.68 15.0859 338.219 14.6289 338.219 13.8633C338.219 12.9258 339.039 12.2695 340.211 12.2695C341.332 12.2695 342.145 12.9336 342.176 13.8789H341.473C341.41 13.2734 340.922 12.9023 340.188 12.9023C339.457 12.9023 338.949 13.2812 338.949 13.832C338.949 14.2578 339.262 14.5117 340.027 14.7109L340.617 14.8672C341.785 15.1602 342.258 15.6094 342.258 16.418C342.258 17.4492 341.445 18.0938 340.149 18.0938C338.953 18.0938 338.125 17.4453 338.059 16.4492ZM343.781 12.9883V15.1484H345.129C345.852 15.1484 346.262 14.7578 346.262 14.0664C346.262 13.3906 345.824 12.9883 345.098 12.9883H343.781ZM343.781 15.7695V18H343.078V12.3633H345.192C346.277 12.3633 346.988 13.0273 346.988 14.043C346.988 14.8281 346.563 15.4375 345.856 15.6602L347.16 18H346.336L345.129 15.7695H343.781ZM350.004 18H349.301V12.9961H347.524V12.3633H351.781V12.9961H350.004V18ZM352.453 18V12.3633H353.133V14.5859H353.149C353.375 14.1328 353.82 13.8672 354.438 13.8672C355.328 13.8672 355.867 14.4688 355.867 15.375V18H355.188V15.5C355.188 14.8555 354.863 14.4688 354.227 14.4688C353.551 14.4688 353.133 14.9297 353.133 15.6328V18H352.453ZM357.988 18V13.1094H357.973L356.481 14.1836V13.4414L357.981 12.3633H358.668V18H357.988ZM360.422 18L362.973 13.0039V12.9883H359.938V12.3633H363.668V13.0156L361.16 18H360.422ZM366.367 18.0938C365.051 18.0938 364.289 16.9609 364.289 15.1797C364.289 13.4141 365.059 12.2695 366.367 12.2695C367.676 12.2695 368.438 13.4062 368.438 15.1758C368.438 16.957 367.68 18.0938 366.367 18.0938ZM366.367 17.4805C367.246 17.4805 367.731 16.5859 367.731 15.1797C367.731 13.793 367.238 12.8867 366.367 12.8867C365.496 12.8867 364.996 13.8008 364.996 15.1758C364.996 16.582 365.484 17.4805 366.367 17.4805ZM371.785 16.0312H369.223V15.3984H371.785V16.0312ZM346.156 23.9883C346.156 23.0039 346.953 22.2695 348.016 22.2695C349.024 22.2695 349.817 22.9531 349.817 23.8164C349.817 24.4453 349.531 24.9141 348.59 25.8867L347.164 27.3594V27.375H349.91V28H346.192V27.5156L348.176 25.4258C348.934 24.6289 349.113 24.3281 349.113 23.8594C349.113 23.3164 348.617 22.8828 347.996 22.8828C347.336 22.8828 346.836 23.3594 346.836 23.9883V23.9922H346.156V23.9883ZM351.047 28L353.598 23.0039V22.9883H350.563V22.3633H354.293V23.0156L351.785 28H351.047ZM356.992 28.0938C355.676 28.0938 354.914 26.9609 354.914 25.1797C354.914 23.4141 355.684 22.2695 356.992 22.2695C358.301 22.2695 359.063 23.4062 359.063 25.1758C359.063 26.957 358.305 28.0938 356.992 28.0938ZM356.992 27.4805C357.871 27.4805 358.356 26.5859 358.356 25.1797C358.356 23.793 357.863 22.8867 356.992 22.8867C356.121 22.8867 355.621 23.8008 355.621 25.1758C355.621 26.582 356.109 27.4805 356.992 27.4805ZM361.844 28.0938C360.527 28.0938 359.766 26.9609 359.766 25.1797C359.766 23.4141 360.535 22.2695 361.844 22.2695C363.152 22.2695 363.914 23.4062 363.914 25.1758C363.914 26.957 363.156 28.0938 361.844 28.0938ZM361.844 27.4805C362.723 27.4805 363.207 26.5859 363.207 25.1797C363.207 23.793 362.715 22.8867 361.844 22.8867C360.973 22.8867 360.473 23.8008 360.473 25.1758C360.473 26.582 360.961 27.4805 361.844 27.4805Z" fill="white"/>
<mask id="path-18-inside-6_252_671" fill="white">
<path d="M394.444 0H473.333V40H394.444V0Z"/>
</mask>
<path d="M394.444 0V-1H393.444V0H394.444ZM394.444 1H473.333V-1H394.444V1ZM395.444 40V0H393.444V40H395.444Z" fill="white" fill-opacity="0.2" mask="url(#path-18-inside-6_252_671)"/>
<path d="M416.947 16.4492H417.654C417.721 17.0586 418.299 17.4609 419.104 17.4609C419.865 17.4609 420.42 17.0586 420.42 16.5039C420.42 16.0273 420.088 15.7344 419.33 15.5391L418.608 15.3516C417.568 15.0859 417.108 14.6289 417.108 13.8633C417.108 12.9258 417.928 12.2695 419.1 12.2695C420.221 12.2695 421.033 12.9336 421.065 13.8789H420.361C420.299 13.2734 419.811 12.9023 419.076 12.9023C418.346 12.9023 417.838 13.2812 417.838 13.832C417.838 14.2578 418.15 14.5117 418.916 14.7109L419.506 14.8672C420.674 15.1602 421.147 15.6094 421.147 16.418C421.147 17.4492 420.334 18.0938 419.037 18.0938C417.842 18.0938 417.014 17.4453 416.947 16.4492ZM422.67 12.9883V15.1484H424.018C424.74 15.1484 425.15 14.7578 425.15 14.0664C425.15 13.3906 424.713 12.9883 423.986 12.9883H422.67ZM422.67 15.7695V18H421.967V12.3633H424.08C425.166 12.3633 425.877 13.0273 425.877 14.043C425.877 14.8281 425.451 15.4375 424.744 15.6602L426.049 18H425.225L424.018 15.7695H422.67ZM428.893 18H428.19V12.9961H426.412V12.3633H430.67V12.9961H428.893V18ZM431.342 18V12.3633H432.022V14.5859H432.037C432.264 14.1328 432.709 13.8672 433.326 13.8672C434.217 13.8672 434.756 14.4688 434.756 15.375V18H434.076V15.5C434.076 14.8555 433.752 14.4688 433.115 14.4688C432.44 14.4688 432.022 14.9297 432.022 15.6328V18H431.342ZM436.877 18V13.1094H436.861L435.369 14.1836V13.4414L436.869 12.3633H437.557V18H436.877ZM439.311 18L441.861 13.0039V12.9883H438.826V12.3633H442.557V13.0156L440.049 18H439.311ZM445.256 18.0938C443.94 18.0938 443.178 16.9609 443.178 15.1797C443.178 13.4141 443.947 12.2695 445.256 12.2695C446.565 12.2695 447.326 13.4062 447.326 15.1758C447.326 16.957 446.568 18.0938 445.256 18.0938ZM445.256 17.4805C446.135 17.4805 446.619 16.5859 446.619 15.1797C446.619 13.793 446.127 12.8867 445.256 12.8867C444.385 12.8867 443.885 13.8008 443.885 15.1758C443.885 16.582 444.373 17.4805 445.256 17.4805ZM450.674 16.0312H448.111V15.3984H450.674V16.0312ZM426.502 25.3984V24.8047H427.178C427.826 24.8047 428.279 24.3867 428.279 23.8164C428.279 23.2578 427.9 22.8789 427.186 22.8789C426.537 22.8789 426.108 23.25 426.045 23.8398H425.369C425.447 22.8828 426.158 22.2695 427.217 22.2695C428.225 22.2695 428.986 22.875 428.986 23.7227C428.986 24.4297 428.533 24.9375 427.83 25.0625V25.0781C428.682 25.1289 429.229 25.6562 429.229 26.4492C429.229 27.418 428.346 28.0938 427.24 28.0938C426.061 28.0938 425.307 27.4414 425.256 26.5078H425.932C425.994 27.0859 426.475 27.4844 427.233 27.4844C427.979 27.4844 428.514 27.0625 428.514 26.4727C428.514 25.8086 428.014 25.3984 427.209 25.3984H426.502ZM431.525 28V23.1094H431.51L430.018 24.1836V23.4414L431.518 22.3633H432.205V28H431.525ZM435.608 28.0938C434.291 28.0938 433.529 26.9609 433.529 25.1797C433.529 23.4141 434.299 22.2695 435.608 22.2695C436.916 22.2695 437.678 23.4062 437.678 25.1758C437.678 26.957 436.92 28.0938 435.608 28.0938ZM435.608 27.4805C436.486 27.4805 436.971 26.5859 436.971 25.1797C436.971 23.793 436.479 22.8867 435.608 22.8867C434.736 22.8867 434.236 23.8008 434.236 25.1758C434.236 26.582 434.725 27.4805 435.608 27.4805ZM440.459 28.0938C439.143 28.0938 438.381 26.9609 438.381 25.1797C438.381 23.4141 439.15 22.2695 440.459 22.2695C441.768 22.2695 442.529 23.4062 442.529 25.1758C442.529 26.957 441.772 28.0938 440.459 28.0938ZM440.459 27.4805C441.338 27.4805 441.822 26.5859 441.822 25.1797C441.822 23.793 441.33 22.8867 440.459 22.8867C439.588 22.8867 439.088 23.8008 439.088 25.1758C439.088 26.582 439.576 27.4805 440.459 27.4805Z" fill="white"/>
<mask id="path-21-inside-7_252_671" fill="white">
<path d="M473.333 0H552.222V40H473.333V0Z"/>
</mask>
<path d="M473.333 0V-1H472.333V0H473.333ZM473.333 1H552.222V-1H473.333V1ZM474.333 40V0H472.333V40H474.333Z" fill="white" fill-opacity="0.2" mask="url(#path-21-inside-7_252_671)"/>
<path d="M495.129 16.4492H495.837C495.903 17.0586 496.481 17.4609 497.286 17.4609C498.047 17.4609 498.602 17.0586 498.602 16.5039C498.602 16.0273 498.27 15.7344 497.512 15.5391L496.79 15.3516C495.751 15.0859 495.29 14.6289 495.29 13.8633C495.29 12.9258 496.11 12.2695 497.282 12.2695C498.403 12.2695 499.215 12.9336 499.247 13.8789H498.544C498.481 13.2734 497.993 12.9023 497.258 12.9023C496.528 12.9023 496.02 13.2812 496.02 13.832C496.02 14.2578 496.333 14.5117 497.098 14.7109L497.688 14.8672C498.856 15.1602 499.329 15.6094 499.329 16.418C499.329 17.4492 498.516 18.0938 497.219 18.0938C496.024 18.0938 495.196 17.4453 495.129 16.4492ZM500.852 12.9883V15.1484H502.2C502.922 15.1484 503.333 14.7578 503.333 14.0664C503.333 13.3906 502.895 12.9883 502.169 12.9883H500.852ZM500.852 15.7695V18H500.149V12.3633H502.262C503.348 12.3633 504.059 13.0273 504.059 14.043C504.059 14.8281 503.633 15.4375 502.926 15.6602L504.231 18H503.407L502.2 15.7695H500.852ZM507.075 18H506.372V12.9961H504.594V12.3633H508.852V12.9961H507.075V18ZM509.524 18V12.3633H510.204V14.5859H510.219C510.446 14.1328 510.891 13.8672 511.508 13.8672C512.399 13.8672 512.938 14.4688 512.938 15.375V18H512.258V15.5C512.258 14.8555 511.934 14.4688 511.297 14.4688C510.622 14.4688 510.204 14.9297 510.204 15.6328V18H509.524ZM513.782 13.9883C513.782 13.0039 514.579 12.2695 515.641 12.2695C516.649 12.2695 517.442 12.9531 517.442 13.8164C517.442 14.4453 517.157 14.9141 516.215 15.8867L514.79 17.3594V17.375H517.536V18H513.817V17.5156L515.801 15.4258C516.559 14.6289 516.739 14.3281 516.739 13.8594C516.739 13.3164 516.243 12.8828 515.622 12.8828C514.962 12.8828 514.462 13.3594 514.462 13.9883V13.9922H513.782V13.9883ZM518.313 13.9883C518.313 13.0039 519.11 12.2695 520.172 12.2695C521.18 12.2695 521.973 12.9531 521.973 13.8164C521.973 14.4453 521.688 14.9141 520.747 15.8867L519.321 17.3594V17.375H522.067V18H518.348V17.5156L520.333 15.4258C521.09 14.6289 521.27 14.3281 521.27 13.8594C521.27 13.3164 520.774 12.8828 520.153 12.8828C519.493 12.8828 518.993 13.3594 518.993 13.9883V13.9922H518.313V13.9883ZM524.852 18.0938C523.536 18.0938 522.774 16.9609 522.774 15.1797C522.774 13.4141 523.544 12.2695 524.852 12.2695C526.161 12.2695 526.922 13.4062 526.922 15.1758C526.922 16.957 526.165 18.0938 524.852 18.0938ZM524.852 17.4805C525.731 17.4805 526.215 16.5859 526.215 15.1797C526.215 13.793 525.723 12.8867 524.852 12.8867C523.981 12.8867 523.481 13.8008 523.481 15.1758C523.481 16.582 523.969 17.4805 524.852 17.4805ZM530.27 16.0312H527.708V15.3984H530.27V16.0312ZM503.934 23.9883C503.934 23.0039 504.731 22.2695 505.794 22.2695C506.801 22.2695 507.594 22.9531 507.594 23.8164C507.594 24.4453 507.309 24.9141 506.368 25.8867L504.942 27.3594V27.375H507.688V28H503.969V27.5156L505.954 25.4258C506.712 24.6289 506.891 24.3281 506.891 23.8594C506.891 23.3164 506.395 22.8828 505.774 22.8828C505.114 22.8828 504.614 23.3594 504.614 23.9883V23.9922H503.934V23.9883ZM508.825 28L511.376 23.0039V22.9883H508.34V22.3633H512.071V23.0156L509.563 28H508.825ZM514.77 28.0938C513.454 28.0938 512.692 26.9609 512.692 25.1797C512.692 23.4141 513.462 22.2695 514.77 22.2695C516.079 22.2695 516.84 23.4062 516.84 25.1758C516.84 26.957 516.083 28.0938 514.77 28.0938ZM514.77 27.4805C515.649 27.4805 516.133 26.5859 516.133 25.1797C516.133 23.793 515.641 22.8867 514.77 22.8867C513.899 22.8867 513.399 23.8008 513.399 25.1758C513.399 26.582 513.887 27.4805 514.77 27.4805ZM519.622 28.0938C518.305 28.0938 517.544 26.9609 517.544 25.1797C517.544 23.4141 518.313 22.2695 519.622 22.2695C520.93 22.2695 521.692 23.4062 521.692 25.1758C521.692 26.957 520.934 28.0938 519.622 28.0938ZM519.622 27.4805C520.501 27.4805 520.985 26.5859 520.985 25.1797C520.985 23.793 520.493 22.8867 519.622 22.8867C518.751 22.8867 518.251 23.8008 518.251 25.1758C518.251 26.582 518.739 27.4805 519.622 27.4805Z" fill="white"/>
<mask id="path-24-inside-8_252_671" fill="white">
<path d="M552.222 0H631.111V40H552.222V0Z"/>
</mask>
<path d="M552.222 0V-1H551.222V0H552.222ZM552.222 1H631.111V-1H552.222V1ZM553.222 40V0H551.222V40H553.222Z" fill="white" fill-opacity="0.2" mask="url(#path-24-inside-8_252_671)"/>
<path d="M574.018 16.4492H574.725C574.792 17.0586 575.37 17.4609 576.174 17.4609C576.936 17.4609 577.491 17.0586 577.491 16.5039C577.491 16.0273 577.159 15.7344 576.401 15.5391L575.678 15.3516C574.639 15.0859 574.178 14.6289 574.178 13.8633C574.178 12.9258 574.999 12.2695 576.171 12.2695C577.292 12.2695 578.104 12.9336 578.135 13.8789H577.432C577.37 13.2734 576.881 12.9023 576.147 12.9023C575.417 12.9023 574.909 13.2812 574.909 13.832C574.909 14.2578 575.221 14.5117 575.987 14.7109L576.577 14.8672C577.745 15.1602 578.217 15.6094 578.217 16.418C578.217 17.4492 577.405 18.0938 576.108 18.0938C574.913 18.0938 574.085 17.4453 574.018 16.4492ZM579.741 12.9883V15.1484H581.088C581.811 15.1484 582.221 14.7578 582.221 14.0664C582.221 13.3906 581.784 12.9883 581.057 12.9883H579.741ZM579.741 15.7695V18H579.038V12.3633H581.151C582.237 12.3633 582.948 13.0273 582.948 14.043C582.948 14.8281 582.522 15.4375 581.815 15.6602L583.12 18H582.296L581.088 15.7695H579.741ZM585.963 18H585.26V12.9961H583.483V12.3633H587.741V12.9961H585.963V18ZM588.413 18V12.3633H589.092V14.5859H589.108C589.335 14.1328 589.78 13.8672 590.397 13.8672C591.288 13.8672 591.827 14.4688 591.827 15.375V18H591.147V15.5C591.147 14.8555 590.823 14.4688 590.186 14.4688C589.51 14.4688 589.092 14.9297 589.092 15.6328V18H588.413ZM592.671 13.9883C592.671 13.0039 593.467 12.2695 594.53 12.2695C595.538 12.2695 596.331 12.9531 596.331 13.8164C596.331 14.4453 596.046 14.9141 595.104 15.8867L593.678 17.3594V17.375H596.424V18H592.706V17.5156L594.69 15.4258C595.448 14.6289 595.628 14.3281 595.628 13.8594C595.628 13.3164 595.131 12.8828 594.51 12.8828C593.85 12.8828 593.35 13.3594 593.35 13.9883V13.9922H592.671V13.9883ZM597.202 13.9883C597.202 13.0039 597.999 12.2695 599.061 12.2695C600.069 12.2695 600.862 12.9531 600.862 13.8164C600.862 14.4453 600.577 14.9141 599.635 15.8867L598.21 17.3594V17.375H600.956V18H597.237V17.5156L599.221 15.4258C599.979 14.6289 600.159 14.3281 600.159 13.8594C600.159 13.3164 599.663 12.8828 599.042 12.8828C598.381 12.8828 597.881 13.3594 597.881 13.9883V13.9922H597.202V13.9883ZM603.741 18.0938C602.424 18.0938 601.663 16.9609 601.663 15.1797C601.663 13.4141 602.432 12.2695 603.741 12.2695C605.049 12.2695 605.811 13.4062 605.811 15.1758C605.811 16.957 605.053 18.0938 603.741 18.0938ZM603.741 17.4805C604.62 17.4805 605.104 16.5859 605.104 15.1797C605.104 13.793 604.612 12.8867 603.741 12.8867C602.87 12.8867 602.37 13.8008 602.37 15.1758C602.37 16.582 602.858 17.4805 603.741 17.4805ZM609.159 16.0312H606.596V15.3984H609.159V16.0312ZM584.28 25.3984V24.8047H584.956C585.604 24.8047 586.057 24.3867 586.057 23.8164C586.057 23.2578 585.678 22.8789 584.963 22.8789C584.315 22.8789 583.885 23.25 583.823 23.8398H583.147C583.225 22.8828 583.936 22.2695 584.995 22.2695C586.003 22.2695 586.764 22.875 586.764 23.7227C586.764 24.4297 586.311 24.9375 585.608 25.0625V25.0781C586.46 25.1289 587.006 25.6562 587.006 26.4492C587.006 27.418 586.124 28.0938 585.018 28.0938C583.838 28.0938 583.085 27.4414 583.034 26.5078H583.71C583.772 27.0859 584.253 27.4844 585.01 27.4844C585.756 27.4844 586.292 27.0625 586.292 26.4727C586.292 25.8086 585.792 25.3984 584.987 25.3984H584.28ZM589.303 28V23.1094H589.288L587.796 24.1836V23.4414L589.296 22.3633H589.983V28H589.303ZM593.385 28.0938C592.069 28.0938 591.307 26.9609 591.307 25.1797C591.307 23.4141 592.077 22.2695 593.385 22.2695C594.694 22.2695 595.456 23.4062 595.456 25.1758C595.456 26.957 594.698 28.0938 593.385 28.0938ZM593.385 27.4805C594.264 27.4805 594.749 26.5859 594.749 25.1797C594.749 23.793 594.256 22.8867 593.385 22.8867C592.514 22.8867 592.014 23.8008 592.014 25.1758C592.014 26.582 592.503 27.4805 593.385 27.4805ZM598.237 28.0938C596.921 28.0938 596.159 26.9609 596.159 25.1797C596.159 23.4141 596.928 22.2695 598.237 22.2695C599.546 22.2695 600.307 23.4062 600.307 25.1758C600.307 26.957 599.549 28.0938 598.237 28.0938ZM598.237 27.4805C599.116 27.4805 599.6 26.5859 599.6 25.1797C599.6 23.793 599.108 22.8867 598.237 22.8867C597.366 22.8867 596.866 23.8008 596.866 25.1758C596.866 26.582 597.354 27.4805 598.237 27.4805Z" fill="white"/>
<mask id="path-27-inside-9_252_671" fill="white">
<path d="M631.111 0H710V40H631.111V0Z"/>
</mask>
<path d="M631.111 0V-1H630.111V0H631.111ZM631.111 1H710V-1H631.111V1ZM632.111 40V0H630.111V40H632.111Z" fill="white" fill-opacity="0.2" mask="url(#path-27-inside-9_252_671)"/>
<path d="M652.774 16.4492H653.481C653.547 17.0586 654.126 17.4609 654.93 17.4609C655.692 17.4609 656.247 17.0586 656.247 16.5039C656.247 16.0273 655.915 15.7344 655.157 15.5391L654.434 15.3516C653.395 15.0859 652.934 14.6289 652.934 13.8633C652.934 12.9258 653.754 12.2695 654.926 12.2695C656.047 12.2695 656.86 12.9336 656.891 13.8789H656.188C656.126 13.2734 655.637 12.9023 654.903 12.9023C654.172 12.9023 653.665 13.2812 653.665 13.832C653.665 14.2578 653.977 14.5117 654.743 14.7109L655.333 14.8672C656.501 15.1602 656.973 15.6094 656.973 16.418C656.973 17.4492 656.161 18.0938 654.864 18.0938C653.669 18.0938 652.84 17.4453 652.774 16.4492ZM658.497 12.9883V15.1484H659.844C660.567 15.1484 660.977 14.7578 660.977 14.0664C660.977 13.3906 660.54 12.9883 659.813 12.9883H658.497ZM658.497 15.7695V18H657.794V12.3633H659.907C660.993 12.3633 661.704 13.0273 661.704 14.043C661.704 14.8281 661.278 15.4375 660.571 15.6602L661.876 18H661.051L659.844 15.7695H658.497ZM664.719 18H664.016V12.9961H662.239V12.3633H666.497V12.9961H664.719V18ZM667.169 18V12.3633H667.848V14.5859H667.864C668.09 14.1328 668.536 13.8672 669.153 13.8672C670.044 13.8672 670.583 14.4688 670.583 15.375V18H669.903V15.5C669.903 14.8555 669.579 14.4688 668.942 14.4688C668.266 14.4688 667.848 14.9297 667.848 15.6328V18H667.169ZM671.426 13.9883C671.426 13.0039 672.223 12.2695 673.286 12.2695C674.294 12.2695 675.087 12.9531 675.087 13.8164C675.087 14.4453 674.801 14.9141 673.86 15.8867L672.434 17.3594V17.375H675.18V18H671.462V17.5156L673.446 15.4258C674.204 14.6289 674.383 14.3281 674.383 13.8594C674.383 13.3164 673.887 12.8828 673.266 12.8828C672.606 12.8828 672.106 13.3594 672.106 13.9883V13.9922H671.426V13.9883ZM677.93 18.0938C676.739 18.0938 675.887 17.418 675.887 16.4766C675.887 15.7734 676.372 15.1953 677.098 15.0273V15.0117C676.489 14.8242 676.11 14.3438 676.11 13.75C676.11 12.8984 676.883 12.2695 677.93 12.2695C678.985 12.2695 679.747 12.8945 679.747 13.7539C679.747 14.3398 679.376 14.8164 678.762 15.0117V15.0273C679.493 15.1992 679.977 15.7773 679.977 16.4766C679.977 17.4219 679.126 18.0938 677.93 18.0938ZM677.93 17.4805C678.708 17.4805 679.258 17.0391 679.258 16.4258C679.258 15.8047 678.708 15.3672 677.93 15.3672C677.157 15.3672 676.602 15.8086 676.602 16.4258C676.602 17.0391 677.157 17.4805 677.93 17.4805ZM677.93 14.75C678.587 14.75 679.051 14.3633 679.051 13.8164C679.051 13.2617 678.59 12.875 677.93 12.875C677.27 12.875 676.809 13.2656 676.809 13.8164C676.809 14.3633 677.27 14.75 677.93 14.75ZM682.762 18.0938C681.446 18.0938 680.684 16.9609 680.684 15.1797C680.684 13.4141 681.454 12.2695 682.762 12.2695C684.071 12.2695 684.833 13.4062 684.833 15.1758C684.833 16.957 684.075 18.0938 682.762 18.0938ZM682.762 17.4805C683.641 17.4805 684.126 16.5859 684.126 15.1797C684.126 13.793 683.633 12.8867 682.762 12.8867C681.891 12.8867 681.391 13.8008 681.391 15.1758C681.391 16.582 681.879 17.4805 682.762 17.4805ZM688.18 16.0312H685.618V15.3984H688.18V16.0312ZM661.712 23.9883C661.712 23.0039 662.508 22.2695 663.571 22.2695C664.579 22.2695 665.372 22.9531 665.372 23.8164C665.372 24.4453 665.087 24.9141 664.145 25.8867L662.719 27.3594V27.375H665.465V28H661.747V27.5156L663.731 25.4258C664.489 24.6289 664.669 24.3281 664.669 23.8594C664.669 23.3164 664.172 22.8828 663.551 22.8828C662.891 22.8828 662.391 23.3594 662.391 23.9883V23.9922H661.712V23.9883ZM666.602 28L669.153 23.0039V22.9883H666.118V22.3633H669.848V23.0156L667.34 28H666.602ZM672.547 28.0938C671.231 28.0938 670.469 26.9609 670.469 25.1797C670.469 23.4141 671.239 22.2695 672.547 22.2695C673.856 22.2695 674.618 23.4062 674.618 25.1758C674.618 26.957 673.86 28.0938 672.547 28.0938ZM672.547 27.4805C673.426 27.4805 673.911 26.5859 673.911 25.1797C673.911 23.793 673.419 22.8867 672.547 22.8867C671.676 22.8867 671.176 23.8008 671.176 25.1758C671.176 26.582 671.665 27.4805 672.547 27.4805ZM677.399 28.0938C676.083 28.0938 675.321 26.9609 675.321 25.1797C675.321 23.4141 676.09 22.2695 677.399 22.2695C678.708 22.2695 679.469 23.4062 679.469 25.1758C679.469 26.957 678.712 28.0938 677.399 28.0938ZM677.399 27.4805C678.278 27.4805 678.762 26.5859 678.762 25.1797C678.762 23.793 678.27 22.8867 677.399 22.8867C676.528 22.8867 676.028 23.8008 676.028 25.1758C676.028 26.582 676.516 27.4805 677.399 27.4805Z" fill="white"/>
</g>
<g clip-path="url(#clip2_252_671)">
<rect width="710" height="40" transform="translate(0 40)" fill="#86A2FF" fill-opacity="0.2"/>
<mask id="path-30-inside-10_252_671" fill="white">
<path d="M0 40H78.8889V80H0V40Z"/>
</mask>
<path d="M0 40V39H-1V40H0ZM0 41H78.8889V39H0V41ZM1 80V40H-1V80H1Z" fill="white" fill-opacity="0.2" mask="url(#path-30-inside-10_252_671)"/>
<path d="M12.5859 52.3633H14.5977C15.6562 52.3633 16.4023 53.1055 16.4023 54.1719C16.4023 55.2422 15.6484 55.9883 14.5898 55.9883H13.2891V58H12.5859V52.3633ZM13.2891 52.9883V55.3633H14.4141C15.2188 55.3633 15.6797 54.9219 15.6797 54.1719C15.6797 53.4258 15.2227 52.9883 14.4141 52.9883H13.2891ZM18.5156 57.4922C19.1562 57.4922 19.6484 57.043 19.6484 56.457V56.125L18.5625 56.1914C18.0156 56.2266 17.7031 56.4688 17.7031 56.8516C17.7031 57.2383 18.0273 57.4922 18.5156 57.4922ZM18.3633 58.0703C17.5547 58.0703 17.0117 57.582 17.0117 56.8516C17.0117 56.1562 17.5469 55.7188 18.4844 55.6641L19.6484 55.5977V55.2578C19.6484 54.7617 19.3203 54.4648 18.7578 54.4648C18.2344 54.4648 17.9062 54.7109 17.8203 55.1094H17.1641C17.2109 54.4062 17.8125 53.8672 18.7734 53.8672C19.7266 53.8672 20.3281 54.3828 20.3281 55.1914V58H19.6836V57.3008H19.668C19.4258 57.7656 18.9102 58.0703 18.3633 58.0703ZM23.9609 57.4414V54.4961H22.4375L22.3125 56.207C22.2773 56.7109 22.1719 57.1523 21.9805 57.4102V57.4414H23.9609ZM21.4961 59.0742H20.8633V57.4414H21.2031C21.5 57.2461 21.6445 56.7383 21.6836 56.1914L21.8398 53.9375H24.6367V57.4414H25.2812V59.0742H24.6484V58H21.4961V59.0742ZM26.5625 58H25.8906V53.9375H26.5625V56.9609H26.5938L28.625 53.9375H29.2969V58H28.625V54.9766H28.5938L26.5625 58ZM30.5898 59.5195C30.5078 59.5195 30.3711 59.5117 30.2969 59.4961V58.9258C30.3711 58.9414 30.4766 58.9453 30.5625 58.9453C30.9414 58.9453 31.1523 58.7617 31.3086 58.2891L31.4023 58.0039L29.9023 53.9375H30.6289L31.7539 57.3203H31.7656L32.8906 53.9375H33.6055L32.0078 58.2852C31.6602 59.2344 31.3242 59.5195 30.5898 59.5195ZM37.457 55.1875H36.7852C36.668 54.7969 36.3359 54.4648 35.7617 54.4648C35.0547 54.4648 34.5898 55.0625 34.5898 55.9688C34.5898 56.8984 35.0625 57.4727 35.7695 57.4727C36.3086 57.4727 36.6641 57.207 36.793 56.7578H37.4648C37.332 57.5273 36.6797 58.0703 35.7656 58.0703C34.6367 58.0703 33.8984 57.2617 33.8984 55.9688C33.8984 54.7031 34.6328 53.8672 35.7578 53.8672C36.7383 53.8672 37.3359 54.4961 37.457 55.1875ZM15.1719 67.4414V64.4961H13.6484L13.5234 66.207C13.4883 66.7109 13.3828 67.1523 13.1914 67.4102V67.4414H15.1719ZM12.707 69.0742H12.0742V67.4414H12.4141C12.7109 67.2461 12.8555 66.7383 12.8945 66.1914L13.0508 63.9375H15.8477V67.4414H16.4922V69.0742H15.8594V68H12.707V69.0742ZM18.7344 64.457C18.0977 64.457 17.6523 64.9453 17.6094 65.6211H19.8164C19.8008 64.9414 19.375 64.457 18.7344 64.457ZM19.8008 66.8359H20.4688C20.3516 67.5469 19.6641 68.0703 18.7773 68.0703C17.6133 68.0703 16.9062 67.2617 16.9062 65.9844C16.9062 64.7227 17.625 63.8672 18.7461 63.8672C19.8438 63.8672 20.5195 64.6641 20.5195 65.8945V66.1523H17.6055V66.1914C17.6055 66.9688 18.0625 67.4805 18.793 67.4805C19.3086 67.4805 19.6875 67.2188 19.8008 66.8359ZM21.9453 68H21.2734V63.9375H21.9453V66.9609H21.9766L24.0078 63.9375H24.6797V68H24.0078V64.9766H23.9766L21.9453 68ZM21.793 62.1797H22.293C22.293 62.6328 22.5859 62.9883 23.0508 62.9883C23.5156 62.9883 23.8086 62.6328 23.8086 62.1797H24.3086C24.3086 62.8984 23.7969 63.3906 23.0508 63.3906C22.3047 63.3906 21.793 62.8984 21.793 62.1797ZM28.9961 65.1875H28.3242C28.207 64.7969 27.875 64.4648 27.3008 64.4648C26.5938 64.4648 26.1289 65.0625 26.1289 65.9688C26.1289 66.8984 26.6016 67.4727 27.3086 67.4727C27.8477 67.4727 28.2031 67.207 28.332 66.7578H29.0039C28.8711 67.5273 28.2188 68.0703 27.3047 68.0703C26.1758 68.0703 25.4375 67.2617 25.4375 65.9688C25.4375 64.7031 26.1719 63.8672 27.2969 63.8672C28.2773 63.8672 28.875 64.4961 28.9961 65.1875ZM32.6055 63.9375V64.4961H31.293V68H30.6211V64.4961H29.3086V63.9375H32.6055ZM34.8789 64.4883H33.9062V65.625H34.7773C35.2891 65.625 35.5352 65.4375 35.5352 65.0469C35.5352 64.6875 35.3047 64.4883 34.8789 64.4883ZM34.832 66.1719H33.9062V67.4492H34.9531C35.4453 67.4492 35.7109 67.2266 35.7109 66.8164C35.7109 66.3828 35.4258 66.1719 34.832 66.1719ZM33.2344 68V63.9375H34.9727C35.7344 63.9375 36.1992 64.332 36.1992 64.9766C36.1992 65.3906 35.9062 65.7734 35.5312 65.8516V65.8828C36.043 65.9531 36.3789 66.3242 36.3789 66.832C36.3789 67.5508 35.8477 68 34.9844 68H33.2344ZM37.8281 68H37.1562V63.9375H37.8281V66.9609H37.8594L39.8906 63.9375H40.5625V68H39.8906V64.9766H39.8594L37.8281 68ZM42.9766 65.9961H43.7539V64.4961H42.9766C42.4492 64.4961 42.1133 64.7852 42.1133 65.2734C42.1133 65.6953 42.4531 65.9961 42.9766 65.9961ZM43.7539 68V66.5547H43.0352L42.0039 68H41.2266L42.3594 66.4297C41.7852 66.2656 41.4375 65.8438 41.4375 65.2852C41.4375 64.4492 42.0391 63.9375 42.9727 63.9375H44.4258V68H43.7539ZM45.8125 69.1211H45.2461L45.625 67.1328H46.3477L45.8125 69.1211ZM49.3359 68H48.6641V63.9375H49.4883L50.9336 67.1016H50.9648L52.418 63.9375H53.2109V68H52.5352V65.1172H52.5078L51.1953 67.8828H50.6758L49.3633 65.1172H49.3359V68ZM54.8359 68H54.1641V63.9375H54.9883L56.4336 67.1016H56.4648L57.918 63.9375H58.7109V68H58.0352V65.1172H58.0078L56.6953 67.8828H56.1758L54.8633 65.1172H54.8359V68Z" fill="white"/>
<mask id="path-33-inside-11_252_671" fill="white">
<path d="M78.8887 40H157.778V80H78.8887V40Z"/>
</mask>
<path d="M78.8887 40V39H77.8887V40H78.8887ZM78.8887 41H157.778V39H78.8887V41ZM79.8887 80V40H77.8887V80H79.8887Z" fill="white" fill-opacity="0.2" mask="url(#path-33-inside-11_252_671)"/>
<path d="M105.876 57.9121C105.888 56.4707 107.036 55.4102 108.583 55.4102C110.06 55.4102 111.214 56.4238 111.214 57.7188C111.214 58.6445 110.798 59.3418 109.392 60.8008L107.036 63.2617V63.2852H111.431V64H105.917V63.4375L108.905 60.2793C110.112 59.0078 110.417 58.5039 110.417 57.7656C110.417 56.8398 109.597 56.1133 108.56 56.1133C107.476 56.1133 106.661 56.8809 106.65 57.9121V57.918H105.876V57.9121ZM113.13 64L117.05 56.2832V56.2598H112.345V55.5449H117.853V56.2949L113.98 64H113.13ZM121.708 64.1348C119.786 64.1348 118.644 62.4414 118.644 59.7695C118.644 57.1152 119.798 55.4102 121.708 55.4102C123.624 55.4102 124.767 57.1094 124.767 59.7637C124.767 62.4355 123.63 64.1348 121.708 64.1348ZM121.708 63.4316C123.138 63.4316 123.964 62.0078 123.964 59.7695C123.964 57.5488 123.126 56.1191 121.708 56.1191C120.296 56.1191 119.452 57.5605 119.452 59.7637C119.452 62.0078 120.278 63.4316 121.708 63.4316ZM126.232 64L130.151 56.2832V56.2598H125.446V55.5449H130.954V56.2949L127.081 64H126.232Z" fill="white"/>
<mask id="path-36-inside-12_252_671" fill="white">
<path d="M157.778 40H236.667V80H157.778V40Z"/>
</mask>
<path d="M157.778 40V39H156.778V40H157.778ZM157.778 41H236.667V39H157.778V41ZM158.778 80V40H156.778V80H158.778Z" fill="white" fill-opacity="0.2" mask="url(#path-36-inside-12_252_671)"/>
<path d="M186.453 59.9746V59.2949H187.437C188.545 59.2949 189.306 58.6152 189.306 57.6719C189.306 56.7578 188.615 56.1133 187.472 56.1133C186.423 56.1133 185.679 56.7461 185.591 57.6836H184.818C184.918 56.3242 185.984 55.4102 187.507 55.4102C188.996 55.4102 190.115 56.3184 190.115 57.5723C190.115 58.6328 189.429 59.3945 188.351 59.5879V59.6113C189.646 59.6875 190.478 60.4902 190.478 61.6855C190.478 63.1152 189.201 64.1348 187.554 64.1348C185.849 64.1348 184.695 63.1621 184.642 61.8086H185.416C185.48 62.752 186.33 63.4316 187.548 63.4316C188.773 63.4316 189.664 62.7109 189.664 61.709C189.664 60.6309 188.832 59.9746 187.472 59.9746H186.453ZM193.859 64V56.4062H193.836C193.648 56.5234 191.814 57.8125 191.568 57.9648V57.1094C191.802 56.9629 193.595 55.6973 193.847 55.5449H194.632V64H193.859ZM199.636 64.1348C197.714 64.1348 196.572 62.4414 196.572 59.7695C196.572 57.1152 197.726 55.4102 199.636 55.4102C201.552 55.4102 202.695 57.1094 202.695 59.7637C202.695 62.4355 201.558 64.1348 199.636 64.1348ZM199.636 63.4316C201.066 63.4316 201.892 62.0078 201.892 59.7695C201.892 57.5488 201.054 56.1191 199.636 56.1191C198.224 56.1191 197.38 57.5605 197.38 59.7637C197.38 62.0078 198.207 63.4316 199.636 63.4316ZM207.945 64V62.0898H203.656V61.3574C204.576 59.8105 205.683 58.1523 207.552 55.5332H208.724V61.3809H209.984V62.0898H208.724V64H207.945ZM204.464 61.3574V61.3809H207.945V56.2363H207.933C206.375 58.3926 205.308 59.9863 204.464 61.3574Z" fill="white"/>
<mask id="path-39-inside-13_252_671" fill="white">
<path d="M236.667 40H315.555V80H236.667V40Z"/>
</mask>
<path d="M236.667 40V39H235.667V40H236.667ZM236.667 41H315.555V39H236.667V41ZM237.667 80V40H235.667V80H237.667Z" fill="white" fill-opacity="0.2" mask="url(#path-39-inside-13_252_671)"/>
<path d="M263.209 57.9121C263.22 56.4707 264.369 55.4102 265.916 55.4102C267.392 55.4102 268.546 56.4238 268.546 57.7188C268.546 58.6445 268.13 59.3418 266.724 60.8008L264.369 63.2617V63.2852H268.763V64H263.25V63.4375L266.238 60.2793C267.445 59.0078 267.75 58.5039 267.75 57.7656C267.75 56.8398 266.929 56.1133 265.892 56.1133C264.808 56.1133 263.994 56.8809 263.982 57.9121V57.918H263.209V57.9121ZM270.463 64L274.382 56.2832V56.2598H269.677V55.5449H275.185V56.2949L271.312 64H270.463ZM279.123 64.1348C277.576 64.1348 276.392 63.1621 276.287 61.7969H277.072C277.183 62.7461 278.045 63.4258 279.134 63.4258C280.394 63.4258 281.291 62.5352 281.291 61.293C281.291 60.0566 280.394 59.1484 279.17 59.1484C278.314 59.1484 277.576 59.5527 277.183 60.2266H276.416L276.896 55.5449H281.584V56.2598H277.558L277.242 59.3828H277.265C277.675 58.8086 278.443 58.4512 279.298 58.4512C280.91 58.4512 282.093 59.6465 282.093 61.2754C282.093 62.9453 280.851 64.1348 279.123 64.1348ZM286.107 64.1348C284.185 64.1348 283.043 62.4414 283.043 59.7695C283.043 57.1152 284.197 55.4102 286.107 55.4102C288.023 55.4102 289.166 57.1094 289.166 59.7637C289.166 62.4355 288.029 64.1348 286.107 64.1348ZM286.107 63.4316C287.537 63.4316 288.363 62.0078 288.363 59.7695C288.363 57.5488 287.525 56.1191 286.107 56.1191C284.695 56.1191 283.851 57.5605 283.851 59.7637C283.851 62.0078 284.677 63.4316 286.107 63.4316Z" fill="white"/>
<mask id="path-42-inside-14_252_671" fill="white">
<path d="M315.556 40H394.445V80H315.556V40Z"/>
</mask>
<path d="M315.556 40V39H314.556V40H315.556ZM315.556 41H394.445V39H315.556V41ZM316.556 80V40H314.556V80H316.556Z" fill="white" fill-opacity="0.2" mask="url(#path-42-inside-14_252_671)"/>
<path d="M342.543 57.9121C342.555 56.4707 343.703 55.4102 345.25 55.4102C346.727 55.4102 347.881 56.4238 347.881 57.7188C347.881 58.6445 347.465 59.3418 346.059 60.8008L343.703 63.2617V63.2852H348.098V64H342.584V63.4375L345.572 60.2793C346.779 59.0078 347.084 58.5039 347.084 57.7656C347.084 56.8398 346.264 56.1133 345.227 56.1133C344.143 56.1133 343.328 56.8809 343.317 57.9121V57.918H342.543V57.9121ZM349.797 64L353.717 56.2832V56.2598H349.012V55.5449H354.52V56.2949L350.647 64H349.797ZM358.375 64.1348C356.453 64.1348 355.311 62.4414 355.311 59.7695C355.311 57.1152 356.465 55.4102 358.375 55.4102C360.291 55.4102 361.434 57.1094 361.434 59.7637C361.434 62.4355 360.297 64.1348 358.375 64.1348ZM358.375 63.4316C359.805 63.4316 360.631 62.0078 360.631 59.7695C360.631 57.5488 359.793 56.1191 358.375 56.1191C356.963 56.1191 356.119 57.5605 356.119 59.7637C356.119 62.0078 356.945 63.4316 358.375 63.4316ZM362.899 64L366.818 56.2832V56.2598H362.113V55.5449H367.621V56.2949L363.748 64H362.899Z" fill="white"/>
<mask id="path-45-inside-15_252_671" fill="white">
<path d="M394.444 40H473.333V80H394.444V40Z"/>
</mask>
<path d="M394.444 40V39H393.444V40H394.444ZM394.444 41H473.333V39H394.444V41ZM395.444 80V40H393.444V80H395.444Z" fill="white" fill-opacity="0.2" mask="url(#path-45-inside-15_252_671)"/>
<path d="M423.119 59.9746V59.2949H424.104C425.211 59.2949 425.973 58.6152 425.973 57.6719C425.973 56.7578 425.281 56.1133 424.139 56.1133C423.09 56.1133 422.346 56.7461 422.258 57.6836H421.484C421.584 56.3242 422.65 55.4102 424.174 55.4102C425.662 55.4102 426.781 56.3184 426.781 57.5723C426.781 58.6328 426.096 59.3945 425.018 59.5879V59.6113C426.313 59.6875 427.145 60.4902 427.145 61.6855C427.145 63.1152 425.867 64.1348 424.221 64.1348C422.516 64.1348 421.361 63.1621 421.309 61.8086H422.082C422.147 62.752 422.996 63.4316 424.215 63.4316C425.44 63.4316 426.33 62.7109 426.33 61.709C426.33 60.6309 425.498 59.9746 424.139 59.9746H423.119ZM430.525 64V56.4062H430.502C430.315 56.5234 428.481 57.8125 428.234 57.9648V57.1094C428.469 56.9629 430.262 55.6973 430.514 55.5449H431.299V64H430.525ZM436.303 64.1348C434.381 64.1348 433.238 62.4414 433.238 59.7695C433.238 57.1152 434.393 55.4102 436.303 55.4102C438.219 55.4102 439.361 57.1094 439.361 59.7637C439.361 62.4355 438.225 64.1348 436.303 64.1348ZM436.303 63.4316C437.733 63.4316 438.559 62.0078 438.559 59.7695C438.559 57.5488 437.721 56.1191 436.303 56.1191C434.891 56.1191 434.047 57.5605 434.047 59.7637C434.047 62.0078 434.873 63.4316 436.303 63.4316ZM444.611 64V62.0898H440.322V61.3574C441.242 59.8105 442.35 58.1523 444.219 55.5332H445.391V61.3809H446.65V62.0898H445.391V64H444.611ZM441.131 61.3574V61.3809H444.611V56.2363H444.6C443.041 58.3926 441.975 59.9863 441.131 61.3574Z" fill="white"/>
<mask id="path-48-inside-16_252_671" fill="white">
<path d="M473.333 40H552.222V80H473.333V40Z"/>
</mask>
<path d="M473.333 40V39H472.333V40H473.333ZM473.333 41H552.222V39H473.333V41ZM474.333 80V40H472.333V80H474.333Z" fill="white" fill-opacity="0.2" mask="url(#path-48-inside-16_252_671)"/>
<path d="M500.321 57.9121C500.333 56.4707 501.481 55.4102 503.028 55.4102C504.504 55.4102 505.659 56.4238 505.659 57.7188C505.659 58.6445 505.243 59.3418 503.837 60.8008L501.481 63.2617V63.2852H505.876V64H500.362V63.4375L503.35 60.2793C504.557 59.0078 504.862 58.5039 504.862 57.7656C504.862 56.8398 504.042 56.1133 503.004 56.1133C501.921 56.1133 501.106 56.8809 501.094 57.9121V57.918H500.321V57.9121ZM507.575 64L511.495 56.2832V56.2598H506.79V55.5449H512.297V56.2949L508.424 64H507.575ZM516.153 64.1348C514.231 64.1348 513.088 62.4414 513.088 59.7695C513.088 57.1152 514.243 55.4102 516.153 55.4102C518.069 55.4102 519.212 57.1094 519.212 59.7637C519.212 62.4355 518.075 64.1348 516.153 64.1348ZM516.153 63.4316C517.583 63.4316 518.409 62.0078 518.409 59.7695C518.409 57.5488 517.571 56.1191 516.153 56.1191C514.741 56.1191 513.897 57.5605 513.897 59.7637C513.897 62.0078 514.723 63.4316 516.153 63.4316ZM520.676 64L524.596 56.2832V56.2598H519.891V55.5449H525.399V56.2949L521.526 64H520.676Z" fill="white"/>
<mask id="path-51-inside-17_252_671" fill="white">
<path d="M552.222 40H631.111V80H552.222V40Z"/>
</mask>
<path d="M552.222 40V39H551.222V40H552.222ZM552.222 41H631.111V39H552.222V41ZM553.222 80V40H551.222V80H553.222Z" fill="white" fill-opacity="0.2" mask="url(#path-51-inside-17_252_671)"/>
<path d="M580.897 59.9746V59.2949H581.881C582.989 59.2949 583.751 58.6152 583.751 57.6719C583.751 56.7578 583.059 56.1133 581.917 56.1133C580.868 56.1133 580.124 56.7461 580.036 57.6836H579.262C579.362 56.3242 580.428 55.4102 581.952 55.4102C583.44 55.4102 584.559 56.3184 584.559 57.5723C584.559 58.6328 583.874 59.3945 582.796 59.5879V59.6113C584.09 59.6875 584.922 60.4902 584.922 61.6855C584.922 63.1152 583.645 64.1348 581.999 64.1348C580.294 64.1348 579.139 63.1621 579.087 61.8086H579.86C579.924 62.752 580.774 63.4316 581.993 63.4316C583.217 63.4316 584.108 62.7109 584.108 61.709C584.108 60.6309 583.276 59.9746 581.917 59.9746H580.897ZM588.303 64V56.4062H588.28C588.092 56.5234 586.258 57.8125 586.012 57.9648V57.1094C586.247 56.9629 588.04 55.6973 588.292 55.5449H589.077V64H588.303ZM594.081 64.1348C592.159 64.1348 591.016 62.4414 591.016 59.7695C591.016 57.1152 592.171 55.4102 594.081 55.4102C595.997 55.4102 597.139 57.1094 597.139 59.7637C597.139 62.4355 596.003 64.1348 594.081 64.1348ZM594.081 63.4316C595.51 63.4316 596.337 62.0078 596.337 59.7695C596.337 57.5488 595.499 56.1191 594.081 56.1191C592.669 56.1191 591.825 57.5605 591.825 59.7637C591.825 62.0078 592.651 63.4316 594.081 63.4316ZM602.389 64V62.0898H598.1V61.3574C599.02 59.8105 600.128 58.1523 601.997 55.5332H603.169V61.3809H604.428V62.0898H603.169V64H602.389ZM598.909 61.3574V61.3809H602.389V56.2363H602.378C600.819 58.3926 599.753 59.9863 598.909 61.3574Z" fill="white"/>
<mask id="path-54-inside-18_252_671" fill="white">
<path d="M631.111 40H710V80H631.111V40Z"/>
</mask>
<path d="M631.111 40V39H630.111V40H631.111ZM631.111 41H710V39H631.111V41ZM632.111 80V40H630.111V80H632.111Z" fill="white" fill-opacity="0.2" mask="url(#path-54-inside-18_252_671)"/>
<path d="M658.098 57.9121C658.11 56.4707 659.258 55.4102 660.805 55.4102C662.282 55.4102 663.436 56.4238 663.436 57.7188C663.436 58.6445 663.02 59.3418 661.614 60.8008L659.258 63.2617V63.2852H663.653V64H658.139V63.4375L661.128 60.2793C662.335 59.0078 662.639 58.5039 662.639 57.7656C662.639 56.8398 661.819 56.1133 660.782 56.1133C659.698 56.1133 658.883 56.8809 658.872 57.9121V57.918H658.098V57.9121ZM665.352 64L669.272 56.2832V56.2598H664.567V55.5449H670.075V56.2949L666.202 64H665.352ZM673.93 64.1348C672.008 64.1348 670.866 62.4414 670.866 59.7695C670.866 57.1152 672.02 55.4102 673.93 55.4102C675.846 55.4102 676.989 57.1094 676.989 59.7637C676.989 62.4355 675.852 64.1348 673.93 64.1348ZM673.93 63.4316C675.36 63.4316 676.186 62.0078 676.186 59.7695C676.186 57.5488 675.348 56.1191 673.93 56.1191C672.518 56.1191 671.674 57.5605 671.674 59.7637C671.674 62.0078 672.501 63.4316 673.93 63.4316ZM678.454 64L682.374 56.2832V56.2598H677.669V55.5449H683.176V56.2949L679.303 64H678.454Z" fill="white"/>
</g>
<g clip-path="url(#clip3_252_671)">
<rect width="710" height="40" transform="translate(0 80)" fill="#86A2FF" fill-opacity="0.2"/>
<mask id="path-57-inside-19_252_671" fill="white">
<path d="M0 80H78.8889V120H0V80Z"/>
</mask>
<path d="M0 80V79H-1V80H0ZM0 81H78.8889V79H0V81ZM1 120V80H-1V120H1Z" fill="white" fill-opacity="0.2" mask="url(#path-57-inside-19_252_671)"/>
<path d="M17.0039 98H16.3086V93.0039H13.293V98H12.5859V92.3633H17.0039V98ZM19.7578 98.0703C18.6328 98.0703 17.875 97.2617 17.875 95.9688C17.875 94.6719 18.6328 93.8672 19.7578 93.8672C20.8789 93.8672 21.6367 94.6719 21.6367 95.9688C21.6367 97.2617 20.8789 98.0703 19.7578 98.0703ZM19.7578 97.4727C20.4766 97.4727 20.9453 96.9258 20.9453 95.9688C20.9453 95.0117 20.4766 94.4648 19.7578 94.4648C19.0391 94.4648 18.5664 95.0117 18.5664 95.9688C18.5664 96.9258 19.0391 97.4727 19.7578 97.4727ZM23.3203 96.207C23.2383 97.3281 22.9688 98.0352 22.1133 98.0352C21.9961 98.0352 21.918 98.0117 21.8711 97.9922V97.3789C21.9062 97.3906 21.9805 97.4102 22.0781 97.4102C22.4805 97.4102 22.6328 96.9375 22.6836 96.1914L22.8398 93.9375H25.5V98H24.8281V94.4961H23.4453L23.3203 96.207ZM28.0938 94.457C27.457 94.457 27.0117 94.9453 26.9688 95.6211H29.1758C29.1602 94.9414 28.7344 94.457 28.0938 94.457ZM29.1602 96.8359H29.8281C29.7109 97.5469 29.0234 98.0703 28.1367 98.0703C26.9727 98.0703 26.2656 97.2617 26.2656 95.9844C26.2656 94.7227 26.9844 93.8672 28.1055 93.8672C29.2031 93.8672 29.8789 94.6641 29.8789 95.8945V96.1523H26.9648V96.1914C26.9648 96.9688 27.4219 97.4805 28.1523 97.4805C28.668 97.4805 29.0469 97.2188 29.1602 96.8359ZM31.9883 98.0703C31.0977 98.0703 30.4531 97.6328 30.3828 96.9453H31.0703C31.1484 97.3008 31.4844 97.5078 31.9883 97.5078C32.5781 97.5078 32.9062 97.2266 32.9062 96.832C32.9062 96.375 32.6016 96.168 31.9883 96.168H31.3789V95.6133H31.9883C32.5039 95.6133 32.7695 95.418 32.7695 95.0195C32.7695 94.6797 32.5273 94.4336 32.0039 94.4336C31.5234 94.4336 31.1875 94.6406 31.1328 94.9648H30.4727C30.5586 94.293 31.1445 93.8672 32.0039 93.8672C32.9297 93.8672 33.4336 94.3125 33.4336 94.9648C33.4336 95.3789 33.168 95.7461 32.7617 95.8398V95.8711C33.2969 95.9883 33.5742 96.332 33.5742 96.8008C33.5742 97.5586 32.9414 98.0703 31.9883 98.0703ZM37.0273 98V96.1719H35.0234V98H34.3516V93.9375H35.0234V95.6133H37.0273V93.9375H37.6992V98H37.0273ZM40 97.4922C40.6406 97.4922 41.1328 97.043 41.1328 96.457V96.125L40.0469 96.1914C39.5 96.2266 39.1875 96.4688 39.1875 96.8516C39.1875 97.2383 39.5117 97.4922 40 97.4922ZM39.8477 98.0703C39.0391 98.0703 38.4961 97.582 38.4961 96.8516C38.4961 96.1562 39.0312 95.7188 39.9688 95.6641L41.1328 95.5977V95.2578C41.1328 94.7617 40.8047 94.4648 40.2422 94.4648C39.7188 94.4648 39.3906 94.7109 39.3047 95.1094H38.6484C38.6953 94.4062 39.2969 93.8672 40.2578 93.8672C41.2109 93.8672 41.8125 94.3828 41.8125 95.1914V98H41.168V97.3008H41.1523C40.9102 97.7656 40.3945 98.0703 39.8477 98.0703ZM44.2109 95.9961H44.9883V94.4961H44.2109C43.6836 94.4961 43.3477 94.7852 43.3477 95.2734C43.3477 95.6953 43.6875 95.9961 44.2109 95.9961ZM44.9883 98V96.5547H44.2695L43.2383 98H42.4609L43.5938 96.4297C43.0195 96.2656 42.6719 95.8438 42.6719 95.2852C42.6719 94.4492 43.2734 93.9375 44.207 93.9375H45.6602V98H44.9883ZM15.1523 108V106.172H13.1484V108H12.4766V103.938H13.1484V105.613H15.1523V103.938H15.8242V108H15.1523ZM18.125 107.492C18.7656 107.492 19.2578 107.043 19.2578 106.457V106.125L18.1719 106.191C17.625 106.227 17.3125 106.469 17.3125 106.852C17.3125 107.238 17.6367 107.492 18.125 107.492ZM17.9727 108.07C17.1641 108.07 16.6211 107.582 16.6211 106.852C16.6211 106.156 17.1562 105.719 18.0938 105.664L19.2578 105.598V105.258C19.2578 104.762 18.9297 104.465 18.3672 104.465C17.8438 104.465 17.5156 104.711 17.4297 105.109H16.7734C16.8203 104.406 17.4219 103.867 18.3828 103.867C19.3359 103.867 19.9375 104.383 19.9375 105.191V108H19.293V107.301H19.2773C19.0352 107.766 18.5195 108.07 17.9727 108.07ZM23.4883 104.496H21.5469V108H20.875V103.938H23.4883V104.496ZM26.2031 103.867C27.2383 103.867 27.9414 104.695 27.9414 105.969C27.9414 107.242 27.2422 108.07 26.2188 108.07C25.6367 108.07 25.168 107.785 24.9258 107.34H24.9102V109.355H24.2305V103.938H24.875V104.625H24.8906C25.1406 104.168 25.6133 103.867 26.2031 103.867ZM26.0703 107.473C26.793 107.473 27.2461 106.891 27.2461 105.969C27.2461 105.051 26.793 104.465 26.0703 104.465C25.375 104.465 24.9062 105.066 24.9062 105.969C24.9062 106.875 25.375 107.473 26.0703 107.473ZM28.918 109.52C28.8359 109.52 28.6992 109.512 28.625 109.496V108.926C28.6992 108.941 28.8047 108.945 28.8906 108.945C29.2695 108.945 29.4805 108.762 29.6367 108.289L29.7305 108.004L28.2305 103.938H28.957L30.082 107.32H30.0938L31.2188 103.938H31.9336L30.3359 108.285C29.9883 109.234 29.6523 109.52 28.918 109.52ZM33.8945 108.07C33.0039 108.07 32.3594 107.633 32.2891 106.945H32.9766C33.0547 107.301 33.3906 107.508 33.8945 107.508C34.4844 107.508 34.8125 107.227 34.8125 106.832C34.8125 106.375 34.5078 106.168 33.8945 106.168H33.2852V105.613H33.8945C34.4102 105.613 34.6758 105.418 34.6758 105.02C34.6758 104.68 34.4336 104.434 33.9102 104.434C33.4297 104.434 33.0938 104.641 33.0391 104.965H32.3789C32.4648 104.293 33.0508 103.867 33.9102 103.867C34.8359 103.867 35.3398 104.312 35.3398 104.965C35.3398 105.379 35.0742 105.746 34.668 105.84V105.871C35.2031 105.988 35.4805 106.332 35.4805 106.801C35.4805 107.559 34.8477 108.07 33.8945 108.07ZM37.6367 105.859L39.5898 108H38.7148L36.9609 106.047H36.9297V108H36.2578V103.938H36.9297V105.734H36.9609L38.6953 103.938H39.5352L37.6367 105.859ZM41.3828 107.492C42.0234 107.492 42.5156 107.043 42.5156 106.457V106.125L41.4297 106.191C40.8828 106.227 40.5703 106.469 40.5703 106.852C40.5703 107.238 40.8945 107.492 41.3828 107.492ZM41.2305 108.07C40.4219 108.07 39.8789 107.582 39.8789 106.852C39.8789 106.156 40.4141 105.719 41.3516 105.664L42.5156 105.598V105.258C42.5156 104.762 42.1875 104.465 41.625 104.465C41.1016 104.465 40.7734 104.711 40.6875 105.109H40.0312C40.0781 104.406 40.6797 103.867 41.6406 103.867C42.5938 103.867 43.1953 104.383 43.1953 105.191V108H42.5508V107.301H42.5352C42.293 107.766 41.7773 108.07 41.2305 108.07ZM44.5625 109.121H43.9961L44.375 107.133H45.0977L44.5625 109.121ZM48.793 105.859L50.7461 108H49.8711L48.1172 106.047H48.0859V108H47.4141V103.938H48.0859V105.734H48.1172L49.8516 103.938H50.6914L48.793 105.859ZM53.9258 104.496H51.9844V108H51.3125V103.938H53.9258V104.496Z" fill="white"/>
<mask id="path-60-inside-20_252_671" fill="white">
<path d="M78.8887 80H157.778V120H78.8887V80Z"/>
</mask>
<path d="M78.8887 80V79H77.8887V80H78.8887ZM78.8887 81H157.778V79H78.8887V81ZM79.8887 120V80H77.8887V120H79.8887Z" fill="white" fill-opacity="0.2" mask="url(#path-60-inside-20_252_671)"/>
<path d="M111.607 104V96.4062H111.583C111.396 96.5234 109.562 97.8125 109.316 97.9648V97.1094C109.55 96.9629 111.343 95.6973 111.595 95.5449H112.38V104H111.607ZM116.142 99.9746V99.2949H117.126C118.234 99.2949 118.995 98.6152 118.995 97.6719C118.995 96.7578 118.304 96.1133 117.161 96.1133C116.112 96.1133 115.368 96.7461 115.28 97.6836H114.507C114.607 96.3242 115.673 95.4102 117.196 95.4102C118.685 95.4102 119.804 96.3184 119.804 97.5723C119.804 98.6328 119.118 99.3945 118.04 99.5879V99.6113C119.335 99.6875 120.167 100.49 120.167 101.686C120.167 103.115 118.89 104.135 117.243 104.135C115.538 104.135 114.384 103.162 114.331 101.809H115.105C115.169 102.752 116.019 103.432 117.237 103.432C118.462 103.432 119.353 102.711 119.353 101.709C119.353 100.631 118.521 99.9746 117.161 99.9746H116.142ZM124.321 104.135C122.4 104.135 121.257 102.441 121.257 99.7695C121.257 97.1152 122.411 95.4102 124.321 95.4102C126.237 95.4102 127.38 97.1094 127.38 99.7637C127.38 102.436 126.243 104.135 124.321 104.135ZM124.321 103.432C125.751 103.432 126.577 102.008 126.577 99.7695C126.577 97.5488 125.739 96.1191 124.321 96.1191C122.909 96.1191 122.066 97.5605 122.066 99.7637C122.066 102.008 122.892 103.432 124.321 103.432Z" fill="white"/>
<mask id="path-63-inside-21_252_671" fill="white">
<path d="M157.778 80H236.667V120H157.778V80Z"/>
</mask>
<path d="M157.778 80V79H156.778V80H157.778ZM157.778 81H236.667V79H157.778V81ZM158.778 120V80H156.778V120H158.778Z" fill="white" fill-opacity="0.2" mask="url(#path-63-inside-21_252_671)"/>
<path d="M190.496 104V96.4062H190.472C190.285 96.5234 188.451 97.8125 188.205 97.9648V97.1094C188.439 96.9629 190.232 95.6973 190.484 95.5449H191.269V104H190.496ZM195.031 99.9746V99.2949H196.015C197.123 99.2949 197.884 98.6152 197.884 97.6719C197.884 96.7578 197.193 96.1133 196.05 96.1133C195.002 96.1133 194.257 96.7461 194.17 97.6836H193.396C193.496 96.3242 194.562 95.4102 196.086 95.4102C197.574 95.4102 198.693 96.3184 198.693 97.5723C198.693 98.6328 198.007 99.3945 196.929 99.5879V99.6113C198.224 99.6875 199.056 100.49 199.056 101.686C199.056 103.115 197.779 104.135 196.132 104.135C194.427 104.135 193.273 103.162 193.22 101.809H193.994C194.058 102.752 194.908 103.432 196.127 103.432C197.351 103.432 198.242 102.711 198.242 101.709C198.242 100.631 197.41 99.9746 196.05 99.9746H195.031ZM203.211 104.135C201.289 104.135 200.146 102.441 200.146 99.7695C200.146 97.1152 201.3 95.4102 203.211 95.4102C205.127 95.4102 206.269 97.1094 206.269 99.7637C206.269 102.436 205.132 104.135 203.211 104.135ZM203.211 103.432C204.64 103.432 205.466 102.008 205.466 99.7695C205.466 97.5488 204.629 96.1191 203.211 96.1191C201.798 96.1191 200.955 97.5605 200.955 99.7637C200.955 102.008 201.781 103.432 203.211 103.432Z" fill="white"/>
<mask id="path-66-inside-22_252_671" fill="white">
<path d="M236.667 80H315.555V120H236.667V80Z"/>
</mask>
<path d="M236.667 80V79H235.667V80H236.667ZM236.667 81H315.555V79H236.667V81ZM237.667 120V80H235.667V120H237.667Z" fill="white" fill-opacity="0.2" mask="url(#path-66-inside-22_252_671)"/>
<path d="M269.425 104V96.4062H269.402C269.214 96.5234 267.38 97.8125 267.134 97.9648V97.1094C267.369 96.9629 269.162 95.6973 269.414 95.5449H270.199V104H269.425ZM275.308 104.135C274.171 104.135 273.246 103.561 272.724 102.535C272.343 101.873 272.156 101.012 272.156 99.9512C272.156 97.1152 273.363 95.4102 275.367 95.4102C276.773 95.4102 277.851 96.2598 278.091 97.5547H277.283C277.072 96.6934 276.304 96.1191 275.361 96.1191C273.814 96.1191 272.929 97.5605 272.929 100.068H272.947C273.293 99.1191 274.295 98.4629 275.437 98.4629C277.043 98.4629 278.244 99.6582 278.244 101.258C278.244 102.916 277.002 104.135 275.308 104.135ZM275.302 103.42C276.492 103.42 277.429 102.477 277.429 101.281C277.429 100.068 276.533 99.1719 275.308 99.1719C274.101 99.1719 273.158 100.074 273.158 101.223C273.158 102.453 274.089 103.42 275.302 103.42ZM282.234 104.135C280.687 104.135 279.504 103.162 279.398 101.797H280.183C280.295 102.746 281.156 103.426 282.246 103.426C283.505 103.426 284.402 102.535 284.402 101.293C284.402 100.057 283.505 99.1484 282.281 99.1484C281.425 99.1484 280.687 99.5527 280.295 100.227H279.527L280.007 95.5449H284.695V96.2598H280.67L280.353 99.3828H280.377C280.787 98.8086 281.554 98.4512 282.41 98.4512C284.021 98.4512 285.205 99.6465 285.205 101.275C285.205 102.945 283.963 104.135 282.234 104.135Z" fill="white"/>
<mask id="path-69-inside-23_252_671" fill="white">
<path d="M315.556 80H394.445V120H315.556V80Z"/>
</mask>
<path d="M315.556 80V79H314.556V80H315.556ZM315.556 81H394.445V79H315.556V81ZM316.556 120V80H314.556V120H316.556Z" fill="white" fill-opacity="0.2" mask="url(#path-69-inside-23_252_671)"/>
<path d="M348.608 104V96.4062H348.584C348.397 96.5234 346.563 97.8125 346.317 97.9648V97.1094C346.551 96.9629 348.344 95.6973 348.596 95.5449H349.381V104H348.608ZM352.076 104L355.996 96.2832V96.2598H351.291V95.5449H356.799V96.2949L352.926 104H352.076ZM360.654 104.135C358.733 104.135 357.59 102.441 357.59 99.7695C357.59 97.1152 358.744 95.4102 360.654 95.4102C362.57 95.4102 363.713 97.1094 363.713 99.7637C363.713 102.436 362.576 104.135 360.654 104.135ZM360.654 103.432C362.084 103.432 362.91 102.008 362.91 99.7695C362.91 97.5488 362.072 96.1191 360.654 96.1191C359.242 96.1191 358.399 97.5605 358.399 99.7637C358.399 102.008 359.225 103.432 360.654 103.432Z" fill="white"/>
<mask id="path-72-inside-24_252_671" fill="white">
<path d="M394.444 80H473.333V120H394.444V80Z"/>
</mask>
<path d="M394.444 80V79H393.444V80H394.444ZM394.444 81H473.333V79H394.444V81ZM395.444 120V80H393.444V120H395.444Z" fill="white" fill-opacity="0.2" mask="url(#path-72-inside-24_252_671)"/>
<path d="M427.496 104V96.4062H427.473C427.285 96.5234 425.451 97.8125 425.205 97.9648V97.1094C425.44 96.9629 427.233 95.6973 427.484 95.5449H428.27V104H427.496ZM430.965 104L434.885 96.2832V96.2598H430.18V95.5449H435.688V96.2949L431.815 104H430.965ZM439.543 104.135C437.621 104.135 436.479 102.441 436.479 99.7695C436.479 97.1152 437.633 95.4102 439.543 95.4102C441.459 95.4102 442.602 97.1094 442.602 99.7637C442.602 102.436 441.465 104.135 439.543 104.135ZM439.543 103.432C440.973 103.432 441.799 102.008 441.799 99.7695C441.799 97.5488 440.961 96.1191 439.543 96.1191C438.131 96.1191 437.287 97.5605 437.287 99.7637C437.287 102.008 438.113 103.432 439.543 103.432Z" fill="white"/>
<mask id="path-75-inside-25_252_671" fill="white">
<path d="M473.333 80H552.222V120H473.333V80Z"/>
</mask>
<path d="M473.333 80V79H472.333V80H473.333ZM473.333 81H552.222V79H473.333V81ZM474.333 120V80H472.333V120H474.333Z" fill="white" fill-opacity="0.2" mask="url(#path-75-inside-25_252_671)"/>
<path d="M503.122 97.9121C503.133 96.4707 504.282 95.4102 505.829 95.4102C507.305 95.4102 508.46 96.4238 508.46 97.7188C508.46 98.6445 508.044 99.3418 506.637 100.801L504.282 103.262V103.285H508.676V104H503.163V103.438L506.151 100.279C507.358 99.0078 507.663 98.5039 507.663 97.7656C507.663 96.8398 506.842 96.1133 505.805 96.1133C504.721 96.1133 503.907 96.8809 503.895 97.9121V97.918H503.122V97.9121ZM509.872 97.9121C509.883 96.4707 511.032 95.4102 512.579 95.4102C514.055 95.4102 515.21 96.4238 515.21 97.7188C515.21 98.6445 514.794 99.3418 513.387 100.801L511.032 103.262V103.285H515.426V104H509.913V103.438L512.901 100.279C514.108 99.0078 514.413 98.5039 514.413 97.7656C514.413 96.8398 513.592 96.1133 512.555 96.1133C511.471 96.1133 510.657 96.8809 510.645 97.9121V97.918H509.872V97.9121ZM519.528 104.135C517.606 104.135 516.463 102.441 516.463 99.7695C516.463 97.1152 517.618 95.4102 519.528 95.4102C521.444 95.4102 522.587 97.1094 522.587 99.7637C522.587 102.436 521.45 104.135 519.528 104.135ZM519.528 103.432C520.958 103.432 521.784 102.008 521.784 99.7695C521.784 97.5488 520.946 96.1191 519.528 96.1191C518.116 96.1191 517.272 97.5605 517.272 99.7637C517.272 102.008 518.098 103.432 519.528 103.432Z" fill="white"/>
<mask id="path-78-inside-26_252_671" fill="white">
<path d="M552.222 80H631.111V120H552.222V80Z"/>
</mask>
<path d="M552.222 80V79H551.222V80H552.222ZM552.222 81H631.111V79H552.222V81ZM553.222 120V80H551.222V120H553.222Z" fill="white" fill-opacity="0.2" mask="url(#path-78-inside-26_252_671)"/>
<path d="M582.01 97.9121C582.022 96.4707 583.171 95.4102 584.717 95.4102C586.194 95.4102 587.348 96.4238 587.348 97.7188C587.348 98.6445 586.932 99.3418 585.526 100.801L583.171 103.262V103.285H587.565V104H582.051V103.438L585.04 100.279C586.247 99.0078 586.551 98.5039 586.551 97.7656C586.551 96.8398 585.731 96.1133 584.694 96.1133C583.61 96.1133 582.796 96.8809 582.784 97.9121V97.918H582.01V97.9121ZM588.76 97.9121C588.772 96.4707 589.921 95.4102 591.467 95.4102C592.944 95.4102 594.098 96.4238 594.098 97.7188C594.098 98.6445 593.682 99.3418 592.276 100.801L589.921 103.262V103.285H594.315V104H588.801V103.438L591.79 100.279C592.997 99.0078 593.301 98.5039 593.301 97.7656C593.301 96.8398 592.481 96.1133 591.444 96.1133C590.36 96.1133 589.546 96.8809 589.534 97.9121V97.918H588.76V97.9121ZM598.417 104.135C596.495 104.135 595.352 102.441 595.352 99.7695C595.352 97.1152 596.506 95.4102 598.417 95.4102C600.333 95.4102 601.475 97.1094 601.475 99.7637C601.475 102.436 600.338 104.135 598.417 104.135ZM598.417 103.432C599.846 103.432 600.672 102.008 600.672 99.7695C600.672 97.5488 599.835 96.1191 598.417 96.1191C597.004 96.1191 596.161 97.5605 596.161 99.7637C596.161 102.008 596.987 103.432 598.417 103.432Z" fill="white"/>
<mask id="path-81-inside-27_252_671" fill="white">
<path d="M631.111 80H710V120H631.111V80Z"/>
</mask>
<path d="M631.111 80V79H630.111V80H631.111ZM631.111 81H710V79H631.111V81ZM632.111 120V80H630.111V120H632.111Z" fill="white" fill-opacity="0.2" mask="url(#path-81-inside-27_252_671)"/>
<path d="M660.723 97.9121C660.735 96.4707 661.883 95.4102 663.43 95.4102C664.907 95.4102 666.061 96.4238 666.061 97.7188C666.061 98.6445 665.645 99.3418 664.239 100.801L661.883 103.262V103.285H666.278V104H660.764V103.438L663.753 100.279C664.96 99.0078 665.264 98.5039 665.264 97.7656C665.264 96.8398 664.444 96.1133 663.407 96.1133C662.323 96.1133 661.508 96.8809 661.497 97.9121V97.918H660.723V97.9121ZM670.344 104.135C668.569 104.135 667.333 103.115 667.333 101.703C667.333 100.637 668.094 99.7695 669.219 99.5293V99.5117C668.264 99.248 667.655 98.5273 667.655 97.6191C667.655 96.3418 668.786 95.4102 670.344 95.4102C671.909 95.4102 673.028 96.3418 673.028 97.6191C673.028 98.5156 672.419 99.2363 671.469 99.5117V99.5293C672.594 99.7695 673.356 100.643 673.356 101.703C673.356 103.121 672.126 104.135 670.344 104.135ZM670.344 103.432C671.651 103.432 672.542 102.676 672.542 101.656C672.542 100.643 671.645 99.9219 670.344 99.9219C669.049 99.9219 668.147 100.643 668.147 101.656C668.147 102.676 669.038 103.432 670.344 103.432ZM670.344 99.207C671.446 99.207 672.231 98.5742 672.231 97.6836C672.231 96.7754 671.475 96.1074 670.344 96.1074C669.219 96.1074 668.452 96.7754 668.452 97.6836C668.452 98.5742 669.237 99.207 670.344 99.207ZM677.481 104.135C675.559 104.135 674.417 102.441 674.417 99.7695C674.417 97.1152 675.571 95.4102 677.481 95.4102C679.397 95.4102 680.54 97.1094 680.54 99.7637C680.54 102.436 679.403 104.135 677.481 104.135ZM677.481 103.432C678.911 103.432 679.737 102.008 679.737 99.7695C679.737 97.5488 678.899 96.1191 677.481 96.1191C676.069 96.1191 675.225 97.5605 675.225 99.7637C675.225 102.008 676.051 103.432 677.481 103.432Z" fill="white"/>
</g>
<g clip-path="url(#clip4_252_671)">
<rect width="710" height="40" transform="translate(0 120)" fill="#86A2FF" fill-opacity="0.2"/>
<mask id="path-84-inside-28_252_671" fill="white">
<path d="M0 120H78.8889V160H0V120Z"/>
</mask>
<path d="M0 120V119H-1V120H0ZM0 121H78.8889V119H0V121ZM1 160V120H-1V160H1Z" fill="white" fill-opacity="0.2" mask="url(#path-84-inside-28_252_671)"/>
<path d="M14.0625 135.059L16.8867 138H15.9219L13.3203 135.262H13.2891V138H12.5859V132.363H13.2891V134.961H13.3203L15.7422 132.363H16.625L14.0625 135.059ZM18.9062 138.07C17.7812 138.07 17.0234 137.262 17.0234 135.969C17.0234 134.672 17.7812 133.867 18.9062 133.867C20.0273 133.867 20.7852 134.672 20.7852 135.969C20.7852 137.262 20.0273 138.07 18.9062 138.07ZM18.9062 137.473C19.625 137.473 20.0938 136.926 20.0938 135.969C20.0938 135.012 19.625 134.465 18.9062 134.465C18.1875 134.465 17.7148 135.012 17.7148 135.969C17.7148 136.926 18.1875 137.473 18.9062 137.473ZM22.4688 136.207C22.3867 137.328 22.1172 138.035 21.2617 138.035C21.1445 138.035 21.0664 138.012 21.0195 137.992V137.379C21.0547 137.391 21.1289 137.41 21.2266 137.41C21.6289 137.41 21.7812 136.938 21.832 136.191L21.9883 133.938H24.6484V138H23.9766V134.496H22.5938L22.4688 136.207ZM26.2812 138H25.6094V133.938H26.2812V136.961H26.3125L28.3438 133.938H29.0156V138H28.3438V134.977H28.3125L26.2812 138ZM33.0664 138H32.3945V136.246H32.3359C32.1172 136.434 31.793 136.562 31.3516 136.562C30.3789 136.562 29.8672 135.973 29.8672 135.105V133.938H30.5391V135.098C30.5391 135.629 30.8242 135.969 31.3711 135.969C31.875 135.969 32.207 135.781 32.3945 135.57V133.938H33.0664V138ZM35.6562 134.457C35.0195 134.457 34.5742 134.945 34.5312 135.621H36.7383C36.7227 134.941 36.2969 134.457 35.6562 134.457ZM36.7227 136.836H37.3906C37.2734 137.547 36.5859 138.07 35.6992 138.07C34.5352 138.07 33.8281 137.262 33.8281 135.984C33.8281 134.723 34.5469 133.867 35.668 133.867C36.7656 133.867 37.4414 134.664 37.4414 135.895V136.152H34.5273V136.191C34.5273 136.969 34.9844 137.48 35.7148 137.48C36.2305 137.48 36.6094 137.219 36.7227 136.836ZM41.5586 135.188H40.8867C40.7695 134.797 40.4375 134.465 39.8633 134.465C39.1562 134.465 38.6914 135.062 38.6914 135.969C38.6914 136.898 39.1641 137.473 39.8711 137.473C40.4102 137.473 40.7656 137.207 40.8945 136.758H41.5664C41.4336 137.527 40.7812 138.07 39.8672 138.07C38.7383 138.07 38 137.262 38 135.969C38 134.703 38.7344 133.867 39.8594 133.867C40.8398 133.867 41.4375 134.496 41.5586 135.188ZM45.168 133.938V134.496H43.8555V138H43.1836V134.496H41.8711V133.938H45.168ZM47.4414 134.488H46.4688V135.625H47.3398C47.8516 135.625 48.0977 135.438 48.0977 135.047C48.0977 134.688 47.8672 134.488 47.4414 134.488ZM47.3945 136.172H46.4688V137.449H47.5156C48.0078 137.449 48.2734 137.227 48.2734 136.816C48.2734 136.383 47.9883 136.172 47.3945 136.172ZM45.7969 138V133.938H47.5352C48.2969 133.938 48.7617 134.332 48.7617 134.977C48.7617 135.391 48.4688 135.773 48.0938 135.852V135.883C48.6055 135.953 48.9414 136.324 48.9414 136.832C48.9414 137.551 48.4102 138 47.5469 138H45.7969ZM51.4062 138.07C50.2812 138.07 49.5234 137.262 49.5234 135.969C49.5234 134.672 50.2812 133.867 51.4062 133.867C52.5273 133.867 53.2852 134.672 53.2852 135.969C53.2852 137.262 52.5273 138.07 51.4062 138.07ZM51.4062 137.473C52.125 137.473 52.5938 136.926 52.5938 135.969C52.5938 135.012 52.125 134.465 51.4062 134.465C50.6875 134.465 50.2148 135.012 50.2148 135.969C50.2148 136.926 50.6875 137.473 51.4062 137.473ZM14.1641 148.07C13.0391 148.07 12.2812 147.262 12.2812 145.969C12.2812 144.672 13.0391 143.867 14.1641 143.867C15.2852 143.867 16.043 144.672 16.043 145.969C16.043 147.262 15.2852 148.07 14.1641 148.07ZM14.1641 147.473C14.8828 147.473 15.3516 146.926 15.3516 145.969C15.3516 145.012 14.8828 144.465 14.1641 144.465C13.4453 144.465 12.9727 145.012 12.9727 145.969C12.9727 146.926 13.4453 147.473 14.1641 147.473ZM20.1602 145.188H19.4883C19.3711 144.797 19.0391 144.465 18.4648 144.465C17.7578 144.465 17.293 145.062 17.293 145.969C17.293 146.898 17.7656 147.473 18.4727 147.473C19.0117 147.473 19.3672 147.207 19.4961 146.758H20.168C20.0352 147.527 19.3828 148.07 18.4688 148.07C17.3398 148.07 16.6016 147.262 16.6016 145.969C16.6016 144.703 17.3359 143.867 18.4609 143.867C19.4414 143.867 20.0391 144.496 20.1602 145.188ZM22.5078 144.457C21.8711 144.457 21.4258 144.945 21.3828 145.621H23.5898C23.5742 144.941 23.1484 144.457 22.5078 144.457ZM23.5742 146.836H24.2422C24.125 147.547 23.4375 148.07 22.5508 148.07C21.3867 148.07 20.6797 147.262 20.6797 145.984C20.6797 144.723 21.3984 143.867 22.5195 143.867C23.6172 143.867 24.293 144.664 24.293 145.895V146.152H21.3789V146.191C21.3789 146.969 21.8359 147.48 22.5664 147.48C23.082 147.48 23.4609 147.219 23.5742 146.836ZM25.7188 148H25.0469V143.938H25.7188V146.961H25.75L27.7812 143.938H28.4531V148H27.7812V144.977H27.75L25.7188 148ZM25.5664 142.18H26.0664C26.0664 142.633 26.3594 142.988 26.8242 142.988C27.2891 142.988 27.582 142.633 27.582 142.18H28.082C28.082 142.898 27.5703 143.391 26.8242 143.391C26.0781 143.391 25.5664 142.898 25.5664 142.18Z" fill="white"/>
<mask id="path-87-inside-29_252_671" fill="white">
<path d="M78.8887 120H157.778V160H78.8887V120Z"/>
</mask>
<path d="M78.8887 120V119H77.8887V120H78.8887ZM78.8887 121H157.778V119H78.8887V121ZM79.8887 160V120H77.8887V160H79.8887Z" fill="white" fill-opacity="0.2" mask="url(#path-87-inside-29_252_671)"/>
<path d="M118.485 144.135C117.349 144.135 116.423 143.561 115.901 142.535C115.521 141.873 115.333 141.012 115.333 139.951C115.333 137.115 116.54 135.41 118.544 135.41C119.95 135.41 121.028 136.26 121.269 137.555H120.46C120.249 136.693 119.482 136.119 118.538 136.119C116.991 136.119 116.107 137.561 116.107 140.068H116.124C116.47 139.119 117.472 138.463 118.614 138.463C120.22 138.463 121.421 139.658 121.421 141.258C121.421 142.916 120.179 144.135 118.485 144.135ZM118.48 143.42C119.669 143.42 120.607 142.477 120.607 141.281C120.607 140.068 119.71 139.172 118.485 139.172C117.278 139.172 116.335 140.074 116.335 141.223C116.335 142.453 117.267 143.42 118.48 143.42Z" fill="white"/>
<mask id="path-90-inside-30_252_671" fill="white">
<path d="M157.778 120H236.667V160H157.778V120Z"/>
</mask>
<path d="M157.778 120V119H156.778V120H157.778ZM157.778 121H236.667V119H157.778V121ZM158.778 160V120H156.778V160H158.778Z" fill="white" fill-opacity="0.2" mask="url(#path-90-inside-30_252_671)"/>
<path d="M197.375 144.135C196.238 144.135 195.312 143.561 194.791 142.535C194.41 141.873 194.222 141.012 194.222 139.951C194.222 137.115 195.429 135.41 197.433 135.41C198.839 135.41 199.918 136.26 200.158 137.555H199.349C199.138 136.693 198.371 136.119 197.427 136.119C195.88 136.119 194.996 137.561 194.996 140.068H195.013C195.359 139.119 196.361 138.463 197.504 138.463C199.109 138.463 200.31 139.658 200.31 141.258C200.31 142.916 199.068 144.135 197.375 144.135ZM197.369 143.42C198.558 143.42 199.496 142.477 199.496 141.281C199.496 140.068 198.599 139.172 197.375 139.172C196.168 139.172 195.224 140.074 195.224 141.223C195.224 142.453 196.156 143.42 197.369 143.42Z" fill="white"/>
<mask id="path-93-inside-31_252_671" fill="white">
<path d="M236.667 120H315.555V160H236.667V120Z"/>
</mask>
<path d="M236.667 120V119H235.667V120H236.667ZM236.667 121H315.555V119H236.667V121ZM237.667 160V120H235.667V160H237.667Z" fill="white" fill-opacity="0.2" mask="url(#path-93-inside-31_252_671)"/>
<path d="M276.263 144.135C275.127 144.135 274.201 143.561 273.679 142.535C273.298 141.873 273.111 141.012 273.111 139.951C273.111 137.115 274.318 135.41 276.322 135.41C277.728 135.41 278.806 136.26 279.046 137.555H278.238C278.027 136.693 277.259 136.119 276.316 136.119C274.769 136.119 273.884 137.561 273.884 140.068H273.902C274.248 139.119 275.25 138.463 276.392 138.463C277.998 138.463 279.199 139.658 279.199 141.258C279.199 142.916 277.957 144.135 276.263 144.135ZM276.257 143.42C277.447 143.42 278.384 142.477 278.384 141.281C278.384 140.068 277.488 139.172 276.263 139.172C275.056 139.172 274.113 140.074 274.113 141.223C274.113 142.453 275.045 143.42 276.257 143.42Z" fill="white"/>
<mask id="path-96-inside-32_252_671" fill="white">
<path d="M315.556 120H394.445V160H315.556V120Z"/>
</mask>
<path d="M315.556 120V119H314.556V120H315.556ZM315.556 121H394.445V119H315.556V121ZM316.556 160V120H314.556V160H316.556Z" fill="white" fill-opacity="0.2" mask="url(#path-96-inside-32_252_671)"/>
<path d="M355.152 144.135C354.016 144.135 353.09 143.561 352.568 142.535C352.188 141.873 352 141.012 352 139.951C352 137.115 353.207 135.41 355.211 135.41C356.617 135.41 357.695 136.26 357.936 137.555H357.127C356.916 136.693 356.149 136.119 355.205 136.119C353.658 136.119 352.774 137.561 352.774 140.068H352.791C353.137 139.119 354.139 138.463 355.281 138.463C356.887 138.463 358.088 139.658 358.088 141.258C358.088 142.916 356.846 144.135 355.152 144.135ZM355.147 143.42C356.336 143.42 357.274 142.477 357.274 141.281C357.274 140.068 356.377 139.172 355.152 139.172C353.945 139.172 353.002 140.074 353.002 141.223C353.002 142.453 353.934 143.42 355.147 143.42Z" fill="white"/>
<mask id="path-99-inside-33_252_671" fill="white">
<path d="M394.444 120H473.333V160H394.444V120Z"/>
</mask>
<path d="M394.444 120V119H393.444V120H394.444ZM394.444 121H473.333V119H394.444V121ZM395.444 160V120H393.444V160H395.444Z" fill="white" fill-opacity="0.2" mask="url(#path-99-inside-33_252_671)"/>
<path d="M434.041 144.135C432.904 144.135 431.979 143.561 431.457 142.535C431.076 141.873 430.889 141.012 430.889 139.951C430.889 137.115 432.096 135.41 434.1 135.41C435.506 135.41 436.584 136.26 436.824 137.555H436.016C435.805 136.693 435.037 136.119 434.094 136.119C432.547 136.119 431.662 137.561 431.662 140.068H431.68C432.025 139.119 433.027 138.463 434.17 138.463C435.775 138.463 436.977 139.658 436.977 141.258C436.977 142.916 435.734 144.135 434.041 144.135ZM434.035 143.42C435.225 143.42 436.162 142.477 436.162 141.281C436.162 140.068 435.266 139.172 434.041 139.172C432.834 139.172 431.891 140.074 431.891 141.223C431.891 142.453 432.822 143.42 434.035 143.42Z" fill="white"/>
<mask id="path-102-inside-34_252_671" fill="white">
<path d="M473.333 120H552.222V160H473.333V120Z"/>
</mask>
<path d="M473.333 120V119H472.333V120H473.333ZM473.333 121H552.222V119H473.333V121ZM474.333 160V120H472.333V160H474.333Z" fill="white" fill-opacity="0.2" mask="url(#path-102-inside-34_252_671)"/>
<path d="M512.93 144.135C511.794 144.135 510.868 143.561 510.346 142.535C509.965 141.873 509.778 141.012 509.778 139.951C509.778 137.115 510.985 135.41 512.989 135.41C514.395 135.41 515.473 136.26 515.713 137.555H514.905C514.694 136.693 513.926 136.119 512.983 136.119C511.436 136.119 510.551 137.561 510.551 140.068H510.569C510.915 139.119 511.917 138.463 513.059 138.463C514.665 138.463 515.866 139.658 515.866 141.258C515.866 142.916 514.624 144.135 512.93 144.135ZM512.924 143.42C514.114 143.42 515.051 142.477 515.051 141.281C515.051 140.068 514.155 139.172 512.93 139.172C511.723 139.172 510.78 140.074 510.78 141.223C510.78 142.453 511.712 143.42 512.924 143.42Z" fill="white"/>
<mask id="path-105-inside-35_252_671" fill="white">
<path d="M552.222 120H631.111V160H552.222V120Z"/>
</mask>
<path d="M552.222 120V119H551.222V120H552.222ZM552.222 121H631.111V119H552.222V121ZM553.222 160V120H551.222V160H553.222Z" fill="white" fill-opacity="0.2" mask="url(#path-105-inside-35_252_671)"/>
<path d="M591.819 144.135C590.682 144.135 589.756 143.561 589.235 142.535C588.854 141.873 588.667 141.012 588.667 139.951C588.667 137.115 589.874 135.41 591.878 135.41C593.284 135.41 594.362 136.26 594.602 137.555H593.794C593.583 136.693 592.815 136.119 591.872 136.119C590.325 136.119 589.44 137.561 589.44 140.068H589.458C589.803 139.119 590.805 138.463 591.948 138.463C593.553 138.463 594.754 139.658 594.754 141.258C594.754 142.916 593.512 144.135 591.819 144.135ZM591.813 143.42C593.003 143.42 593.94 142.477 593.94 141.281C593.94 140.068 593.044 139.172 591.819 139.172C590.612 139.172 589.669 140.074 589.669 141.223C589.669 142.453 590.6 143.42 591.813 143.42Z" fill="white"/>
<mask id="path-108-inside-36_252_671" fill="white">
<path d="M631.111 120H710V160H631.111V120Z"/>
</mask>
<path d="M631.111 120V119H630.111V120H631.111ZM631.111 121H710V119H631.111V121ZM632.111 160V120H630.111V160H632.111Z" fill="white" fill-opacity="0.2" mask="url(#path-108-inside-36_252_671)"/>
<path d="M670.708 144.135C669.571 144.135 668.645 143.561 668.124 142.535C667.743 141.873 667.555 141.012 667.555 139.951C667.555 137.115 668.762 135.41 670.766 135.41C672.172 135.41 673.251 136.26 673.491 137.555H672.682C672.471 136.693 671.704 136.119 670.76 136.119C669.213 136.119 668.329 137.561 668.329 140.068H668.346C668.692 139.119 669.694 138.463 670.837 138.463C672.442 138.463 673.643 139.658 673.643 141.258C673.643 142.916 672.401 144.135 670.708 144.135ZM670.702 143.42C671.891 143.42 672.829 142.477 672.829 141.281C672.829 140.068 671.932 139.172 670.708 139.172C669.501 139.172 668.557 140.074 668.557 141.223C668.557 142.453 669.489 143.42 670.702 143.42Z" fill="white"/>
</g>
</g>
<rect x="0.5" y="0.5" width="709" height="159" rx="3.5" stroke="white" stroke-opacity="0.2"/>
<defs>
<clipPath id="clip0_252_671">
<rect width="710" height="160" rx="4" fill="white"/>
</clipPath>
<clipPath id="clip1_252_671">
<rect width="710" height="40" fill="white"/>
</clipPath>
<clipPath id="clip2_252_671">
<rect width="710" height="40" fill="white" transform="translate(0 40)"/>
</clipPath>
<clipPath id="clip3_252_671">
<rect width="710" height="40" fill="white" transform="translate(0 80)"/>
</clipPath>
<clipPath id="clip4_252_671">
<rect width="710" height="40" fill="white" transform="translate(0 120)"/>
</clipPath>
</defs>
</svg>
