<svg width="710" height="160" viewBox="0 0 710 160" fill="none" xmlns="http://www.w3.org/2000/svg">
<g clip-path="url(#clip0_252_665)">
<g clip-path="url(#clip1_252_665)">
<rect width="710" height="40" fill="#86A2FF" fill-opacity="0.2"/>
<mask id="path-3-inside-1_252_665" fill="white">
<path d="M0 0H71V40H0V0Z"/>
</mask>
<path d="M0 0V-1H-1V0H0ZM0 1H71V-1H0V1ZM1 40V0H-1V40H1Z" fill="white" fill-opacity="0.2" mask="url(#path-3-inside-1_252_665)"/>
<path d="M18.1406 23H17.4844V18.6562H17.457L15.6602 22.9609H15.0664L13.2695 18.6562H13.2422V23H12.5859V17.3633H13.4023L15.3477 22.0664H15.3789L17.3242 17.3633H18.1406V23ZM20.8906 23.0703C19.7656 23.0703 19.0078 22.2617 19.0078 20.9688C19.0078 19.6719 19.7656 18.8672 20.8906 18.8672C22.0117 18.8672 22.7695 19.6719 22.7695 20.9688C22.7695 22.2617 22.0117 23.0703 20.8906 23.0703ZM20.8906 22.4727C21.6094 22.4727 22.0781 21.9258 22.0781 20.9688C22.0781 20.0117 21.6094 19.4648 20.8906 19.4648C20.1719 19.4648 19.6992 20.0117 19.6992 20.9688C19.6992 21.9258 20.1719 22.4727 20.8906 22.4727ZM26.1406 22.4414V19.4961H24.6172L24.4922 21.207C24.457 21.7109 24.3516 22.1523 24.1602 22.4102V22.4414H26.1406ZM23.6758 24.0742H23.043V22.4414H23.3828C23.6797 22.2461 23.8242 21.7383 23.8633 21.1914L24.0195 18.9375H26.8164V22.4414H27.4609V24.0742H26.8281V23H23.6758V24.0742ZM29.7031 19.457C29.0664 19.457 28.6211 19.9453 28.5781 20.6211H30.7852C30.7695 19.9414 30.3438 19.457 29.7031 19.457ZM30.7695 21.8359H31.4375C31.3203 22.5469 30.6328 23.0703 29.7461 23.0703C28.582 23.0703 27.875 22.2617 27.875 20.9844C27.875 19.7227 28.5938 18.8672 29.7148 18.8672C30.8125 18.8672 31.4883 19.6641 31.4883 20.8945V21.1523H28.5742V21.1914C28.5742 21.9688 29.0312 22.4805 29.7617 22.4805C30.2773 22.4805 30.6562 22.2188 30.7695 21.8359ZM33.1719 21.207C33.0898 22.3281 32.8203 23.0352 31.9648 23.0352C31.8477 23.0352 31.7695 23.0117 31.7227 22.9922V22.3789C31.7578 22.3906 31.832 22.4102 31.9297 22.4102C32.332 22.4102 32.4844 21.9375 32.5352 21.1914L32.6914 18.9375H35.3516V23H34.6797V19.4961H33.2969L33.1719 21.207ZM37.7422 20.793H36.9844V22.4414H37.7422C38.2695 22.4414 38.6094 22.1133 38.6094 21.6172C38.6094 21.1172 38.2656 20.793 37.7422 20.793ZM36.3125 23V18.9375H36.9844V20.2344H37.7539C38.6836 20.2344 39.2812 20.7695 39.2812 21.6172C39.2812 22.4648 38.6836 23 37.7539 23H36.3125Z" fill="white"/>
<mask id="path-6-inside-2_252_665" fill="white">
<path d="M71 0H142V40H71V0Z"/>
</mask>
<path d="M71 0V-1H70V0H71ZM71 1H142V-1H71V1ZM72 40V0H70V40H72Z" fill="white" fill-opacity="0.2" mask="url(#path-6-inside-2_252_665)"/>
<path d="M94.0469 16.4492H94.7539C94.8203 17.0586 95.3984 17.4609 96.2031 17.4609C96.9648 17.4609 97.5195 17.0586 97.5195 16.5039C97.5195 16.0273 97.1875 15.7344 96.4297 15.5391L95.707 15.3516C94.668 15.0859 94.207 14.6289 94.207 13.8633C94.207 12.9258 95.0273 12.2695 96.1992 12.2695C97.3203 12.2695 98.1328 12.9336 98.1641 13.8789H97.4609C97.3984 13.2734 96.9102 12.9023 96.1758 12.9023C95.4453 12.9023 94.9375 13.2812 94.9375 13.832C94.9375 14.2578 95.25 14.5117 96.0156 14.7109L96.6055 14.8672C97.7734 15.1602 98.2461 15.6094 98.2461 16.418C98.2461 17.4492 97.4336 18.0938 96.1367 18.0938C94.9414 18.0938 94.1133 17.4453 94.0469 16.4492ZM99.7695 12.9883V15.1484H101.117C101.84 15.1484 102.25 14.7578 102.25 14.0664C102.25 13.3906 101.812 12.9883 101.086 12.9883H99.7695ZM99.7695 15.7695V18H99.0664V12.3633H101.18C102.266 12.3633 102.977 13.0273 102.977 14.043C102.977 14.8281 102.551 15.4375 101.844 15.6602L103.148 18H102.324L101.117 15.7695H99.7695ZM105.992 18H105.289V12.9961H103.512V12.3633H107.77V12.9961H105.992V18ZM108.98 14.457C108.344 14.457 107.898 14.9453 107.855 15.6211H110.062C110.047 14.9414 109.621 14.457 108.98 14.457ZM110.047 16.8359H110.715C110.598 17.5469 109.91 18.0703 109.023 18.0703C107.859 18.0703 107.152 17.2617 107.152 15.9844C107.152 14.7227 107.871 13.8672 108.992 13.8672C110.09 13.8672 110.766 14.6641 110.766 15.8945V16.1523H107.852V16.1914C107.852 16.9688 108.309 17.4805 109.039 17.4805C109.555 17.4805 109.934 17.2188 110.047 16.8359ZM113.508 18.0977C112.664 18.0977 111.992 17.6406 111.645 16.8281C111.457 16.3945 111.367 15.8867 111.367 15.2773C111.367 13.3789 112.176 12.2656 113.555 12.2656C114.512 12.2656 115.246 12.8398 115.426 13.7266H114.711C114.559 13.2148 114.105 12.8867 113.547 12.8867C112.605 12.8867 112.07 13.7227 112.047 15.2227H112.059C112.312 14.6719 112.934 14.3086 113.633 14.3086C114.707 14.3086 115.504 15.1016 115.504 16.1719C115.504 17.2852 114.664 18.0977 113.508 18.0977ZM113.5 17.4727C114.219 17.4727 114.789 16.9062 114.789 16.1953C114.789 15.457 114.258 14.9258 113.512 14.9258C112.766 14.9258 112.215 15.457 112.215 16.1758C112.215 16.8984 112.777 17.4727 113.5 17.4727ZM118.797 16.0312H116.234V15.3984H118.797V16.0312ZM99.4336 28V23.1094H99.418L97.9258 24.1836V23.4414L99.4258 22.3633H100.113V28H99.4336ZM104.223 28V26.8281H101.391V26.1914C101.871 25.3008 102.531 24.2734 103.863 22.3633H104.902V26.2109H105.699V26.8281H104.902V28H104.223ZM102.086 26.1953V26.2109H104.223V22.9492H104.211C103.145 24.4727 102.531 25.4141 102.086 26.1953ZM108.324 28.0938C107.246 28.0938 106.449 27.4219 106.391 26.4609H107.082C107.145 27.0625 107.656 27.4766 108.332 27.4766C109.098 27.4766 109.629 26.9453 109.629 26.1875C109.629 25.4297 109.094 24.8867 108.344 24.8867C107.816 24.8867 107.367 25.125 107.137 25.5195H106.477L106.785 22.3633H110.012V22.9883H107.363L107.191 24.8242H107.207C107.461 24.4844 107.93 24.2812 108.469 24.2812C109.551 24.2812 110.332 25.0742 110.332 26.168C110.332 27.3008 109.5 28.0938 108.324 28.0938ZM113.039 28.0938C111.723 28.0938 110.961 26.9609 110.961 25.1797C110.961 23.4141 111.73 22.2695 113.039 22.2695C114.348 22.2695 115.109 23.4062 115.109 25.1758C115.109 26.957 114.352 28.0938 113.039 28.0938ZM113.039 27.4805C113.918 27.4805 114.402 26.5859 114.402 25.1797C114.402 23.793 113.91 22.8867 113.039 22.8867C112.168 22.8867 111.668 23.8008 111.668 25.1758C111.668 26.582 112.156 27.4805 113.039 27.4805Z" fill="white"/>
<mask id="path-9-inside-3_252_665" fill="white">
<path d="M142 0H213V40H142V0Z"/>
</mask>
<path d="M142 0V-1H141V0H142ZM142 1H213V-1H142V1ZM143 40V0H141V40H143Z" fill="white" fill-opacity="0.2" mask="url(#path-9-inside-3_252_665)"/>
<path d="M163.32 16.4492H164.027C164.094 17.0586 164.672 17.4609 165.477 17.4609C166.238 17.4609 166.793 17.0586 166.793 16.5039C166.793 16.0273 166.461 15.7344 165.703 15.5391L164.98 15.3516C163.941 15.0859 163.48 14.6289 163.48 13.8633C163.48 12.9258 164.301 12.2695 165.473 12.2695C166.594 12.2695 167.406 12.9336 167.438 13.8789H166.734C166.672 13.2734 166.184 12.9023 165.449 12.9023C164.719 12.9023 164.211 13.2812 164.211 13.832C164.211 14.2578 164.523 14.5117 165.289 14.7109L165.879 14.8672C167.047 15.1602 167.52 15.6094 167.52 16.418C167.52 17.4492 166.707 18.0938 165.41 18.0938C164.215 18.0938 163.387 17.4453 163.32 16.4492ZM169.043 12.9883V15.1484H170.391C171.113 15.1484 171.523 14.7578 171.523 14.0664C171.523 13.3906 171.086 12.9883 170.359 12.9883H169.043ZM169.043 15.7695V18H168.34V12.3633H170.453C171.539 12.3633 172.25 13.0273 172.25 14.043C172.25 14.8281 171.824 15.4375 171.117 15.6602L172.422 18H171.598L170.391 15.7695H169.043ZM175.266 18H174.562V12.9961H172.785V12.3633H177.043V12.9961H175.266V18ZM178.254 14.457C177.617 14.457 177.172 14.9453 177.129 15.6211H179.336C179.32 14.9414 178.895 14.457 178.254 14.457ZM179.32 16.8359H179.988C179.871 17.5469 179.184 18.0703 178.297 18.0703C177.133 18.0703 176.426 17.2617 176.426 15.9844C176.426 14.7227 177.145 13.8672 178.266 13.8672C179.363 13.8672 180.039 14.6641 180.039 15.8945V16.1523H177.125V16.1914C177.125 16.9688 177.582 17.4805 178.312 17.4805C178.828 17.4805 179.207 17.2188 179.32 16.8359ZM182.023 18V13.1094H182.008L180.516 14.1836V13.4414L182.016 12.3633H182.703V18H182.023ZM186.105 18.0938C184.789 18.0938 184.027 16.9609 184.027 15.1797C184.027 13.4141 184.797 12.2695 186.105 12.2695C187.414 12.2695 188.176 13.4062 188.176 15.1758C188.176 16.957 187.418 18.0938 186.105 18.0938ZM186.105 17.4805C186.984 17.4805 187.469 16.5859 187.469 15.1797C187.469 13.793 186.977 12.8867 186.105 12.8867C185.234 12.8867 184.734 13.8008 184.734 15.1758C184.734 16.582 185.223 17.4805 186.105 17.4805ZM191.523 16.0312H188.961V15.3984H191.523V16.0312ZM170.508 28V23.1094H170.492L169 24.1836V23.4414L170.5 22.3633H171.188V28H170.508ZM175.297 28V26.8281H172.465V26.1914C172.945 25.3008 173.605 24.2734 174.938 22.3633H175.977V26.2109H176.773V26.8281H175.977V28H175.297ZM173.16 26.1953V26.2109H175.297V22.9492H175.285C174.219 24.4727 173.605 25.4141 173.16 26.1953ZM177.426 23.9883C177.426 23.0039 178.223 22.2695 179.285 22.2695C180.293 22.2695 181.086 22.9531 181.086 23.8164C181.086 24.4453 180.801 24.9141 179.859 25.8867L178.434 27.3594V27.375H181.18V28H177.461V27.5156L179.445 25.4258C180.203 24.6289 180.383 24.3281 180.383 23.8594C180.383 23.3164 179.887 22.8828 179.266 22.8828C178.605 22.8828 178.105 23.3594 178.105 23.9883V23.9922H177.426V23.9883ZM183.965 28.0938C182.648 28.0938 181.887 26.9609 181.887 25.1797C181.887 23.4141 182.656 22.2695 183.965 22.2695C185.273 22.2695 186.035 23.4062 186.035 25.1758C186.035 26.957 185.277 28.0938 183.965 28.0938ZM183.965 27.4805C184.844 27.4805 185.328 26.5859 185.328 25.1797C185.328 23.793 184.836 22.8867 183.965 22.8867C183.094 22.8867 182.594 23.8008 182.594 25.1758C182.594 26.582 183.082 27.4805 183.965 27.4805Z" fill="white"/>
<mask id="path-12-inside-4_252_665" fill="white">
<path d="M213 0H284V40H213V0Z"/>
</mask>
<path d="M213 0V-1H212V0H213ZM213 1H284V-1H213V1ZM214 40V0H212V40H214Z" fill="white" fill-opacity="0.2" mask="url(#path-12-inside-4_252_665)"/>
<path d="M234.32 16.4492H235.027C235.094 17.0586 235.672 17.4609 236.477 17.4609C237.238 17.4609 237.793 17.0586 237.793 16.5039C237.793 16.0273 237.461 15.7344 236.703 15.5391L235.98 15.3516C234.941 15.0859 234.48 14.6289 234.48 13.8633C234.48 12.9258 235.301 12.2695 236.473 12.2695C237.594 12.2695 238.406 12.9336 238.438 13.8789H237.734C237.672 13.2734 237.184 12.9023 236.449 12.9023C235.719 12.9023 235.211 13.2812 235.211 13.832C235.211 14.2578 235.523 14.5117 236.289 14.7109L236.879 14.8672C238.047 15.1602 238.52 15.6094 238.52 16.418C238.52 17.4492 237.707 18.0938 236.41 18.0938C235.215 18.0938 234.387 17.4453 234.32 16.4492ZM240.043 12.9883V15.1484H241.391C242.113 15.1484 242.523 14.7578 242.523 14.0664C242.523 13.3906 242.086 12.9883 241.359 12.9883H240.043ZM240.043 15.7695V18H239.34V12.3633H241.453C242.539 12.3633 243.25 13.0273 243.25 14.043C243.25 14.8281 242.824 15.4375 242.117 15.6602L243.422 18H242.598L241.391 15.7695H240.043ZM246.266 18H245.562V12.9961H243.785V12.3633H248.043V12.9961H246.266V18ZM249.254 14.457C248.617 14.457 248.172 14.9453 248.129 15.6211H250.336C250.32 14.9414 249.895 14.457 249.254 14.457ZM250.32 16.8359H250.988C250.871 17.5469 250.184 18.0703 249.297 18.0703C248.133 18.0703 247.426 17.2617 247.426 15.9844C247.426 14.7227 248.145 13.8672 249.266 13.8672C250.363 13.8672 251.039 14.6641 251.039 15.8945V16.1523H248.125V16.1914C248.125 16.9688 248.582 17.4805 249.312 17.4805C249.828 17.4805 250.207 17.2188 250.32 16.8359ZM253.023 18V13.1094H253.008L251.516 14.1836V13.4414L253.016 12.3633H253.703V18H253.023ZM257.105 18.0938C255.789 18.0938 255.027 16.9609 255.027 15.1797C255.027 13.4141 255.797 12.2695 257.105 12.2695C258.414 12.2695 259.176 13.4062 259.176 15.1758C259.176 16.957 258.418 18.0938 257.105 18.0938ZM257.105 17.4805C257.984 17.4805 258.469 16.5859 258.469 15.1797C258.469 13.793 257.977 12.8867 257.105 12.8867C256.234 12.8867 255.734 13.8008 255.734 15.1758C255.734 16.582 256.223 17.4805 257.105 17.4805ZM262.523 16.0312H259.961V15.3984H262.523V16.0312ZM241.742 28V23.1094H241.727L240.234 24.1836V23.4414L241.734 22.3633H242.422V28H241.742ZM244.176 28L246.727 23.0039V22.9883H243.691V22.3633H247.422V23.0156L244.914 28H244.176ZM248.191 23.9883C248.191 23.0039 248.988 22.2695 250.051 22.2695C251.059 22.2695 251.852 22.9531 251.852 23.8164C251.852 24.4453 251.566 24.9141 250.625 25.8867L249.199 27.3594V27.375H251.945V28H248.227V27.5156L250.211 25.4258C250.969 24.6289 251.148 24.3281 251.148 23.8594C251.148 23.3164 250.652 22.8828 250.031 22.8828C249.371 22.8828 248.871 23.3594 248.871 23.9883V23.9922H248.191V23.9883ZM254.73 28.0938C253.414 28.0938 252.652 26.9609 252.652 25.1797C252.652 23.4141 253.422 22.2695 254.73 22.2695C256.039 22.2695 256.801 23.4062 256.801 25.1758C256.801 26.957 256.043 28.0938 254.73 28.0938ZM254.73 27.4805C255.609 27.4805 256.094 26.5859 256.094 25.1797C256.094 23.793 255.602 22.8867 254.73 22.8867C253.859 22.8867 253.359 23.8008 253.359 25.1758C253.359 26.582 253.848 27.4805 254.73 27.4805Z" fill="white"/>
<mask id="path-15-inside-5_252_665" fill="white">
<path d="M284 0H355V40H284V0Z"/>
</mask>
<path d="M284 0V-1H283V0H284ZM284 1H355V-1H284V1ZM285 40V0H283V40H285Z" fill="white" fill-opacity="0.2" mask="url(#path-15-inside-5_252_665)"/>
<path d="M305.48 16.4492H306.188C306.254 17.0586 306.832 17.4609 307.637 17.4609C308.398 17.4609 308.953 17.0586 308.953 16.5039C308.953 16.0273 308.621 15.7344 307.863 15.5391L307.141 15.3516C306.102 15.0859 305.641 14.6289 305.641 13.8633C305.641 12.9258 306.461 12.2695 307.633 12.2695C308.754 12.2695 309.566 12.9336 309.598 13.8789H308.895C308.832 13.2734 308.344 12.9023 307.609 12.9023C306.879 12.9023 306.371 13.2812 306.371 13.832C306.371 14.2578 306.684 14.5117 307.449 14.7109L308.039 14.8672C309.207 15.1602 309.68 15.6094 309.68 16.418C309.68 17.4492 308.867 18.0938 307.57 18.0938C306.375 18.0938 305.547 17.4453 305.48 16.4492ZM311.203 12.9883V15.1484H312.551C313.273 15.1484 313.684 14.7578 313.684 14.0664C313.684 13.3906 313.246 12.9883 312.52 12.9883H311.203ZM311.203 15.7695V18H310.5V12.3633H312.613C313.699 12.3633 314.41 13.0273 314.41 14.043C314.41 14.8281 313.984 15.4375 313.277 15.6602L314.582 18H313.758L312.551 15.7695H311.203ZM317.426 18H316.723V12.9961H314.945V12.3633H319.203V12.9961H317.426V18ZM320.414 14.457C319.777 14.457 319.332 14.9453 319.289 15.6211H321.496C321.48 14.9414 321.055 14.457 320.414 14.457ZM321.48 16.8359H322.148C322.031 17.5469 321.344 18.0703 320.457 18.0703C319.293 18.0703 318.586 17.2617 318.586 15.9844C318.586 14.7227 319.305 13.8672 320.426 13.8672C321.523 13.8672 322.199 14.6641 322.199 15.8945V16.1523H319.285V16.1914C319.285 16.9688 319.742 17.4805 320.473 17.4805C320.988 17.4805 321.367 17.2188 321.48 16.8359ZM324.184 18V13.1094H324.168L322.676 14.1836V13.4414L324.176 12.3633H324.863V18H324.184ZM326.258 13.9883C326.258 13.0039 327.055 12.2695 328.117 12.2695C329.125 12.2695 329.918 12.9531 329.918 13.8164C329.918 14.4453 329.633 14.9141 328.691 15.8867L327.266 17.3594V17.375H330.012V18H326.293V17.5156L328.277 15.4258C329.035 14.6289 329.215 14.3281 329.215 13.8594C329.215 13.3164 328.719 12.8828 328.098 12.8828C327.438 12.8828 326.938 13.3594 326.938 13.9883V13.9922H326.258V13.9883ZM333.363 16.0312H330.801V15.3984H333.363V16.0312ZM310.379 23.9883C310.379 23.0039 311.176 22.2695 312.238 22.2695C313.246 22.2695 314.039 22.9531 314.039 23.8164C314.039 24.4453 313.754 24.9141 312.812 25.8867L311.387 27.3594V27.375H314.133V28H310.414V27.5156L312.398 25.4258C313.156 24.6289 313.336 24.3281 313.336 23.8594C313.336 23.3164 312.84 22.8828 312.219 22.8828C311.559 22.8828 311.059 23.3594 311.059 23.9883V23.9922H310.379V23.9883ZM316.918 28.0938C315.602 28.0938 314.84 26.9609 314.84 25.1797C314.84 23.4141 315.609 22.2695 316.918 22.2695C318.227 22.2695 318.988 23.4062 318.988 25.1758C318.988 26.957 318.23 28.0938 316.918 28.0938ZM316.918 27.4805C317.797 27.4805 318.281 26.5859 318.281 25.1797C318.281 23.793 317.789 22.8867 316.918 22.8867C316.047 22.8867 315.547 23.8008 315.547 25.1758C315.547 26.582 316.035 27.4805 316.918 27.4805ZM321.77 28.0938C320.453 28.0938 319.691 26.9609 319.691 25.1797C319.691 23.4141 320.461 22.2695 321.77 22.2695C323.078 22.2695 323.84 23.4062 323.84 25.1758C323.84 26.957 323.082 28.0938 321.77 28.0938ZM321.77 27.4805C322.648 27.4805 323.133 26.5859 323.133 25.1797C323.133 23.793 322.641 22.8867 321.77 22.8867C320.898 22.8867 320.398 23.8008 320.398 25.1758C320.398 26.582 320.887 27.4805 321.77 27.4805ZM326.621 28.0938C325.305 28.0938 324.543 26.9609 324.543 25.1797C324.543 23.4141 325.312 22.2695 326.621 22.2695C327.93 22.2695 328.691 23.4062 328.691 25.1758C328.691 26.957 327.934 28.0938 326.621 28.0938ZM326.621 27.4805C327.5 27.4805 327.984 26.5859 327.984 25.1797C327.984 23.793 327.492 22.8867 326.621 22.8867C325.75 22.8867 325.25 23.8008 325.25 25.1758C325.25 26.582 325.738 27.4805 326.621 27.4805Z" fill="white"/>
<mask id="path-18-inside-6_252_665" fill="white">
<path d="M355 0H426V40H355V0Z"/>
</mask>
<path d="M355 0V-1H354V0H355ZM355 1H426V-1H355V1ZM356 40V0H354V40H356Z" fill="white" fill-opacity="0.2" mask="url(#path-18-inside-6_252_665)"/>
<path d="M375.75 16.4492H376.457C376.523 17.0586 377.102 17.4609 377.906 17.4609C378.668 17.4609 379.223 17.0586 379.223 16.5039C379.223 16.0273 378.891 15.7344 378.133 15.5391L377.41 15.3516C376.371 15.0859 375.91 14.6289 375.91 13.8633C375.91 12.9258 376.73 12.2695 377.902 12.2695C379.023 12.2695 379.836 12.9336 379.867 13.8789H379.164C379.102 13.2734 378.613 12.9023 377.879 12.9023C377.148 12.9023 376.641 13.2812 376.641 13.832C376.641 14.2578 376.953 14.5117 377.719 14.7109L378.309 14.8672C379.477 15.1602 379.949 15.6094 379.949 16.418C379.949 17.4492 379.137 18.0938 377.84 18.0938C376.645 18.0938 375.816 17.4453 375.75 16.4492ZM381.473 12.9883V15.1484H382.82C383.543 15.1484 383.953 14.7578 383.953 14.0664C383.953 13.3906 383.516 12.9883 382.789 12.9883H381.473ZM381.473 15.7695V18H380.77V12.3633H382.883C383.969 12.3633 384.68 13.0273 384.68 14.043C384.68 14.8281 384.254 15.4375 383.547 15.6602L384.852 18H384.027L382.82 15.7695H381.473ZM387.695 18H386.992V12.9961H385.215V12.3633H389.473V12.9961H387.695V18ZM390.684 14.457C390.047 14.457 389.602 14.9453 389.559 15.6211H391.766C391.75 14.9414 391.324 14.457 390.684 14.457ZM391.75 16.8359H392.418C392.301 17.5469 391.613 18.0703 390.727 18.0703C389.562 18.0703 388.855 17.2617 388.855 15.9844C388.855 14.7227 389.574 13.8672 390.695 13.8672C391.793 13.8672 392.469 14.6641 392.469 15.8945V16.1523H389.555V16.1914C389.555 16.9688 390.012 17.4805 390.742 17.4805C391.258 17.4805 391.637 17.2188 391.75 16.8359ZM393.137 13.9883C393.137 13.0039 393.934 12.2695 394.996 12.2695C396.004 12.2695 396.797 12.9531 396.797 13.8164C396.797 14.4453 396.512 14.9141 395.57 15.8867L394.145 17.3594V17.375H396.891V18H393.172V17.5156L395.156 15.4258C395.914 14.6289 396.094 14.3281 396.094 13.8594C396.094 13.3164 395.598 12.8828 394.977 12.8828C394.316 12.8828 393.816 13.3594 393.816 13.9883V13.9922H393.137V13.9883ZM399.676 18.0938C398.359 18.0938 397.598 16.9609 397.598 15.1797C397.598 13.4141 398.367 12.2695 399.676 12.2695C400.984 12.2695 401.746 13.4062 401.746 15.1758C401.746 16.957 400.988 18.0938 399.676 18.0938ZM399.676 17.4805C400.555 17.4805 401.039 16.5859 401.039 15.1797C401.039 13.793 400.547 12.8867 399.676 12.8867C398.805 12.8867 398.305 13.8008 398.305 15.1758C398.305 16.582 398.793 17.4805 399.676 17.4805ZM405.094 16.0312H402.531V15.3984H405.094V16.0312ZM381.379 23.9883C381.379 23.0039 382.176 22.2695 383.238 22.2695C384.246 22.2695 385.039 22.9531 385.039 23.8164C385.039 24.4453 384.754 24.9141 383.812 25.8867L382.387 27.3594V27.375H385.133V28H381.414V27.5156L383.398 25.4258C384.156 24.6289 384.336 24.3281 384.336 23.8594C384.336 23.3164 383.84 22.8828 383.219 22.8828C382.559 22.8828 382.059 23.3594 382.059 23.9883V23.9922H381.379V23.9883ZM387.918 28.0938C386.602 28.0938 385.84 26.9609 385.84 25.1797C385.84 23.4141 386.609 22.2695 387.918 22.2695C389.227 22.2695 389.988 23.4062 389.988 25.1758C389.988 26.957 389.23 28.0938 387.918 28.0938ZM387.918 27.4805C388.797 27.4805 389.281 26.5859 389.281 25.1797C389.281 23.793 388.789 22.8867 387.918 22.8867C387.047 22.8867 386.547 23.8008 386.547 25.1758C386.547 26.582 387.035 27.4805 387.918 27.4805ZM392.77 28.0938C391.453 28.0938 390.691 26.9609 390.691 25.1797C390.691 23.4141 391.461 22.2695 392.77 22.2695C394.078 22.2695 394.84 23.4062 394.84 25.1758C394.84 26.957 394.082 28.0938 392.77 28.0938ZM392.77 27.4805C393.648 27.4805 394.133 26.5859 394.133 25.1797C394.133 23.793 393.641 22.8867 392.77 22.8867C391.898 22.8867 391.398 23.8008 391.398 25.1758C391.398 26.582 391.887 27.4805 392.77 27.4805ZM397.621 28.0938C396.305 28.0938 395.543 26.9609 395.543 25.1797C395.543 23.4141 396.312 22.2695 397.621 22.2695C398.93 22.2695 399.691 23.4062 399.691 25.1758C399.691 26.957 398.934 28.0938 397.621 28.0938ZM397.621 27.4805C398.5 27.4805 398.984 26.5859 398.984 25.1797C398.984 23.793 398.492 22.8867 397.621 22.8867C396.75 22.8867 396.25 23.8008 396.25 25.1758C396.25 26.582 396.738 27.4805 397.621 27.4805Z" fill="white"/>
<mask id="path-21-inside-7_252_665" fill="white">
<path d="M426 0H497V40H426V0Z"/>
</mask>
<path d="M426 0V-1H425V0H426ZM426 1H497V-1H426V1ZM427 40V0H425V40H427Z" fill="white" fill-opacity="0.2" mask="url(#path-21-inside-7_252_665)"/>
<path d="M446.836 16.4492H447.543C447.609 17.0586 448.188 17.4609 448.992 17.4609C449.754 17.4609 450.309 17.0586 450.309 16.5039C450.309 16.0273 449.977 15.7344 449.219 15.5391L448.496 15.3516C447.457 15.0859 446.996 14.6289 446.996 13.8633C446.996 12.9258 447.816 12.2695 448.988 12.2695C450.109 12.2695 450.922 12.9336 450.953 13.8789H450.25C450.188 13.2734 449.699 12.9023 448.965 12.9023C448.234 12.9023 447.727 13.2812 447.727 13.832C447.727 14.2578 448.039 14.5117 448.805 14.7109L449.395 14.8672C450.562 15.1602 451.035 15.6094 451.035 16.418C451.035 17.4492 450.223 18.0938 448.926 18.0938C447.73 18.0938 446.902 17.4453 446.836 16.4492ZM452.559 12.9883V15.1484H453.906C454.629 15.1484 455.039 14.7578 455.039 14.0664C455.039 13.3906 454.602 12.9883 453.875 12.9883H452.559ZM452.559 15.7695V18H451.855V12.3633H453.969C455.055 12.3633 455.766 13.0273 455.766 14.043C455.766 14.8281 455.34 15.4375 454.633 15.6602L455.938 18H455.113L453.906 15.7695H452.559ZM458.781 18H458.078V12.9961H456.301V12.3633H460.559V12.9961H458.781V18ZM461.77 14.457C461.133 14.457 460.688 14.9453 460.645 15.6211H462.852C462.836 14.9414 462.41 14.457 461.77 14.457ZM462.836 16.8359H463.504C463.387 17.5469 462.699 18.0703 461.812 18.0703C460.648 18.0703 459.941 17.2617 459.941 15.9844C459.941 14.7227 460.66 13.8672 461.781 13.8672C462.879 13.8672 463.555 14.6641 463.555 15.8945V16.1523H460.641V16.1914C460.641 16.9688 461.098 17.4805 461.828 17.4805C462.344 17.4805 462.723 17.2188 462.836 16.8359ZM464.223 13.9883C464.223 13.0039 465.02 12.2695 466.082 12.2695C467.09 12.2695 467.883 12.9531 467.883 13.8164C467.883 14.4453 467.598 14.9141 466.656 15.8867L465.23 17.3594V17.375H467.977V18H464.258V17.5156L466.242 15.4258C467 14.6289 467.18 14.3281 467.18 13.8594C467.18 13.3164 466.684 12.8828 466.062 12.8828C465.402 12.8828 464.902 13.3594 464.902 13.9883V13.9922H464.223V13.9883ZM470.727 18.0938C469.648 18.0938 468.852 17.4219 468.793 16.4609H469.484C469.547 17.0625 470.059 17.4766 470.734 17.4766C471.5 17.4766 472.031 16.9453 472.031 16.1875C472.031 15.4297 471.496 14.8867 470.746 14.8867C470.219 14.8867 469.77 15.125 469.539 15.5195H468.879L469.188 12.3633H472.414V12.9883H469.766L469.594 14.8242H469.609C469.863 14.4844 470.332 14.2812 470.871 14.2812C471.953 14.2812 472.734 15.0742 472.734 16.168C472.734 17.3008 471.902 18.0938 470.727 18.0938ZM476.008 16.0312H473.445V15.3984H476.008V16.0312ZM454.621 28V23.1094H454.605L453.113 24.1836V23.4414L454.613 22.3633H455.301V28H454.621ZM457.055 28L459.605 23.0039V22.9883H456.57V22.3633H460.301V23.0156L457.793 28H457.055ZM463 28.0938C461.684 28.0938 460.922 26.9609 460.922 25.1797C460.922 23.4141 461.691 22.2695 463 22.2695C464.309 22.2695 465.07 23.4062 465.07 25.1758C465.07 26.957 464.312 28.0938 463 28.0938ZM463 27.4805C463.879 27.4805 464.363 26.5859 464.363 25.1797C464.363 23.793 463.871 22.8867 463 22.8867C462.129 22.8867 461.629 23.8008 461.629 25.1758C461.629 26.582 462.117 27.4805 463 27.4805ZM467.852 28.0938C466.535 28.0938 465.773 26.9609 465.773 25.1797C465.773 23.4141 466.543 22.2695 467.852 22.2695C469.16 22.2695 469.922 23.4062 469.922 25.1758C469.922 26.957 469.164 28.0938 467.852 28.0938ZM467.852 27.4805C468.73 27.4805 469.215 26.5859 469.215 25.1797C469.215 23.793 468.723 22.8867 467.852 22.8867C466.98 22.8867 466.48 23.8008 466.48 25.1758C466.48 26.582 466.969 27.4805 467.852 27.4805Z" fill="white"/>
<mask id="path-24-inside-8_252_665" fill="white">
<path d="M497 0H568V40H497V0Z"/>
</mask>
<path d="M497 0V-1H496V0H497ZM497 1H568V-1H497V1ZM498 40V0H496V40H498Z" fill="white" fill-opacity="0.2" mask="url(#path-24-inside-8_252_665)"/>
<path d="M517.734 16.4492H518.441C518.508 17.0586 519.086 17.4609 519.891 17.4609C520.652 17.4609 521.207 17.0586 521.207 16.5039C521.207 16.0273 520.875 15.7344 520.117 15.5391L519.395 15.3516C518.355 15.0859 517.895 14.6289 517.895 13.8633C517.895 12.9258 518.715 12.2695 519.887 12.2695C521.008 12.2695 521.82 12.9336 521.852 13.8789H521.148C521.086 13.2734 520.598 12.9023 519.863 12.9023C519.133 12.9023 518.625 13.2812 518.625 13.832C518.625 14.2578 518.938 14.5117 519.703 14.7109L520.293 14.8672C521.461 15.1602 521.934 15.6094 521.934 16.418C521.934 17.4492 521.121 18.0938 519.824 18.0938C518.629 18.0938 517.801 17.4453 517.734 16.4492ZM523.457 12.9883V15.1484H524.805C525.527 15.1484 525.938 14.7578 525.938 14.0664C525.938 13.3906 525.5 12.9883 524.773 12.9883H523.457ZM523.457 15.7695V18H522.754V12.3633H524.867C525.953 12.3633 526.664 13.0273 526.664 14.043C526.664 14.8281 526.238 15.4375 525.531 15.6602L526.836 18H526.012L524.805 15.7695H523.457ZM529.68 18H528.977V12.9961H527.199V12.3633H531.457V12.9961H529.68V18ZM532.668 14.457C532.031 14.457 531.586 14.9453 531.543 15.6211H533.75C533.734 14.9414 533.309 14.457 532.668 14.457ZM533.734 16.8359H534.402C534.285 17.5469 533.598 18.0703 532.711 18.0703C531.547 18.0703 530.84 17.2617 530.84 15.9844C530.84 14.7227 531.559 13.8672 532.68 13.8672C533.777 13.8672 534.453 14.6641 534.453 15.8945V16.1523H531.539V16.1914C531.539 16.9688 531.996 17.4805 532.727 17.4805C533.242 17.4805 533.621 17.2188 533.734 16.8359ZM536.305 15.3984V14.8047H536.98C537.629 14.8047 538.082 14.3867 538.082 13.8164C538.082 13.2578 537.703 12.8789 536.988 12.8789C536.34 12.8789 535.91 13.25 535.848 13.8398H535.172C535.25 12.8828 535.961 12.2695 537.02 12.2695C538.027 12.2695 538.789 12.875 538.789 13.7227C538.789 14.4297 538.336 14.9375 537.633 15.0625V15.0781C538.484 15.1289 539.031 15.6562 539.031 16.4492C539.031 17.418 538.148 18.0938 537.043 18.0938C535.863 18.0938 535.109 17.4414 535.059 16.5078H535.734C535.797 17.0859 536.277 17.4844 537.035 17.4844C537.781 17.4844 538.316 17.0625 538.316 16.4727C538.316 15.8086 537.816 15.3984 537.012 15.3984H536.305ZM541.828 18.0938C540.75 18.0938 539.953 17.4219 539.895 16.4609H540.586C540.648 17.0625 541.16 17.4766 541.836 17.4766C542.602 17.4766 543.133 16.9453 543.133 16.1875C543.133 15.4297 542.598 14.8867 541.848 14.8867C541.32 14.8867 540.871 15.125 540.641 15.5195H539.98L540.289 12.3633H543.516V12.9883H540.867L540.695 14.8242H540.711C540.965 14.4844 541.434 14.2812 541.973 14.2812C543.055 14.2812 543.836 15.0742 543.836 16.168C543.836 17.3008 543.004 18.0938 541.828 18.0938ZM547.109 16.0312H544.547V15.3984H547.109V16.0312ZM525.621 28V23.1094H525.605L524.113 24.1836V23.4414L525.613 22.3633H526.301V28H525.621ZM528.055 28L530.605 23.0039V22.9883H527.57V22.3633H531.301V23.0156L528.793 28H528.055ZM534 28.0938C532.684 28.0938 531.922 26.9609 531.922 25.1797C531.922 23.4141 532.691 22.2695 534 22.2695C535.309 22.2695 536.07 23.4062 536.07 25.1758C536.07 26.957 535.312 28.0938 534 28.0938ZM534 27.4805C534.879 27.4805 535.363 26.5859 535.363 25.1797C535.363 23.793 534.871 22.8867 534 22.8867C533.129 22.8867 532.629 23.8008 532.629 25.1758C532.629 26.582 533.117 27.4805 534 27.4805ZM538.852 28.0938C537.535 28.0938 536.773 26.9609 536.773 25.1797C536.773 23.4141 537.543 22.2695 538.852 22.2695C540.16 22.2695 540.922 23.4062 540.922 25.1758C540.922 26.957 540.164 28.0938 538.852 28.0938ZM538.852 27.4805C539.73 27.4805 540.215 26.5859 540.215 25.1797C540.215 23.793 539.723 22.8867 538.852 22.8867C537.98 22.8867 537.48 23.8008 537.48 25.1758C537.48 26.582 537.969 27.4805 538.852 27.4805Z" fill="white"/>
<mask id="path-27-inside-9_252_665" fill="white">
<path d="M568 0H639V40H568V0Z"/>
</mask>
<path d="M568 0V-1H567V0H568ZM568 1H639V-1H568V1ZM569 40V0H567V40H569Z" fill="white" fill-opacity="0.2" mask="url(#path-27-inside-9_252_665)"/>
<path d="M588.676 16.4492H589.383C589.449 17.0586 590.027 17.4609 590.832 17.4609C591.594 17.4609 592.148 17.0586 592.148 16.5039C592.148 16.0273 591.816 15.7344 591.059 15.5391L590.336 15.3516C589.297 15.0859 588.836 14.6289 588.836 13.8633C588.836 12.9258 589.656 12.2695 590.828 12.2695C591.949 12.2695 592.762 12.9336 592.793 13.8789H592.09C592.027 13.2734 591.539 12.9023 590.805 12.9023C590.074 12.9023 589.566 13.2812 589.566 13.832C589.566 14.2578 589.879 14.5117 590.645 14.7109L591.234 14.8672C592.402 15.1602 592.875 15.6094 592.875 16.418C592.875 17.4492 592.062 18.0938 590.766 18.0938C589.57 18.0938 588.742 17.4453 588.676 16.4492ZM594.398 12.9883V15.1484H595.746C596.469 15.1484 596.879 14.7578 596.879 14.0664C596.879 13.3906 596.441 12.9883 595.715 12.9883H594.398ZM594.398 15.7695V18H593.695V12.3633H595.809C596.895 12.3633 597.605 13.0273 597.605 14.043C597.605 14.8281 597.18 15.4375 596.473 15.6602L597.777 18H596.953L595.746 15.7695H594.398ZM600.621 18H599.918V12.9961H598.141V12.3633H602.398V12.9961H600.621V18ZM603.609 14.457C602.973 14.457 602.527 14.9453 602.484 15.6211H604.691C604.676 14.9414 604.25 14.457 603.609 14.457ZM604.676 16.8359H605.344C605.227 17.5469 604.539 18.0703 603.652 18.0703C602.488 18.0703 601.781 17.2617 601.781 15.9844C601.781 14.7227 602.5 13.8672 603.621 13.8672C604.719 13.8672 605.395 14.6641 605.395 15.8945V16.1523H602.48V16.1914C602.48 16.9688 602.938 17.4805 603.668 17.4805C604.184 17.4805 604.562 17.2188 604.676 16.8359ZM608.035 18.0938C606.957 18.0938 606.16 17.4219 606.102 16.4609H606.793C606.855 17.0625 607.367 17.4766 608.043 17.4766C608.809 17.4766 609.34 16.9453 609.34 16.1875C609.34 15.4297 608.805 14.8867 608.055 14.8867C607.527 14.8867 607.078 15.125 606.848 15.5195H606.188L606.496 12.3633H609.723V12.9883H607.074L606.902 14.8242H606.918C607.172 14.4844 607.641 14.2812 608.18 14.2812C609.262 14.2812 610.043 15.0742 610.043 16.168C610.043 17.3008 609.211 18.0938 608.035 18.0938ZM612.75 18.0938C611.434 18.0938 610.672 16.9609 610.672 15.1797C610.672 13.4141 611.441 12.2695 612.75 12.2695C614.059 12.2695 614.82 13.4062 614.82 15.1758C614.82 16.957 614.062 18.0938 612.75 18.0938ZM612.75 17.4805C613.629 17.4805 614.113 16.5859 614.113 15.1797C614.113 13.793 613.621 12.8867 612.75 12.8867C611.879 12.8867 611.379 13.8008 611.379 15.1758C611.379 16.582 611.867 17.4805 612.75 17.4805ZM618.168 16.0312H615.605V15.3984H618.168V16.0312ZM594.598 23.9883C594.598 23.0039 595.395 22.2695 596.457 22.2695C597.465 22.2695 598.258 22.9531 598.258 23.8164C598.258 24.4453 597.973 24.9141 597.031 25.8867L595.605 27.3594V27.375H598.352V28H594.633V27.5156L596.617 25.4258C597.375 24.6289 597.555 24.3281 597.555 23.8594C597.555 23.3164 597.059 22.8828 596.438 22.8828C595.777 22.8828 595.277 23.3594 595.277 23.9883V23.9922H594.598V23.9883ZM599.129 23.9883C599.129 23.0039 599.926 22.2695 600.988 22.2695C601.996 22.2695 602.789 22.9531 602.789 23.8164C602.789 24.4453 602.504 24.9141 601.562 25.8867L600.137 27.3594V27.375H602.883V28H599.164V27.5156L601.148 25.4258C601.906 24.6289 602.086 24.3281 602.086 23.8594C602.086 23.3164 601.59 22.8828 600.969 22.8828C600.309 22.8828 599.809 23.3594 599.809 23.9883V23.9922H599.129V23.9883ZM604.844 25.3984V24.8047H605.52C606.168 24.8047 606.621 24.3867 606.621 23.8164C606.621 23.2578 606.242 22.8789 605.527 22.8789C604.879 22.8789 604.449 23.25 604.387 23.8398H603.711C603.789 22.8828 604.5 22.2695 605.559 22.2695C606.566 22.2695 607.328 22.875 607.328 23.7227C607.328 24.4297 606.875 24.9375 606.172 25.0625V25.0781C607.023 25.1289 607.57 25.6562 607.57 26.4492C607.57 27.418 606.688 28.0938 605.582 28.0938C604.402 28.0938 603.648 27.4414 603.598 26.5078H604.273C604.336 27.0859 604.816 27.4844 605.574 27.4844C606.32 27.4844 606.855 27.0625 606.855 26.4727C606.855 25.8086 606.355 25.3984 605.551 25.3984H604.844ZM610.402 28.0938C609.086 28.0938 608.324 26.9609 608.324 25.1797C608.324 23.4141 609.094 22.2695 610.402 22.2695C611.711 22.2695 612.473 23.4062 612.473 25.1758C612.473 26.957 611.715 28.0938 610.402 28.0938ZM610.402 27.4805C611.281 27.4805 611.766 26.5859 611.766 25.1797C611.766 23.793 611.273 22.8867 610.402 22.8867C609.531 22.8867 609.031 23.8008 609.031 25.1758C609.031 26.582 609.52 27.4805 610.402 27.4805Z" fill="white"/>
<mask id="path-30-inside-10_252_665" fill="white">
<path d="M639 0H710V40H639V0Z"/>
</mask>
<path d="M639 0V-1H638V0H639ZM639 1H710V-1H639V1ZM640 40V0H638V40H640Z" fill="white" fill-opacity="0.2" mask="url(#path-30-inside-10_252_665)"/>
<path d="M659.914 16.4492H660.621C660.688 17.0586 661.266 17.4609 662.07 17.4609C662.832 17.4609 663.387 17.0586 663.387 16.5039C663.387 16.0273 663.055 15.7344 662.297 15.5391L661.574 15.3516C660.535 15.0859 660.074 14.6289 660.074 13.8633C660.074 12.9258 660.895 12.2695 662.066 12.2695C663.188 12.2695 664 12.9336 664.031 13.8789H663.328C663.266 13.2734 662.777 12.9023 662.043 12.9023C661.312 12.9023 660.805 13.2812 660.805 13.832C660.805 14.2578 661.117 14.5117 661.883 14.7109L662.473 14.8672C663.641 15.1602 664.113 15.6094 664.113 16.418C664.113 17.4492 663.301 18.0938 662.004 18.0938C660.809 18.0938 659.98 17.4453 659.914 16.4492ZM665.637 12.9883V15.1484H666.984C667.707 15.1484 668.117 14.7578 668.117 14.0664C668.117 13.3906 667.68 12.9883 666.953 12.9883H665.637ZM665.637 15.7695V18H664.934V12.3633H667.047C668.133 12.3633 668.844 13.0273 668.844 14.043C668.844 14.8281 668.418 15.4375 667.711 15.6602L669.016 18H668.191L666.984 15.7695H665.637ZM671.859 18H671.156V12.9961H669.379V12.3633H673.637V12.9961H671.859V18ZM674.848 14.457C674.211 14.457 673.766 14.9453 673.723 15.6211H675.93C675.914 14.9414 675.488 14.457 674.848 14.457ZM675.914 16.8359H676.582C676.465 17.5469 675.777 18.0703 674.891 18.0703C673.727 18.0703 673.02 17.2617 673.02 15.9844C673.02 14.7227 673.738 13.8672 674.859 13.8672C675.957 13.8672 676.633 14.6641 676.633 15.8945V16.1523H673.719V16.1914C673.719 16.9688 674.176 17.4805 674.906 17.4805C675.422 17.4805 675.801 17.2188 675.914 16.8359ZM677.66 18L680.211 13.0039V12.9883H677.176V12.3633H680.906V13.0156L678.398 18H677.66ZM683.648 18.0938C682.57 18.0938 681.773 17.4219 681.715 16.4609H682.406C682.469 17.0625 682.98 17.4766 683.656 17.4766C684.422 17.4766 684.953 16.9453 684.953 16.1875C684.953 15.4297 684.418 14.8867 683.668 14.8867C683.141 14.8867 682.691 15.125 682.461 15.5195H681.801L682.109 12.3633H685.336V12.9883H682.688L682.516 14.8242H682.531C682.785 14.4844 683.254 14.2812 683.793 14.2812C684.875 14.2812 685.656 15.0742 685.656 16.168C685.656 17.3008 684.824 18.0938 683.648 18.0938ZM688.93 16.0312H686.367V15.3984H688.93V16.0312ZM666.031 23.9883C666.031 23.0039 666.828 22.2695 667.891 22.2695C668.898 22.2695 669.691 22.9531 669.691 23.8164C669.691 24.4453 669.406 24.9141 668.465 25.8867L667.039 27.3594V27.375H669.785V28H666.066V27.5156L668.051 25.4258C668.809 24.6289 668.988 24.3281 668.988 23.8594C668.988 23.3164 668.492 22.8828 667.871 22.8828C667.211 22.8828 666.711 23.3594 666.711 23.9883V23.9922H666.031V23.9883ZM672.035 28V23.1094H672.02L670.527 24.1836V23.4414L672.027 22.3633H672.715V28H672.035ZM676.117 28.0938C674.801 28.0938 674.039 26.9609 674.039 25.1797C674.039 23.4141 674.809 22.2695 676.117 22.2695C677.426 22.2695 678.188 23.4062 678.188 25.1758C678.188 26.957 677.43 28.0938 676.117 28.0938ZM676.117 27.4805C676.996 27.4805 677.48 26.5859 677.48 25.1797C677.48 23.793 676.988 22.8867 676.117 22.8867C675.246 22.8867 674.746 23.8008 674.746 25.1758C674.746 26.582 675.234 27.4805 676.117 27.4805ZM680.969 28.0938C679.652 28.0938 678.891 26.9609 678.891 25.1797C678.891 23.4141 679.66 22.2695 680.969 22.2695C682.277 22.2695 683.039 23.4062 683.039 25.1758C683.039 26.957 682.281 28.0938 680.969 28.0938ZM680.969 27.4805C681.848 27.4805 682.332 26.5859 682.332 25.1797C682.332 23.793 681.84 22.8867 680.969 22.8867C680.098 22.8867 679.598 23.8008 679.598 25.1758C679.598 26.582 680.086 27.4805 680.969 27.4805Z" fill="white"/>
</g>
<g clip-path="url(#clip2_252_665)">
<rect width="710" height="40" transform="translate(0 40)" fill="#86A2FF" fill-opacity="0.2"/>
<mask id="path-33-inside-11_252_665" fill="white">
<path d="M0 40H71V80H0V40Z"/>
</mask>
<path d="M0 40V39H-1V40H0ZM0 41H71V39H0V41ZM1 80V40H-1V80H1Z" fill="white" fill-opacity="0.2" mask="url(#path-33-inside-11_252_665)"/>
<path d="M12.5859 52.3633H14.5977C15.6562 52.3633 16.4023 53.1055 16.4023 54.1719C16.4023 55.2422 15.6484 55.9883 14.5898 55.9883H13.2891V58H12.5859V52.3633ZM13.2891 52.9883V55.3633H14.4141C15.2188 55.3633 15.6797 54.9219 15.6797 54.1719C15.6797 53.4258 15.2227 52.9883 14.4141 52.9883H13.2891ZM18.5156 57.4922C19.1562 57.4922 19.6484 57.043 19.6484 56.457V56.125L18.5625 56.1914C18.0156 56.2266 17.7031 56.4688 17.7031 56.8516C17.7031 57.2383 18.0273 57.4922 18.5156 57.4922ZM18.3633 58.0703C17.5547 58.0703 17.0117 57.582 17.0117 56.8516C17.0117 56.1562 17.5469 55.7188 18.4844 55.6641L19.6484 55.5977V55.2578C19.6484 54.7617 19.3203 54.4648 18.7578 54.4648C18.2344 54.4648 17.9062 54.7109 17.8203 55.1094H17.1641C17.2109 54.4062 17.8125 53.8672 18.7734 53.8672C19.7266 53.8672 20.3281 54.3828 20.3281 55.1914V58H19.6836V57.3008H19.668C19.4258 57.7656 18.9102 58.0703 18.3633 58.0703ZM23.9609 57.4414V54.4961H22.4375L22.3125 56.207C22.2773 56.7109 22.1719 57.1523 21.9805 57.4102V57.4414H23.9609ZM21.4961 59.0742H20.8633V57.4414H21.2031C21.5 57.2461 21.6445 56.7383 21.6836 56.1914L21.8398 53.9375H24.6367V57.4414H25.2812V59.0742H24.6484V58H21.4961V59.0742ZM26.5625 58H25.8906V53.9375H26.5625V56.9609H26.5938L28.625 53.9375H29.2969V58H28.625V54.9766H28.5938L26.5625 58ZM30.5898 59.5195C30.5078 59.5195 30.3711 59.5117 30.2969 59.4961V58.9258C30.3711 58.9414 30.4766 58.9453 30.5625 58.9453C30.9414 58.9453 31.1523 58.7617 31.3086 58.2891L31.4023 58.0039L29.9023 53.9375H30.6289L31.7539 57.3203H31.7656L32.8906 53.9375H33.6055L32.0078 58.2852C31.6602 59.2344 31.3242 59.5195 30.5898 59.5195ZM37.457 55.1875H36.7852C36.668 54.7969 36.3359 54.4648 35.7617 54.4648C35.0547 54.4648 34.5898 55.0625 34.5898 55.9688C34.5898 56.8984 35.0625 57.4727 35.7695 57.4727C36.3086 57.4727 36.6641 57.207 36.793 56.7578H37.4648C37.332 57.5273 36.6797 58.0703 35.7656 58.0703C34.6367 58.0703 33.8984 57.2617 33.8984 55.9688C33.8984 54.7031 34.6328 53.8672 35.7578 53.8672C36.7383 53.8672 37.3359 54.4961 37.457 55.1875ZM15.1719 67.4414V64.4961H13.6484L13.5234 66.207C13.4883 66.7109 13.3828 67.1523 13.1914 67.4102V67.4414H15.1719ZM12.707 69.0742H12.0742V67.4414H12.4141C12.7109 67.2461 12.8555 66.7383 12.8945 66.1914L13.0508 63.9375H15.8477V67.4414H16.4922V69.0742H15.8594V68H12.707V69.0742ZM18.7344 64.457C18.0977 64.457 17.6523 64.9453 17.6094 65.6211H19.8164C19.8008 64.9414 19.375 64.457 18.7344 64.457ZM19.8008 66.8359H20.4688C20.3516 67.5469 19.6641 68.0703 18.7773 68.0703C17.6133 68.0703 16.9062 67.2617 16.9062 65.9844C16.9062 64.7227 17.625 63.8672 18.7461 63.8672C19.8438 63.8672 20.5195 64.6641 20.5195 65.8945V66.1523H17.6055V66.1914C17.6055 66.9688 18.0625 67.4805 18.793 67.4805C19.3086 67.4805 19.6875 67.2188 19.8008 66.8359ZM21.9453 68H21.2734V63.9375H21.9453V66.9609H21.9766L24.0078 63.9375H24.6797V68H24.0078V64.9766H23.9766L21.9453 68ZM21.793 62.1797H22.293C22.293 62.6328 22.5859 62.9883 23.0508 62.9883C23.5156 62.9883 23.8086 62.6328 23.8086 62.1797H24.3086C24.3086 62.8984 23.7969 63.3906 23.0508 63.3906C22.3047 63.3906 21.793 62.8984 21.793 62.1797ZM28.9961 65.1875H28.3242C28.207 64.7969 27.875 64.4648 27.3008 64.4648C26.5938 64.4648 26.1289 65.0625 26.1289 65.9688C26.1289 66.8984 26.6016 67.4727 27.3086 67.4727C27.8477 67.4727 28.2031 67.207 28.332 66.7578H29.0039C28.8711 67.5273 28.2188 68.0703 27.3047 68.0703C26.1758 68.0703 25.4375 67.2617 25.4375 65.9688C25.4375 64.7031 26.1719 63.8672 27.2969 63.8672C28.2773 63.8672 28.875 64.4961 28.9961 65.1875ZM32.6055 63.9375V64.4961H31.293V68H30.6211V64.4961H29.3086V63.9375H32.6055ZM34.8789 64.4883H33.9062V65.625H34.7773C35.2891 65.625 35.5352 65.4375 35.5352 65.0469C35.5352 64.6875 35.3047 64.4883 34.8789 64.4883ZM34.832 66.1719H33.9062V67.4492H34.9531C35.4453 67.4492 35.7109 67.2266 35.7109 66.8164C35.7109 66.3828 35.4258 66.1719 34.832 66.1719ZM33.2344 68V63.9375H34.9727C35.7344 63.9375 36.1992 64.332 36.1992 64.9766C36.1992 65.3906 35.9062 65.7734 35.5312 65.8516V65.8828C36.043 65.9531 36.3789 66.3242 36.3789 66.832C36.3789 67.5508 35.8477 68 34.9844 68H33.2344ZM37.8281 68H37.1562V63.9375H37.8281V66.9609H37.8594L39.8906 63.9375H40.5625V68H39.8906V64.9766H39.8594L37.8281 68ZM42.9766 65.9961H43.7539V64.4961H42.9766C42.4492 64.4961 42.1133 64.7852 42.1133 65.2734C42.1133 65.6953 42.4531 65.9961 42.9766 65.9961ZM43.7539 68V66.5547H43.0352L42.0039 68H41.2266L42.3594 66.4297C41.7852 66.2656 41.4375 65.8438 41.4375 65.2852C41.4375 64.4492 42.0391 63.9375 42.9727 63.9375H44.4258V68H43.7539ZM45.8125 69.1211H45.2461L45.625 67.1328H46.3477L45.8125 69.1211ZM49.3359 68H48.6641V63.9375H49.4883L50.9336 67.1016H50.9648L52.418 63.9375H53.2109V68H52.5352V65.1172H52.5078L51.1953 67.8828H50.6758L49.3633 65.1172H49.3359V68ZM54.8359 68H54.1641V63.9375H54.9883L56.4336 67.1016H56.4648L57.918 63.9375H58.7109V68H58.0352V65.1172H58.0078L56.6953 67.8828H56.1758L54.8633 65.1172H54.8359V68Z" fill="white"/>
<mask id="path-36-inside-12_252_665" fill="white">
<path d="M71 40H142V80H71V40Z"/>
</mask>
<path d="M71 40V39H70V40H71ZM71 41H142V39H71V41ZM72 80V40H70V80H72Z" fill="white" fill-opacity="0.2" mask="url(#path-36-inside-12_252_665)"/>
<path d="M96.3691 64V56.4062H96.3457C96.1582 56.5234 94.3242 57.8125 94.0781 57.9648V57.1094C94.3125 56.9629 96.1055 55.6973 96.3574 55.5449H97.1426V64H96.3691ZM103.189 64V62.0898H98.9004V61.3574C99.8203 59.8105 100.928 58.1523 102.797 55.5332H103.969V61.3809H105.229V62.0898H103.969V64H103.189ZM99.709 61.3574V61.3809H103.189V56.2363H103.178C101.619 58.3926 100.553 59.9863 99.709 61.3574ZM109.119 64.1348C107.572 64.1348 106.389 63.1621 106.283 61.7969H107.068C107.18 62.7461 108.041 63.4258 109.131 63.4258C110.391 63.4258 111.287 62.5352 111.287 61.293C111.287 60.0566 110.391 59.1484 109.166 59.1484C108.311 59.1484 107.572 59.5527 107.18 60.2266H106.412L106.893 55.5449H111.58V56.2598H107.555L107.238 59.3828H107.262C107.672 58.8086 108.439 58.4512 109.295 58.4512C110.906 58.4512 112.09 59.6465 112.09 61.2754C112.09 62.9453 110.848 64.1348 109.119 64.1348ZM116.068 64.1348C114.521 64.1348 113.338 63.1621 113.232 61.7969H114.018C114.129 62.7461 114.99 63.4258 116.08 63.4258C117.34 63.4258 118.236 62.5352 118.236 61.293C118.236 60.0566 117.34 59.1484 116.115 59.1484C115.26 59.1484 114.521 59.5527 114.129 60.2266H113.361L113.842 55.5449H118.529V56.2598H114.504L114.188 59.3828H114.211C114.621 58.8086 115.389 58.4512 116.244 58.4512C117.855 58.4512 119.039 59.6465 119.039 61.2754C119.039 62.9453 117.797 64.1348 116.068 64.1348Z" fill="white"/>
<mask id="path-39-inside-13_252_665" fill="white">
<path d="M142 40H213V80H142V40Z"/>
</mask>
<path d="M142 40V39H141V40H142ZM142 41H213V39H142V41ZM143 80V40H141V80H143Z" fill="white" fill-opacity="0.2" mask="url(#path-39-inside-13_252_665)"/>
<path d="M167.363 64V56.4062H167.34C167.152 56.5234 165.318 57.8125 165.072 57.9648V57.1094C165.307 56.9629 167.1 55.6973 167.352 55.5449H168.137V64H167.363ZM174.184 64V62.0898H169.895V61.3574C170.814 59.8105 171.922 58.1523 173.791 55.5332H174.963V61.3809H176.223V62.0898H174.963V64H174.184ZM170.703 61.3574V61.3809H174.184V56.2363H174.172C172.613 58.3926 171.547 59.9863 170.703 61.3574ZM177.242 57.9121C177.254 56.4707 178.402 55.4102 179.949 55.4102C181.426 55.4102 182.58 56.4238 182.58 57.7188C182.58 58.6445 182.164 59.3418 180.758 60.8008L178.402 63.2617V63.2852H182.797V64H177.283V63.4375L180.271 60.2793C181.479 59.0078 181.783 58.5039 181.783 57.7656C181.783 56.8398 180.963 56.1133 179.926 56.1133C178.842 56.1133 178.027 56.8809 178.016 57.9121V57.918H177.242V57.9121ZM186.898 64.1348C184.977 64.1348 183.834 62.4414 183.834 59.7695C183.834 57.1152 184.988 55.4102 186.898 55.4102C188.814 55.4102 189.957 57.1094 189.957 59.7637C189.957 62.4355 188.82 64.1348 186.898 64.1348ZM186.898 63.4316C188.328 63.4316 189.154 62.0078 189.154 59.7695C189.154 57.5488 188.316 56.1191 186.898 56.1191C185.486 56.1191 184.643 57.5605 184.643 59.7637C184.643 62.0078 185.469 63.4316 186.898 63.4316Z" fill="white"/>
<mask id="path-42-inside-14_252_665" fill="white">
<path d="M213 40H284V80H213V40Z"/>
</mask>
<path d="M213 40V39H212V40H213ZM213 41H284V39H213V41ZM214 80V40H212V80H214Z" fill="white" fill-opacity="0.2" mask="url(#path-42-inside-14_252_665)"/>
<path d="M239.693 64V56.4062H239.67C239.482 56.5234 237.648 57.8125 237.402 57.9648V57.1094C237.637 56.9629 239.43 55.6973 239.682 55.5449H240.467V64H239.693ZM243.162 64L247.082 56.2832V56.2598H242.377V55.5449H247.885V56.2949L244.012 64H243.162ZM249.01 57.9121C249.021 56.4707 250.17 55.4102 251.717 55.4102C253.193 55.4102 254.348 56.4238 254.348 57.7188C254.348 58.6445 253.932 59.3418 252.525 60.8008L250.17 63.2617V63.2852H254.564V64H249.051V63.4375L252.039 60.2793C253.246 59.0078 253.551 58.5039 253.551 57.7656C253.551 56.8398 252.73 56.1133 251.693 56.1133C250.609 56.1133 249.795 56.8809 249.783 57.9121V57.918H249.01V57.9121ZM257.928 64V56.4062H257.904C257.717 56.5234 255.883 57.8125 255.637 57.9648V57.1094C255.871 56.9629 257.664 55.6973 257.916 55.5449H258.701V64H257.928Z" fill="white"/>
<mask id="path-45-inside-15_252_665" fill="white">
<path d="M284 40H355V80H284V40Z"/>
</mask>
<path d="M284 40V39H283V40H284ZM284 41H355V39H284V41ZM285 80V40H283V80H285Z" fill="white" fill-opacity="0.2" mask="url(#path-45-inside-15_252_665)"/>
<path d="M307.148 57.9121C307.16 56.4707 308.309 55.4102 309.855 55.4102C311.332 55.4102 312.486 56.4238 312.486 57.7188C312.486 58.6445 312.07 59.3418 310.664 60.8008L308.309 63.2617V63.2852H312.703V64H307.189V63.4375L310.178 60.2793C311.385 59.0078 311.689 58.5039 311.689 57.7656C311.689 56.8398 310.869 56.1133 309.832 56.1133C308.748 56.1133 307.934 56.8809 307.922 57.9121V57.918H307.148V57.9121ZM316.805 64.1348C314.883 64.1348 313.74 62.4414 313.74 59.7695C313.74 57.1152 314.895 55.4102 316.805 55.4102C318.721 55.4102 319.863 57.1094 319.863 59.7637C319.863 62.4355 318.727 64.1348 316.805 64.1348ZM316.805 63.4316C318.234 63.4316 319.061 62.0078 319.061 59.7695C319.061 57.5488 318.223 56.1191 316.805 56.1191C315.393 56.1191 314.549 57.5605 314.549 59.7637C314.549 62.0078 315.375 63.4316 316.805 63.4316ZM323.965 64.1348C322.043 64.1348 320.9 62.4414 320.9 59.7695C320.9 57.1152 322.055 55.4102 323.965 55.4102C325.881 55.4102 327.023 57.1094 327.023 59.7637C327.023 62.4355 325.887 64.1348 323.965 64.1348ZM323.965 63.4316C325.395 63.4316 326.221 62.0078 326.221 59.7695C326.221 57.5488 325.383 56.1191 323.965 56.1191C322.553 56.1191 321.709 57.5605 321.709 59.7637C321.709 62.0078 322.535 63.4316 323.965 63.4316ZM330.305 64V56.4062H330.281C330.094 56.5234 328.26 57.8125 328.014 57.9648V57.1094C328.248 56.9629 330.041 55.6973 330.293 55.5449H331.078V64H330.305Z" fill="white"/>
<mask id="path-48-inside-16_252_665" fill="white">
<path d="M355 40H426V80H355V40Z"/>
</mask>
<path d="M355 40V39H354V40H355ZM355 41H426V39H355V41ZM356 80V40H354V80H356Z" fill="white" fill-opacity="0.2" mask="url(#path-48-inside-16_252_665)"/>
<path d="M378.148 57.9121C378.16 56.4707 379.309 55.4102 380.855 55.4102C382.332 55.4102 383.486 56.4238 383.486 57.7188C383.486 58.6445 383.07 59.3418 381.664 60.8008L379.309 63.2617V63.2852H383.703V64H378.189V63.4375L381.178 60.2793C382.385 59.0078 382.689 58.5039 382.689 57.7656C382.689 56.8398 381.869 56.1133 380.832 56.1133C379.748 56.1133 378.934 56.8809 378.922 57.9121V57.918H378.148V57.9121ZM387.805 64.1348C385.883 64.1348 384.74 62.4414 384.74 59.7695C384.74 57.1152 385.895 55.4102 387.805 55.4102C389.721 55.4102 390.863 57.1094 390.863 59.7637C390.863 62.4355 389.727 64.1348 387.805 64.1348ZM387.805 63.4316C389.234 63.4316 390.061 62.0078 390.061 59.7695C390.061 57.5488 389.223 56.1191 387.805 56.1191C386.393 56.1191 385.549 57.5605 385.549 59.7637C385.549 62.0078 386.375 63.4316 387.805 63.4316ZM394.965 64.1348C393.043 64.1348 391.9 62.4414 391.9 59.7695C391.9 57.1152 393.055 55.4102 394.965 55.4102C396.881 55.4102 398.023 57.1094 398.023 59.7637C398.023 62.4355 396.887 64.1348 394.965 64.1348ZM394.965 63.4316C396.395 63.4316 397.221 62.0078 397.221 59.7695C397.221 57.5488 396.383 56.1191 394.965 56.1191C393.553 56.1191 392.709 57.5605 392.709 59.7637C392.709 62.0078 393.535 63.4316 394.965 63.4316ZM401.305 64V56.4062H401.281C401.094 56.5234 399.26 57.8125 399.014 57.9648V57.1094C399.248 56.9629 401.041 55.6973 401.293 55.5449H402.078V64H401.305Z" fill="white"/>
<mask id="path-51-inside-17_252_665" fill="white">
<path d="M426 40H497V80H426V40Z"/>
</mask>
<path d="M426 40V39H425V40H426ZM426 41H497V39H426V41ZM427 80V40H425V80H427Z" fill="white" fill-opacity="0.2" mask="url(#path-51-inside-17_252_665)"/>
<path d="M451.773 64V56.4062H451.75C451.562 56.5234 449.729 57.8125 449.482 57.9648V57.1094C449.717 56.9629 451.51 55.6973 451.762 55.5449H452.547V64H451.773ZM455.242 64L459.162 56.2832V56.2598H454.457V55.5449H459.965V56.2949L456.092 64H455.242ZM463.82 64.1348C461.898 64.1348 460.756 62.4414 460.756 59.7695C460.756 57.1152 461.91 55.4102 463.82 55.4102C465.736 55.4102 466.879 57.1094 466.879 59.7637C466.879 62.4355 465.742 64.1348 463.82 64.1348ZM463.82 63.4316C465.25 63.4316 466.076 62.0078 466.076 59.7695C466.076 57.5488 465.238 56.1191 463.82 56.1191C462.408 56.1191 461.564 57.5605 461.564 59.7637C461.564 62.0078 462.391 63.4316 463.82 63.4316ZM467.992 57.9121C468.004 56.4707 469.152 55.4102 470.699 55.4102C472.176 55.4102 473.33 56.4238 473.33 57.7188C473.33 58.6445 472.914 59.3418 471.508 60.8008L469.152 63.2617V63.2852H473.547V64H468.033V63.4375L471.021 60.2793C472.229 59.0078 472.533 58.5039 472.533 57.7656C472.533 56.8398 471.713 56.1133 470.676 56.1133C469.592 56.1133 468.777 56.8809 468.766 57.9121V57.918H467.992V57.9121Z" fill="white"/>
<mask id="path-54-inside-18_252_665" fill="white">
<path d="M497 40H568V80H497V40Z"/>
</mask>
<path d="M497 40V39H496V40H497ZM497 41H568V39H497V41ZM498 80V40H496V80H498Z" fill="white" fill-opacity="0.2" mask="url(#path-54-inside-18_252_665)"/>
<path d="M522.773 64V56.4062H522.75C522.562 56.5234 520.729 57.8125 520.482 57.9648V57.1094C520.717 56.9629 522.51 55.6973 522.762 55.5449H523.547V64H522.773ZM526.242 64L530.162 56.2832V56.2598H525.457V55.5449H530.965V56.2949L527.092 64H526.242ZM534.82 64.1348C532.898 64.1348 531.756 62.4414 531.756 59.7695C531.756 57.1152 532.91 55.4102 534.82 55.4102C536.736 55.4102 537.879 57.1094 537.879 59.7637C537.879 62.4355 536.742 64.1348 534.82 64.1348ZM534.82 63.4316C536.25 63.4316 537.076 62.0078 537.076 59.7695C537.076 57.5488 536.238 56.1191 534.82 56.1191C533.408 56.1191 532.564 57.5605 532.564 59.7637C532.564 62.0078 533.391 63.4316 534.82 63.4316ZM538.992 57.9121C539.004 56.4707 540.152 55.4102 541.699 55.4102C543.176 55.4102 544.33 56.4238 544.33 57.7188C544.33 58.6445 543.914 59.3418 542.508 60.8008L540.152 63.2617V63.2852H544.547V64H539.033V63.4375L542.021 60.2793C543.229 59.0078 543.533 58.5039 543.533 57.7656C543.533 56.8398 542.713 56.1133 541.676 56.1133C540.592 56.1133 539.777 56.8809 539.766 57.9121V57.918H538.992V57.9121Z" fill="white"/>
<mask id="path-57-inside-19_252_665" fill="white">
<path d="M568 40H639V80H568V40Z"/>
</mask>
<path d="M568 40V39H567V40H568ZM568 41H639V39H568V41ZM569 80V40H567V80H569Z" fill="white" fill-opacity="0.2" mask="url(#path-57-inside-19_252_665)"/>
<path d="M590.404 57.9121C590.416 56.4707 591.564 55.4102 593.111 55.4102C594.588 55.4102 595.742 56.4238 595.742 57.7188C595.742 58.6445 595.326 59.3418 593.92 60.8008L591.564 63.2617V63.2852H595.959V64H590.445V63.4375L593.434 60.2793C594.641 59.0078 594.945 58.5039 594.945 57.7656C594.945 56.8398 594.125 56.1133 593.088 56.1133C592.004 56.1133 591.189 56.8809 591.178 57.9121V57.918H590.404V57.9121ZM597.154 57.9121C597.166 56.4707 598.314 55.4102 599.861 55.4102C601.338 55.4102 602.492 56.4238 602.492 57.7188C602.492 58.6445 602.076 59.3418 600.67 60.8008L598.314 63.2617V63.2852H602.709V64H597.195V63.4375L600.184 60.2793C601.391 59.0078 601.695 58.5039 601.695 57.7656C601.695 56.8398 600.875 56.1133 599.838 56.1133C598.754 56.1133 597.939 56.8809 597.928 57.9121V57.918H597.154V57.9121ZM605.568 59.9746V59.2949H606.553C607.66 59.2949 608.422 58.6152 608.422 57.6719C608.422 56.7578 607.73 56.1133 606.588 56.1133C605.539 56.1133 604.795 56.7461 604.707 57.6836H603.934C604.033 56.3242 605.1 55.4102 606.623 55.4102C608.111 55.4102 609.23 56.3184 609.23 57.5723C609.23 58.6328 608.545 59.3945 607.467 59.5879V59.6113C608.762 59.6875 609.594 60.4902 609.594 61.6855C609.594 63.1152 608.316 64.1348 606.67 64.1348C604.965 64.1348 603.811 63.1621 603.758 61.8086H604.531C604.596 62.752 605.445 63.4316 606.664 63.4316C607.889 63.4316 608.779 62.7109 608.779 61.709C608.779 60.6309 607.947 59.9746 606.588 59.9746H605.568ZM613.713 64.1348C611.938 64.1348 610.701 63.1152 610.701 61.7031C610.701 60.6367 611.463 59.7695 612.588 59.5293V59.5117C611.633 59.248 611.023 58.5273 611.023 57.6191C611.023 56.3418 612.154 55.4102 613.713 55.4102C615.277 55.4102 616.396 56.3418 616.396 57.6191C616.396 58.5156 615.787 59.2363 614.838 59.5117V59.5293C615.963 59.7695 616.725 60.6426 616.725 61.7031C616.725 63.1211 615.494 64.1348 613.713 64.1348ZM613.713 63.4316C615.02 63.4316 615.91 62.6758 615.91 61.6562C615.91 60.6426 615.014 59.9219 613.713 59.9219C612.418 59.9219 611.516 60.6426 611.516 61.6562C611.516 62.6758 612.406 63.4316 613.713 63.4316ZM613.713 59.207C614.814 59.207 615.6 58.5742 615.6 57.6836C615.6 56.7754 614.844 56.1074 613.713 56.1074C612.588 56.1074 611.82 56.7754 611.82 57.6836C611.82 58.5742 612.605 59.207 613.713 59.207Z" fill="white"/>
<mask id="path-60-inside-20_252_665" fill="white">
<path d="M639 40H710V80H639V40Z"/>
</mask>
<path d="M639 40V39H638V40H639ZM639 41H710V39H639V41ZM640 80V40H638V80H640Z" fill="white" fill-opacity="0.2" mask="url(#path-60-inside-20_252_665)"/>
<path d="M663.396 57.9121C663.408 56.4707 664.557 55.4102 666.104 55.4102C667.58 55.4102 668.734 56.4238 668.734 57.7188C668.734 58.6445 668.318 59.3418 666.912 60.8008L664.557 63.2617V63.2852H668.951V64H663.438V63.4375L666.426 60.2793C667.633 59.0078 667.938 58.5039 667.938 57.7656C667.938 56.8398 667.117 56.1133 666.08 56.1133C664.996 56.1133 664.182 56.8809 664.17 57.9121V57.918H663.396V57.9121ZM672.314 64V56.4062H672.291C672.104 56.5234 670.27 57.8125 670.023 57.9648V57.1094C670.258 56.9629 672.051 55.6973 672.303 55.5449H673.088V64H672.314ZM677.377 64V56.4062H677.354C677.166 56.5234 675.332 57.8125 675.086 57.9648V57.1094C675.32 56.9629 677.113 55.6973 677.365 55.5449H678.15V64H677.377ZM680.201 57.9121C680.213 56.4707 681.361 55.4102 682.908 55.4102C684.385 55.4102 685.539 56.4238 685.539 57.7188C685.539 58.6445 685.123 59.3418 683.717 60.8008L681.361 63.2617V63.2852H685.756V64H680.242V63.4375L683.23 60.2793C684.438 59.0078 684.742 58.5039 684.742 57.7656C684.742 56.8398 683.922 56.1133 682.885 56.1133C681.801 56.1133 680.986 56.8809 680.975 57.9121V57.918H680.201V57.9121Z" fill="white"/>
</g>
<g clip-path="url(#clip3_252_665)">
<rect width="710" height="40" transform="translate(0 80)" fill="#86A2FF" fill-opacity="0.2"/>
<mask id="path-63-inside-21_252_665" fill="white">
<path d="M0 80H71V120H0V80Z"/>
</mask>
<path d="M0 80V79H-1V80H0ZM0 81H71V79H0V81ZM1 120V80H-1V120H1Z" fill="white" fill-opacity="0.2" mask="url(#path-63-inside-21_252_665)"/>
<path d="M17.0039 98H16.3086V93.0039H13.293V98H12.5859V92.3633H17.0039V98ZM19.7578 98.0703C18.6328 98.0703 17.875 97.2617 17.875 95.9688C17.875 94.6719 18.6328 93.8672 19.7578 93.8672C20.8789 93.8672 21.6367 94.6719 21.6367 95.9688C21.6367 97.2617 20.8789 98.0703 19.7578 98.0703ZM19.7578 97.4727C20.4766 97.4727 20.9453 96.9258 20.9453 95.9688C20.9453 95.0117 20.4766 94.4648 19.7578 94.4648C19.0391 94.4648 18.5664 95.0117 18.5664 95.9688C18.5664 96.9258 19.0391 97.4727 19.7578 97.4727ZM23.3203 96.207C23.2383 97.3281 22.9688 98.0352 22.1133 98.0352C21.9961 98.0352 21.918 98.0117 21.8711 97.9922V97.3789C21.9062 97.3906 21.9805 97.4102 22.0781 97.4102C22.4805 97.4102 22.6328 96.9375 22.6836 96.1914L22.8398 93.9375H25.5V98H24.8281V94.4961H23.4453L23.3203 96.207ZM28.0938 94.457C27.457 94.457 27.0117 94.9453 26.9688 95.6211H29.1758C29.1602 94.9414 28.7344 94.457 28.0938 94.457ZM29.1602 96.8359H29.8281C29.7109 97.5469 29.0234 98.0703 28.1367 98.0703C26.9727 98.0703 26.2656 97.2617 26.2656 95.9844C26.2656 94.7227 26.9844 93.8672 28.1055 93.8672C29.2031 93.8672 29.8789 94.6641 29.8789 95.8945V96.1523H26.9648V96.1914C26.9648 96.9688 27.4219 97.4805 28.1523 97.4805C28.668 97.4805 29.0469 97.2188 29.1602 96.8359ZM31.9883 98.0703C31.0977 98.0703 30.4531 97.6328 30.3828 96.9453H31.0703C31.1484 97.3008 31.4844 97.5078 31.9883 97.5078C32.5781 97.5078 32.9062 97.2266 32.9062 96.832C32.9062 96.375 32.6016 96.168 31.9883 96.168H31.3789V95.6133H31.9883C32.5039 95.6133 32.7695 95.418 32.7695 95.0195C32.7695 94.6797 32.5273 94.4336 32.0039 94.4336C31.5234 94.4336 31.1875 94.6406 31.1328 94.9648H30.4727C30.5586 94.293 31.1445 93.8672 32.0039 93.8672C32.9297 93.8672 33.4336 94.3125 33.4336 94.9648C33.4336 95.3789 33.168 95.7461 32.7617 95.8398V95.8711C33.2969 95.9883 33.5742 96.332 33.5742 96.8008C33.5742 97.5586 32.9414 98.0703 31.9883 98.0703ZM37.0273 98V96.1719H35.0234V98H34.3516V93.9375H35.0234V95.6133H37.0273V93.9375H37.6992V98H37.0273ZM40 97.4922C40.6406 97.4922 41.1328 97.043 41.1328 96.457V96.125L40.0469 96.1914C39.5 96.2266 39.1875 96.4688 39.1875 96.8516C39.1875 97.2383 39.5117 97.4922 40 97.4922ZM39.8477 98.0703C39.0391 98.0703 38.4961 97.582 38.4961 96.8516C38.4961 96.1562 39.0312 95.7188 39.9688 95.6641L41.1328 95.5977V95.2578C41.1328 94.7617 40.8047 94.4648 40.2422 94.4648C39.7188 94.4648 39.3906 94.7109 39.3047 95.1094H38.6484C38.6953 94.4062 39.2969 93.8672 40.2578 93.8672C41.2109 93.8672 41.8125 94.3828 41.8125 95.1914V98H41.168V97.3008H41.1523C40.9102 97.7656 40.3945 98.0703 39.8477 98.0703ZM44.2109 95.9961H44.9883V94.4961H44.2109C43.6836 94.4961 43.3477 94.7852 43.3477 95.2734C43.3477 95.6953 43.6875 95.9961 44.2109 95.9961ZM44.9883 98V96.5547H44.2695L43.2383 98H42.4609L43.5938 96.4297C43.0195 96.2656 42.6719 95.8438 42.6719 95.2852C42.6719 94.4492 43.2734 93.9375 44.207 93.9375H45.6602V98H44.9883ZM15.1523 108V106.172H13.1484V108H12.4766V103.938H13.1484V105.613H15.1523V103.938H15.8242V108H15.1523ZM18.125 107.492C18.7656 107.492 19.2578 107.043 19.2578 106.457V106.125L18.1719 106.191C17.625 106.227 17.3125 106.469 17.3125 106.852C17.3125 107.238 17.6367 107.492 18.125 107.492ZM17.9727 108.07C17.1641 108.07 16.6211 107.582 16.6211 106.852C16.6211 106.156 17.1562 105.719 18.0938 105.664L19.2578 105.598V105.258C19.2578 104.762 18.9297 104.465 18.3672 104.465C17.8438 104.465 17.5156 104.711 17.4297 105.109H16.7734C16.8203 104.406 17.4219 103.867 18.3828 103.867C19.3359 103.867 19.9375 104.383 19.9375 105.191V108H19.293V107.301H19.2773C19.0352 107.766 18.5195 108.07 17.9727 108.07ZM23.4883 104.496H21.5469V108H20.875V103.938H23.4883V104.496ZM26.2031 103.867C27.2383 103.867 27.9414 104.695 27.9414 105.969C27.9414 107.242 27.2422 108.07 26.2188 108.07C25.6367 108.07 25.168 107.785 24.9258 107.34H24.9102V109.355H24.2305V103.938H24.875V104.625H24.8906C25.1406 104.168 25.6133 103.867 26.2031 103.867ZM26.0703 107.473C26.793 107.473 27.2461 106.891 27.2461 105.969C27.2461 105.051 26.793 104.465 26.0703 104.465C25.375 104.465 24.9062 105.066 24.9062 105.969C24.9062 106.875 25.375 107.473 26.0703 107.473ZM28.918 109.52C28.8359 109.52 28.6992 109.512 28.625 109.496V108.926C28.6992 108.941 28.8047 108.945 28.8906 108.945C29.2695 108.945 29.4805 108.762 29.6367 108.289L29.7305 108.004L28.2305 103.938H28.957L30.082 107.32H30.0938L31.2188 103.938H31.9336L30.3359 108.285C29.9883 109.234 29.6523 109.52 28.918 109.52ZM33.8945 108.07C33.0039 108.07 32.3594 107.633 32.2891 106.945H32.9766C33.0547 107.301 33.3906 107.508 33.8945 107.508C34.4844 107.508 34.8125 107.227 34.8125 106.832C34.8125 106.375 34.5078 106.168 33.8945 106.168H33.2852V105.613H33.8945C34.4102 105.613 34.6758 105.418 34.6758 105.02C34.6758 104.68 34.4336 104.434 33.9102 104.434C33.4297 104.434 33.0938 104.641 33.0391 104.965H32.3789C32.4648 104.293 33.0508 103.867 33.9102 103.867C34.8359 103.867 35.3398 104.312 35.3398 104.965C35.3398 105.379 35.0742 105.746 34.668 105.84V105.871C35.2031 105.988 35.4805 106.332 35.4805 106.801C35.4805 107.559 34.8477 108.07 33.8945 108.07ZM37.6367 105.859L39.5898 108H38.7148L36.9609 106.047H36.9297V108H36.2578V103.938H36.9297V105.734H36.9609L38.6953 103.938H39.5352L37.6367 105.859ZM41.3828 107.492C42.0234 107.492 42.5156 107.043 42.5156 106.457V106.125L41.4297 106.191C40.8828 106.227 40.5703 106.469 40.5703 106.852C40.5703 107.238 40.8945 107.492 41.3828 107.492ZM41.2305 108.07C40.4219 108.07 39.8789 107.582 39.8789 106.852C39.8789 106.156 40.4141 105.719 41.3516 105.664L42.5156 105.598V105.258C42.5156 104.762 42.1875 104.465 41.625 104.465C41.1016 104.465 40.7734 104.711 40.6875 105.109H40.0312C40.0781 104.406 40.6797 103.867 41.6406 103.867C42.5938 103.867 43.1953 104.383 43.1953 105.191V108H42.5508V107.301H42.5352C42.293 107.766 41.7773 108.07 41.2305 108.07ZM44.5625 109.121H43.9961L44.375 107.133H45.0977L44.5625 109.121ZM48.793 105.859L50.7461 108H49.8711L48.1172 106.047H48.0859V108H47.4141V103.938H48.0859V105.734H48.1172L49.8516 103.938H50.6914L48.793 105.859ZM53.9258 104.496H51.9844V108H51.3125V103.938H53.9258V104.496Z" fill="white"/>
<mask id="path-66-inside-22_252_665" fill="white">
<path d="M71 80H142V120H71V80Z"/>
</mask>
<path d="M71 80V79H70V80H71ZM71 81H142V79H71V81ZM72 120V80H70V120H72Z" fill="white" fill-opacity="0.2" mask="url(#path-66-inside-22_252_665)"/>
<path d="M106.652 104.135C105.516 104.135 104.59 103.561 104.068 102.535C103.688 101.873 103.5 101.012 103.5 99.9512C103.5 97.1152 104.707 95.4102 106.711 95.4102C108.117 95.4102 109.195 96.2598 109.436 97.5547H108.627C108.416 96.6934 107.648 96.1191 106.705 96.1191C105.158 96.1191 104.273 97.5605 104.273 100.068H104.291C104.637 99.1191 105.639 98.4629 106.781 98.4629C108.387 98.4629 109.588 99.6582 109.588 101.258C109.588 102.916 108.346 104.135 106.652 104.135ZM106.646 103.42C107.836 103.42 108.773 102.477 108.773 101.281C108.773 100.068 107.877 99.1719 106.652 99.1719C105.445 99.1719 104.502 100.074 104.502 101.223C104.502 102.453 105.434 103.42 106.646 103.42Z" fill="white"/>
<mask id="path-69-inside-23_252_665" fill="white">
<path d="M142 80H213V120H142V80Z"/>
</mask>
<path d="M142 80V79H141V80H142ZM142 81H213V79H142V81ZM143 120V80H141V120H143Z" fill="white" fill-opacity="0.2" mask="url(#path-69-inside-23_252_665)"/>
<path d="M174.242 104V96.4062H174.219C174.031 96.5234 172.197 97.8125 171.951 97.9648V97.1094C172.186 96.9629 173.979 95.6973 174.23 95.5449H175.016V104H174.242ZM180.02 104.135C178.098 104.135 176.955 102.441 176.955 99.7695C176.955 97.1152 178.109 95.4102 180.02 95.4102C181.936 95.4102 183.078 97.1094 183.078 99.7637C183.078 102.436 181.941 104.135 180.02 104.135ZM180.02 103.432C181.449 103.432 182.275 102.008 182.275 99.7695C182.275 97.5488 181.438 96.1191 180.02 96.1191C178.607 96.1191 177.764 97.5605 177.764 99.7637C177.764 102.008 178.59 103.432 180.02 103.432Z" fill="white"/>
<mask id="path-72-inside-24_252_665" fill="white">
<path d="M213 80H284V120H213V80Z"/>
</mask>
<path d="M213 80V79H212V80H213ZM213 81H284V79H213V81ZM214 120V80H212V120H214Z" fill="white" fill-opacity="0.2" mask="url(#path-72-inside-24_252_665)"/>
<path d="M245.242 104V96.4062H245.219C245.031 96.5234 243.197 97.8125 242.951 97.9648V97.1094C243.186 96.9629 244.979 95.6973 245.23 95.5449H246.016V104H245.242ZM251.02 104.135C249.098 104.135 247.955 102.441 247.955 99.7695C247.955 97.1152 249.109 95.4102 251.02 95.4102C252.936 95.4102 254.078 97.1094 254.078 99.7637C254.078 102.436 252.941 104.135 251.02 104.135ZM251.02 103.432C252.449 103.432 253.275 102.008 253.275 99.7695C253.275 97.5488 252.438 96.1191 251.02 96.1191C249.607 96.1191 248.764 97.5605 248.764 99.7637C248.764 102.008 249.59 103.432 251.02 103.432Z" fill="white"/>
<mask id="path-75-inside-25_252_665" fill="white">
<path d="M284 80H355V120H284V80Z"/>
</mask>
<path d="M284 80V79H283V80H284ZM284 81H355V79H284V81ZM285 120V80H283V120H285Z" fill="white" fill-opacity="0.2" mask="url(#path-75-inside-25_252_665)"/>
<path d="M316.471 104V96.4062H316.447C316.26 96.5234 314.426 97.8125 314.18 97.9648V97.1094C314.414 96.9629 316.207 95.6973 316.459 95.5449H317.244V104H316.471ZM319.295 97.9121C319.307 96.4707 320.455 95.4102 322.002 95.4102C323.479 95.4102 324.633 96.4238 324.633 97.7188C324.633 98.6445 324.217 99.3418 322.811 100.801L320.455 103.262V103.285H324.85V104H319.336V103.438L322.324 100.279C323.531 99.0078 323.836 98.5039 323.836 97.7656C323.836 96.8398 323.016 96.1133 321.979 96.1133C320.895 96.1133 320.08 96.8809 320.068 97.9121V97.918H319.295V97.9121Z" fill="white"/>
<mask id="path-78-inside-26_252_665" fill="white">
<path d="M355 80H426V120H355V80Z"/>
</mask>
<path d="M355 80V79H354V80H355ZM355 81H426V79H355V81ZM356 120V80H354V120H356Z" fill="white" fill-opacity="0.2" mask="url(#path-78-inside-26_252_665)"/>
<path d="M384.219 97.9121C384.23 96.4707 385.379 95.4102 386.926 95.4102C388.402 95.4102 389.557 96.4238 389.557 97.7188C389.557 98.6445 389.141 99.3418 387.734 100.801L385.379 103.262V103.285H389.773V104H384.26V103.438L387.248 100.279C388.455 99.0078 388.76 98.5039 388.76 97.7656C388.76 96.8398 387.939 96.1133 386.902 96.1133C385.818 96.1133 385.004 96.8809 384.992 97.9121V97.918H384.219V97.9121ZM393.875 104.135C391.953 104.135 390.811 102.441 390.811 99.7695C390.811 97.1152 391.965 95.4102 393.875 95.4102C395.791 95.4102 396.934 97.1094 396.934 99.7637C396.934 102.436 395.797 104.135 393.875 104.135ZM393.875 103.432C395.305 103.432 396.131 102.008 396.131 99.7695C396.131 97.5488 395.293 96.1191 393.875 96.1191C392.463 96.1191 391.619 97.5605 391.619 99.7637C391.619 102.008 392.445 103.432 393.875 103.432Z" fill="white"/>
<mask id="path-81-inside-27_252_665" fill="white">
<path d="M426 80H497V120H426V80Z"/>
</mask>
<path d="M426 80V79H425V80H426ZM426 81H497V79H426V81ZM427 120V80H425V120H427Z" fill="white" fill-opacity="0.2" mask="url(#path-81-inside-27_252_665)"/>
<path d="M455.371 97.9121C455.383 96.4707 456.531 95.4102 458.078 95.4102C459.555 95.4102 460.709 96.4238 460.709 97.7188C460.709 98.6445 460.293 99.3418 458.887 100.801L456.531 103.262V103.285H460.926V104H455.412V103.438L458.4 100.279C459.607 99.0078 459.912 98.5039 459.912 97.7656C459.912 96.8398 459.092 96.1133 458.055 96.1133C456.971 96.1133 456.156 96.8809 456.145 97.9121V97.918H455.371V97.9121ZM464.898 104.135C463.352 104.135 462.168 103.162 462.062 101.797H462.848C462.959 102.746 463.82 103.426 464.91 103.426C466.17 103.426 467.066 102.535 467.066 101.293C467.066 100.057 466.17 99.1484 464.945 99.1484C464.09 99.1484 463.352 99.5527 462.959 100.227H462.191L462.672 95.5449H467.359V96.2598H463.334L463.018 99.3828H463.041C463.451 98.8086 464.219 98.4512 465.074 98.4512C466.686 98.4512 467.869 99.6465 467.869 101.275C467.869 102.945 466.627 104.135 464.898 104.135Z" fill="white"/>
<mask id="path-84-inside-28_252_665" fill="white">
<path d="M497 80H568V120H497V80Z"/>
</mask>
<path d="M497 80V79H496V80H497ZM497 81H568V79H497V81ZM498 120V80H496V120H498Z" fill="white" fill-opacity="0.2" mask="url(#path-84-inside-28_252_665)"/>
<path d="M527.895 99.9746V99.2949H528.879C529.986 99.2949 530.748 98.6152 530.748 97.6719C530.748 96.7578 530.057 96.1133 528.914 96.1133C527.865 96.1133 527.121 96.7461 527.033 97.6836H526.26C526.359 96.3242 527.426 95.4102 528.949 95.4102C530.438 95.4102 531.557 96.3184 531.557 97.5723C531.557 98.6328 530.871 99.3945 529.793 99.5879V99.6113C531.088 99.6875 531.92 100.49 531.92 101.686C531.92 103.115 530.643 104.135 528.996 104.135C527.291 104.135 526.137 103.162 526.084 101.809H526.857C526.922 102.752 527.771 103.432 528.99 103.432C530.215 103.432 531.105 102.711 531.105 101.709C531.105 100.631 530.273 99.9746 528.914 99.9746H527.895ZM536.039 104.135C534.492 104.135 533.309 103.162 533.203 101.797H533.988C534.1 102.746 534.961 103.426 536.051 103.426C537.311 103.426 538.207 102.535 538.207 101.293C538.207 100.057 537.311 99.1484 536.086 99.1484C535.23 99.1484 534.492 99.5527 534.1 100.227H533.332L533.812 95.5449H538.5V96.2598H534.475L534.158 99.3828H534.182C534.592 98.8086 535.359 98.4512 536.215 98.4512C537.826 98.4512 539.01 99.6465 539.01 101.275C539.01 102.945 537.768 104.135 536.039 104.135Z" fill="white"/>
<mask id="path-87-inside-29_252_665" fill="white">
<path d="M568 80H639V120H568V80Z"/>
</mask>
<path d="M568 80V79H567V80H568ZM568 81H639V79H568V81ZM569 120V80H567V120H569Z" fill="white" fill-opacity="0.2" mask="url(#path-87-inside-29_252_665)"/>
<path d="M599.99 104.135C598.443 104.135 597.26 103.162 597.154 101.797H597.939C598.051 102.746 598.912 103.426 600.002 103.426C601.262 103.426 602.158 102.535 602.158 101.293C602.158 100.057 601.262 99.1484 600.037 99.1484C599.182 99.1484 598.443 99.5527 598.051 100.227H597.283L597.764 95.5449H602.451V96.2598H598.426L598.109 99.3828H598.133C598.543 98.8086 599.311 98.4512 600.166 98.4512C601.777 98.4512 602.961 99.6465 602.961 101.275C602.961 102.945 601.719 104.135 599.99 104.135ZM606.975 104.135C605.053 104.135 603.91 102.441 603.91 99.7695C603.91 97.1152 605.064 95.4102 606.975 95.4102C608.891 95.4102 610.033 97.1094 610.033 99.7637C610.033 102.436 608.896 104.135 606.975 104.135ZM606.975 103.432C608.404 103.432 609.23 102.008 609.23 99.7695C609.23 97.5488 608.393 96.1191 606.975 96.1191C605.562 96.1191 604.719 97.5605 604.719 99.7637C604.719 102.008 605.545 103.432 606.975 103.432Z" fill="white"/>
<mask id="path-90-inside-30_252_665" fill="white">
<path d="M639 80H710V120H639V80Z"/>
</mask>
<path d="M639 80V79H638V80H639ZM639 81H710V79H639V81ZM640 120V80H638V120H640Z" fill="white" fill-opacity="0.2" mask="url(#path-90-inside-30_252_665)"/>
<path d="M669.092 104L673.012 96.2832V96.2598H668.307V95.5449H673.814V96.2949L669.941 104H669.092ZM677.752 104.135C676.205 104.135 675.021 103.162 674.916 101.797H675.701C675.812 102.746 676.674 103.426 677.764 103.426C679.023 103.426 679.92 102.535 679.92 101.293C679.92 100.057 679.023 99.1484 677.799 99.1484C676.943 99.1484 676.205 99.5527 675.812 100.227H675.045L675.525 95.5449H680.213V96.2598H676.188L675.871 99.3828H675.895C676.305 98.8086 677.072 98.4512 677.928 98.4512C679.539 98.4512 680.723 99.6465 680.723 101.275C680.723 102.945 679.48 104.135 677.752 104.135Z" fill="white"/>
</g>
<g clip-path="url(#clip4_252_665)">
<rect width="710" height="40" transform="translate(0 120)" fill="#86A2FF" fill-opacity="0.2"/>
<mask id="path-93-inside-31_252_665" fill="white">
<path d="M0 120H71V160H0V120Z"/>
</mask>
<path d="M0 120V119H-1V120H0ZM0 121H71V119H0V121ZM1 160V120H-1V160H1Z" fill="white" fill-opacity="0.2" mask="url(#path-93-inside-31_252_665)"/>
<path d="M14.0625 135.059L16.8867 138H15.9219L13.3203 135.262H13.2891V138H12.5859V132.363H13.2891V134.961H13.3203L15.7422 132.363H16.625L14.0625 135.059ZM18.9062 138.07C17.7812 138.07 17.0234 137.262 17.0234 135.969C17.0234 134.672 17.7812 133.867 18.9062 133.867C20.0273 133.867 20.7852 134.672 20.7852 135.969C20.7852 137.262 20.0273 138.07 18.9062 138.07ZM18.9062 137.473C19.625 137.473 20.0938 136.926 20.0938 135.969C20.0938 135.012 19.625 134.465 18.9062 134.465C18.1875 134.465 17.7148 135.012 17.7148 135.969C17.7148 136.926 18.1875 137.473 18.9062 137.473ZM22.4688 136.207C22.3867 137.328 22.1172 138.035 21.2617 138.035C21.1445 138.035 21.0664 138.012 21.0195 137.992V137.379C21.0547 137.391 21.1289 137.41 21.2266 137.41C21.6289 137.41 21.7812 136.938 21.832 136.191L21.9883 133.938H24.6484V138H23.9766V134.496H22.5938L22.4688 136.207ZM26.2812 138H25.6094V133.938H26.2812V136.961H26.3125L28.3438 133.938H29.0156V138H28.3438V134.977H28.3125L26.2812 138ZM33.0664 138H32.3945V136.246H32.3359C32.1172 136.434 31.793 136.562 31.3516 136.562C30.3789 136.562 29.8672 135.973 29.8672 135.105V133.938H30.5391V135.098C30.5391 135.629 30.8242 135.969 31.3711 135.969C31.875 135.969 32.207 135.781 32.3945 135.57V133.938H33.0664V138ZM35.6562 134.457C35.0195 134.457 34.5742 134.945 34.5312 135.621H36.7383C36.7227 134.941 36.2969 134.457 35.6562 134.457ZM36.7227 136.836H37.3906C37.2734 137.547 36.5859 138.07 35.6992 138.07C34.5352 138.07 33.8281 137.262 33.8281 135.984C33.8281 134.723 34.5469 133.867 35.668 133.867C36.7656 133.867 37.4414 134.664 37.4414 135.895V136.152H34.5273V136.191C34.5273 136.969 34.9844 137.48 35.7148 137.48C36.2305 137.48 36.6094 137.219 36.7227 136.836ZM41.5586 135.188H40.8867C40.7695 134.797 40.4375 134.465 39.8633 134.465C39.1562 134.465 38.6914 135.062 38.6914 135.969C38.6914 136.898 39.1641 137.473 39.8711 137.473C40.4102 137.473 40.7656 137.207 40.8945 136.758H41.5664C41.4336 137.527 40.7812 138.07 39.8672 138.07C38.7383 138.07 38 137.262 38 135.969C38 134.703 38.7344 133.867 39.8594 133.867C40.8398 133.867 41.4375 134.496 41.5586 135.188ZM45.168 133.938V134.496H43.8555V138H43.1836V134.496H41.8711V133.938H45.168ZM47.4414 134.488H46.4688V135.625H47.3398C47.8516 135.625 48.0977 135.438 48.0977 135.047C48.0977 134.688 47.8672 134.488 47.4414 134.488ZM47.3945 136.172H46.4688V137.449H47.5156C48.0078 137.449 48.2734 137.227 48.2734 136.816C48.2734 136.383 47.9883 136.172 47.3945 136.172ZM45.7969 138V133.938H47.5352C48.2969 133.938 48.7617 134.332 48.7617 134.977C48.7617 135.391 48.4688 135.773 48.0938 135.852V135.883C48.6055 135.953 48.9414 136.324 48.9414 136.832C48.9414 137.551 48.4102 138 47.5469 138H45.7969ZM51.4062 138.07C50.2812 138.07 49.5234 137.262 49.5234 135.969C49.5234 134.672 50.2812 133.867 51.4062 133.867C52.5273 133.867 53.2852 134.672 53.2852 135.969C53.2852 137.262 52.5273 138.07 51.4062 138.07ZM51.4062 137.473C52.125 137.473 52.5938 136.926 52.5938 135.969C52.5938 135.012 52.125 134.465 51.4062 134.465C50.6875 134.465 50.2148 135.012 50.2148 135.969C50.2148 136.926 50.6875 137.473 51.4062 137.473ZM14.1641 148.07C13.0391 148.07 12.2812 147.262 12.2812 145.969C12.2812 144.672 13.0391 143.867 14.1641 143.867C15.2852 143.867 16.043 144.672 16.043 145.969C16.043 147.262 15.2852 148.07 14.1641 148.07ZM14.1641 147.473C14.8828 147.473 15.3516 146.926 15.3516 145.969C15.3516 145.012 14.8828 144.465 14.1641 144.465C13.4453 144.465 12.9727 145.012 12.9727 145.969C12.9727 146.926 13.4453 147.473 14.1641 147.473ZM20.1602 145.188H19.4883C19.3711 144.797 19.0391 144.465 18.4648 144.465C17.7578 144.465 17.293 145.062 17.293 145.969C17.293 146.898 17.7656 147.473 18.4727 147.473C19.0117 147.473 19.3672 147.207 19.4961 146.758H20.168C20.0352 147.527 19.3828 148.07 18.4688 148.07C17.3398 148.07 16.6016 147.262 16.6016 145.969C16.6016 144.703 17.3359 143.867 18.4609 143.867C19.4414 143.867 20.0391 144.496 20.1602 145.188ZM22.5078 144.457C21.8711 144.457 21.4258 144.945 21.3828 145.621H23.5898C23.5742 144.941 23.1484 144.457 22.5078 144.457ZM23.5742 146.836H24.2422C24.125 147.547 23.4375 148.07 22.5508 148.07C21.3867 148.07 20.6797 147.262 20.6797 145.984C20.6797 144.723 21.3984 143.867 22.5195 143.867C23.6172 143.867 24.293 144.664 24.293 145.895V146.152H21.3789V146.191C21.3789 146.969 21.8359 147.48 22.5664 147.48C23.082 147.48 23.4609 147.219 23.5742 146.836ZM25.7188 148H25.0469V143.938H25.7188V146.961H25.75L27.7812 143.938H28.4531V148H27.7812V144.977H27.75L25.7188 148ZM25.5664 142.18H26.0664C26.0664 142.633 26.3594 142.988 26.8242 142.988C27.2891 142.988 27.582 142.633 27.582 142.18H28.082C28.082 142.898 27.5703 143.391 26.8242 143.391C26.0781 143.391 25.5664 142.898 25.5664 142.18Z" fill="white"/>
<mask id="path-96-inside-32_252_665" fill="white">
<path d="M71 120H142V160H71V120Z"/>
</mask>
<path d="M71 120V119H70V120H71ZM71 121H142V119H71V121ZM72 160V120H70V160H72Z" fill="white" fill-opacity="0.2" mask="url(#path-96-inside-32_252_665)"/>
<path d="M106.652 144.135C105.516 144.135 104.59 143.561 104.068 142.535C103.688 141.873 103.5 141.012 103.5 139.951C103.5 137.115 104.707 135.41 106.711 135.41C108.117 135.41 109.195 136.26 109.436 137.555H108.627C108.416 136.693 107.648 136.119 106.705 136.119C105.158 136.119 104.273 137.561 104.273 140.068H104.291C104.637 139.119 105.639 138.463 106.781 138.463C108.387 138.463 109.588 139.658 109.588 141.258C109.588 142.916 108.346 144.135 106.652 144.135ZM106.646 143.42C107.836 143.42 108.773 142.477 108.773 141.281C108.773 140.068 107.877 139.172 106.652 139.172C105.445 139.172 104.502 140.074 104.502 141.223C104.502 142.453 105.434 143.42 106.646 143.42Z" fill="white"/>
<mask id="path-99-inside-33_252_665" fill="white">
<path d="M142 120H213V160H142V120Z"/>
</mask>
<path d="M142 120V119H141V120H142ZM142 121H213V119H142V121ZM143 160V120H141V160H143Z" fill="white" fill-opacity="0.2" mask="url(#path-99-inside-33_252_665)"/>
<path d="M177.652 144.135C176.516 144.135 175.59 143.561 175.068 142.535C174.688 141.873 174.5 141.012 174.5 139.951C174.5 137.115 175.707 135.41 177.711 135.41C179.117 135.41 180.195 136.26 180.436 137.555H179.627C179.416 136.693 178.648 136.119 177.705 136.119C176.158 136.119 175.273 137.561 175.273 140.068H175.291C175.637 139.119 176.639 138.463 177.781 138.463C179.387 138.463 180.588 139.658 180.588 141.258C180.588 142.916 179.346 144.135 177.652 144.135ZM177.646 143.42C178.836 143.42 179.773 142.477 179.773 141.281C179.773 140.068 178.877 139.172 177.652 139.172C176.445 139.172 175.502 140.074 175.502 141.223C175.502 142.453 176.434 143.42 177.646 143.42Z" fill="white"/>
<mask id="path-102-inside-34_252_665" fill="white">
<path d="M213 120H284V160H213V120Z"/>
</mask>
<path d="M213 120V119H212V120H213ZM213 121H284V119H213V121ZM214 160V120H212V160H214Z" fill="white" fill-opacity="0.2" mask="url(#path-102-inside-34_252_665)"/>
<path d="M248.652 144.135C247.516 144.135 246.59 143.561 246.068 142.535C245.688 141.873 245.5 141.012 245.5 139.951C245.5 137.115 246.707 135.41 248.711 135.41C250.117 135.41 251.195 136.26 251.436 137.555H250.627C250.416 136.693 249.648 136.119 248.705 136.119C247.158 136.119 246.273 137.561 246.273 140.068H246.291C246.637 139.119 247.639 138.463 248.781 138.463C250.387 138.463 251.588 139.658 251.588 141.258C251.588 142.916 250.346 144.135 248.652 144.135ZM248.646 143.42C249.836 143.42 250.773 142.477 250.773 141.281C250.773 140.068 249.877 139.172 248.652 139.172C247.445 139.172 246.502 140.074 246.502 141.223C246.502 142.453 247.434 143.42 248.646 143.42Z" fill="white"/>
<mask id="path-105-inside-35_252_665" fill="white">
<path d="M284 120H355V160H284V120Z"/>
</mask>
<path d="M284 120V119H283V120H284ZM284 121H355V119H284V121ZM285 160V120H283V160H285Z" fill="white" fill-opacity="0.2" mask="url(#path-105-inside-35_252_665)"/>
<path d="M319.652 144.135C318.516 144.135 317.59 143.561 317.068 142.535C316.688 141.873 316.5 141.012 316.5 139.951C316.5 137.115 317.707 135.41 319.711 135.41C321.117 135.41 322.195 136.26 322.436 137.555H321.627C321.416 136.693 320.648 136.119 319.705 136.119C318.158 136.119 317.273 137.561 317.273 140.068H317.291C317.637 139.119 318.639 138.463 319.781 138.463C321.387 138.463 322.588 139.658 322.588 141.258C322.588 142.916 321.346 144.135 319.652 144.135ZM319.646 143.42C320.836 143.42 321.773 142.477 321.773 141.281C321.773 140.068 320.877 139.172 319.652 139.172C318.445 139.172 317.502 140.074 317.502 141.223C317.502 142.453 318.434 143.42 319.646 143.42Z" fill="white"/>
<mask id="path-108-inside-36_252_665" fill="white">
<path d="M355 120H426V160H355V120Z"/>
</mask>
<path d="M355 120V119H354V120H355ZM355 121H426V119H355V121ZM356 160V120H354V160H356Z" fill="white" fill-opacity="0.2" mask="url(#path-108-inside-36_252_665)"/>
<path d="M390.652 144.135C389.516 144.135 388.59 143.561 388.068 142.535C387.688 141.873 387.5 141.012 387.5 139.951C387.5 137.115 388.707 135.41 390.711 135.41C392.117 135.41 393.195 136.26 393.436 137.555H392.627C392.416 136.693 391.648 136.119 390.705 136.119C389.158 136.119 388.273 137.561 388.273 140.068H388.291C388.637 139.119 389.639 138.463 390.781 138.463C392.387 138.463 393.588 139.658 393.588 141.258C393.588 142.916 392.346 144.135 390.652 144.135ZM390.646 143.42C391.836 143.42 392.773 142.477 392.773 141.281C392.773 140.068 391.877 139.172 390.652 139.172C389.445 139.172 388.502 140.074 388.502 141.223C388.502 142.453 389.434 143.42 390.646 143.42Z" fill="white"/>
<mask id="path-111-inside-37_252_665" fill="white">
<path d="M426 120H497V160H426V120Z"/>
</mask>
<path d="M426 120V119H425V120H426ZM426 121H497V119H426V121ZM427 160V120H425V160H427Z" fill="white" fill-opacity="0.2" mask="url(#path-111-inside-37_252_665)"/>
<path d="M461.652 144.135C460.516 144.135 459.59 143.561 459.068 142.535C458.688 141.873 458.5 141.012 458.5 139.951C458.5 137.115 459.707 135.41 461.711 135.41C463.117 135.41 464.195 136.26 464.436 137.555H463.627C463.416 136.693 462.648 136.119 461.705 136.119C460.158 136.119 459.273 137.561 459.273 140.068H459.291C459.637 139.119 460.639 138.463 461.781 138.463C463.387 138.463 464.588 139.658 464.588 141.258C464.588 142.916 463.346 144.135 461.652 144.135ZM461.646 143.42C462.836 143.42 463.773 142.477 463.773 141.281C463.773 140.068 462.877 139.172 461.652 139.172C460.445 139.172 459.502 140.074 459.502 141.223C459.502 142.453 460.434 143.42 461.646 143.42Z" fill="white"/>
<mask id="path-114-inside-38_252_665" fill="white">
<path d="M497 120H568V160H497V120Z"/>
</mask>
<path d="M497 120V119H496V120H497ZM497 121H568V119H497V121ZM498 160V120H496V160H498Z" fill="white" fill-opacity="0.2" mask="url(#path-114-inside-38_252_665)"/>
<path d="M532.652 144.135C531.516 144.135 530.59 143.561 530.068 142.535C529.688 141.873 529.5 141.012 529.5 139.951C529.5 137.115 530.707 135.41 532.711 135.41C534.117 135.41 535.195 136.26 535.436 137.555H534.627C534.416 136.693 533.648 136.119 532.705 136.119C531.158 136.119 530.273 137.561 530.273 140.068H530.291C530.637 139.119 531.639 138.463 532.781 138.463C534.387 138.463 535.588 139.658 535.588 141.258C535.588 142.916 534.346 144.135 532.652 144.135ZM532.646 143.42C533.836 143.42 534.773 142.477 534.773 141.281C534.773 140.068 533.877 139.172 532.652 139.172C531.445 139.172 530.502 140.074 530.502 141.223C530.502 142.453 531.434 143.42 532.646 143.42Z" fill="white"/>
<mask id="path-117-inside-39_252_665" fill="white">
<path d="M568 120H639V160H568V120Z"/>
</mask>
<path d="M568 120V119H567V120H568ZM568 121H639V119H568V121ZM569 160V120H567V160H569Z" fill="white" fill-opacity="0.2" mask="url(#path-117-inside-39_252_665)"/>
<path d="M603.652 144.135C602.516 144.135 601.59 143.561 601.068 142.535C600.688 141.873 600.5 141.012 600.5 139.951C600.5 137.115 601.707 135.41 603.711 135.41C605.117 135.41 606.195 136.26 606.436 137.555H605.627C605.416 136.693 604.648 136.119 603.705 136.119C602.158 136.119 601.273 137.561 601.273 140.068H601.291C601.637 139.119 602.639 138.463 603.781 138.463C605.387 138.463 606.588 139.658 606.588 141.258C606.588 142.916 605.346 144.135 603.652 144.135ZM603.646 143.42C604.836 143.42 605.773 142.477 605.773 141.281C605.773 140.068 604.877 139.172 603.652 139.172C602.445 139.172 601.502 140.074 601.502 141.223C601.502 142.453 602.434 143.42 603.646 143.42Z" fill="white"/>
<mask id="path-120-inside-40_252_665" fill="white">
<path d="M639 120H710V160H639V120Z"/>
</mask>
<path d="M639 120V119H638V120H639ZM639 121H710V119H639V121ZM640 160V120H638V160H640Z" fill="white" fill-opacity="0.2" mask="url(#path-120-inside-40_252_665)"/>
<path d="M674.652 144.135C673.516 144.135 672.59 143.561 672.068 142.535C671.688 141.873 671.5 141.012 671.5 139.951C671.5 137.115 672.707 135.41 674.711 135.41C676.117 135.41 677.195 136.26 677.436 137.555H676.627C676.416 136.693 675.648 136.119 674.705 136.119C673.158 136.119 672.273 137.561 672.273 140.068H672.291C672.637 139.119 673.639 138.463 674.781 138.463C676.387 138.463 677.588 139.658 677.588 141.258C677.588 142.916 676.346 144.135 674.652 144.135ZM674.646 143.42C675.836 143.42 676.773 142.477 676.773 141.281C676.773 140.068 675.877 139.172 674.652 139.172C673.445 139.172 672.502 140.074 672.502 141.223C672.502 142.453 673.434 143.42 674.646 143.42Z" fill="white"/>
</g>
</g>
<rect x="0.5" y="0.5" width="709" height="159" rx="3.5" stroke="white" stroke-opacity="0.2"/>
<defs>
<clipPath id="clip0_252_665">
<rect width="710" height="160" rx="4" fill="white"/>
</clipPath>
<clipPath id="clip1_252_665">
<rect width="710" height="40" fill="white"/>
</clipPath>
<clipPath id="clip2_252_665">
<rect width="710" height="40" fill="white" transform="translate(0 40)"/>
</clipPath>
<clipPath id="clip3_252_665">
<rect width="710" height="40" fill="white" transform="translate(0 80)"/>
</clipPath>
<clipPath id="clip4_252_665">
<rect width="710" height="40" fill="white" transform="translate(0 120)"/>
</clipPath>
</defs>
</svg>
