<svg width="645" height="138" viewBox="0 0 645 138" fill="none" xmlns="http://www.w3.org/2000/svg">
<g clip-path="url(#clip0_302_827)">
<g clip-path="url(#clip1_302_827)">
<rect width="645" height="30" fill="#86A2FF" fill-opacity="0.2"/>
<mask id="path-3-inside-1_302_827" fill="white">
<path d="M0 0H107.5V30H0V0Z"/>
</mask>
<path d="M0 0V-1H-1V0H0ZM0 1H107.5V-1H0V1ZM1 30V0H-1V30H1Z" fill="white" fill-opacity="0.2" mask="url(#path-3-inside-1_302_827)"/>
<path d="M18.1016 18H17.4453V13.6562H17.418L15.6211 17.9609H15.0273L13.2305 13.6562H13.2031V18H12.5469V12.3633H13.3633L15.3086 17.0664H15.3398L17.2852 12.3633H18.1016V18ZM20.7734 18.0703C19.6484 18.0703 18.8906 17.2617 18.8906 15.9688C18.8906 14.6719 19.6484 13.8672 20.7734 13.8672C21.8945 13.8672 22.6523 14.6719 22.6523 15.9688C22.6523 17.2617 21.8945 18.0703 20.7734 18.0703ZM20.7734 17.4727C21.4922 17.4727 21.9609 16.9258 21.9609 15.9688C21.9609 15.0117 21.4922 14.4648 20.7734 14.4648C20.0547 14.4648 19.582 15.0117 19.582 15.9688C19.582 16.9258 20.0547 17.4727 20.7734 17.4727ZM24.8789 18.0703C23.8438 18.0703 23.1406 17.2422 23.1406 15.9688C23.1406 14.6953 23.8398 13.8672 24.8633 13.8672C25.4453 13.8672 25.9141 14.1523 26.1562 14.5977H26.1719V12.3633H26.8516V18H26.2031V17.3125H26.1914C25.9297 17.7812 25.4648 18.0703 24.8789 18.0703ZM25.0078 14.4648C24.2891 14.4648 23.8359 15.0508 23.8359 15.9688C23.8359 16.8906 24.2891 17.4727 25.0078 17.4727C25.707 17.4727 26.1758 16.8789 26.1758 15.9688C26.1758 15.0625 25.707 14.4648 25.0078 14.4648ZM29.3984 14.457C28.7617 14.457 28.3164 14.9453 28.2734 15.6211H30.4805C30.4648 14.9414 30.0391 14.457 29.3984 14.457ZM30.4648 16.8359H31.1328C31.0156 17.5469 30.3281 18.0703 29.4414 18.0703C28.2773 18.0703 27.5703 17.2617 27.5703 15.9844C27.5703 14.7227 28.2891 13.8672 29.4102 13.8672C30.5078 13.8672 31.1836 14.6641 31.1836 15.8945V16.1523H28.2695V16.1914C28.2695 16.9688 28.7266 17.4805 29.457 17.4805C29.9727 17.4805 30.3516 17.2188 30.4648 16.8359ZM31.9062 18V12.3633H32.5859V18H31.9062Z" fill="white"/>
<mask id="path-6-inside-2_302_827" fill="white">
<path d="M107.5 0H215V30H107.5V0Z"/>
</mask>
<path d="M107.5 0V-1H106.5V0H107.5ZM107.5 1H215V-1H107.5V1ZM108.5 30V0H106.5V30H108.5Z" fill="white" fill-opacity="0.2" mask="url(#path-6-inside-2_302_827)"/>
<path d="M141.984 16.4492H142.691C142.758 17.0586 143.336 17.4609 144.141 17.4609C144.902 17.4609 145.457 17.0586 145.457 16.5039C145.457 16.0273 145.125 15.7344 144.367 15.5391L143.645 15.3516C142.605 15.0859 142.145 14.6289 142.145 13.8633C142.145 12.9258 142.965 12.2695 144.137 12.2695C145.258 12.2695 146.07 12.9336 146.102 13.8789H145.398C145.336 13.2734 144.848 12.9023 144.113 12.9023C143.383 12.9023 142.875 13.2812 142.875 13.832C142.875 14.2578 143.188 14.5117 143.953 14.7109L144.543 14.8672C145.711 15.1602 146.184 15.6094 146.184 16.418C146.184 17.4492 145.371 18.0938 144.074 18.0938C142.879 18.0938 142.051 17.4453 141.984 16.4492ZM147.707 12.9883V15.1484H149.055C149.777 15.1484 150.188 14.7578 150.188 14.0664C150.188 13.3906 149.75 12.9883 149.023 12.9883H147.707ZM147.707 15.7695V18H147.004V12.3633H149.117C150.203 12.3633 150.914 13.0273 150.914 14.043C150.914 14.8281 150.488 15.4375 149.781 15.6602L151.086 18H150.262L149.055 15.7695H147.707ZM153.93 18H153.227V12.9961H151.449V12.3633H155.707V12.9961H153.93V18ZM156.562 12.957H157.242V13.9375H158.031V14.4961H157.242V16.9102C157.242 17.2812 157.398 17.4492 157.746 17.4492C157.824 17.4492 157.98 17.4375 158.027 17.4297V18C157.945 18.0195 157.758 18.0312 157.598 18.0312C156.852 18.0312 156.562 17.7266 156.562 16.9453V14.4961H155.957V13.9375H156.562V12.957ZM161.336 18V16.8281H158.504V16.1914C158.984 15.3008 159.645 14.2734 160.977 12.3633H162.016V16.2109H162.812V16.8281H162.016V18H161.336ZM159.199 16.1953V16.2109H161.336V12.9492H161.324C160.258 14.4727 159.645 15.4141 159.199 16.1953ZM166.039 16.0312H163.477V15.3984H166.039V16.0312ZM168.867 18.0938C167.789 18.0938 166.992 17.4219 166.934 16.4609H167.625C167.688 17.0625 168.199 17.4766 168.875 17.4766C169.641 17.4766 170.172 16.9453 170.172 16.1875C170.172 15.4297 169.637 14.8867 168.887 14.8867C168.359 14.8867 167.91 15.125 167.68 15.5195H167.02L167.328 12.3633H170.555V12.9883H167.906L167.734 14.8242H167.75C168.004 14.4844 168.473 14.2812 169.012 14.2812C170.094 14.2812 170.875 15.0742 170.875 16.168C170.875 17.3008 170.043 18.0938 168.867 18.0938ZM173.648 18.0977C172.805 18.0977 172.133 17.6406 171.785 16.8281C171.598 16.3945 171.508 15.8867 171.508 15.2773C171.508 13.3789 172.316 12.2656 173.695 12.2656C174.652 12.2656 175.387 12.8398 175.566 13.7266H174.852C174.699 13.2148 174.246 12.8867 173.688 12.8867C172.746 12.8867 172.211 13.7227 172.188 15.2227H172.199C172.453 14.6719 173.074 14.3086 173.773 14.3086C174.848 14.3086 175.645 15.1016 175.645 16.1719C175.645 17.2852 174.805 18.0977 173.648 18.0977ZM173.641 17.4727C174.359 17.4727 174.93 16.9062 174.93 16.1953C174.93 15.457 174.398 14.9258 173.652 14.9258C172.906 14.9258 172.355 15.457 172.355 16.1758C172.355 16.8984 172.918 17.4727 173.641 17.4727ZM178.371 18.0938C177.055 18.0938 176.293 16.9609 176.293 15.1797C176.293 13.4141 177.062 12.2695 178.371 12.2695C179.68 12.2695 180.441 13.4062 180.441 15.1758C180.441 16.957 179.684 18.0938 178.371 18.0938ZM178.371 17.4805C179.25 17.4805 179.734 16.5859 179.734 15.1797C179.734 13.793 179.242 12.8867 178.371 12.8867C177.5 12.8867 177 13.8008 177 15.1758C177 16.582 177.488 17.4805 178.371 17.4805Z" fill="white"/>
<mask id="path-9-inside-3_302_827" fill="white">
<path d="M215 0H322.5V30H215V0Z"/>
</mask>
<path d="M215 0V-1H214V0H215ZM215 1H322.5V-1H215V1ZM216 30V0H214V30H216Z" fill="white" fill-opacity="0.2" mask="url(#path-9-inside-3_302_827)"/>
<path d="M249.773 16.4492H250.48C250.547 17.0586 251.125 17.4609 251.93 17.4609C252.691 17.4609 253.246 17.0586 253.246 16.5039C253.246 16.0273 252.914 15.7344 252.156 15.5391L251.434 15.3516C250.395 15.0859 249.934 14.6289 249.934 13.8633C249.934 12.9258 250.754 12.2695 251.926 12.2695C253.047 12.2695 253.859 12.9336 253.891 13.8789H253.188C253.125 13.2734 252.637 12.9023 251.902 12.9023C251.172 12.9023 250.664 13.2812 250.664 13.832C250.664 14.2578 250.977 14.5117 251.742 14.7109L252.332 14.8672C253.5 15.1602 253.973 15.6094 253.973 16.418C253.973 17.4492 253.16 18.0938 251.863 18.0938C250.668 18.0938 249.84 17.4453 249.773 16.4492ZM255.496 12.9883V15.1484H256.844C257.566 15.1484 257.977 14.7578 257.977 14.0664C257.977 13.3906 257.539 12.9883 256.812 12.9883H255.496ZM255.496 15.7695V18H254.793V12.3633H256.906C257.992 12.3633 258.703 13.0273 258.703 14.043C258.703 14.8281 258.277 15.4375 257.57 15.6602L258.875 18H258.051L256.844 15.7695H255.496ZM261.719 18H261.016V12.9961H259.238V12.3633H263.496V12.9961H261.719V18ZM264.352 12.957H265.031V13.9375H265.82V14.4961H265.031V16.9102C265.031 17.2812 265.188 17.4492 265.535 17.4492C265.613 17.4492 265.77 17.4375 265.816 17.4297V18C265.734 18.0195 265.547 18.0312 265.387 18.0312C264.641 18.0312 264.352 17.7266 264.352 16.9453V14.4961H263.746V13.9375H264.352V12.957ZM266.887 18L269.438 13.0039V12.9883H266.402V12.3633H270.133V13.0156L267.625 18H266.887ZM273.477 16.0312H270.914V15.3984H273.477V16.0312ZM276.16 18.0938C275.199 18.0938 274.461 17.5156 274.289 16.6328H275.004C275.152 17.1445 275.609 17.4805 276.168 17.4805C277.105 17.4805 277.645 16.6289 277.664 15.1328H277.66C277.656 15.1328 277.656 15.1328 277.652 15.1328C277.414 15.6914 276.797 16.0547 276.078 16.0547C275.004 16.0547 274.207 15.2617 274.207 14.1914C274.207 13.0781 275.047 12.2656 276.203 12.2656C277.051 12.2656 277.723 12.7227 278.066 13.5312C278.254 13.9648 278.344 14.4727 278.344 15.0859C278.344 16.9844 277.539 18.0938 276.16 18.0938ZM276.199 15.4375C276.945 15.4375 277.5 14.9062 277.5 14.1875C277.5 13.4648 276.938 12.8984 276.211 12.8984C275.488 12.8984 274.918 13.4609 274.918 14.168C274.918 14.9023 275.461 15.4375 276.199 15.4375ZM279.043 13.9883C279.043 13.0039 279.84 12.2695 280.902 12.2695C281.91 12.2695 282.703 12.9531 282.703 13.8164C282.703 14.4453 282.418 14.9141 281.477 15.8867L280.051 17.3594V17.375H282.797V18H279.078V17.5156L281.062 15.4258C281.82 14.6289 282 14.3281 282 13.8594C282 13.3164 281.504 12.8828 280.883 12.8828C280.223 12.8828 279.723 13.3594 279.723 13.9883V13.9922H279.043V13.9883ZM285.582 18.0938C284.266 18.0938 283.504 16.9609 283.504 15.1797C283.504 13.4141 284.273 12.2695 285.582 12.2695C286.891 12.2695 287.652 13.4062 287.652 15.1758C287.652 16.957 286.895 18.0938 285.582 18.0938ZM285.582 17.4805C286.461 17.4805 286.945 16.5859 286.945 15.1797C286.945 13.793 286.453 12.8867 285.582 12.8867C284.711 12.8867 284.211 13.8008 284.211 15.1758C284.211 16.582 284.699 17.4805 285.582 17.4805Z" fill="white"/>
<mask id="path-12-inside-4_302_827" fill="white">
<path d="M322.5 0H430V30H322.5V0Z"/>
</mask>
<path d="M322.5 0V-1H321.5V0H322.5ZM322.5 1H430V-1H322.5V1ZM323.5 30V0H321.5V30H323.5Z" fill="white" fill-opacity="0.2" mask="url(#path-12-inside-4_302_827)"/>
<path d="M357.723 16.4492H358.43C358.496 17.0586 359.074 17.4609 359.879 17.4609C360.641 17.4609 361.195 17.0586 361.195 16.5039C361.195 16.0273 360.863 15.7344 360.105 15.5391L359.383 15.3516C358.344 15.0859 357.883 14.6289 357.883 13.8633C357.883 12.9258 358.703 12.2695 359.875 12.2695C360.996 12.2695 361.809 12.9336 361.84 13.8789H361.137C361.074 13.2734 360.586 12.9023 359.852 12.9023C359.121 12.9023 358.613 13.2812 358.613 13.832C358.613 14.2578 358.926 14.5117 359.691 14.7109L360.281 14.8672C361.449 15.1602 361.922 15.6094 361.922 16.418C361.922 17.4492 361.109 18.0938 359.812 18.0938C358.617 18.0938 357.789 17.4453 357.723 16.4492ZM363.445 12.9883V15.1484H364.793C365.516 15.1484 365.926 14.7578 365.926 14.0664C365.926 13.3906 365.488 12.9883 364.762 12.9883H363.445ZM363.445 15.7695V18H362.742V12.3633H364.855C365.941 12.3633 366.652 13.0273 366.652 14.043C366.652 14.8281 366.227 15.4375 365.52 15.6602L366.824 18H366L364.793 15.7695H363.445ZM369.668 18H368.965V12.9961H367.188V12.3633H371.445V12.9961H369.668V18ZM372.301 12.957H372.98V13.9375H373.77V14.4961H372.98V16.9102C372.98 17.2812 373.137 17.4492 373.484 17.4492C373.562 17.4492 373.719 17.4375 373.766 17.4297V18C373.684 18.0195 373.496 18.0312 373.336 18.0312C372.59 18.0312 372.301 17.7266 372.301 16.9453V14.4961H371.695V13.9375H372.301V12.957ZM376.449 18.0938C375.258 18.0938 374.406 17.418 374.406 16.4766C374.406 15.7734 374.891 15.1953 375.617 15.0273V15.0117C375.008 14.8242 374.629 14.3438 374.629 13.75C374.629 12.8984 375.402 12.2695 376.449 12.2695C377.504 12.2695 378.266 12.8945 378.266 13.7539C378.266 14.3398 377.895 14.8164 377.281 15.0117V15.0273C378.012 15.1992 378.496 15.7773 378.496 16.4766C378.496 17.4219 377.645 18.0938 376.449 18.0938ZM376.449 17.4805C377.227 17.4805 377.777 17.0391 377.777 16.4258C377.777 15.8047 377.227 15.3672 376.449 15.3672C375.676 15.3672 375.121 15.8086 375.121 16.4258C375.121 17.0391 375.676 17.4805 376.449 17.4805ZM376.449 14.75C377.105 14.75 377.57 14.3633 377.57 13.8164C377.57 13.2617 377.109 12.875 376.449 12.875C375.789 12.875 375.328 13.2656 375.328 13.8164C375.328 14.3633 375.789 14.75 376.449 14.75ZM381.848 16.0312H379.285V15.3984H381.848V16.0312ZM383.062 18L385.613 13.0039V12.9883H382.578V12.3633H386.309V13.0156L383.801 18H383.062ZM388.551 18V13.1094H388.535L387.043 14.1836V13.4414L388.543 12.3633H389.23V18H388.551ZM392.633 18.0938C391.316 18.0938 390.555 16.9609 390.555 15.1797C390.555 13.4141 391.324 12.2695 392.633 12.2695C393.941 12.2695 394.703 13.4062 394.703 15.1758C394.703 16.957 393.945 18.0938 392.633 18.0938ZM392.633 17.4805C393.512 17.4805 393.996 16.5859 393.996 15.1797C393.996 13.793 393.504 12.8867 392.633 12.8867C391.762 12.8867 391.262 13.8008 391.262 15.1758C391.262 16.582 391.75 17.4805 392.633 17.4805Z" fill="white"/>
<mask id="path-15-inside-5_302_827" fill="white">
<path d="M430 0H537.5V30H430V0Z"/>
</mask>
<path d="M430 0V-1H429V0H430ZM430 1H537.5V-1H430V1ZM431 30V0H429V30H431Z" fill="white" fill-opacity="0.2" mask="url(#path-15-inside-5_302_827)"/>
<path d="M461.688 16.4492H462.395C462.461 17.0586 463.039 17.4609 463.844 17.4609C464.605 17.4609 465.16 17.0586 465.16 16.5039C465.16 16.0273 464.828 15.7344 464.07 15.5391L463.348 15.3516C462.309 15.0859 461.848 14.6289 461.848 13.8633C461.848 12.9258 462.668 12.2695 463.84 12.2695C464.961 12.2695 465.773 12.9336 465.805 13.8789H465.102C465.039 13.2734 464.551 12.9023 463.816 12.9023C463.086 12.9023 462.578 13.2812 462.578 13.832C462.578 14.2578 462.891 14.5117 463.656 14.7109L464.246 14.8672C465.414 15.1602 465.887 15.6094 465.887 16.418C465.887 17.4492 465.074 18.0938 463.777 18.0938C462.582 18.0938 461.754 17.4453 461.688 16.4492ZM467.41 12.9883V15.1484H468.758C469.48 15.1484 469.891 14.7578 469.891 14.0664C469.891 13.3906 469.453 12.9883 468.727 12.9883H467.41ZM467.41 15.7695V18H466.707V12.3633H468.82C469.906 12.3633 470.617 13.0273 470.617 14.043C470.617 14.8281 470.191 15.4375 469.484 15.6602L470.789 18H469.965L468.758 15.7695H467.41ZM473.633 18H472.93V12.9961H471.152V12.3633H475.41V12.9961H473.633V18ZM476.266 12.957H476.945V13.9375H477.734V14.4961H476.945V16.9102C476.945 17.2812 477.102 17.4492 477.449 17.4492C477.527 17.4492 477.684 17.4375 477.73 17.4297V18C477.648 18.0195 477.461 18.0312 477.301 18.0312C476.555 18.0312 476.266 17.7266 476.266 16.9453V14.4961H475.66V13.9375H476.266V12.957ZM479.914 18V13.1094H479.898L478.406 14.1836V13.4414L479.906 12.3633H480.594V18H479.914ZM483.996 18.0938C482.68 18.0938 481.918 16.9609 481.918 15.1797C481.918 13.4141 482.688 12.2695 483.996 12.2695C485.305 12.2695 486.066 13.4062 486.066 15.1758C486.066 16.957 485.309 18.0938 483.996 18.0938ZM483.996 17.4805C484.875 17.4805 485.359 16.5859 485.359 15.1797C485.359 13.793 484.867 12.8867 483.996 12.8867C483.125 12.8867 482.625 13.8008 482.625 15.1758C482.625 16.582 483.113 17.4805 483.996 17.4805ZM489.414 16.0312H486.852V15.3984H489.414V16.0312ZM491.508 18V13.1094H491.492L490 14.1836V13.4414L491.5 12.3633H492.188V18H491.508ZM493.582 13.9883C493.582 13.0039 494.379 12.2695 495.441 12.2695C496.449 12.2695 497.242 12.9531 497.242 13.8164C497.242 14.4453 496.957 14.9141 496.016 15.8867L494.59 17.3594V17.375H497.336V18H493.617V17.5156L495.602 15.4258C496.359 14.6289 496.539 14.3281 496.539 13.8594C496.539 13.3164 496.043 12.8828 495.422 12.8828C494.762 12.8828 494.262 13.3594 494.262 13.9883V13.9922H493.582V13.9883ZM499.586 18V13.1094H499.57L498.078 14.1836V13.4414L499.578 12.3633H500.266V18H499.586ZM503.668 18.0938C502.352 18.0938 501.59 16.9609 501.59 15.1797C501.59 13.4141 502.359 12.2695 503.668 12.2695C504.977 12.2695 505.738 13.4062 505.738 15.1758C505.738 16.957 504.98 18.0938 503.668 18.0938ZM503.668 17.4805C504.547 17.4805 505.031 16.5859 505.031 15.1797C505.031 13.793 504.539 12.8867 503.668 12.8867C502.797 12.8867 502.297 13.8008 502.297 15.1758C502.297 16.582 502.785 17.4805 503.668 17.4805Z" fill="white"/>
<mask id="path-18-inside-6_302_827" fill="white">
<path d="M537.5 0H645V30H537.5V0Z"/>
</mask>
<path d="M537.5 0V-1H536.5V0H537.5ZM537.5 1H645V-1H537.5V1ZM538.5 30V0H536.5V30H538.5Z" fill="white" fill-opacity="0.2" mask="url(#path-18-inside-6_302_827)"/>
<path d="M570.234 16.4492H570.941C571.008 17.0586 571.586 17.4609 572.391 17.4609C573.152 17.4609 573.707 17.0586 573.707 16.5039C573.707 16.0273 573.375 15.7344 572.617 15.5391L571.895 15.3516C570.855 15.0859 570.395 14.6289 570.395 13.8633C570.395 12.9258 571.215 12.2695 572.387 12.2695C573.508 12.2695 574.32 12.9336 574.352 13.8789H573.648C573.586 13.2734 573.098 12.9023 572.363 12.9023C571.633 12.9023 571.125 13.2812 571.125 13.832C571.125 14.2578 571.438 14.5117 572.203 14.7109L572.793 14.8672C573.961 15.1602 574.434 15.6094 574.434 16.418C574.434 17.4492 573.621 18.0938 572.324 18.0938C571.129 18.0938 570.301 17.4453 570.234 16.4492ZM575.957 12.9883V15.1484H577.305C578.027 15.1484 578.438 14.7578 578.438 14.0664C578.438 13.3906 578 12.9883 577.273 12.9883H575.957ZM575.957 15.7695V18H575.254V12.3633H577.367C578.453 12.3633 579.164 13.0273 579.164 14.043C579.164 14.8281 578.738 15.4375 578.031 15.6602L579.336 18H578.512L577.305 15.7695H575.957ZM582.18 18H581.477V12.9961H579.699V12.3633H583.957V12.9961H582.18V18ZM584.812 12.957H585.492V13.9375H586.281V14.4961H585.492V16.9102C585.492 17.2812 585.648 17.4492 585.996 17.4492C586.074 17.4492 586.23 17.4375 586.277 17.4297V18C586.195 18.0195 586.008 18.0312 585.848 18.0312C585.102 18.0312 584.812 17.7266 584.812 16.9453V14.4961H584.207V13.9375H584.812V12.957ZM588.461 18V13.1094H588.445L586.953 14.1836V13.4414L588.453 12.3633H589.141V18H588.461ZM592.508 18.0938C591.43 18.0938 590.633 17.4219 590.574 16.4609H591.266C591.328 17.0625 591.84 17.4766 592.516 17.4766C593.281 17.4766 593.812 16.9453 593.812 16.1875C593.812 15.4297 593.277 14.8867 592.527 14.8867C592 14.8867 591.551 15.125 591.32 15.5195H590.66L590.969 12.3633H594.195V12.9883H591.547L591.375 14.8242H591.391C591.645 14.4844 592.113 14.2812 592.652 14.2812C593.734 14.2812 594.516 15.0742 594.516 16.168C594.516 17.3008 593.684 18.0938 592.508 18.0938ZM597.789 16.0312H595.227V15.3984H597.789V16.0312ZM600.473 18.0938C599.512 18.0938 598.773 17.5156 598.602 16.6328H599.316C599.465 17.1445 599.922 17.4805 600.48 17.4805C601.418 17.4805 601.957 16.6289 601.977 15.1328H601.973C601.969 15.1328 601.969 15.1328 601.965 15.1328C601.727 15.6914 601.109 16.0547 600.391 16.0547C599.316 16.0547 598.52 15.2617 598.52 14.1914C598.52 13.0781 599.359 12.2656 600.516 12.2656C601.363 12.2656 602.035 12.7227 602.379 13.5312C602.566 13.9648 602.656 14.4727 602.656 15.0859C602.656 16.9844 601.852 18.0938 600.473 18.0938ZM600.512 15.4375C601.258 15.4375 601.812 14.9062 601.812 14.1875C601.812 13.4648 601.25 12.8984 600.523 12.8984C599.801 12.8984 599.23 13.4609 599.23 14.168C599.23 14.9023 599.773 15.4375 600.512 15.4375ZM605.406 18.0938C604.328 18.0938 603.531 17.4219 603.473 16.4609H604.164C604.227 17.0625 604.738 17.4766 605.414 17.4766C606.18 17.4766 606.711 16.9453 606.711 16.1875C606.711 15.4297 606.176 14.8867 605.426 14.8867C604.898 14.8867 604.449 15.125 604.219 15.5195H603.559L603.867 12.3633H607.094V12.9883H604.445L604.273 14.8242H604.289C604.543 14.4844 605.012 14.2812 605.551 14.2812C606.633 14.2812 607.414 15.0742 607.414 16.168C607.414 17.3008 606.582 18.0938 605.406 18.0938ZM610.121 18.0938C608.805 18.0938 608.043 16.9609 608.043 15.1797C608.043 13.4141 608.812 12.2695 610.121 12.2695C611.43 12.2695 612.191 13.4062 612.191 15.1758C612.191 16.957 611.434 18.0938 610.121 18.0938ZM610.121 17.4805C611 17.4805 611.484 16.5859 611.484 15.1797C611.484 13.793 610.992 12.8867 610.121 12.8867C609.25 12.8867 608.75 13.8008 608.75 15.1758C608.75 16.582 609.238 17.4805 610.121 17.4805Z" fill="white"/>
</g>
<g clip-path="url(#clip2_302_827)">
<rect width="645" height="36" transform="translate(0 30)" fill="#86A2FF" fill-opacity="0.2"/>
<mask id="path-21-inside-7_302_827" fill="white">
<path d="M0 30H107.5V66H0V30Z"/>
</mask>
<path d="M0 30V29H-1V30H0ZM0 31H107.5V29H0V31ZM1 66V30H-1V66H1Z" fill="white" fill-opacity="0.2" mask="url(#path-21-inside-7_302_827)"/>
<path d="M16.2109 51L15.6445 49.3867H13.4023L12.8359 51H12.0977L14.1758 45.3633H14.8711L16.9492 51H16.2109ZM14.5117 46.2188L13.6094 48.7891H15.4375L14.5352 46.2188H14.5117ZM20.7852 48.2695H20.1211C20.0234 47.8281 19.6797 47.4648 19.082 47.4648C18.3789 47.4648 17.9023 48.0469 17.9023 48.9688C17.9023 49.9141 18.3867 50.4727 19.0898 50.4727C19.6445 50.4727 20.0078 50.1797 20.125 49.6914H20.793C20.6875 50.5 20.0078 51.0703 19.0859 51.0703C17.9609 51.0703 17.2109 50.2773 17.2109 48.9688C17.2109 47.6875 17.957 46.8672 19.0781 46.8672C20.0938 46.8672 20.6992 47.5391 20.7852 48.2695ZM21.6367 45.957H22.3164V46.9375H23.1055V47.4961H22.3164V49.9102C22.3164 50.2812 22.4727 50.4492 22.8203 50.4492C22.8984 50.4492 23.0547 50.4375 23.1016 50.4297V51C23.0195 51.0195 22.832 51.0312 22.6719 51.0312C21.9258 51.0312 21.6367 50.7266 21.6367 49.9453V47.4961H21.0312V46.9375H21.6367V45.957ZM23.8672 51V46.9375H24.5469V51H23.8672ZM24.207 46.2539C23.9766 46.2539 23.7852 46.0625 23.7852 45.832C23.7852 45.5977 23.9766 45.4102 24.207 45.4102C24.4414 45.4102 24.6328 45.5977 24.6328 45.832C24.6328 46.0625 24.4414 46.2539 24.207 46.2539ZM27.1484 51.0703C26.0234 51.0703 25.2656 50.2617 25.2656 48.9688C25.2656 47.6719 26.0234 46.8672 27.1484 46.8672C28.2695 46.8672 29.0273 47.6719 29.0273 48.9688C29.0273 50.2617 28.2695 51.0703 27.1484 51.0703ZM27.1484 50.4727C27.8672 50.4727 28.3359 49.9258 28.3359 48.9688C28.3359 48.0117 27.8672 47.4648 27.1484 47.4648C26.4297 47.4648 25.957 48.0117 25.957 48.9688C25.957 49.9258 26.4297 50.4727 27.1484 50.4727ZM29.7148 51V46.9375H30.3555V47.5859H30.3711C30.5977 47.1484 31.0312 46.8672 31.6602 46.8672C32.5508 46.8672 33.0664 47.4414 33.0664 48.3633V51H32.3867V48.4844C32.3867 47.8281 32.0781 47.4688 31.4531 47.4688C30.8125 47.4688 30.3945 47.9219 30.3945 48.6094V51H29.7148ZM35.5742 51V46.9375H36.2148V47.6016H36.2305C36.3633 47.1523 36.7383 46.8672 37.2148 46.8672C37.332 46.8672 37.4336 46.8867 37.4883 46.8945V47.5547C37.4336 47.5352 37.2891 47.5156 37.125 47.5156C36.5977 47.5156 36.2539 47.8945 36.2539 48.4688V51H35.5742ZM39.3047 50.4922C39.9453 50.4922 40.4375 50.043 40.4375 49.457V49.125L39.3516 49.1914C38.8047 49.2266 38.4922 49.4688 38.4922 49.8516C38.4922 50.2383 38.8164 50.4922 39.3047 50.4922ZM39.1523 51.0703C38.3438 51.0703 37.8008 50.582 37.8008 49.8516C37.8008 49.1562 38.3359 48.7188 39.2734 48.6641L40.4375 48.5977V48.2578C40.4375 47.7617 40.1094 47.4648 39.5469 47.4648C39.0234 47.4648 38.6953 47.7109 38.6094 48.1094H37.9531C38 47.4062 38.6016 46.8672 39.5625 46.8672C40.5156 46.8672 41.1172 47.3828 41.1172 48.1914V51H40.4727V50.3008H40.457C40.2148 50.7656 39.6992 51.0703 39.1523 51.0703ZM41.9805 51V46.9375H42.6211V47.5859H42.6367C42.8633 47.1484 43.2969 46.8672 43.9258 46.8672C44.8164 46.8672 45.332 47.4414 45.332 48.3633V51H44.6523V48.4844C44.6523 47.8281 44.3438 47.4688 43.7188 47.4688C43.0781 47.4688 42.6602 47.9219 42.6602 48.6094V51H41.9805ZM47.8516 50.4336C48.5586 50.4336 49.0312 49.8477 49.0312 48.9531C49.0312 48.0586 48.5586 47.4648 47.8516 47.4648C47.1523 47.4648 46.6953 48.043 46.6953 48.9531C46.6953 49.8633 47.1523 50.4336 47.8516 50.4336ZM47.875 52.5312C46.9805 52.5312 46.2734 52.0273 46.1602 51.3359H46.8594C46.9922 51.707 47.3945 51.9531 47.9023 51.9531C48.6055 51.9531 49.0312 51.5469 49.0312 50.9414V50.3008H49.0156C48.7656 50.7422 48.2852 51.0312 47.7148 51.0312C46.6797 51.0312 46 50.2148 46 48.9531C46 47.6797 46.6797 46.8672 47.7305 46.8672C48.3047 46.8672 48.7812 47.1484 49.0508 47.6211H49.0625V46.9375H49.7109V50.918C49.7109 51.8867 48.9961 52.5312 47.875 52.5312ZM52.2266 47.457C51.5898 47.457 51.1445 47.9453 51.1016 48.6211H53.3086C53.293 47.9414 52.8672 47.457 52.2266 47.457ZM53.293 49.8359H53.9609C53.8438 50.5469 53.1562 51.0703 52.2695 51.0703C51.1055 51.0703 50.3984 50.2617 50.3984 48.9844C50.3984 47.7227 51.1172 46.8672 52.2383 46.8672C53.3359 46.8672 54.0117 47.6641 54.0117 48.8945V49.1523H51.0977V49.1914C51.0977 49.9688 51.5547 50.4805 52.2852 50.4805C52.8008 50.4805 53.1797 50.2188 53.293 49.8359ZM55.1641 52.1211H54.5977L54.9766 50.1328H55.6992L55.1641 52.1211ZM57.9805 51V46.9375H58.6211V47.5859H58.6367C58.8281 47.1562 59.2422 46.8672 59.7891 46.8672C60.3438 46.8672 60.7539 47.1484 60.9297 47.6406H60.9453C61.1719 47.1562 61.6484 46.8672 62.2188 46.8672C63.0234 46.8672 63.543 47.3906 63.543 48.1953V51H62.8633V48.3516C62.8633 47.7969 62.5547 47.4688 62.0195 47.4688C61.4805 47.4688 61.1016 47.8672 61.1016 48.418V51H60.4219V48.2773C60.4219 47.7891 60.0938 47.4688 59.5898 47.4688C59.0508 47.4688 58.6602 47.8906 58.6602 48.4531V51H57.9805ZM64.4102 51V46.9375H65.0508V47.5859H65.0664C65.2578 47.1562 65.6719 46.8672 66.2188 46.8672C66.7734 46.8672 67.1836 47.1484 67.3594 47.6406H67.375C67.6016 47.1562 68.0781 46.8672 68.6484 46.8672C69.4531 46.8672 69.9727 47.3906 69.9727 48.1953V51H69.293V48.3516C69.293 47.7969 68.9844 47.4688 68.4492 47.4688C67.9102 47.4688 67.5312 47.8672 67.5312 48.418V51H66.8516V48.2773C66.8516 47.7891 66.5234 47.4688 66.0195 47.4688C65.4805 47.4688 65.0898 47.8906 65.0898 48.4531V51H64.4102Z" fill="white"/>
<mask id="path-24-inside-8_302_827" fill="white">
<path d="M107.5 30H215V66H107.5V30Z"/>
</mask>
<path d="M107.5 30V29H106.5V30H107.5ZM107.5 31H215V29H107.5V31ZM108.5 66V30H106.5V66H108.5Z" fill="white" fill-opacity="0.2" mask="url(#path-24-inside-8_302_827)"/>
<path d="M154.207 52.1348C152.66 52.1348 151.477 51.1621 151.371 49.7969H152.156C152.268 50.7461 153.129 51.4258 154.219 51.4258C155.479 51.4258 156.375 50.5352 156.375 49.293C156.375 48.0566 155.479 47.1484 154.254 47.1484C153.398 47.1484 152.66 47.5527 152.268 48.2266H151.5L151.98 43.5449H156.668V44.2598H152.643L152.326 47.3828H152.35C152.76 46.8086 153.527 46.4512 154.383 46.4512C155.994 46.4512 157.178 47.6465 157.178 49.2754C157.178 50.9453 155.936 52.1348 154.207 52.1348ZM161.297 52.1348C160.16 52.1348 159.234 51.5605 158.713 50.5352C158.332 49.873 158.145 49.0117 158.145 47.9512C158.145 45.1152 159.352 43.4102 161.355 43.4102C162.762 43.4102 163.84 44.2598 164.08 45.5547H163.271C163.061 44.6934 162.293 44.1191 161.35 44.1191C159.803 44.1191 158.918 45.5605 158.918 48.0684H158.936C159.281 47.1191 160.283 46.4629 161.426 46.4629C163.031 46.4629 164.232 47.6582 164.232 49.2578C164.232 50.916 162.99 52.1348 161.297 52.1348ZM161.291 51.4199C162.48 51.4199 163.418 50.4766 163.418 49.2812C163.418 48.0684 162.521 47.1719 161.297 47.1719C160.09 47.1719 159.146 48.0742 159.146 49.2227C159.146 50.4531 160.078 51.4199 161.291 51.4199ZM168.258 52.1348C166.336 52.1348 165.193 50.4414 165.193 47.7695C165.193 45.1152 166.348 43.4102 168.258 43.4102C170.174 43.4102 171.316 45.1094 171.316 47.7637C171.316 50.4355 170.18 52.1348 168.258 52.1348ZM168.258 51.4316C169.688 51.4316 170.514 50.0078 170.514 47.7695C170.514 45.5488 169.676 44.1191 168.258 44.1191C166.846 44.1191 166.002 45.5605 166.002 47.7637C166.002 50.0078 166.828 51.4316 168.258 51.4316Z" fill="white"/>
<mask id="path-27-inside-9_302_827" fill="white">
<path d="M215 30H322.5V66H215V30Z"/>
</mask>
<path d="M215 30V29H214V30H215ZM215 31H322.5V29H215V31ZM216 66V30H214V66H216Z" fill="white" fill-opacity="0.2" mask="url(#path-27-inside-9_302_827)"/>
<path d="M261.631 52.1348C260.201 52.1348 259.135 51.2676 258.9 49.9902H259.715C259.92 50.834 260.658 51.4316 261.637 51.4316C263.154 51.4316 264.021 50.0254 264.062 47.6582C264.062 47.6055 264.057 47.5293 264.057 47.4648C264.051 47.4648 264.051 47.4648 264.051 47.4648C264.045 47.4648 264.045 47.4648 264.045 47.4648C263.723 48.4141 262.715 49.082 261.555 49.082C259.943 49.082 258.748 47.8926 258.748 46.3047C258.748 44.6348 259.984 43.4102 261.684 43.4102C262.826 43.4102 263.752 43.9902 264.268 45.0098C264.648 45.6719 264.836 46.5273 264.836 47.5938C264.836 50.4238 263.646 52.1348 261.631 52.1348ZM261.684 48.373C262.896 48.373 263.84 47.459 263.84 46.3223C263.84 45.0977 262.908 44.1309 261.689 44.1309C260.488 44.1309 259.557 45.0742 259.557 46.2812C259.557 47.4648 260.447 48.373 261.684 48.373ZM265.961 45.9121C265.973 44.4707 267.121 43.4102 268.668 43.4102C270.145 43.4102 271.299 44.4238 271.299 45.7188C271.299 46.6445 270.883 47.3418 269.477 48.8008L267.121 51.2617V51.2852H271.516V52H266.002V51.4375L268.99 48.2793C270.197 47.0078 270.502 46.5039 270.502 45.7656C270.502 44.8398 269.682 44.1133 268.645 44.1133C267.561 44.1133 266.746 44.8809 266.734 45.9121V45.918H265.961V45.9121ZM275.617 52.1348C273.695 52.1348 272.553 50.4414 272.553 47.7695C272.553 45.1152 273.707 43.4102 275.617 43.4102C277.533 43.4102 278.676 45.1094 278.676 47.7637C278.676 50.4355 277.539 52.1348 275.617 52.1348ZM275.617 51.4316C277.047 51.4316 277.873 50.0078 277.873 47.7695C277.873 45.5488 277.035 44.1191 275.617 44.1191C274.205 44.1191 273.361 45.5605 273.361 47.7637C273.361 50.0078 274.188 51.4316 275.617 51.4316Z" fill="white"/>
<mask id="path-30-inside-10_302_827" fill="white">
<path d="M322.5 30H430V66H322.5V30Z"/>
</mask>
<path d="M322.5 30V29H321.5V30H322.5ZM322.5 31H430V29H322.5V31ZM323.5 66V30H321.5V66H323.5Z" fill="white" fill-opacity="0.2" mask="url(#path-30-inside-10_302_827)"/>
<path d="M367.215 52L371.135 44.2832V44.2598H366.43V43.5449H371.938V44.2949L368.064 52H367.215ZM375.793 52.1348C373.871 52.1348 372.729 50.4414 372.729 47.7695C372.729 45.1152 373.883 43.4102 375.793 43.4102C377.709 43.4102 378.852 45.1094 378.852 47.7637C378.852 50.4355 377.715 52.1348 375.793 52.1348ZM375.793 51.4316C377.223 51.4316 378.049 50.0078 378.049 47.7695C378.049 45.5488 377.211 44.1191 375.793 44.1191C374.381 44.1191 373.537 45.5605 373.537 47.7637C373.537 50.0078 374.363 51.4316 375.793 51.4316ZM382.953 52.1348C381.031 52.1348 379.889 50.4414 379.889 47.7695C379.889 45.1152 381.043 43.4102 382.953 43.4102C384.869 43.4102 386.012 45.1094 386.012 47.7637C386.012 50.4355 384.875 52.1348 382.953 52.1348ZM382.953 51.4316C384.383 51.4316 385.209 50.0078 385.209 47.7695C385.209 45.5488 384.371 44.1191 382.953 44.1191C381.541 44.1191 380.697 45.5605 380.697 47.7637C380.697 50.0078 381.523 51.4316 382.953 51.4316Z" fill="white"/>
<mask id="path-33-inside-11_302_827" fill="white">
<path d="M430 30H537.5V66H430V30Z"/>
</mask>
<path d="M430 30V29H429V30H430ZM430 31H537.5V29H430V31ZM431 66V30H429V66H431Z" fill="white" fill-opacity="0.2" mask="url(#path-33-inside-11_302_827)"/>
<path d="M475.658 52V44.4062H475.635C475.447 44.5234 473.613 45.8125 473.367 45.9648V45.1094C473.602 44.9629 475.395 43.6973 475.646 43.5449H476.432V52H475.658ZM478.482 45.9121C478.494 44.4707 479.643 43.4102 481.189 43.4102C482.666 43.4102 483.82 44.4238 483.82 45.7188C483.82 46.6445 483.404 47.3418 481.998 48.8008L479.643 51.2617V51.2852H484.037V52H478.523V51.4375L481.512 48.2793C482.719 47.0078 483.023 46.5039 483.023 45.7656C483.023 44.8398 482.203 44.1133 481.166 44.1133C480.082 44.1133 479.268 44.8809 479.256 45.9121V45.918H478.482V45.9121ZM487.4 52V44.4062H487.377C487.189 44.5234 485.355 45.8125 485.109 45.9648V45.1094C485.344 44.9629 487.137 43.6973 487.389 43.5449H488.174V52H487.4ZM492.463 52V44.4062H492.439C492.252 44.5234 490.418 45.8125 490.172 45.9648V45.1094C490.406 44.9629 492.199 43.6973 492.451 43.5449H493.236V52H492.463Z" fill="white"/>
<mask id="path-36-inside-12_302_827" fill="white">
<path d="M537.5 30H645V66H537.5V30Z"/>
</mask>
<path d="M537.5 30V29H536.5V30H537.5ZM537.5 31H645V29H537.5V31ZM538.5 66V30H536.5V66H538.5Z" fill="white" fill-opacity="0.2" mask="url(#path-36-inside-12_302_827)"/>
<path d="M584.318 52.1348C582.889 52.1348 581.822 51.2676 581.588 49.9902H582.402C582.607 50.834 583.346 51.4316 584.324 51.4316C585.842 51.4316 586.709 50.0254 586.75 47.6582C586.75 47.6055 586.744 47.5293 586.744 47.4648C586.738 47.4648 586.738 47.4648 586.738 47.4648C586.732 47.4648 586.732 47.4648 586.732 47.4648C586.41 48.4141 585.402 49.082 584.242 49.082C582.631 49.082 581.436 47.8926 581.436 46.3047C581.436 44.6348 582.672 43.4102 584.371 43.4102C585.514 43.4102 586.439 43.9902 586.955 45.0098C587.336 45.6719 587.523 46.5273 587.523 47.5938C587.523 50.4238 586.334 52.1348 584.318 52.1348ZM584.371 48.373C585.584 48.373 586.527 47.459 586.527 46.3223C586.527 45.0977 585.596 44.1309 584.377 44.1309C583.176 44.1309 582.244 45.0742 582.244 46.2812C582.244 47.4648 583.135 48.373 584.371 48.373ZM592.785 52V50.0898H588.496V49.3574C589.416 47.8105 590.523 46.1523 592.393 43.5332H593.564V49.3809H594.824V50.0898H593.564V52H592.785ZM589.305 49.3574V49.3809H592.785V44.2363H592.773C591.215 46.3926 590.148 47.9863 589.305 49.3574ZM596.277 52L600.197 44.2832V44.2598H595.492V43.5449H601V44.2949L597.127 52H596.277Z" fill="white"/>
</g>
<g clip-path="url(#clip3_302_827)">
<rect width="645" height="36" transform="translate(0 66)" fill="#86A2FF" fill-opacity="0.2"/>
<mask id="path-39-inside-13_302_827" fill="white">
<path d="M0 66H107.5V102H0V66Z"/>
</mask>
<path d="M0 66V65H-1V66H0ZM0 67H107.5V65H0V67ZM1 102V66H-1V102H1Z" fill="white" fill-opacity="0.2" mask="url(#path-39-inside-13_302_827)"/>
<path d="M12.5469 81.3633H14.5586C15.6172 81.3633 16.3633 82.1055 16.3633 83.1719C16.3633 84.2422 15.6094 84.9883 14.5508 84.9883H13.25V87H12.5469V81.3633ZM13.25 81.9883V84.3633H14.375C15.1797 84.3633 15.6406 83.9219 15.6406 83.1719C15.6406 82.4258 15.1836 81.9883 14.375 81.9883H13.25ZM18.0547 86.4922C18.6953 86.4922 19.1875 86.043 19.1875 85.457V85.125L18.1016 85.1914C17.5547 85.2266 17.2422 85.4688 17.2422 85.8516C17.2422 86.2383 17.5664 86.4922 18.0547 86.4922ZM17.9023 87.0703C17.0938 87.0703 16.5508 86.582 16.5508 85.8516C16.5508 85.1562 17.0859 84.7188 18.0234 84.6641L19.1875 84.5977V84.2578C19.1875 83.7617 18.8594 83.4648 18.2969 83.4648C17.7734 83.4648 17.4453 83.7109 17.3594 84.1094H16.7031C16.75 83.4062 17.3516 82.8672 18.3125 82.8672C19.2656 82.8672 19.8672 83.3828 19.8672 84.1914V87H19.2227V86.3008H19.207C18.9648 86.7656 18.4492 87.0703 17.9023 87.0703ZM21.0664 88.5195C20.9844 88.5195 20.8477 88.5117 20.7734 88.4961V87.9258C20.8477 87.9414 20.9531 87.9453 21.0391 87.9453C21.418 87.9453 21.6289 87.7617 21.7852 87.2891L21.8789 87.0039L20.3789 82.9375H21.1055L22.2305 86.3203H22.2422L23.3672 82.9375H24.082L22.4844 87.2852C22.1367 88.2344 21.8008 88.5195 21.0664 88.5195ZM24.6562 87V81.3633H25.3359V87H24.6562ZM27.9375 87.0703C26.8125 87.0703 26.0547 86.2617 26.0547 84.9688C26.0547 83.6719 26.8125 82.8672 27.9375 82.8672C29.0586 82.8672 29.8164 83.6719 29.8164 84.9688C29.8164 86.2617 29.0586 87.0703 27.9375 87.0703ZM27.9375 86.4727C28.6562 86.4727 29.125 85.9258 29.125 84.9688C29.125 84.0117 28.6562 83.4648 27.9375 83.4648C27.2188 83.4648 26.7461 84.0117 26.7461 84.9688C26.7461 85.9258 27.2188 86.4727 27.9375 86.4727ZM31.8438 86.4922C32.4844 86.4922 32.9766 86.043 32.9766 85.457V85.125L31.8906 85.1914C31.3438 85.2266 31.0312 85.4688 31.0312 85.8516C31.0312 86.2383 31.3555 86.4922 31.8438 86.4922ZM31.6914 87.0703C30.8828 87.0703 30.3398 86.582 30.3398 85.8516C30.3398 85.1562 30.875 84.7188 31.8125 84.6641L32.9766 84.5977V84.2578C32.9766 83.7617 32.6484 83.4648 32.0859 83.4648C31.5625 83.4648 31.2344 83.7109 31.1484 84.1094H30.4922C30.5391 83.4062 31.1406 82.8672 32.1016 82.8672C33.0547 82.8672 33.6562 83.3828 33.6562 84.1914V87H33.0117V86.3008H32.9961C32.7539 86.7656 32.2383 87.0703 31.6914 87.0703ZM36.0586 87.0703C35.0234 87.0703 34.3203 86.2422 34.3203 84.9688C34.3203 83.6953 35.0195 82.8672 36.043 82.8672C36.625 82.8672 37.0938 83.1523 37.3359 83.5977H37.3516V81.3633H38.0312V87H37.3828V86.3125H37.3711C37.1094 86.7812 36.6445 87.0703 36.0586 87.0703ZM36.1875 83.4648C35.4688 83.4648 35.0156 84.0508 35.0156 84.9688C35.0156 85.8906 35.4688 86.4727 36.1875 86.4727C36.8867 86.4727 37.3555 85.8789 37.3555 84.9688C37.3555 84.0625 36.8867 83.4648 36.1875 83.4648ZM39.4141 88.1211H38.8477L39.2266 86.1328H39.9492L39.4141 88.1211ZM42.9453 84.7422L44.7422 82.9375H45.5664L43.8047 84.6914L45.6211 87H44.832L43.3242 85.1094L42.9453 85.4688V87H42.2656V81.3633H42.9453V84.7422ZM47.5703 86.4336C48.2773 86.4336 48.75 85.8477 48.75 84.9531C48.75 84.0586 48.2773 83.4648 47.5703 83.4648C46.8711 83.4648 46.4141 84.043 46.4141 84.9531C46.4141 85.8633 46.8711 86.4336 47.5703 86.4336ZM47.5938 88.5312C46.6992 88.5312 45.9922 88.0273 45.8789 87.3359H46.5781C46.7109 87.707 47.1133 87.9531 47.6211 87.9531C48.3242 87.9531 48.75 87.5469 48.75 86.9414V86.3008H48.7344C48.4844 86.7422 48.0039 87.0312 47.4336 87.0312C46.3984 87.0312 45.7188 86.2148 45.7188 84.9531C45.7188 83.6797 46.3984 82.8672 47.4492 82.8672C48.0234 82.8672 48.5 83.1484 48.7695 83.6211H48.7812V82.9375H49.4297V86.918C49.4297 87.8867 48.7148 88.5312 47.5938 88.5312Z" fill="white"/>
<mask id="path-42-inside-14_302_827" fill="white">
<path d="M107.5 66H215V102H107.5V66Z"/>
</mask>
<path d="M107.5 66V65H106.5V66H107.5ZM107.5 67H215V65H107.5V67ZM108.5 102V66H106.5V102H108.5Z" fill="white" fill-opacity="0.2" mask="url(#path-42-inside-14_302_827)"/>
<path d="M162.422 88V86.0898H158.133V85.3574C159.053 83.8105 160.16 82.1523 162.029 79.5332H163.201V85.3809H164.461V86.0898H163.201V88H162.422ZM158.941 85.3574V85.3809H162.422V80.2363H162.41C160.852 82.3926 159.785 83.9863 158.941 85.3574Z" fill="white"/>
<mask id="path-45-inside-15_302_827" fill="white">
<path d="M215 66H322.5V102H215V66Z"/>
</mask>
<path d="M215 66V65H214V66H215ZM215 67H322.5V65H215V67ZM216 102V66H214V102H216Z" fill="white" fill-opacity="0.2" mask="url(#path-45-inside-15_302_827)"/>
<path d="M266.758 88L270.678 80.2832V80.2598H265.973V79.5449H271.48V80.2949L267.607 88H266.758Z" fill="white"/>
<mask id="path-48-inside-16_302_827" fill="white">
<path d="M322.5 66H430V102H322.5V66Z"/>
</mask>
<path d="M322.5 66V65H321.5V66H322.5ZM322.5 67H430V65H322.5V67ZM323.5 102V66H321.5V102H323.5Z" fill="white" fill-opacity="0.2" mask="url(#path-48-inside-16_302_827)"/>
<path d="M376.244 88.1348C374.469 88.1348 373.232 87.1152 373.232 85.7031C373.232 84.6367 373.994 83.7695 375.119 83.5293V83.5117C374.164 83.248 373.555 82.5273 373.555 81.6191C373.555 80.3418 374.686 79.4102 376.244 79.4102C377.809 79.4102 378.928 80.3418 378.928 81.6191C378.928 82.5156 378.318 83.2363 377.369 83.5117V83.5293C378.494 83.7695 379.256 84.6426 379.256 85.7031C379.256 87.1211 378.025 88.1348 376.244 88.1348ZM376.244 87.4316C377.551 87.4316 378.441 86.6758 378.441 85.6562C378.441 84.6426 377.545 83.9219 376.244 83.9219C374.949 83.9219 374.047 84.6426 374.047 85.6562C374.047 86.6758 374.938 87.4316 376.244 87.4316ZM376.244 83.207C377.346 83.207 378.131 82.5742 378.131 81.6836C378.131 80.7754 377.375 80.1074 376.244 80.1074C375.119 80.1074 374.352 80.7754 374.352 81.6836C374.352 82.5742 375.137 83.207 376.244 83.207Z" fill="white"/>
<mask id="path-51-inside-17_302_827" fill="white">
<path d="M430 66H537.5V102H430V66Z"/>
</mask>
<path d="M430 66V65H429V66H430ZM430 67H537.5V65H430V67ZM431 102V66H429V102H431Z" fill="white" fill-opacity="0.2" mask="url(#path-51-inside-17_302_827)"/>
<path d="M480.492 88V80.4062H480.469C480.281 80.5234 478.447 81.8125 478.201 81.9648V81.1094C478.436 80.9629 480.229 79.6973 480.48 79.5449H481.266V88H480.492ZM486.27 88.1348C484.348 88.1348 483.205 86.4414 483.205 83.7695C483.205 81.1152 484.359 79.4102 486.27 79.4102C488.186 79.4102 489.328 81.1094 489.328 83.7637C489.328 86.4355 488.191 88.1348 486.27 88.1348ZM486.27 87.4316C487.699 87.4316 488.525 86.0078 488.525 83.7695C488.525 81.5488 487.688 80.1191 486.27 80.1191C484.857 80.1191 484.014 81.5605 484.014 83.7637C484.014 86.0078 484.84 87.4316 486.27 87.4316Z" fill="white"/>
<mask id="path-54-inside-18_302_827" fill="white">
<path d="M537.5 66H645V102H537.5V66Z"/>
</mask>
<path d="M537.5 66V65H536.5V66H537.5ZM537.5 67H645V65H537.5V67ZM538.5 102V66H536.5V102H538.5Z" fill="white" fill-opacity="0.2" mask="url(#path-54-inside-18_302_827)"/>
<path d="M588.121 88V80.4062H588.098C587.91 80.5234 586.076 81.8125 585.83 81.9648V81.1094C586.064 80.9629 587.857 79.6973 588.109 79.5449H588.895V88H588.121ZM593.816 88.1348C592.27 88.1348 591.086 87.1621 590.98 85.7969H591.766C591.877 86.7461 592.738 87.4258 593.828 87.4258C595.088 87.4258 595.984 86.5352 595.984 85.293C595.984 84.0566 595.088 83.1484 593.863 83.1484C593.008 83.1484 592.27 83.5527 591.877 84.2266H591.109L591.59 79.5449H596.277V80.2598H592.252L591.936 83.3828H591.959C592.369 82.8086 593.137 82.4512 593.992 82.4512C595.604 82.4512 596.787 83.6465 596.787 85.2754C596.787 86.9453 595.545 88.1348 593.816 88.1348Z" fill="white"/>
</g>
<g clip-path="url(#clip4_302_827)">
<rect width="645" height="36" transform="translate(0 102)" fill="#86A2FF" fill-opacity="0.2"/>
<mask id="path-57-inside-19_302_827" fill="white">
<path d="M0 102H107.5V138H0V102Z"/>
</mask>
<path d="M0 102V101H-1V102H0ZM0 103H107.5V101H0V103ZM1 138V102H-1V138H1Z" fill="white" fill-opacity="0.2" mask="url(#path-57-inside-19_302_827)"/>
<path d="M13.2422 123H12.5469V117.363H13.2305L16.3164 121.789H16.3516V117.363H17.0469V123H16.3633L13.2773 118.59H13.2422V123ZM21.3711 118.938V123H20.7266V122.34H20.7109C20.4688 122.809 20.0469 123.07 19.4219 123.07C18.5352 123.07 18.0156 122.496 18.0156 121.574V118.938H18.6953V121.453C18.6953 122.113 19.0039 122.469 19.6328 122.469C20.293 122.469 20.6914 122.016 20.6914 121.324V118.938H21.3711ZM22.2539 123V118.938H22.8945V119.586H22.9102C23.1016 119.156 23.5156 118.867 24.0625 118.867C24.6172 118.867 25.0273 119.148 25.2031 119.641H25.2188C25.4453 119.156 25.9219 118.867 26.4922 118.867C27.2969 118.867 27.8164 119.391 27.8164 120.195V123H27.1367V120.352C27.1367 119.797 26.8281 119.469 26.293 119.469C25.7539 119.469 25.375 119.867 25.375 120.418V123H24.6953V120.277C24.6953 119.789 24.3672 119.469 23.8633 119.469C23.3242 119.469 22.9336 119.891 22.9336 120.453V123H22.2539ZM30.7031 123.07C30.1094 123.07 29.6445 122.781 29.3828 122.312H29.3672V123H28.7188V117.363H29.3984V119.617H29.4141C29.668 119.152 30.1406 118.867 30.7148 118.867C31.7383 118.867 32.4297 119.695 32.4297 120.969C32.4297 122.246 31.7422 123.07 30.7031 123.07ZM30.5703 119.465C29.8828 119.465 29.3945 120.066 29.3945 120.969C29.3945 121.875 29.8828 122.473 30.5703 122.473C31.2891 122.473 31.7344 121.898 31.7344 120.969C31.7344 120.047 31.2891 119.465 30.5703 119.465ZM34.75 119.457C34.1133 119.457 33.668 119.945 33.625 120.621H35.832C35.8164 119.941 35.3906 119.457 34.75 119.457ZM35.8164 121.836H36.4844C36.3672 122.547 35.6797 123.07 34.793 123.07C33.6289 123.07 32.9219 122.262 32.9219 120.984C32.9219 119.723 33.6406 118.867 34.7617 118.867C35.8594 118.867 36.5352 119.664 36.5352 120.895V121.152H33.6211V121.191C33.6211 121.969 34.0781 122.48 34.8086 122.48C35.3242 122.48 35.7031 122.219 35.8164 121.836ZM37.2227 123V118.938H37.8633V119.602H37.8789C38.0117 119.152 38.3867 118.867 38.8633 118.867C38.9805 118.867 39.082 118.887 39.1367 118.895V119.555C39.082 119.535 38.9375 119.516 38.7734 119.516C38.2461 119.516 37.9023 119.895 37.9023 120.469V123H37.2227ZM43.0156 123.07C41.8906 123.07 41.1328 122.262 41.1328 120.969C41.1328 119.672 41.8906 118.867 43.0156 118.867C44.1367 118.867 44.8945 119.672 44.8945 120.969C44.8945 122.262 44.1367 123.07 43.0156 123.07ZM43.0156 122.473C43.7344 122.473 44.2031 121.926 44.2031 120.969C44.2031 120.012 43.7344 119.465 43.0156 119.465C42.2969 119.465 41.8242 120.012 41.8242 120.969C41.8242 121.926 42.2969 122.473 43.0156 122.473ZM45.8008 123V119.496H45.2344V118.938H45.8008V118.484C45.8008 117.703 46.1641 117.332 46.9141 117.332C47.0664 117.332 47.2305 117.348 47.3281 117.363V117.914C47.2461 117.902 47.1328 117.891 47.0195 117.891C46.6523 117.891 46.4766 118.086 46.4766 118.488V118.938H47.3086V119.496H46.4805V123H45.8008ZM50.9922 122.492C51.6328 122.492 52.125 122.043 52.125 121.457V121.125L51.0391 121.191C50.4922 121.227 50.1797 121.469 50.1797 121.852C50.1797 122.238 50.5039 122.492 50.9922 122.492ZM50.8398 123.07C50.0312 123.07 49.4883 122.582 49.4883 121.852C49.4883 121.156 50.0234 120.719 50.9609 120.664L52.125 120.598V120.258C52.125 119.762 51.7969 119.465 51.2344 119.465C50.7109 119.465 50.3828 119.711 50.2969 120.109H49.6406C49.6875 119.406 50.2891 118.867 51.25 118.867C52.2031 118.867 52.8047 119.383 52.8047 120.191V123H52.1602V122.301H52.1445C51.9023 122.766 51.3867 123.07 50.8398 123.07ZM55.1055 121.453H55.0898L54.1094 123H53.3555L54.7383 120.969L53.3789 118.938H54.1367L55.1133 120.461H55.1289L56.0938 118.938H56.8516L55.4805 120.941L56.832 123H56.0781L55.1055 121.453ZM58.9766 119.457C58.3398 119.457 57.8945 119.945 57.8516 120.621H60.0586C60.043 119.941 59.6172 119.457 58.9766 119.457ZM60.043 121.836H60.7109C60.5938 122.547 59.9062 123.07 59.0195 123.07C57.8555 123.07 57.1484 122.262 57.1484 120.984C57.1484 119.723 57.8672 118.867 58.9883 118.867C60.0859 118.867 60.7617 119.664 60.7617 120.895V121.152H57.8477V121.191C57.8477 121.969 58.3047 122.48 59.0352 122.48C59.5508 122.48 59.9297 122.219 60.043 121.836ZM61.3789 120.059C61.3789 119.363 62 118.867 62.8945 118.867C63.7344 118.867 64.3516 119.367 64.3828 120.055H63.7344C63.6875 119.664 63.3711 119.422 62.8711 119.422C62.375 119.422 62.0469 119.668 62.0469 120.023C62.0469 120.305 62.2617 120.492 62.7227 120.609L63.3516 120.762C64.1719 120.969 64.4688 121.266 64.4688 121.863C64.4688 122.57 63.8008 123.07 62.8516 123.07C61.9609 123.07 61.3398 122.586 61.2695 121.867H61.9492C62.0234 122.289 62.3438 122.516 62.8945 122.516C63.4453 122.516 63.7852 122.281 63.7852 121.914C63.7852 121.625 63.6172 121.469 63.1602 121.348L62.4453 121.164C61.7305 120.98 61.3789 120.613 61.3789 120.059Z" fill="white"/>
<mask id="path-60-inside-20_302_827" fill="white">
<path d="M107.5 102H215V138H107.5V102Z"/>
</mask>
<path d="M107.5 102V101H106.5V102H107.5ZM107.5 103H215V101H107.5V103ZM108.5 138V102H106.5V138H108.5Z" fill="white" fill-opacity="0.2" mask="url(#path-60-inside-20_302_827)"/>
<path d="M161.402 124.135C160.266 124.135 159.34 123.561 158.818 122.535C158.438 121.873 158.25 121.012 158.25 119.951C158.25 117.115 159.457 115.41 161.461 115.41C162.867 115.41 163.945 116.26 164.186 117.555H163.377C163.166 116.693 162.398 116.119 161.455 116.119C159.908 116.119 159.023 117.561 159.023 120.068H159.041C159.387 119.119 160.389 118.463 161.531 118.463C163.137 118.463 164.338 119.658 164.338 121.258C164.338 122.916 163.096 124.135 161.402 124.135ZM161.396 123.42C162.586 123.42 163.523 122.477 163.523 121.281C163.523 120.068 162.627 119.172 161.402 119.172C160.195 119.172 159.252 120.074 159.252 121.223C159.252 122.453 160.184 123.42 161.396 123.42Z" fill="white"/>
<mask id="path-63-inside-21_302_827" fill="white">
<path d="M215 102H322.5V138H215V102Z"/>
</mask>
<path d="M215 102V101H214V102H215ZM215 103H322.5V101H215V103ZM216 138V102H214V138H216Z" fill="white" fill-opacity="0.2" mask="url(#path-63-inside-21_302_827)"/>
<path d="M268.902 124.135C267.766 124.135 266.84 123.561 266.318 122.535C265.938 121.873 265.75 121.012 265.75 119.951C265.75 117.115 266.957 115.41 268.961 115.41C270.367 115.41 271.445 116.26 271.686 117.555H270.877C270.666 116.693 269.898 116.119 268.955 116.119C267.408 116.119 266.523 117.561 266.523 120.068H266.541C266.887 119.119 267.889 118.463 269.031 118.463C270.637 118.463 271.838 119.658 271.838 121.258C271.838 122.916 270.596 124.135 268.902 124.135ZM268.896 123.42C270.086 123.42 271.023 122.477 271.023 121.281C271.023 120.068 270.127 119.172 268.902 119.172C267.695 119.172 266.752 120.074 266.752 121.223C266.752 122.453 267.684 123.42 268.896 123.42Z" fill="white"/>
<mask id="path-66-inside-22_302_827" fill="white">
<path d="M322.5 102H430V138H322.5V102Z"/>
</mask>
<path d="M322.5 102V101H321.5V102H322.5ZM322.5 103H430V101H322.5V103ZM323.5 138V102H321.5V138H323.5Z" fill="white" fill-opacity="0.2" mask="url(#path-66-inside-22_302_827)"/>
<path d="M376.402 124.135C375.266 124.135 374.34 123.561 373.818 122.535C373.438 121.873 373.25 121.012 373.25 119.951C373.25 117.115 374.457 115.41 376.461 115.41C377.867 115.41 378.945 116.26 379.186 117.555H378.377C378.166 116.693 377.398 116.119 376.455 116.119C374.908 116.119 374.023 117.561 374.023 120.068H374.041C374.387 119.119 375.389 118.463 376.531 118.463C378.137 118.463 379.338 119.658 379.338 121.258C379.338 122.916 378.096 124.135 376.402 124.135ZM376.396 123.42C377.586 123.42 378.523 122.477 378.523 121.281C378.523 120.068 377.627 119.172 376.402 119.172C375.195 119.172 374.252 120.074 374.252 121.223C374.252 122.453 375.184 123.42 376.396 123.42Z" fill="white"/>
<mask id="path-69-inside-23_302_827" fill="white">
<path d="M430 102H537.5V138H430V102Z"/>
</mask>
<path d="M430 102V101H429V102H430ZM430 103H537.5V101H430V103ZM431 138V102H429V138H431Z" fill="white" fill-opacity="0.2" mask="url(#path-69-inside-23_302_827)"/>
<path d="M483.902 124.135C482.766 124.135 481.84 123.561 481.318 122.535C480.938 121.873 480.75 121.012 480.75 119.951C480.75 117.115 481.957 115.41 483.961 115.41C485.367 115.41 486.445 116.26 486.686 117.555H485.877C485.666 116.693 484.898 116.119 483.955 116.119C482.408 116.119 481.523 117.561 481.523 120.068H481.541C481.887 119.119 482.889 118.463 484.031 118.463C485.637 118.463 486.838 119.658 486.838 121.258C486.838 122.916 485.596 124.135 483.902 124.135ZM483.896 123.42C485.086 123.42 486.023 122.477 486.023 121.281C486.023 120.068 485.127 119.172 483.902 119.172C482.695 119.172 481.752 120.074 481.752 121.223C481.752 122.453 482.684 123.42 483.896 123.42Z" fill="white"/>
<mask id="path-72-inside-24_302_827" fill="white">
<path d="M537.5 102H645V138H537.5V102Z"/>
</mask>
<path d="M537.5 102V101H536.5V102H537.5ZM537.5 103H645V101H537.5V103ZM538.5 138V102H536.5V138H538.5Z" fill="white" fill-opacity="0.2" mask="url(#path-72-inside-24_302_827)"/>
<path d="M591.402 124.135C590.266 124.135 589.34 123.561 588.818 122.535C588.438 121.873 588.25 121.012 588.25 119.951C588.25 117.115 589.457 115.41 591.461 115.41C592.867 115.41 593.945 116.26 594.186 117.555H593.377C593.166 116.693 592.398 116.119 591.455 116.119C589.908 116.119 589.023 117.561 589.023 120.068H589.041C589.387 119.119 590.389 118.463 591.531 118.463C593.137 118.463 594.338 119.658 594.338 121.258C594.338 122.916 593.096 124.135 591.402 124.135ZM591.396 123.42C592.586 123.42 593.523 122.477 593.523 121.281C593.523 120.068 592.627 119.172 591.402 119.172C590.195 119.172 589.252 120.074 589.252 121.223C589.252 122.453 590.184 123.42 591.396 123.42Z" fill="white"/>
</g>
</g>
<rect x="0.5" y="0.5" width="644" height="137" rx="3.5" stroke="white" stroke-opacity="0.2"/>
<defs>
<clipPath id="clip0_302_827">
<rect width="645" height="138" rx="4" fill="white"/>
</clipPath>
<clipPath id="clip1_302_827">
<rect width="645" height="30" fill="white"/>
</clipPath>
<clipPath id="clip2_302_827">
<rect width="645" height="36" fill="white" transform="translate(0 30)"/>
</clipPath>
<clipPath id="clip3_302_827">
<rect width="645" height="36" fill="white" transform="translate(0 66)"/>
</clipPath>
<clipPath id="clip4_302_827">
<rect width="645" height="36" fill="white" transform="translate(0 102)"/>
</clipPath>
</defs>
</svg>
